<svg width="800" height="800" viewBox="0 0 800 800" fill="none" xmlns="http://www.w3.org/2000/svg">
<g clip-path="url(#clip0_323_133)">
<path fill-rule="evenodd" clip-rule="evenodd" d="M590.005 329.965L577.126 423.972H422.438V752.997H328.431V423.972H187.42V329.965H328.431V243.807C328.431 124.278 401.85 47.0033 515.551 47.0033C564.247 47.0033 594.611 49.5887 612.144 51.9387L610.781 140.964L538.489 141.105C536.515 140.917 489.418 137.25 455.434 168.461C433.531 188.531 422.438 217.391 422.438 254.148V329.965H590.005V329.965ZM486.974 203.29C505.493 186.04 534.353 187.92 536.468 188.014L657.079 187.967L659.664 14.0071L641.521 9.54167C629.864 6.675 594.189 0 515.551 0C375.528 0 281.427 98.0025 281.427 243.807V282.961H140.417V470.975H281.427V800H469.441V470.975H618.066L643.871 282.961H469.442V254.148C469.442 231.258 475.364 214.148 486.974 203.29Z" fill="white"/>
</g>
<defs>
<clipPath id="clip0_323_133">
<rect width="800" height="800" fill="white"/>
</clipPath>
</defs>
</svg>
