<svg width="1024" height="1024" viewBox="0 0 1024 1024" fill="none" xmlns="http://www.w3.org/2000/svg">
<g clip-path="url(#clip0_95_81)">
<rect width="1024" height="1024" rx="200" fill="url(#paint0_linear_95_81)"/>
<mask id="mask0_95_81" style="mask-type:luminance" maskUnits="userSpaceOnUse" x="177" y="76" width="486" height="564">
<path d="M177.333 76H662.667V640H177.333V76Z" fill="white"/>
</mask>
<g mask="url(#mask0_95_81)">
<mask id="mask1_95_81" style="mask-type:luminance" maskUnits="userSpaceOnUse" x="-1" y="15" width="1026" height="995">
<path d="M220.135 15.0052L1024.22 247.401L804.042 1009.22L-0.046875 776.823L220.135 15.0052Z" fill="white"/>
</mask>
<g mask="url(#mask1_95_81)">
<mask id="mask2_95_81" style="mask-type:luminance" maskUnits="userSpaceOnUse" x="-1" y="15" width="1026" height="995">
<path d="M220.135 15.0052L1024.22 247.401L804.042 1009.22L-0.046875 776.823L220.135 15.0052Z" fill="white"/>
</mask>
<g mask="url(#mask2_95_81)">
<path d="M245.099 380.401C196.88 474.016 248.323 558.656 257.38 567.865C254.781 590.417 253.536 613.047 253.646 635.75C415.13 656.979 571.547 588.625 614.146 560.615C623.745 554.391 632.781 547.443 641.26 539.771C617.125 543.927 592.875 544.781 568.505 542.333C564.547 540.37 560.443 538.787 556.193 537.578C547.349 513.359 517.88 494.203 517.88 494.203C517.49 493.729 517.156 493.224 516.88 492.682C516.599 492.135 516.385 491.568 516.229 490.979C516.073 490.391 515.979 489.787 515.953 489.177C515.932 488.568 515.969 487.964 516.078 487.359C516.182 486.76 516.354 486.177 516.583 485.609C516.818 485.047 517.109 484.51 517.458 484.01C517.802 483.51 518.203 483.052 518.651 482.635C519.099 482.219 519.583 481.859 520.115 481.547C544.729 495.87 547.734 515.896 567.906 517.063C577.906 517.682 595.667 501.037 600.245 492.797C606.745 480.99 605.521 478.287 609.339 476.151C615.198 472.948 623.521 476.162 625.531 468.146C627.536 460.13 628.755 425.906 635.266 416.99C641.771 408.078 684.078 347.063 648.26 294C617.536 248.5 573.839 245.505 558.63 246.776C523.891 249.458 483.625 276.99 475.49 332.615C472.135 355.427 453.896 364.109 441.885 362.99C400.047 271.255 373.573 269.349 346.177 259.698C336.448 233.333 321.474 212.854 291.813 204.51C357.813 188.354 356.25 139.755 411.193 118.51C440.708 150.708 457.932 152.875 466.583 157.88C463.578 169.885 470.453 185.984 475.948 188.573C481.448 191.167 509.313 185.573 512.432 180.651C515.552 175.734 526.151 136.125 511.964 116.255C496.182 106.031 434.766 78.297 418.917 76.448C356.063 87.698 298.568 97.3699 269.854 111.083C250.177 120.469 243.703 130.198 238.255 133.443C232.807 136.688 218.573 137.781 206.776 147.787C186.193 165.656 168.802 199.141 184.766 233.943C190.594 258.87 166.302 305.969 245.099 380.401Z" fill="white"/>
</g>
</g>
</g>
<mask id="mask3_95_81" style="mask-type:luminance" maskUnits="userSpaceOnUse" x="200" y="576" width="695" height="304">
<path d="M200 576H894.667V880H200V576Z" fill="white"/>
</mask>
<g mask="url(#mask3_95_81)">
<mask id="mask4_95_81" style="mask-type:luminance" maskUnits="userSpaceOnUse" x="-1" y="15" width="1026" height="995">
<path d="M220.135 15.0051L1024.22 247.401L804.042 1009.22L-0.046875 776.823L220.135 15.0051Z" fill="white"/>
</mask>
<g mask="url(#mask4_95_81)">
<mask id="mask5_95_81" style="mask-type:luminance" maskUnits="userSpaceOnUse" x="-1" y="15" width="1026" height="995">
<path d="M220.135 15.0051L1024.22 247.401L804.042 1009.22L-0.046875 776.823L220.135 15.0051Z" fill="white"/>
</mask>
<g mask="url(#mask5_95_81)">
<path d="M869.333 576.698C858.203 572.786 804.297 588.312 814.312 611.411C810.661 620.838 809.297 631.432 826.849 637.932C831.651 646.417 835.323 655.37 837.865 664.781C796.516 687.797 782.12 700.521 777.115 709.172C737.844 711.661 701.708 735.719 694.349 739.568C703.354 708.401 672.354 672.807 653.213 667.271C602.338 694.974 535.474 716.24 467.932 731.182C377.979 751.094 290.802 754.885 222.917 741.937C214.979 740.453 207.396 738.682 200.13 736.74C222.901 751.958 246.833 765.057 271.927 776.031C272 776.463 272.094 776.891 272.213 777.307C260.052 799.266 249.026 821.776 239.125 844.844C331.911 865.953 443.427 867.193 494.422 856.682C503.193 834.432 510.01 811.604 514.875 788.193C559.083 824.099 605.505 842.76 626.297 847.38C657.687 866.552 681.599 878.781 692.057 879.417C710.406 874.078 714.63 868.016 725.104 860.708C791.885 837.609 819.219 781.172 836.911 748.234C854.604 715.302 880.37 699.12 887.948 687.698C904.312 663.094 879.24 580.177 869.333 576.698Z" fill="white"/>
</g>
</g>
</g>
<mask id="mask6_95_81" style="mask-type:luminance" maskUnits="userSpaceOnUse" x="65" y="418" width="754" height="304">
<path d="M65.3333 418.667H818.667V721.333H65.3333V418.667Z" fill="white"/>
</mask>
<g mask="url(#mask6_95_81)">
<mask id="mask7_95_81" style="mask-type:luminance" maskUnits="userSpaceOnUse" x="-1" y="15" width="1026" height="995">
<path d="M220.135 15.0051L1024.22 247.401L804.042 1009.22L-0.046875 776.823L220.135 15.0051Z" fill="white"/>
</mask>
<g mask="url(#mask7_95_81)">
<mask id="mask8_95_81" style="mask-type:luminance" maskUnits="userSpaceOnUse" x="-1" y="15" width="1026" height="995">
<path d="M220.135 15.0051L1024.22 247.401L804.042 1009.22L-0.046875 776.823L220.135 15.0051Z" fill="white"/>
</mask>
<g mask="url(#mask8_95_81)">
<path d="M817.609 515.297C812.104 471.531 760.984 437.906 683.75 419.557C721.042 434.187 744.328 454.99 747.5 480.036C755.583 545.437 623.208 615.964 451.453 637.333C279.703 658.698 134.005 623.531 125.823 557.943C122.688 532.906 140.208 507.094 172.641 483.583C102.297 520.615 61.099 565.797 66.573 609.552C77.1147 693.125 253.698 739.729 461.083 713.667C668.464 687.604 828.042 598.995 817.609 515.297Z" fill="white"/>
</g>
</g>
</g>
</g>
<defs>
<linearGradient id="paint0_linear_95_81" x1="0" y1="0" x2="962" y2="948" gradientUnits="userSpaceOnUse">
<stop stop-color="#56FF53"/>
<stop offset="1" stop-color="#43BDA3" stop-opacity="0.81"/>
</linearGradient>
<clipPath id="clip0_95_81">
<rect width="1024" height="1024" rx="200" fill="white"/>
</clipPath>
</defs>
</svg>
