<svg width="383" height="345" viewBox="0 0 383 345" fill="none" xmlns="http://www.w3.org/2000/svg">
<g clip-path="url(#clip0_100_10315)">
<path d="M377.937 216.132C384.142 172.653 378.768 128.651 352.917 91.105C323.287 48.1314 276.355 17.7632 226.465 9.14761C217.576 7.60241 208.586 6.78976 199.576 6.71711C178.071 6.56368 156.69 10.137 136.296 17.2928C101.864 29.4889 72.2677 50.7361 45.5036 76.0952C33.6167 87.3503 22.0123 101.794 6.27112 107.021C-10.0681 112.492 -27.6451 105.453 -43.569 101.149C-73.4149 93.0825 -117.224 75.6596 -146.962 92.2113C-186.004 113.99 -197.633 161.903 -182.681 199.362C-167.729 236.822 -122.042 239.435 -117.058 268.183C-112.074 296.931 -87.9848 339.617 -35.6527 335.261C16.6794 330.905 36.6154 283.863 69.8422 297.802C81.5297 302.706 90.7086 311.74 100.652 319.502C114.499 330.339 129.517 337.718 146.563 341.115C170.935 345.976 197.549 343.406 222.154 342.169C250.396 340.74 280.782 341.829 308.203 331.48C337.641 320.356 356.232 295.981 366.208 265.421C371.529 249.396 375.454 232.899 377.937 216.132Z" fill="#45BD43"/>
<path opacity="0.7" d="M377.937 216.132C384.142 172.653 378.768 128.651 352.917 91.105C323.287 48.1314 276.355 17.7632 226.465 9.14761C217.576 7.60241 208.586 6.78976 199.576 6.71711C178.071 6.56368 156.69 10.137 136.296 17.2928C101.864 29.4889 72.2677 50.7361 45.5036 76.0952C33.6167 87.3503 22.0123 101.794 6.27112 107.021C-10.0681 112.492 -27.6451 105.453 -43.569 101.149C-73.4149 93.0825 -117.224 75.6596 -146.962 92.2113C-186.004 113.99 -197.633 161.903 -182.681 199.362C-167.729 236.822 -122.042 239.435 -117.058 268.183C-112.074 296.931 -87.9848 339.617 -35.6527 335.261C16.6794 330.905 36.6154 283.863 69.8422 297.802C81.5297 302.706 90.7086 311.74 100.652 319.502C114.499 330.339 129.517 337.718 146.563 341.115C170.935 345.976 197.549 343.406 222.154 342.169C250.396 340.74 280.782 341.829 308.203 331.48C337.641 320.356 356.232 295.981 366.208 265.421C371.529 249.396 375.454 232.899 377.937 216.132Z" fill="white"/>
<path d="M165.369 302.157H309.49C312.244 302.157 314.885 301.01 316.832 298.968C318.779 296.926 319.873 294.156 319.873 291.268V11.6304C319.873 8.74235 318.779 5.97261 316.832 3.93046C314.885 1.88832 312.244 0.741058 309.49 0.741058H-107.506C-110.259 0.741058 -112.9 1.88832 -114.848 3.93046C-116.795 5.97261 -117.889 8.74235 -117.889 11.6304V291.268C-117.889 294.156 -116.795 296.926 -114.848 298.968C-112.9 301.01 -110.259 302.157 -107.506 302.157H36.6154" stroke="black" stroke-linecap="round" stroke-linejoin="round"/>
<path d="M309.905 12.9371H-108.752V269.925H309.905V12.9371Z" stroke="black" stroke-linecap="round" stroke-linejoin="round"/>
<path d="M165.369 302.157H36.6154V332.604H165.369V302.157Z" stroke="black" stroke-linecap="round" stroke-linejoin="round"/>
<path d="M165.369 332.604H187.797V344.225H14.1874V332.604H36.6154" stroke="black" stroke-linecap="round" stroke-linejoin="round"/>
<path d="M21.9541 169.987H-10.6496V124.391H14.9682L21.9541 131.552V169.987Z" fill="white" stroke="#263238" stroke-linecap="round" stroke-linejoin="round"/>
<path d="M15.8404 130.803V132.676L21.9541 131.561L15.8404 130.803Z" fill="#263238" stroke="#263238" stroke-linecap="round" stroke-linejoin="round"/>
<path d="M14.9682 124.391V131.561H21.9541L14.9682 124.391Z" fill="white" stroke="#263238" stroke-linecap="round" stroke-linejoin="round"/>
<path d="M-6.51289 134.305H18.5899" stroke="#263238" stroke-linecap="round" stroke-linejoin="round"/>
<path d="M-6.51289 140.813H18.5899" stroke="#263238" stroke-linecap="round" stroke-linejoin="round"/>
<path d="M-6.51289 147.329H18.5899" stroke="#263238" stroke-linecap="round" stroke-linejoin="round"/>
<path d="M-6.51289 153.836H18.5899" stroke="#263238" stroke-linecap="round" stroke-linejoin="round"/>
<path d="M-6.51289 160.352H18.5899" stroke="#263238" stroke-linecap="round" stroke-linejoin="round"/>
<path d="M-3.96274 96.689H7.71646" stroke="#263238" stroke-linecap="round" stroke-linejoin="round"/>
<path d="M3.19763 100.557H7.71647" stroke="#263238" stroke-linecap="round" stroke-linejoin="round"/>
<path d="M-16.8796 100.557H1.08774" stroke="#263238" stroke-linecap="round" stroke-linejoin="round"/>
<path d="M5.93054 104.425H7.71647" stroke="#263238" stroke-linecap="round" stroke-linejoin="round"/>
<path d="M-3.75507 104.425H2.98167" stroke="#263238" stroke-linecap="round" stroke-linejoin="round"/>
<path d="M-16.8796 108.293H7.71646" stroke="#263238" stroke-linecap="round" stroke-linejoin="round"/>
<path d="M3.62126 112.161H7.71645" stroke="#263238" stroke-linecap="round" stroke-linejoin="round"/>
<path d="M-5.64899 116.028H7.71647" stroke="#263238" stroke-linecap="round" stroke-linejoin="round"/>
<path d="M1.08775 119.896H7.71647" stroke="#263238" stroke-linecap="round" stroke-linejoin="round"/>
<path opacity="0.2" d="M363.965 171.66L358.217 171.512L358.134 174.944C356.72 175.099 355.326 175.421 353.981 175.902L352.361 172.792L347.285 175.685L348.847 178.69C347.69 179.58 346.629 180.599 345.682 181.73L342.8 179.875L339.809 185.023L342.592 186.765C342.013 188.143 341.581 189.583 341.305 191.06L337.924 190.964L337.783 197.001L341.055 197.089C341.204 198.572 341.51 200.033 341.969 201.444L338.979 203.213L341.728 208.518L344.602 206.88C345.446 208.093 346.415 209.203 347.493 210.191L345.732 213.222L350.641 216.367L352.344 213.449C353.655 214.055 355.026 214.508 356.431 214.799L356.348 218.345L362.105 218.493L362.237 215.043C363.652 214.888 365.045 214.566 366.391 214.085L368.002 217.195L373.061 214.311L371.491 211.297C372.65 210.412 373.711 209.395 374.656 208.265L377.538 210.112L380.545 204.964L377.754 203.178C378.337 201.802 378.769 200.361 379.042 198.883L382.423 198.979L382.572 192.942L379.299 192.855C379.147 191.372 378.841 189.912 378.386 188.499L381.343 186.809L378.593 181.504L375.719 183.15C374.88 181.931 373.91 180.817 372.828 179.831L374.598 176.8L369.713 173.637L368.011 176.564C366.702 175.949 365.331 175.493 363.924 175.205L363.965 171.66ZM359.812 209.529C357.072 209.457 354.415 208.535 352.175 206.879C349.935 205.224 348.213 202.909 347.228 200.227C346.243 197.545 346.038 194.618 346.639 191.814C347.24 189.01 348.621 186.456 350.606 184.475C352.592 182.494 355.092 181.175 357.793 180.685C360.493 180.194 363.271 180.555 365.776 181.72C368.281 182.886 370.4 184.804 371.865 187.232C373.33 189.661 374.076 192.491 374.008 195.364C373.914 199.216 372.367 202.871 369.705 205.527C367.043 208.183 363.485 209.622 359.812 209.529Z" stroke="black" stroke-linecap="round" stroke-linejoin="round"/>
<path opacity="0.2" d="M347.709 126.569L341.961 126.421L341.878 129.845C340.464 130.006 339.071 130.331 337.724 130.812L336.063 127.702L331.013 130.585L332.574 133.599C331.417 134.486 330.356 135.503 329.409 136.631L326.519 134.784L323.52 139.933L326.303 141.719C325.724 143.093 325.292 144.53 325.015 146.005L321.634 145.917L321.493 151.954L324.758 152.033C324.909 153.531 325.219 155.006 325.68 156.432L322.714 158.122L325.464 163.419L328.338 161.781C329.181 162.996 330.151 164.109 331.229 165.1L329.468 168.123L334.377 171.276L336.038 168.349C337.347 168.961 338.718 169.414 340.125 169.7L340.042 173.245L345.799 173.402L345.882 169.97C347.296 169.811 348.689 169.487 350.035 169.003L351.646 172.113L356.697 169.229L355.227 166.259C356.385 165.374 357.447 164.357 358.391 163.227L361.274 165.074L364.281 159.925L361.49 158.14C362.074 156.767 362.506 155.329 362.777 153.854L366.158 153.941L366.308 147.912L363.035 147.825C362.886 146.341 362.576 144.88 362.113 143.47L365.078 141.771L362.329 136.474L359.455 138.112C358.612 136.897 357.642 135.783 356.564 134.793L358.325 131.77L353.416 128.625L351.754 131.544C350.444 130.935 349.074 130.482 347.668 130.193L347.709 126.569ZM343.556 164.429C340.816 164.358 338.158 163.436 335.918 161.78C333.678 160.124 331.956 157.808 330.971 155.126C329.986 152.444 329.782 149.515 330.384 146.711C330.986 143.907 332.367 141.353 334.353 139.373C336.34 137.392 338.841 136.074 341.542 135.585C344.243 135.095 347.021 135.457 349.526 136.624C352.03 137.79 354.149 139.71 355.613 142.14C357.077 144.569 357.822 147.4 357.752 150.273C357.658 154.124 356.11 157.779 353.448 160.433C350.786 163.088 347.228 164.525 343.556 164.429Z" stroke="black" stroke-linecap="round" stroke-linejoin="round"/>
<path opacity="0.2" d="M67.7156 70.4327V64.3347H64.4428C64.2581 62.8473 63.9154 61.3863 63.4211 59.9789L66.345 58.2366L63.4626 53.0098L60.63 54.7521C59.7568 53.562 58.7624 52.4753 57.6646 51.5114L59.3259 48.445L54.3419 45.4221L52.6805 48.3927C51.3437 47.8193 49.951 47.4015 48.5272 47.1469V43.5578H42.7707V46.9901C41.3525 47.1838 39.9594 47.5432 38.6173 48.0617L36.956 44.9952L31.972 48.0181L33.6333 50.9887C32.5004 51.9068 31.4645 52.9494 30.5432 54.0987L27.6193 52.3564L24.7452 57.5833L27.5694 59.3256C27.0226 60.7275 26.6243 62.1882 26.3816 63.6813H23.0007V69.7183H26.2736C26.4582 71.2056 26.801 72.6666 27.2953 74.0741L24.3714 75.8163L27.2538 81.0432L30.0864 79.3009C30.9618 80.489 31.9559 81.5754 33.0518 82.5416L31.3905 85.608L36.3745 88.6222L38.0359 85.6603C39.3726 86.2337 40.7654 86.6515 42.1892 86.906V90.469H47.9457V86.9844C49.364 86.7908 50.7571 86.4314 52.0991 85.9129L53.7604 88.9794L58.7444 85.9565L57.0831 82.9859C58.2179 82.0701 59.254 81.0273 60.1732 79.8759L63.0971 81.6182L65.9796 76.3913L63.147 74.649C63.6938 73.2471 64.0921 71.7864 64.3348 70.2933L67.7156 70.4327ZM31.5151 67.0265C31.5151 64.1526 32.3277 61.3432 33.8502 58.9537C35.3727 56.5641 37.5366 54.7017 40.0684 53.6019C42.6001 52.5021 45.386 52.2143 48.0737 52.775C50.7615 53.3357 53.2303 54.7196 55.168 56.7517C57.1057 58.7839 58.4254 61.373 58.96 64.1917C59.4946 67.0104 59.2202 69.932 58.1715 72.5872C57.1228 75.2423 55.3469 77.5117 53.0684 79.1083C50.7899 80.705 48.111 81.5572 45.3707 81.5572C43.5483 81.5572 41.7439 81.1802 40.0607 80.4478C38.3775 79.7154 36.8486 78.6419 35.5615 77.2889C34.2745 75.9359 33.2546 74.33 32.5603 72.563C31.8659 70.796 31.5107 68.9028 31.5151 66.9916V67.0265Z" stroke="black" stroke-linecap="round" stroke-linejoin="round"/>
<path opacity="0.2" d="M110.287 52.217V46.18H107.023C106.838 44.6927 106.496 43.2317 106.001 41.8243L108.917 40.082L106.043 34.8551L103.21 36.5974C102.338 35.4031 101.341 34.316 100.236 33.3567L101.898 30.2816L96.9137 27.2674L95.2523 30.2293C93.9173 29.6524 92.5238 29.2373 91.099 28.9923V25.3857H85.3508V28.8181C83.9321 29.0092 82.5387 29.3687 81.1974 29.8896L79.5361 26.8231L74.5521 29.8373L76.2134 32.8079C75.0892 33.7246 74.0666 34.7707 73.1648 35.9266L70.2409 34.1843L67.3585 39.4112L70.1911 41.1535C69.6344 42.5518 69.2357 44.0137 69.0032 45.5092H65.6058V51.5462H68.8786C69.0652 53.0332 69.4079 54.4939 69.9003 55.902L66.9764 57.6443L69.8505 62.8711L72.6914 61.1288C73.562 62.3107 74.5568 63.3861 75.6569 64.3347L73.9955 67.4011L78.9795 70.424L80.6409 67.4534C81.9746 68.036 83.3684 68.4541 84.7942 68.6991V72.2447H90.5507V68.8124C91.9697 68.6228 93.3632 68.2633 94.7041 67.7408L96.3654 70.8073L101.349 67.7931L99.6881 64.8225C100.825 63.906 101.861 62.86 102.778 61.7038L105.71 63.4461L108.585 58.2192L105.76 56.4769C106.31 55.0769 106.706 53.6155 106.94 52.1212L110.287 52.217ZM74.0952 48.8108C74.0952 45.9369 74.9078 43.1276 76.4303 40.738C77.9527 38.3485 80.1167 36.486 82.6485 35.3862C85.1802 34.2864 87.9661 33.9987 90.6538 34.5593C93.3415 35.12 95.8104 36.5039 97.7481 38.5361C99.6858 40.5682 101.005 43.1574 101.54 45.976C102.075 48.7947 101.8 51.7164 100.752 54.3715C99.7029 57.0266 97.927 59.296 95.6485 60.8927C93.37 62.4893 90.6911 63.3416 87.9507 63.3416C86.1309 63.3427 84.3287 62.9676 82.6472 62.2378C80.9656 61.508 79.4378 60.4377 78.151 59.0882C76.8641 57.7386 75.8436 56.1363 75.1477 54.3729C74.4518 52.6094 74.0941 50.7194 74.0952 48.8108Z" stroke="black" stroke-linecap="round" stroke-linejoin="round"/>
<path opacity="0.2" d="M186.136 53.0098C186.137 56.3424 185.197 59.6006 183.432 62.3724C181.668 65.1442 179.16 67.305 176.224 68.5815C173.289 69.858 170.058 70.1929 166.942 69.5438C163.825 68.8947 160.961 67.2908 158.714 64.9349C156.466 62.579 154.935 59.577 154.315 56.3086C153.694 53.0401 154.012 49.6521 155.228 46.5731C156.443 43.494 158.502 40.8622 161.144 39.0105C163.787 37.1589 166.893 36.1705 170.071 36.1705" stroke="black" stroke-linecap="round" stroke-linejoin="round"/>
<path opacity="0.2" d="M186.136 53.0098H170.071V36.1705C174.33 36.1705 178.415 37.9444 181.427 41.1021C184.44 44.2598 186.134 48.5429 186.136 53.0098Z" stroke="black" stroke-linecap="round" stroke-linejoin="round"/>
<path opacity="0.2" d="M184.474 41.3974L192.781 34.4282H204.41" stroke="black" stroke-linecap="round" stroke-linejoin="round"/>
<path opacity="0.2" d="M211.056 34.4282H226.556" stroke="black" stroke-linecap="round" stroke-linejoin="round"/>
<path opacity="0.2" d="M211.056 39.6551H226.556" stroke="black" stroke-linecap="round" stroke-linejoin="round"/>
<path opacity="0.2" d="M211.056 44.882H226.556" stroke="black" stroke-linecap="round" stroke-linejoin="round"/>
<path opacity="0.2" d="M211.056 50.1089H226.556" stroke="black" stroke-linecap="round" stroke-linejoin="round"/>
<g opacity="0.2">
<path d="M7.72476 232.562L7.12668 229.495H-3.38959L-2.79151 232.562L-2.25156 235.297L1.32031 253.591H29.3969L25.2934 232.562H7.72476Z" stroke="black" stroke-linecap="round" stroke-linejoin="round"/>
<path d="M29.3969 253.591L34.572 233.982H25.7254" stroke="black" stroke-linecap="round" stroke-linejoin="round"/>
</g>
<g opacity="0.2">
<path d="M47.1483 232.562L46.5419 229.495H36.034L36.632 232.562L37.172 235.297L40.7439 253.591H68.8205L64.7087 232.562H47.1483Z" stroke="black" stroke-linecap="round" stroke-linejoin="round"/>
<path d="M68.8204 253.591L73.9955 233.982H65.1489" stroke="black" stroke-linecap="round" stroke-linejoin="round"/>
</g>
<path d="M106.774 183.621C106.973 183.618 107.171 183.657 107.355 183.735C107.54 183.814 107.708 183.929 107.851 184.076C107.993 184.222 108.106 184.397 108.183 184.589C108.261 184.782 108.301 184.988 108.302 185.197V195.163C108.274 195.569 108.1 195.949 107.815 196.226C107.531 196.503 107.158 196.657 106.77 196.657C106.381 196.657 106.008 196.503 105.724 196.226C105.439 195.949 105.265 195.569 105.237 195.163V185.197C105.239 184.988 105.281 184.781 105.359 184.589C105.437 184.396 105.551 184.222 105.694 184.075C105.837 183.929 106.005 183.813 106.191 183.735C106.376 183.657 106.574 183.618 106.774 183.621Z" fill="#263238"/>
<path d="M103.069 183.621C103.269 183.618 103.467 183.657 103.652 183.735C103.837 183.813 104.006 183.929 104.149 184.075C104.291 184.222 104.405 184.396 104.484 184.589C104.562 184.781 104.603 184.988 104.606 185.197V195.163C104.577 195.569 104.403 195.949 104.119 196.226C103.835 196.503 103.461 196.657 103.073 196.657C102.685 196.657 102.311 196.503 102.027 196.226C101.743 195.949 101.569 195.569 101.54 195.163V185.197C101.545 184.776 101.708 184.374 101.994 184.078C102.281 183.783 102.667 183.618 103.069 183.621Z" fill="#263238"/>
<path d="M99.4223 183.621C99.6215 183.618 99.8192 183.657 100.004 183.735C100.189 183.814 100.357 183.929 100.499 184.076C100.641 184.222 100.754 184.397 100.832 184.589C100.909 184.782 100.95 184.988 100.951 185.197V195.163C100.95 195.372 100.909 195.579 100.832 195.771C100.754 195.964 100.641 196.138 100.499 196.285C100.357 196.432 100.189 196.547 100.004 196.625C99.8192 196.703 99.6215 196.742 99.4223 196.74C99.223 196.742 99.0253 196.703 98.8405 196.625C98.6557 196.547 98.4875 196.432 98.3454 196.285C98.2034 196.138 98.0904 195.964 98.0129 195.771C97.9354 195.579 97.8949 195.372 97.8938 195.163V185.197C97.8949 184.988 97.9354 184.782 98.0129 184.589C98.0904 184.397 98.2034 184.222 98.3454 184.076C98.4875 183.929 98.6557 183.814 98.8405 183.735C99.0253 183.657 99.223 183.618 99.4223 183.621Z" fill="#263238"/>
<path d="M95.7424 183.621C95.942 183.618 96.1401 183.657 96.3254 183.735C96.5107 183.813 96.6795 183.929 96.8222 184.075C96.9649 184.222 97.0787 184.396 97.1571 184.589C97.2355 184.781 97.277 184.988 97.2791 185.197V195.163C97.2506 195.569 97.0768 195.949 96.7925 196.226C96.5082 196.503 96.1346 196.657 95.7466 196.657C95.3585 196.657 94.9849 196.503 94.7006 196.226C94.4163 195.949 94.2425 195.569 94.214 195.163V185.197C94.2184 184.776 94.3816 184.374 94.668 184.078C94.9544 183.783 95.3407 183.618 95.7424 183.621Z" fill="#263238"/>
<path d="M92.0709 183.621C92.2701 183.618 92.4678 183.657 92.6526 183.735C92.8374 183.814 93.0056 183.929 93.1477 184.076C93.2897 184.222 93.4027 184.397 93.4802 184.589C93.5577 184.782 93.5982 184.988 93.5993 185.197V195.163C93.5993 195.588 93.4382 195.996 93.1516 196.297C92.865 196.597 92.4762 196.766 92.0709 196.766C91.6655 196.766 91.2767 196.597 90.9901 196.297C90.7034 195.996 90.5424 195.588 90.5424 195.163V185.197C90.5435 184.988 90.5839 184.782 90.6614 184.589C90.7389 184.397 90.852 184.222 90.994 184.076C91.1361 183.929 91.3043 183.814 91.4891 183.735C91.6739 183.657 91.8716 183.618 92.0709 183.621Z" fill="#263238"/>
<path d="M88.391 183.621C88.5906 183.618 88.7887 183.657 88.974 183.735C89.1593 183.813 89.3281 183.929 89.4708 184.075C89.6135 184.222 89.7273 184.396 89.8057 184.589C89.8841 184.781 89.9255 184.988 89.9277 185.197V195.163C89.9255 195.373 89.8841 195.58 89.8057 195.772C89.7273 195.965 89.6135 196.139 89.4708 196.286C89.3281 196.432 89.1593 196.547 88.974 196.625C88.7887 196.703 88.5906 196.742 88.391 196.74C87.9892 196.742 87.603 196.578 87.3166 196.282C87.0302 195.987 86.8669 195.585 86.8625 195.163V185.197C86.8669 184.776 87.0302 184.374 87.3166 184.078C87.603 183.783 87.9892 183.618 88.391 183.621Z" fill="#263238"/>
<path d="M84.7194 183.621C84.9187 183.618 85.1164 183.657 85.3012 183.735C85.486 183.814 85.6542 183.929 85.7963 184.076C85.9383 184.222 86.0513 184.397 86.1288 184.589C86.2063 184.782 86.2468 184.988 86.2479 185.197V195.163C86.2479 195.588 86.0868 195.996 85.8002 196.297C85.5136 196.597 85.1248 196.766 84.7194 196.766C84.3141 196.766 83.9253 196.597 83.6387 196.297C83.352 195.996 83.191 195.588 83.191 195.163V185.197C83.1921 184.988 83.2326 184.782 83.3101 184.589C83.3876 184.397 83.5006 184.222 83.6426 184.076C83.7846 183.929 83.9529 183.814 84.1377 183.735C84.3225 183.657 84.5202 183.618 84.7194 183.621Z" fill="#263238"/>
<path d="M81.0479 183.621C81.4496 183.618 81.8359 183.783 82.1223 184.078C82.4087 184.374 82.5719 184.776 82.5763 185.197V195.163C82.5478 195.569 82.374 195.949 82.0897 196.226C81.8054 196.503 81.4317 196.657 81.0437 196.657C80.6557 196.657 80.282 196.503 79.9978 196.226C79.7135 195.949 79.5397 195.569 79.5112 195.163V185.197C79.5133 184.988 79.5548 184.781 79.6332 184.589C79.7116 184.396 79.8254 184.222 79.9681 184.075C80.1108 183.929 80.2796 183.813 80.4649 183.735C80.6501 183.657 80.8482 183.618 81.0479 183.621Z" fill="#263238"/>
<path d="M77.368 183.621C77.5673 183.618 77.765 183.657 77.9498 183.735C78.1346 183.814 78.3028 183.929 78.4449 184.076C78.5869 184.222 78.6999 184.397 78.7774 184.589C78.8549 184.782 78.8954 184.988 78.8965 185.197V195.163C78.8965 195.588 78.7354 195.996 78.4488 196.297C78.1622 196.597 77.7734 196.766 77.368 196.766C76.9627 196.766 76.5739 196.597 76.2873 196.297C76.0006 195.996 75.8396 195.588 75.8396 195.163V185.197C75.8407 184.988 75.8811 184.782 75.9586 184.589C76.0361 184.397 76.1492 184.222 76.2912 184.076C76.4332 183.929 76.6015 183.814 76.7863 183.735C76.9711 183.657 77.1688 183.618 77.368 183.621Z" fill="#263238"/>
<path d="M73.6965 183.621C74.0982 183.618 74.4845 183.783 74.7709 184.078C75.0573 184.374 75.2205 184.776 75.2249 185.197V195.163C75.1964 195.569 75.0225 195.949 74.7383 196.226C74.454 196.503 74.0803 196.657 73.6923 196.657C73.3043 196.657 72.9306 196.503 72.6463 196.226C72.3621 195.949 72.1882 195.569 72.1597 195.163V185.197C72.1619 184.988 72.2034 184.781 72.2818 184.589C72.3602 184.396 72.474 184.222 72.6167 184.075C72.7594 183.929 72.9282 183.813 73.1134 183.735C73.2987 183.657 73.4968 183.618 73.6965 183.621Z" fill="#263238"/>
<path d="M70.0166 183.621C70.2158 183.618 70.4135 183.657 70.5983 183.735C70.7831 183.814 70.9514 183.929 71.0934 184.076C71.2355 184.222 71.3485 184.397 71.426 184.589C71.5035 184.782 71.5439 184.988 71.545 185.197V195.163C71.545 195.588 71.384 195.996 71.0974 196.297C70.8107 196.597 70.422 196.766 70.0166 196.766C69.6112 196.766 69.2225 196.597 68.9358 196.297C68.6492 195.996 68.4882 195.588 68.4882 195.163V185.197C68.4892 184.988 68.5297 184.782 68.6072 184.589C68.6847 184.397 68.7977 184.222 68.9398 184.076C69.0818 183.929 69.2501 183.814 69.4349 183.735C69.6197 183.657 69.8174 183.618 70.0166 183.621Z" fill="#263238"/>
<path d="M67.3917 183.621C67.3521 183.772 67.3521 183.931 67.3917 184.082C67.5328 184.228 67.6451 184.402 67.722 184.593C67.799 184.784 67.8392 184.99 67.8402 185.197V195.163C67.8392 195.371 67.799 195.576 67.722 195.768C67.6451 195.959 67.5328 196.133 67.3917 196.278C66.7281 196.608 65.999 196.766 65.2652 196.74C63.5374 196.74 62.4409 196.034 62.8147 195.163L66.7355 185.197C66.9913 184.69 67.2106 184.163 67.3917 183.621Z" fill="#263238"/>
<path d="M67.3917 183.621C67.0979 184.126 66.8397 184.653 66.6192 185.197L61.7764 195.163C61.386 196.034 59.6748 196.74 57.947 196.74C56.2192 196.74 55.5131 196.034 56.3853 195.163L65.8882 185.197L66.9763 184.082C67.2505 183.795 67.3917 183.621 67.3917 183.621Z" fill="#263238"/>
<path d="M67.3917 183.621C67.2359 183.752 67.0889 183.895 66.9514 184.048L65.8882 185.197L56.3853 195.163C55.5546 196.034 54.8818 195.311 54.8818 193.421C54.8818 191.531 55.5546 189.745 56.3853 189.353L65.8882 184.37C66.4067 184.16 66.9094 183.91 67.3917 183.621Z" fill="#263238"/>
<path d="M67.3917 183.621C66.8768 183.792 66.3744 184.001 65.8882 184.248L56.3853 188.229C55.5547 188.612 54.8818 187.428 54.8818 185.572C54.8806 185.142 54.9196 184.713 54.9981 184.291C55.0343 184.103 55.0814 183.917 55.1393 183.734C55.1529 183.667 55.1814 183.604 55.2224 183.551L55.3221 183.438C55.4595 183.287 55.6244 183.167 55.8071 183.084C55.9898 183.002 56.1865 182.959 56.3853 182.959H65.8882C66.087 182.959 66.2837 183.002 66.4664 183.084C66.649 183.167 66.814 183.287 66.9514 183.438L67.0428 183.551C67.0428 183.603 67.101 183.638 67.1342 183.629H67.3917V183.621Z" fill="#263238"/>
<path d="M67.3917 180.659C67.3961 180.87 67.3607 181.08 67.2874 181.277C67.2141 181.474 67.1044 181.653 66.9647 181.806C66.825 181.958 66.6579 182.079 66.4732 182.164C66.2884 182.248 66.0896 182.293 65.8882 182.296H56.3853C55.9898 182.266 55.6198 182.08 55.3497 181.775C55.0796 181.471 54.9295 181.07 54.9295 180.654C54.9295 180.238 55.0796 179.838 55.3497 179.533C55.6198 179.229 55.9898 179.043 56.3853 179.012H65.8882C66.09 179.017 66.289 179.063 66.4738 179.148C66.6586 179.233 66.8256 179.356 66.9652 179.509C67.1048 179.662 67.2143 179.842 67.2875 180.039C67.3607 180.237 67.3961 180.447 67.3917 180.659Z" fill="#263238"/>
<path d="M67.3917 176.712C67.3961 176.924 67.3607 177.135 67.2875 177.332C67.2143 177.529 67.1048 177.709 66.9652 177.862C66.8256 178.015 66.6586 178.138 66.4738 178.223C66.289 178.308 66.09 178.354 65.8882 178.359H56.3853C55.9898 178.329 55.6198 178.143 55.3497 177.838C55.0796 177.533 54.9295 177.133 54.9295 176.717C54.9295 176.301 55.0796 175.9 55.3497 175.596C55.6198 175.291 55.9898 175.105 56.3853 175.075H65.8882C66.0896 175.078 66.2884 175.123 66.4732 175.207C66.6579 175.292 66.825 175.413 66.9647 175.566C67.1044 175.718 67.2141 175.898 67.2874 176.094C67.3607 176.291 67.3961 176.501 67.3917 176.712Z" fill="#263238"/>
<path d="M67.3917 172.775C67.3961 172.987 67.3607 173.197 67.2875 173.394C67.2143 173.592 67.1048 173.772 66.9652 173.925C66.8256 174.078 66.6586 174.2 66.4738 174.285C66.289 174.371 66.09 174.417 65.8882 174.421H56.3853C55.9898 174.391 55.6198 174.205 55.3497 173.9C55.0796 173.596 54.9295 173.195 54.9295 172.779C54.9295 172.363 55.0796 171.963 55.3497 171.658C55.6198 171.353 55.9898 171.167 56.3853 171.137H65.8882C66.0896 171.141 66.2884 171.186 66.4732 171.27C66.6579 171.354 66.825 171.476 66.9647 171.628C67.1044 171.78 67.2141 171.96 67.2874 172.157C67.3607 172.354 67.3961 172.564 67.3917 172.775Z" fill="#263238"/>
<path d="M67.3917 168.872C67.3961 169.083 67.3607 169.293 67.2874 169.49C67.2141 169.687 67.1044 169.867 66.9647 170.019C66.825 170.171 66.6579 170.293 66.4732 170.377C66.2884 170.461 66.0896 170.507 65.8882 170.51H56.3853C55.9898 170.48 55.6198 170.294 55.3497 169.989C55.0796 169.684 54.9295 169.284 54.9295 168.868C54.9295 168.452 55.0796 168.051 55.3497 167.747C55.6198 167.442 55.9898 167.256 56.3853 167.226H65.8882C66.09 167.23 66.289 167.276 66.4738 167.362C66.6586 167.447 66.8256 167.569 66.9652 167.722C67.1048 167.875 67.2143 168.055 67.2875 168.253C67.3607 168.45 67.3961 168.66 67.3917 168.872Z" fill="#263238"/>
<path d="M67.3917 164.891C67.3961 165.103 67.3607 165.313 67.2875 165.51C67.2143 165.708 67.1048 165.888 66.9652 166.041C66.8256 166.194 66.6586 166.316 66.4738 166.402C66.289 166.487 66.09 166.533 65.8882 166.537H56.3853C55.9898 166.507 55.6198 166.321 55.3497 166.016C55.0796 165.712 54.9295 165.311 54.9295 164.895C54.9295 164.479 55.0796 164.079 55.3497 163.774C55.6198 163.47 55.9898 163.283 56.3853 163.253H65.8882C66.0896 163.257 66.2884 163.302 66.4732 163.386C66.6579 163.47 66.825 163.592 66.9647 163.744C67.1044 163.896 67.2141 164.076 67.2874 164.273C67.3607 164.47 67.3961 164.68 67.3917 164.891Z" fill="#263238"/>
<path d="M67.3917 160.953C67.3961 161.165 67.3607 161.375 67.2874 161.572C67.2141 161.768 67.1044 161.948 66.9647 162.1C66.825 162.252 66.6579 162.374 66.4732 162.458C66.2884 162.543 66.0896 162.588 65.8882 162.591H56.3853C55.9898 162.561 55.6198 162.375 55.3497 162.07C55.0796 161.766 54.9295 161.365 54.9295 160.949C54.9295 160.533 55.0796 160.133 55.3497 159.828C55.6198 159.523 55.9898 159.337 56.3853 159.307H65.8882C66.09 159.312 66.289 159.358 66.4738 159.443C66.6586 159.528 66.8256 159.651 66.9652 159.804C67.1048 159.956 67.2143 160.137 67.2875 160.334C67.3607 160.531 67.3961 160.742 67.3917 160.953Z" fill="#263238"/>
<path d="M67.3917 156.04C67.3902 156.47 67.3485 156.899 67.2671 157.321C67.2336 157.509 67.1892 157.695 67.1342 157.878C67.1192 157.944 67.0877 158.004 67.0428 158.053C67.017 158.097 66.9863 158.138 66.9514 158.174C66.814 158.325 66.649 158.445 66.4663 158.528C66.2837 158.61 66.087 158.653 65.8882 158.654H56.3853C56.1865 158.653 55.9898 158.61 55.8071 158.528C55.6244 158.445 55.4595 158.325 55.3221 158.174L55.2224 158.053C55.2224 158.009 55.1642 157.974 55.1393 157.983H54.8901C55.4082 157.821 55.9113 157.611 56.3936 157.356L65.8965 153.383C66.7188 152.991 67.3917 154.185 67.3917 156.04Z" fill="#263238"/>
<path d="M67.3917 148.156C67.3917 150.012 66.7188 151.833 65.8882 152.225L56.3853 157.199C55.8694 157.428 55.3673 157.69 54.8818 157.983C54.8818 157.983 55.0479 157.843 55.3221 157.556L56.3853 156.415L65.8882 146.449C66.7188 145.534 67.3917 146.301 67.3917 148.156Z" fill="#263238"/>
<path d="M64.4262 144.872C66.0875 144.872 66.7521 145.578 65.8882 146.449L56.3853 156.415L55.2889 157.547C55.1451 157.69 55.0092 157.841 54.8818 158C55.1785 157.497 55.4422 156.973 55.671 156.432L60.655 146.466C61.0786 145.578 62.7649 144.872 64.4262 144.872Z" fill="#263238"/>
<path d="M57.3323 144.872C58.9936 144.872 60.032 145.578 59.6415 146.449L55.4882 156.415C55.2396 156.922 55.0232 157.446 54.8403 157.983C54.852 157.832 54.852 157.681 54.8403 157.53V157.295C54.7852 157.209 54.7379 157.119 54.6991 157.025C54.6214 156.832 54.5819 156.624 54.5828 156.415V146.449C54.5828 146.237 54.6223 146.027 54.6991 145.83C54.7361 145.738 54.7835 145.65 54.8403 145.569C54.9476 145.477 55.0646 145.398 55.1892 145.334C55.8586 145.004 56.5931 144.846 57.3323 144.872Z" fill="#263238"/>
<path d="M52.5559 144.872C52.9511 144.877 53.3284 145.045 53.6054 145.341C53.8825 145.636 54.0368 146.034 54.0345 146.449V156.415C54.0345 156.826 53.8787 157.22 53.6015 157.511C53.3242 157.802 52.9481 157.965 52.5559 157.965C52.1638 157.965 51.7877 157.802 51.5104 157.511C51.2331 157.22 51.0774 156.826 51.0774 156.415V146.449C51.0751 146.034 51.2294 145.636 51.5065 145.341C51.7835 145.045 52.1608 144.877 52.5559 144.872Z" fill="#263238"/>
<path d="M49.009 144.872C49.4041 144.877 49.7814 145.045 50.0585 145.341C50.3355 145.636 50.4898 146.034 50.4876 146.449V156.415C50.4876 156.826 50.3318 157.22 50.0545 157.511C49.7772 157.802 49.4011 157.965 49.009 157.965C48.6169 157.965 48.2408 157.802 47.9635 157.511C47.6862 157.22 47.5304 156.826 47.5304 156.415V146.449C47.5282 146.243 47.5648 146.039 47.638 145.849C47.7112 145.658 47.8196 145.485 47.9571 145.338C48.0945 145.191 48.2581 145.075 48.4387 144.995C48.6192 144.915 48.813 144.873 49.009 144.872Z" fill="#263238"/>
<path d="M45.462 144.872C45.8571 144.877 46.2345 145.045 46.5115 145.341C46.7886 145.636 46.9428 146.034 46.9406 146.449V156.415C46.9417 156.62 46.9043 156.823 46.8306 157.012C46.7569 157.202 46.6483 157.374 46.511 157.52C46.3737 157.666 46.2104 157.781 46.0304 157.861C45.8505 157.94 45.6573 157.982 45.462 157.983C45.2661 157.983 45.072 157.942 44.8911 157.863C44.7102 157.784 44.5459 157.669 44.4077 157.523C44.2695 157.377 44.1602 157.204 44.0859 157.014C44.0117 156.824 43.974 156.62 43.9751 156.415V146.449C43.974 146.243 44.0117 146.039 44.0858 145.848C44.1599 145.657 44.2691 145.484 44.4072 145.337C44.5453 145.191 44.7095 145.075 44.8905 144.995C45.0715 144.915 45.2657 144.873 45.462 144.872Z" fill="#263238"/>
<path d="M42.9451 164.055V139.027C45.4059 139.027 47.766 140.052 49.506 141.877C51.2461 143.702 52.2237 146.177 52.2237 148.757V154.324C52.2237 155.602 51.9837 156.867 51.5174 158.048C51.0511 159.228 50.3676 160.301 49.506 161.205C48.6445 162.108 47.6216 162.825 46.4959 163.314C45.3701 163.803 44.1636 164.055 42.9451 164.055Z" fill="white" stroke="#263238" stroke-linecap="round" stroke-linejoin="round"/>
<path d="M19.08 188.194L43.9004 175.345C45.0723 174.738 46.059 173.8 46.749 172.636C47.4389 171.472 47.8046 170.129 47.8045 168.759V134.784C47.8046 133.414 47.4389 132.071 46.749 130.907C46.059 129.743 45.0723 128.805 43.9004 128.198L19.08 115.349V188.194Z" fill="white" stroke="#263238" stroke-linecap="round" stroke-linejoin="round"/>
<path d="M65.4895 202.49H83.8306" stroke="#263238" stroke-linecap="round" stroke-linejoin="round"/>
<path d="M61.8262 205.861H69.161" stroke="#263238" stroke-linecap="round" stroke-linejoin="round"/>
<path d="M73.2811 152.695V171.451" stroke="#263238" stroke-linecap="round" stroke-linejoin="round"/>
<path d="M70.0747 159.429V147.895" stroke="#263238" stroke-linecap="round" stroke-linejoin="round"/>
<path d="M48.9841 182.985V192.602" stroke="#263238" stroke-linecap="round" stroke-linejoin="round"/>
<path d="M52.1988 179.622V188.281" stroke="#263238" stroke-linecap="round" stroke-linejoin="round"/>
<path d="M209.926 115.305H214.694" stroke="#263238" stroke-width="9" stroke-linecap="round" stroke-linejoin="round"/>
<path d="M173.335 175.371H192.424V115.305H209.926" stroke="#263238" stroke-width="4" stroke-linecap="round" stroke-linejoin="round"/>
<path d="M209.926 236.551H215.757" stroke="#263238" stroke-width="9" stroke-linecap="round" stroke-linejoin="round"/>
<path d="M169.622 193.726H191.892V236.551H209.926" stroke="#263238" stroke-width="4" stroke-linecap="round" stroke-linejoin="round"/>
<path d="M100.876 118.511H96.1162V163.732" stroke="#263238" stroke-width="4" stroke-linecap="round" stroke-linejoin="round"/>
<path d="M104.581 118.511H100.876" stroke="#263238" stroke-width="7" stroke-linecap="round" stroke-linejoin="round"/>
<path d="M147.136 135.481H125.381V159.925H147.136V135.481Z" fill="#263238" stroke="#263238" stroke-linecap="round" stroke-linejoin="round"/>
<path d="M167.188 101.672H145.823V123.677H167.188V101.672Z" fill="#263238" stroke="#263238" stroke-linecap="round" stroke-linejoin="round"/>
<path d="M158.649 123.668H168.11C165.858 129.933 161.948 135.394 156.841 139.411C151.733 143.428 145.639 145.834 139.274 146.347C132.908 146.861 126.535 145.459 120.902 142.308C115.269 139.156 110.61 134.386 107.471 128.556C104.513 123.098 103.014 116.904 103.135 110.627C103.135 110.079 103.135 109.521 103.177 108.972C103.7 100.535 107.098 92.5757 112.752 86.5478C118.406 80.5198 125.938 76.8248 133.974 76.1371C142.009 75.4493 150.013 77.8147 156.524 82.8015C163.035 87.7883 167.619 95.0641 169.439 103.301H158.641C157.365 103.301 156.103 103.564 154.925 104.076C153.746 104.588 152.676 105.338 151.774 106.284C150.873 107.229 150.157 108.352 149.669 109.588C149.181 110.823 148.93 112.147 148.93 113.485C148.93 114.822 149.181 116.146 149.669 117.382C150.157 118.617 150.873 119.74 151.774 120.686C152.676 121.631 153.746 122.381 154.925 122.893C156.103 123.405 157.365 123.668 158.641 123.668H158.649Z" fill="white" stroke="#263238" stroke-linecap="round" stroke-linejoin="round"/>
<path d="M139.22 112.666H148.938" stroke="#263238" stroke-linecap="round" stroke-linejoin="round"/>
<path d="M131.453 77.6284V144.855" stroke="#263238" stroke-linecap="round" stroke-linejoin="round"/>
<path d="M130.672 121.63C135.393 121.63 139.22 117.617 139.22 112.666C139.22 107.715 135.393 103.702 130.672 103.702C125.951 103.702 122.124 107.715 122.124 112.666C122.124 117.617 125.951 121.63 130.672 121.63Z" fill="#263238" stroke="#263238" stroke-linecap="round" stroke-linejoin="round"/>
<path d="M134.95 112.666C134.95 111.778 134.699 110.91 134.228 110.172C133.758 109.434 133.089 108.859 132.307 108.52C131.525 108.181 130.664 108.092 129.834 108.266C129.004 108.44 128.242 108.868 127.644 109.497C127.046 110.125 126.639 110.925 126.475 111.796C126.311 112.667 126.397 113.569 126.722 114.389C127.047 115.208 127.597 115.908 128.301 116.4C129.006 116.892 129.834 117.154 130.68 117.152C131.242 117.152 131.798 117.036 132.316 116.811C132.835 116.585 133.306 116.254 133.702 115.838C134.099 115.421 134.413 114.926 134.627 114.382C134.841 113.838 134.951 113.255 134.95 112.666Z" fill="white" stroke="#263238" stroke-linecap="round" stroke-linejoin="round"/>
<path d="M159.421 117.144C161.78 117.144 163.691 115.139 163.691 112.666C163.691 110.193 161.78 108.188 159.421 108.188C157.063 108.188 155.152 110.193 155.152 112.666C155.152 115.139 157.063 117.144 159.421 117.144Z" fill="#45BD43"/>
<path d="M113.967 110.627V128.556H107.447C104.488 123.098 102.989 116.904 103.11 110.627H113.967Z" fill="#263238" stroke="#263238" stroke-linecap="round" stroke-linejoin="round"/>
<path d="M136.262 230.288V283.21" stroke="#263238" stroke-width="3" stroke-linecap="round" stroke-linejoin="round"/>
<path d="M136.262 266.885C143.428 266.885 149.237 260.793 149.237 253.277C149.237 245.762 143.428 239.67 136.262 239.67C129.096 239.67 123.287 245.762 123.287 253.277C123.287 260.793 129.096 266.885 136.262 266.885Z" fill="white" stroke="#263238" stroke-linecap="round" stroke-linejoin="round"/>
<path d="M136.262 287.026C139.703 287.026 142.492 284.1 142.492 280.492C142.492 276.884 139.703 273.958 136.262 273.958C132.822 273.958 130.032 276.884 130.032 280.492C130.032 284.1 132.822 287.026 136.262 287.026Z" fill="white" stroke="#263238" stroke-linecap="round" stroke-linejoin="round"/>
<path d="M182.738 169.116L168.409 213.902C164.414 226.376 152.303 234.896 138.572 234.896H133.945C120.214 234.896 108.103 226.376 104.116 213.902L89.7782 169.116C87.6018 162.312 92.968 155.448 100.452 155.448H172.064C179.557 155.448 184.915 162.312 182.738 169.116Z" fill="white" stroke="#263238" stroke-linecap="round" stroke-linejoin="round"/>
<path d="M176.749 173.315C175.014 172.819 173.163 173.035 171.574 173.918C169.985 174.802 168.776 176.287 168.193 178.071L156.614 213.545C156.05 215.273 156.115 217.159 156.795 218.841C157.476 220.522 158.725 221.881 160.302 222.657L162.794 223.902C165.286 221.002 167.188 217.599 168.384 213.902L180.977 174.535L176.749 173.315Z" fill="white" stroke="#263238" stroke-linecap="round" stroke-linejoin="round"/>
<path d="M103.974 178.071C103.392 176.287 102.183 174.802 100.594 173.918C99.0043 173.035 97.1539 172.819 95.4185 173.315L91.4811 174.439L104.116 213.902C105.29 217.548 107.155 220.909 109.598 223.78L111.866 222.657C113.437 221.875 114.679 220.514 115.355 218.834C116.031 217.153 116.093 215.27 115.529 213.545L103.974 178.071Z" fill="white" stroke="#263238" stroke-linecap="round" stroke-linejoin="round"/>
<path d="M158.724 155.448C158.554 157.102 157.806 158.632 156.626 159.743C155.445 160.854 153.914 161.468 152.328 161.467H119.101C117.514 161.468 115.984 160.854 114.803 159.743C113.622 158.632 112.875 157.102 112.705 155.448H158.724Z" fill="white" stroke="#263238" stroke-linecap="round" stroke-linejoin="round"/>
<path d="M136.296 234.644V161.467" stroke="#263238" stroke-linecap="round" stroke-linejoin="round"/>
<path d="M155.168 170.179H117.356C115.035 170.179 113.153 172.152 113.153 174.587V192.654C113.153 195.089 115.035 197.062 117.356 197.062H155.168C157.49 197.062 159.372 195.089 159.372 192.654V174.587C159.372 172.152 157.49 170.179 155.168 170.179Z" fill="#45BD43" stroke="#263238" stroke-linecap="round" stroke-linejoin="round"/>
<path d="M130.323 173.594C131.478 173.594 131.984 174.326 131.984 175.528V179.448C131.984 180.641 131.461 181.373 130.323 181.373H128.579V173.594H130.323ZM130.323 180.563C130.921 180.563 131.204 180.171 131.204 179.457V175.458C131.204 174.744 130.921 174.36 130.315 174.36H129.426V180.563H130.323Z" fill="#263238"/>
<path d="M133.604 179.805L133.314 181.373H132.558L133.978 173.594H135.174L136.595 181.373H135.764L135.482 179.805H133.604ZM133.712 179.065H135.374L134.543 174.569L133.712 179.065Z" fill="#263238"/>
<path d="M137.907 181.373V174.404H136.537V173.611H140.092V174.404H138.721V181.373H137.907Z" fill="#263238"/>
<path d="M141.089 179.805L140.798 181.373H140.034L141.454 173.594H142.659L144.079 181.373H143.248L142.966 179.805H141.089ZM141.197 179.065H142.858L142.027 174.569L141.197 179.065Z" fill="#263238"/>
<path d="M119.865 187.741V188.516H118.021V191.287H120.247V192.071H117.19V184.291H120.247V185.084H118.021V187.741H119.865Z" fill="#263238"/>
<path d="M122.88 188.717L121.643 192.071H120.862L122.357 188.063L120.953 184.291H121.784L122.922 187.401L124.077 184.291H124.857L123.495 188.037L124.982 192.045H124.11L122.88 188.717Z" fill="#263238"/>
<path d="M126.718 192.071V185.102H125.356V184.309H128.903V185.102H127.54V192.071H126.718Z" fill="#263238"/>
<path d="M131.121 184.291C132.283 184.291 132.782 184.919 132.782 186.034V186.67C132.831 187.008 132.766 187.353 132.597 187.646C132.429 187.939 132.168 188.16 131.86 188.273C132.541 188.482 132.79 189.057 132.79 189.893V191.104C132.764 191.423 132.815 191.744 132.94 192.036H132.109C131.996 191.737 131.951 191.415 131.976 191.095V189.867C131.976 188.996 131.577 188.717 130.888 188.717H130.307V192.036H129.476V184.291H131.121ZM130.905 187.959C131.561 187.959 131.96 187.741 131.96 186.896V186.147C131.96 185.45 131.71 185.084 131.129 185.084H130.298V187.959H130.905Z" fill="#263238"/>
<path d="M134.476 190.503L134.194 192.071H133.43L134.85 184.291H136.046L137.467 192.071H136.636L136.345 190.503H134.476ZM134.584 189.762H136.246L135.415 185.267L134.584 189.762Z" fill="#263238"/>
<path d="M141.379 186.173V186.87H140.59V186.13C140.59 185.424 140.333 185.006 139.76 185.006C139.186 185.006 138.887 185.424 138.887 186.13V190.241C138.887 190.938 139.161 191.365 139.76 191.365C140.358 191.365 140.59 190.938 140.59 190.241V189.231H141.379V190.198C141.379 191.374 140.848 192.149 139.718 192.149C138.588 192.149 138.057 191.374 138.057 190.198V186.173C138.057 184.988 138.588 184.213 139.718 184.213C140.848 184.213 141.379 184.988 141.379 186.173Z" fill="#263238"/>
<path d="M143.199 192.071V185.102H141.836V184.309H145.383V185.102H144.021V192.071H143.199Z" fill="#263238"/>
<path d="M146.77 184.291V192.071H145.94V184.291H146.77Z" fill="#263238"/>
<path d="M147.559 186.173C147.559 184.98 148.116 184.213 149.221 184.213C150.326 184.213 150.882 184.98 150.882 186.173V190.198C150.882 191.374 150.326 192.149 149.221 192.149C148.116 192.149 147.559 191.374 147.559 190.198V186.173ZM148.39 190.241C148.39 190.947 148.673 191.365 149.271 191.365C149.869 191.365 150.151 190.947 150.151 190.241V186.13C150.151 185.424 149.877 185.006 149.271 185.006C148.664 185.006 148.39 185.424 148.39 186.13V190.241Z" fill="#263238"/>
<path d="M152.477 192.071H151.729V184.291H152.784L154.496 189.919V184.291H155.227V192.071H154.396L152.502 185.781L152.477 192.071Z" fill="#263238"/>
<path d="M136.262 210.687C139.015 210.687 141.246 208.347 141.246 205.46C141.246 202.574 139.015 200.233 136.262 200.233C133.51 200.233 131.278 202.574 131.278 205.46C131.278 208.347 133.51 210.687 136.262 210.687Z" fill="#263238" stroke="#263238" stroke-linecap="round" stroke-linejoin="round"/>
<path d="M136.262 207.638C137.409 207.638 138.339 206.663 138.339 205.46C138.339 204.257 137.409 203.282 136.262 203.282C135.116 203.282 134.186 204.257 134.186 205.46C134.186 206.663 135.116 207.638 136.262 207.638Z" fill="#45BD43"/>
<path d="M338.389 61.9565H223.483C217.519 61.9565 212.684 67.0268 212.684 73.2814V156.406C212.684 162.661 217.519 167.731 223.483 167.731H338.389C344.353 167.731 349.188 162.661 349.188 156.406V73.2814C349.188 67.0268 344.353 61.9565 338.389 61.9565Z" fill="#263238" stroke="#263238" stroke-linecap="round" stroke-linejoin="round"/>
<path d="M335.747 68.4117H226.124C221.876 68.4117 218.432 72.0233 218.432 76.4785V153.2C218.432 157.655 221.876 161.267 226.124 161.267H335.747C339.996 161.267 343.439 157.655 343.439 153.2V76.4785C343.439 72.0233 339.996 68.4117 335.747 68.4117Z" fill="white" stroke="#263238" stroke-linecap="round" stroke-linejoin="round"/>
<path d="M333.721 83.9268H234.605V87.7162H333.721V83.9268Z" fill="#E0E0E0"/>
<path d="M333.721 92.8473H234.605V96.6367H333.721V92.8473Z" fill="#E0E0E0"/>
<path d="M333.721 101.768H234.605V105.557H333.721V101.768Z" fill="#E0E0E0"/>
<path d="M333.721 110.697H234.605V114.487H333.721V110.697Z" fill="#E0E0E0"/>
<path d="M333.721 119.618H234.605V123.407H333.721V119.618Z" fill="#E0E0E0"/>
<path d="M333.721 128.538H234.605V132.328H333.721V128.538Z" fill="#E0E0E0"/>
<path d="M333.721 137.459H234.605V141.248H333.721V137.459Z" fill="#E0E0E0"/>
<path d="M244.897 106.167H235.245V147.982H244.897V106.167Z" fill="#263238"/>
<path d="M259.658 117.893H250.006V147.982H259.658V117.893Z" fill="#45BD43"/>
<path d="M274.419 110.601H264.767V147.982H274.419V110.601Z" fill="#263238"/>
<path d="M289.188 125.716H279.536V147.991H289.188V125.716Z" fill="#45BD43"/>
<path d="M303.949 111.385H294.297V147.991H303.949V111.385Z" fill="#263238"/>
<path d="M318.719 101.742H309.066V147.982H318.719V101.742Z" fill="#45BD43"/>
<path d="M333.48 95.7482H323.827V147.982H333.48V95.7482Z" fill="#263238"/>
<path d="M227.295 84.6324H230.593" stroke="#263238" stroke-linecap="round" stroke-linejoin="round"/>
<path d="M227.295 89.5979H230.593" stroke="#263238" stroke-linecap="round" stroke-linejoin="round"/>
<path d="M227.295 94.5721H230.593" stroke="#263238" stroke-linecap="round" stroke-linejoin="round"/>
<path d="M227.295 99.5464H230.593" stroke="#263238" stroke-linecap="round" stroke-linejoin="round"/>
<path d="M227.295 104.521H230.593" stroke="#263238" stroke-linecap="round" stroke-linejoin="round"/>
<path d="M227.295 109.486H230.593" stroke="#263238" stroke-linecap="round" stroke-linejoin="round"/>
<path d="M227.295 114.46H230.593" stroke="#263238" stroke-linecap="round" stroke-linejoin="round"/>
<path d="M227.295 119.435H230.593" stroke="#263238" stroke-linecap="round" stroke-linejoin="round"/>
<path d="M227.295 124.409H230.593" stroke="#263238" stroke-linecap="round" stroke-linejoin="round"/>
<path d="M227.295 129.374H230.593" stroke="#263238" stroke-linecap="round" stroke-linejoin="round"/>
<path d="M227.295 134.349H230.593" stroke="#263238" stroke-linecap="round" stroke-linejoin="round"/>
<path d="M227.295 139.323H230.593" stroke="#263238" stroke-linecap="round" stroke-linejoin="round"/>
<path d="M227.295 144.297H230.593" stroke="#263238" stroke-linecap="round" stroke-linejoin="round"/>
<path d="M227.295 149.263H230.593" stroke="#263238" stroke-linecap="round" stroke-linejoin="round"/>
<path d="M333.754 150.691V154.15" stroke="#263238" stroke-linecap="round" stroke-linejoin="round"/>
<path d="M325.879 150.691V154.15" stroke="#263238" stroke-linecap="round" stroke-linejoin="round"/>
<path d="M318.004 150.691V154.15" stroke="#263238" stroke-linecap="round" stroke-linejoin="round"/>
<path d="M310.138 150.691V154.15" stroke="#263238" stroke-linecap="round" stroke-linejoin="round"/>
<path d="M302.263 150.691V154.15" stroke="#263238" stroke-linecap="round" stroke-linejoin="round"/>
<path d="M294.388 150.691V154.15" stroke="#263238" stroke-linecap="round" stroke-linejoin="round"/>
<path d="M286.522 150.691V154.15" stroke="#263238" stroke-linecap="round" stroke-linejoin="round"/>
<path d="M278.647 150.691V154.15" stroke="#263238" stroke-linecap="round" stroke-linejoin="round"/>
<path d="M270.773 150.691V154.15" stroke="#263238" stroke-linecap="round" stroke-linejoin="round"/>
<path d="M262.906 150.691V154.15" stroke="#263238" stroke-linecap="round" stroke-linejoin="round"/>
<path d="M255.031 150.691V154.15" stroke="#263238" stroke-linecap="round" stroke-linejoin="round"/>
<path d="M247.157 150.691V154.15" stroke="#263238" stroke-linecap="round" stroke-linejoin="round"/>
<path d="M239.282 150.691V154.15" stroke="#263238" stroke-linecap="round" stroke-linejoin="round"/>
<path d="M231.416 150.691V154.15" stroke="#263238" stroke-linecap="round" stroke-linejoin="round"/>
<path d="M291.564 75.2937H269.485V79.0919H291.564V75.2937Z" fill="#263238"/>
<path d="M338.389 180.563H223.483C217.519 180.563 212.684 185.633 212.684 191.888V275.013C212.684 281.267 217.519 286.337 223.483 286.337H338.389C344.353 286.337 349.188 281.267 349.188 275.013V191.888C349.188 185.633 344.353 180.563 338.389 180.563Z" fill="#263238" stroke="#263238" stroke-linecap="round" stroke-linejoin="round"/>
<path d="M335.747 187.027H226.124C221.876 187.027 218.432 190.638 218.432 195.094V271.815C218.432 276.271 221.876 279.882 226.124 279.882H335.747C339.996 279.882 343.439 276.271 343.439 271.815V195.094C343.439 190.638 339.996 187.027 335.747 187.027Z" fill="white" stroke="#263238" stroke-linecap="round" stroke-linejoin="round"/>
<path d="M259.949 270.901C251.592 270.901 243.535 267.639 237.344 261.752C231.154 255.865 227.274 247.773 226.46 239.051C225.645 230.329 227.954 221.601 232.938 214.566C237.921 207.531 245.222 202.692 253.42 200.991L255.015 209.546C251.608 210.247 248.375 211.674 245.516 213.74C242.657 215.805 240.233 218.465 238.394 221.553C236.556 224.642 235.342 228.093 234.828 231.694C234.314 235.295 234.512 238.968 235.407 242.486C236.303 246.004 237.879 249.291 240.036 252.143C242.193 254.996 244.887 257.354 247.949 259.069C251.011 260.785 254.376 261.823 257.837 262.119C261.297 262.414 264.778 261.961 268.065 260.787L270.731 269.036C267.258 270.272 263.616 270.902 259.949 270.901Z" fill="#263238"/>
<path d="M283.781 226.577C281.714 220.619 277.688 215.631 272.427 212.509C267.166 209.387 261.015 208.336 255.081 209.546L253.42 200.991C261.31 199.381 269.488 200.778 276.483 204.93C283.478 209.083 288.829 215.718 291.572 223.641L283.781 226.577Z" fill="#45BD43"/>
<path d="M270.756 269.054L268.089 260.804C271.28 259.666 274.222 257.872 276.743 255.527C279.265 253.183 281.316 250.336 282.777 247.151C284.238 243.966 285.079 240.508 285.251 236.978C285.424 233.449 284.924 229.919 283.781 226.594L291.597 223.632C293.114 228.047 293.776 232.734 293.546 237.421C293.316 242.107 292.199 246.698 290.258 250.926C288.318 255.155 285.595 258.935 282.246 262.048C278.898 265.16 274.992 267.542 270.756 269.054Z" fill="#A8A8A8"/>
<path d="M314.217 208.422H304.88V218.214H314.217V208.422Z" fill="#263238"/>
<path d="M314.217 232.387H304.88V242.179H314.217V232.387Z" fill="#45BD43"/>
<path d="M314.217 256.361H304.88V266.153H314.217V256.361Z" fill="#A8A8A8"/>
<path d="M319.126 213.579H334.859" stroke="#263238" stroke-linecap="round" stroke-linejoin="round"/>
<path d="M319.126 236.769H334.859" stroke="#263238" stroke-linecap="round" stroke-linejoin="round"/>
<path d="M251.302 236.255H267.035" stroke="#263238" stroke-linecap="round" stroke-linejoin="round"/>
<path d="M319.126 260.996H334.859" stroke="#263238" stroke-linecap="round" stroke-linejoin="round"/>
<path d="M330.672 344.225H-122.042" stroke="#263238" stroke-width="0.75" stroke-miterlimit="10" stroke-linecap="round"/>
<path d="M365.56 344.225H336.487" stroke="#263238" stroke-width="0.75" stroke-miterlimit="10" stroke-linecap="round"/>
</g>
<defs>
<clipPath id="clip0_100_10315">
<rect width="572" height="345" fill="white" transform="translate(-189)"/>
</clipPath>
</defs>
</svg>
