<svg width="393" height="427" viewBox="0 0 393 427" fill="none" xmlns="http://www.w3.org/2000/svg">
<g clip-path="url(#clip0_100_9647)">
<path d="M475 374.798H-97V375.085H475V374.798Z" fill="#E6E6E6"/>
<path d="M412.743 382.159H386.145V382.445H412.743V382.159Z" fill="#E6E6E6"/>
<path d="M315.984 388.375H189.652V388.662H315.984V388.375Z" fill="#E6E6E6"/>
<path d="M135.61 388.524H123.22V388.81H135.61V388.524Z" fill="#E6E6E6"/>
<path d="M35.2006 385.09H-7.76801V385.376H35.2006V385.09Z" fill="#E6E6E6"/>
<path d="M375.072 382.159H349.926V382.445H375.072V382.159Z" fill="#E6E6E6"/>
<path d="M174.128 323.742H-46.7669C-48.4974 323.739 -50.156 323.049 -51.3785 321.823C-52.6011 320.597 -53.2878 318.937 -53.2878 317.205V6.47941C-53.2727 4.7577 -52.5794 3.11147 -51.3585 1.89828C-50.1375 0.685098 -48.4876 0.00294938 -46.7669 0H174.128C175.86 0 177.522 0.688681 178.747 1.91454C179.972 3.1404 180.66 4.80302 180.66 6.53665V317.205C180.66 318.939 179.972 320.601 178.747 321.827C177.522 323.053 175.86 323.742 174.128 323.742ZM-46.7669 0.228955C-48.4216 0.231988 -50.0074 0.891852 -51.1763 2.06371C-52.3452 3.23557 -53.0018 4.82367 -53.0018 6.47941V317.205C-53.0018 318.861 -52.3452 320.449 -51.1763 321.621C-50.0074 322.792 -48.4216 323.452 -46.7669 323.455H174.128C175.784 323.452 177.371 322.793 178.541 321.621C179.712 320.45 180.371 318.862 180.374 317.205V6.47941C180.371 4.82262 179.712 3.23455 178.541 2.06301C177.371 0.89148 175.784 0.231981 174.128 0.228955H-46.7669Z" fill="#E6E6E6"/>
<path d="M421.587 323.742H200.68C198.949 323.739 197.289 323.049 196.065 321.824C194.84 320.598 194.151 318.938 194.148 317.205V6.47941C194.166 4.75666 194.862 3.11043 196.085 1.89757C197.307 0.684698 198.958 0.00291721 200.68 0H421.587C423.305 0.00595796 424.952 0.689438 426.171 1.9023C427.389 3.11516 428.081 4.75968 428.096 6.47941V317.205C428.096 318.935 427.411 320.594 426.191 321.819C424.971 323.044 423.315 323.736 421.587 323.742ZM200.68 0.228955C199.025 0.231981 197.438 0.89148 196.267 2.06301C195.096 3.23455 194.437 4.82262 194.434 6.47941V317.205C194.437 318.862 195.096 320.45 196.267 321.621C197.438 322.793 199.025 323.452 200.68 323.455H421.587C423.242 323.452 424.829 322.793 426 321.621C427.171 320.45 427.83 318.862 427.833 317.205V6.47941C427.83 4.82262 427.171 3.23455 426 2.06301C424.829 0.89148 423.242 0.231981 421.587 0.228955H200.68Z" fill="#E6E6E6"/>
<path d="M273.164 171.853H359.616V21.2355H273.164V171.853Z" fill="#E6E6E6"/>
<path d="M268.497 171.853H354.949V21.2355H268.497V171.853Z" fill="#F5F5F5"/>
<path d="M346.552 164.79V28.3102L276.871 28.3102V164.79H346.552Z" fill="#FAFAFA"/>
<path d="M280.406 164.79V28.3102H276.871V164.79H280.406Z" fill="#E6E6E6"/>
<path d="M271.963 131.843H351.482V122.353L271.963 122.353V131.843Z" fill="#F5F5F5"/>
<path d="M126.24 171.853H212.692L212.692 21.2355H126.24L126.24 171.853Z" fill="#E6E6E6"/>
<path d="M121.573 171.853H208.025L208.025 21.2355H121.573L121.573 171.853Z" fill="#F5F5F5"/>
<path d="M199.639 164.79V28.3102L129.958 28.3102V164.79H199.639Z" fill="#FAFAFA"/>
<path d="M133.482 164.779V28.2988H129.947V164.779H133.482Z" fill="#E6E6E6"/>
<path d="M125.039 131.843H204.558V122.353L125.039 122.353V131.843Z" fill="#F5F5F5"/>
<path d="M-20.6723 171.853H65.7798L65.7798 21.2355H-20.6723L-20.6723 171.853Z" fill="#E6E6E6"/>
<path d="M-25.3398 171.853H61.1122L61.1122 21.2355H-25.3398L-25.3398 171.853Z" fill="#F5F5F5"/>
<path d="M52.7153 164.779L52.7153 28.2988L-16.9658 28.2988L-16.9658 164.779H52.7153Z" fill="#FAFAFA"/>
<path d="M-21.8735 131.843H57.6459V122.353L-21.8735 122.353V131.843Z" fill="#F5F5F5"/>
<path d="M63.16 265.038C47.5673 267.19 37.9234 233.282 72.312 204.571C70.5159 237.804 90.3643 261.283 63.16 265.038Z" fill="#E6E6E6"/>
<path d="M51.72 309.443C29.1145 293.588 44.5814 238.193 114.537 242.211C84.2897 282.988 91.1422 337.078 51.72 309.443Z" fill="#E0E0E0"/>
<path d="M59.728 309.088C74.7487 292.901 53.3674 252.159 -0.686646 267.041C29.8124 293.829 33.519 337.296 59.728 309.088Z" fill="#E0E0E0"/>
<path d="M40.4401 285.46C35.2464 279.13 29.1145 272.009 30.6017 264.477C32.0889 256.944 35.8069 251.346 32.8897 243.333C29.3433 233.717 30.0297 222.246 36.0243 223.208C42.0189 224.169 48.7341 231.221 48.6083 240.505C48.5053 249.526 54.3283 252.411 59.9339 257.207C65.5395 262.004 67.5186 269.021 68.5139 275.89C70.2528 286.8 84.3812 284.739 88.1335 294.206C92.0117 303.365 84.2782 315.556 71.9116 318.361C59.5449 321.166 50.7361 322.94 42.3049 313.255C33.7363 303.056 48.1278 294.527 40.4401 285.46Z" fill="#F5F5F5"/>
<path d="M82.9855 374.798H36.5277L33.0271 311.47H86.4862L82.9855 374.798Z" fill="#EBEBEB"/>
<path d="M89.9525 310.176H29.5607V316.999H89.9525V310.176Z" fill="#EBEBEB"/>
<path d="M356.871 366.201H388.125V230.58H356.871V366.201Z" fill="#EBEBEB"/>
<path d="M111.952 374.798L382.119 374.798V366.201L111.952 366.201V374.798Z" fill="#EBEBEB"/>
<path d="M356.871 230.58H105.957V366.201H356.871V230.58Z" fill="#F5F5F5"/>
<path d="M344.584 247.271H118.244V291.757H344.584V247.271Z" fill="#EBEBEB"/>
<path d="M344.584 305.025H118.244V349.51H344.584V305.025Z" fill="#EBEBEB"/>
<path d="M161.006 272.559H301.821C302.627 272.556 303.4 272.234 303.97 271.664C304.54 271.093 304.861 270.32 304.864 269.514C304.864 268.705 304.544 267.929 303.974 267.356C303.403 266.784 302.629 266.46 301.821 266.457H161.006C160.198 266.46 159.424 266.784 158.854 267.356C158.284 267.929 157.963 268.705 157.963 269.514C157.966 270.32 158.288 271.093 158.858 271.664C159.428 272.234 160.2 272.556 161.006 272.559Z" fill="#F5F5F5"/>
<path d="M161.006 330.313H301.821C302.627 330.31 303.4 329.988 303.97 329.417C304.54 328.847 304.861 328.074 304.864 327.267C304.861 326.461 304.54 325.688 303.97 325.118C303.4 324.547 302.627 324.225 301.821 324.222H161.006C160.2 324.225 159.428 324.547 158.858 325.118C158.288 325.688 157.966 326.461 157.963 327.267C157.966 328.074 158.288 328.847 158.858 329.417C159.428 329.988 160.2 330.31 161.006 330.313Z" fill="#F5F5F5"/>
<path d="M287.601 210.787C287.601 210.787 323.409 244.741 344.664 210.649C344.664 210.649 339.013 199.694 333.052 198.755C327.092 197.817 326.852 208.234 321.612 205.017C316.373 201.8 310.253 190.799 306.912 196.672C303.572 202.545 298.984 194.176 293.985 193.695C288.986 193.215 287.601 210.787 287.601 210.787Z" fill="#F5F5F5"/>
<path d="M346.941 208.44C346.941 208.44 346.163 230.58 315.984 230.58C285.805 230.58 285.027 208.44 285.027 208.44H346.941Z" fill="#EBEBEB"/>
<path d="M194.274 196.901H211.651V230.58H160.629C160.629 221.65 164.173 213.085 170.482 206.769C176.792 200.454 185.35 196.904 194.274 196.901Z" fill="#F5F5F5"/>
<path d="M227.679 196.901H211.651V230.58H227.679V196.901Z" fill="#E6E6E6"/>
<path d="M189 426.496C311.502 426.496 410.81 420.694 410.81 413.537C410.81 406.381 311.502 400.579 189 400.579C66.4977 400.579 -32.8102 406.381 -32.8102 413.537C-32.8102 420.694 66.4977 426.496 189 426.496Z" fill="#F5F5F5"/>
<path d="M152.392 163.428L151.637 164.572C151.408 164.904 151.168 165.202 150.939 165.511C150.47 166.129 149.978 166.656 149.486 167.286C148.491 168.43 147.484 169.575 146.409 170.582C144.259 172.65 141.965 174.563 139.545 176.306C137.128 178.049 134.585 179.611 131.937 180.977C130.599 181.63 129.272 182.305 127.888 182.854L125.817 183.679L125.233 183.896C124.913 183.999 124.616 184.114 124.261 184.194C123.569 184.367 122.858 184.447 122.145 184.434C120.785 184.425 119.448 184.091 118.244 183.461C117.275 182.955 116.385 182.311 115.601 181.549C114.359 180.324 113.286 178.938 112.409 177.428C110.911 174.815 109.688 172.052 108.76 169.186C106.96 163.782 105.673 158.221 104.916 152.575L109.698 151.522C110.567 154.029 111.46 156.616 112.444 159.112C113.427 161.607 114.411 164.092 115.555 166.45C116.597 168.726 117.837 170.906 119.262 172.964C119.828 173.817 120.509 174.587 121.287 175.253C121.51 175.437 121.761 175.583 122.03 175.688C122.19 175.688 122.179 175.688 122.099 175.688H122.019L122.396 175.505L124.101 174.681C125.245 174.131 126.332 173.536 127.43 172.872C129.596 171.573 131.689 170.155 133.699 168.625C135.682 167.065 137.566 165.383 139.339 163.588C140.231 162.718 141.078 161.791 141.89 160.852C142.29 160.383 142.691 159.913 143.034 159.444L143.583 158.746L144.029 158.15L152.392 163.428Z" fill="#B97964"/>
<path d="M138.538 162.935L144.338 176.856L140.14 179.477L133.619 166.851L138.538 162.935Z" fill="#263238"/>
<path d="M154.955 151.213C145.494 151.087 135.884 163.073 135.644 163.37L143.126 180.977C143.126 180.977 159.771 167.457 160.606 162.168C161.475 156.662 160.949 151.293 154.955 151.213Z" fill="#45BD43"/>
<path opacity="0.3" d="M154.955 151.213C145.494 151.087 135.884 163.073 135.644 163.37L143.126 180.977C143.126 180.977 159.771 167.457 160.606 162.168C161.475 156.662 160.949 151.293 154.955 151.213Z" fill="black"/>
<path d="M108.92 149.702L102.376 144.608L101.049 154.636C101.049 154.636 107.41 157.131 110.796 154.968L110.705 153.136C110.671 152.469 110.494 151.817 110.186 151.225C109.878 150.632 109.446 150.113 108.92 149.702Z" fill="#B97964"/>
<path d="M93.659 144.104L94.0709 151.717L101.084 154.636L102.411 144.608L93.659 144.104Z" fill="#B97964"/>
<path d="M237.048 148.889L247.161 146.359L240.091 139.136C240.091 139.136 233.536 141.814 235.138 147.538L237.048 148.889Z" fill="#B97964"/>
<path d="M252.183 144.562L251.348 136.617L240.034 139.136L247.104 146.359L252.183 144.562Z" fill="#B97964"/>
<path d="M204.066 403.498L194.651 404.402L186.792 382.171L196.207 381.255L204.066 403.498Z" fill="#B97964"/>
<path d="M304.853 356.757L297.92 363.488L280.097 349.568L287.041 342.836L304.853 356.757Z" fill="#B97964"/>
<path d="M295.918 362.183L301.249 352.716C301.339 352.553 301.485 352.429 301.66 352.365C301.834 352.302 302.026 352.305 302.199 352.372L310.298 355.509C310.499 355.596 310.678 355.724 310.826 355.886C310.973 356.047 311.085 356.237 311.154 356.444C311.223 356.652 311.248 356.871 311.227 357.089C311.205 357.306 311.139 357.517 311.031 357.707C309.12 360.981 308.033 362.458 305.688 366.625C304.247 369.189 301.432 375.062 299.442 378.599C297.451 382.136 293.848 380.35 294.362 378.702C296.65 371.295 296.261 367.163 295.644 363.889C295.53 363.305 295.628 362.701 295.918 362.183Z" fill="#263238"/>
<path d="M192.775 401.517H204.215C204.421 401.522 204.619 401.592 204.782 401.718C204.945 401.843 205.063 402.018 205.119 402.216L207.613 411.294C207.676 411.508 207.688 411.735 207.647 411.955C207.606 412.174 207.514 412.382 207.378 412.559C207.242 412.736 207.065 412.879 206.864 412.976C206.662 413.072 206.441 413.119 206.217 413.114C202.202 413.045 200.246 412.805 195.2 412.805C192.1 412.805 181.999 413.137 177.709 413.137C173.419 413.137 172.641 408.89 174.38 408.558C182.159 406.829 188.725 404.459 191.116 402.193C191.559 401.758 192.155 401.515 192.775 401.517Z" fill="#263238"/>
<path d="M186.804 382.171L190.842 393.641H200.589L196.219 381.255L186.804 382.171Z" fill="#A76755"/>
<path d="M287.052 342.836L280.108 349.579L289.295 356.745L296.239 350.014L287.052 342.836Z" fill="#A76755"/>
<path d="M145.745 154.269C145.745 154.269 141.856 157.234 168.065 208.417L205.428 196.34C199.891 181.332 196.848 171.956 193.988 138.38C188.446 138.994 182.956 140.007 177.56 141.414C171.791 142.867 166.123 144.698 160.594 146.897C153.456 149.965 145.745 154.269 145.745 154.269Z" fill="#45BD43"/>
<path opacity="0.3" d="M145.745 154.269C145.745 154.269 141.856 157.234 168.065 208.417L205.428 196.34C199.891 181.332 196.848 171.956 193.988 138.38C188.446 138.994 182.956 140.007 177.56 141.414C171.791 142.867 166.123 144.698 160.594 146.897C153.456 149.965 145.745 154.269 145.745 154.269Z" fill="black"/>
<path d="M169.655 122.834C170.341 128.649 172.504 138.998 177.503 141.414C177.503 141.414 177.789 147.435 167.653 150.709C156.499 154.315 160.537 146.897 160.537 146.897C166.154 143.463 164.53 138.998 162.105 135.106L169.655 122.834Z" fill="#B97964"/>
<path d="M150.905 151.499C153.662 150.068 157.174 148.328 160.537 146.92C166.073 144.681 171.762 142.841 177.56 141.414C180.82 140.521 184.115 139.857 186.895 139.387C187.158 140.166 186.369 142.181 184.435 144.963C178.315 150.045 165.262 156.651 155.641 156.41C151.431 154.842 150.379 153.182 150.905 151.499Z" fill="#B97964"/>
<path d="M184.424 144.962C180.268 150.537 175.302 155.457 169.689 159.558C164.91 158.976 160.201 157.922 155.63 156.41C165.205 156.651 178.258 150.045 184.424 144.962Z" fill="#263238"/>
<path d="M166.578 127.837L162.105 135.083C162.689 135.986 163.19 136.94 163.603 137.934C165.823 136.846 168.648 133.629 168.111 131.065C167.791 129.908 167.273 128.815 166.578 127.837Z" fill="#A76755"/>
<path d="M171.92 112.096C172.492 121.678 172.95 125.719 168.74 131.191C162.413 139.41 150.527 138.06 147.095 128.81C144.018 120.51 143.595 106.235 152.438 101.335C154.381 100.243 156.571 99.6647 158.799 99.6562C161.028 99.6477 163.222 100.209 165.174 101.287C167.125 102.364 168.769 103.923 169.949 105.815C171.13 107.706 171.808 109.869 171.92 112.096Z" fill="#B97964"/>
<path d="M190.832 94.9237C192.995 85.4049 187.037 75.9338 177.525 73.7695C168.012 71.6051 158.548 77.567 156.385 87.0859C154.222 96.6047 160.18 106.076 169.692 108.24C179.204 110.405 188.669 104.443 190.832 94.9237Z" fill="#263238"/>
<path d="M169.197 98.6793C172.835 101.083 174.643 104.77 173.236 106.91C171.829 109.051 167.733 108.845 164.084 106.441C160.434 104.037 158.638 100.351 160.045 98.21C161.452 96.0692 165.548 96.2753 169.197 98.6793Z" fill="#45BD43"/>
<path opacity="0.6" d="M169.197 98.6793C172.835 101.083 174.643 104.77 173.236 106.91C171.829 109.051 167.733 108.845 164.084 106.441C160.434 104.037 158.638 100.351 160.045 98.21C161.452 96.0692 165.548 96.2753 169.197 98.6793Z" fill="#FAFAFA"/>
<path d="M167.264 118.633C168.214 116.435 164.907 109.91 165.617 107.471C163.718 105.697 144.464 111.97 146.02 107.391C147.507 102.995 152.198 97.1683 162.905 99.6066C174.345 102.217 175.341 112.119 174.059 115.279C172.778 118.438 170.959 121.724 170.959 121.724L167.264 118.633Z" fill="#263238"/>
<path d="M174.437 120.499C174.461 122.353 173.754 124.142 172.469 125.478C170.742 127.23 168.66 125.971 168.122 123.704C167.63 121.666 167.95 118.289 170.17 117.396C170.659 117.206 171.188 117.141 171.709 117.208C172.23 117.276 172.725 117.473 173.15 117.782C173.575 118.09 173.915 118.501 174.14 118.976C174.365 119.451 174.467 119.974 174.437 120.499Z" fill="#B97964"/>
<path d="M168.065 208.417C168.065 208.417 150.745 292.947 160.4 320.822C170.444 349.819 186.792 390.299 186.792 390.299L202.064 389.429C202.064 389.429 189.48 338.28 186.38 315.179C182.136 283.331 200.314 198.046 200.314 198.046L168.065 208.417Z" fill="#45BD43"/>
<path opacity="0.6" d="M168.065 208.417C168.065 208.417 150.745 292.947 160.4 320.822C170.444 349.819 186.792 390.299 186.792 390.299L202.064 389.429C202.064 389.429 189.48 338.28 186.38 315.179C182.136 283.331 200.314 198.046 200.314 198.046L168.065 208.417Z" fill="#FAFAFA"/>
<path d="M203.266 389.795L185.591 390.814L182.754 383.853L202.248 381.827L203.266 389.795Z" fill="#45BD43"/>
<path opacity="0.2" d="M203.266 389.795L185.591 390.814L182.754 383.853L202.248 381.827L203.266 389.795Z" fill="black"/>
<path d="M186.38 214.919C183.726 224.742 185.946 239.463 190.956 249.789C192.18 241.776 193.484 234.014 194.72 227.066C192.146 222.086 189.309 217.667 186.38 214.919Z" fill="#45BD43"/>
<path opacity="0.4" d="M186.38 214.919C183.726 224.742 185.946 239.463 190.956 249.789C192.18 241.776 193.484 234.014 194.72 227.066C192.146 222.086 189.309 217.667 186.38 214.919Z" fill="#FAFAFA"/>
<path d="M177.926 205.223C177.926 205.223 203.643 266.732 220.677 300.503C234.405 327.817 285.348 356.402 285.348 356.402L294.5 346.694C294.5 346.694 256.427 312.866 246.932 294.344C216.548 235.056 222.794 209.161 205.451 196.34L177.926 205.223Z" fill="#45BD43"/>
<path opacity="0.6" d="M177.926 205.223C177.926 205.223 203.643 266.732 220.677 300.503C234.405 327.817 285.348 356.402 285.348 356.402L294.5 346.694C294.5 346.694 256.427 312.866 246.932 294.344C216.548 235.056 222.794 209.161 205.451 196.34L177.926 205.223Z" fill="#FAFAFA"/>
<path d="M296.204 345.309L283.62 358.691L275.658 354.502L290.153 339.711L296.204 345.309Z" fill="#45BD43"/>
<path opacity="0.2" d="M296.204 345.309L283.62 358.691L275.658 354.502L290.153 339.711L296.204 345.309Z" fill="black"/>
<path d="M205.279 193.97L208.036 196.775C208.254 196.992 208.036 197.359 207.601 197.496L168.419 210.089C168.076 210.203 167.744 210.089 167.653 209.917L166.246 206.689C166.143 206.46 166.372 206.173 166.738 206.048L204.57 193.833C204.69 193.792 204.818 193.784 204.943 193.808C205.067 193.832 205.183 193.888 205.279 193.97Z" fill="#263238"/>
<path d="M201.584 199.843L202.591 199.522C202.797 199.454 202.911 199.293 202.865 199.179L200.989 194.978C200.989 194.863 200.715 194.817 200.52 194.875L199.502 195.207C199.307 195.207 199.182 195.424 199.239 195.55L201.115 199.74C201.149 199.866 201.355 199.912 201.584 199.843Z" fill="#45BD43"/>
<path opacity="0.6" d="M201.584 199.843L202.591 199.522C202.797 199.454 202.911 199.293 202.865 199.179L200.989 194.978C200.989 194.863 200.715 194.817 200.52 194.875L199.502 195.207C199.307 195.207 199.182 195.424 199.239 195.55L201.115 199.74C201.149 199.866 201.355 199.912 201.584 199.843Z" fill="#FAFAFA"/>
<path d="M171.382 209.596L172.401 209.264C172.595 209.196 172.721 209.047 172.664 208.921L170.788 204.731C170.73 204.605 170.524 204.559 170.318 204.628L169.3 204.949C169.106 205.017 168.98 205.166 169.037 205.292L170.913 209.482C170.971 209.608 171.176 209.654 171.382 209.596Z" fill="#45BD43"/>
<path opacity="0.6" d="M171.382 209.596L172.401 209.264C172.595 209.196 172.721 209.047 172.664 208.921L170.788 204.731C170.73 204.605 170.524 204.559 170.318 204.628L169.3 204.949C169.106 205.017 168.98 205.166 169.037 205.292L170.913 209.482C170.971 209.608 171.176 209.654 171.382 209.596Z" fill="#FAFAFA"/>
<path d="M186.472 204.72L187.478 204.388C187.684 204.388 187.81 204.17 187.753 204.044L185.877 199.854C185.82 199.728 185.602 199.683 185.408 199.751L184.39 200.083C184.195 200.14 184.069 200.301 184.127 200.415L186.003 204.617C186.059 204.682 186.136 204.728 186.22 204.746C186.305 204.765 186.393 204.755 186.472 204.72Z" fill="#45BD43"/>
<path opacity="0.6" d="M186.472 204.72L187.478 204.388C187.684 204.388 187.81 204.17 187.753 204.044L185.877 199.854C185.82 199.728 185.602 199.683 185.408 199.751L184.39 200.083C184.195 200.14 184.069 200.301 184.127 200.415L186.003 204.617C186.059 204.682 186.136 204.728 186.22 204.746C186.305 204.765 186.393 204.755 186.472 204.72Z" fill="#FAFAFA"/>
<path d="M157.826 116.515C157.918 117.282 157.586 117.969 157.082 118.026C156.579 118.083 156.087 117.511 155.996 116.732C155.904 115.954 156.236 115.279 156.739 115.221C157.243 115.164 157.734 115.736 157.826 116.515Z" fill="#263238"/>
<path d="M149.074 117.58C149.177 118.358 148.834 119.033 148.331 119.091C147.827 119.148 147.336 118.575 147.244 117.808C147.152 117.041 147.484 116.355 147.988 116.286C148.491 116.217 148.96 116.767 149.074 117.58Z" fill="#263238"/>
<path d="M148.216 116.309L146.294 116C146.294 116 147.427 117.339 148.216 116.309Z" fill="#263238"/>
<path d="M151.557 118.633C151.079 120.482 150.351 122.257 149.395 123.91C149.826 124.14 150.301 124.275 150.788 124.307C151.275 124.338 151.764 124.266 152.22 124.093L151.557 118.633Z" fill="#A24E3F"/>
<path d="M155.286 126.806C155.231 126.807 155.178 126.788 155.136 126.752C155.094 126.716 155.066 126.666 155.058 126.612C155.054 126.55 155.073 126.49 155.111 126.441C155.148 126.392 155.203 126.36 155.263 126.348C156.227 126.252 157.155 125.931 157.972 125.41C158.789 124.889 159.471 124.183 159.965 123.349C159.978 123.321 159.995 123.296 160.018 123.274C160.04 123.253 160.067 123.237 160.095 123.226C160.124 123.216 160.155 123.211 160.186 123.212C160.216 123.214 160.246 123.221 160.274 123.235C160.301 123.248 160.326 123.267 160.345 123.29C160.365 123.312 160.381 123.339 160.39 123.368C160.4 123.396 160.404 123.427 160.401 123.457C160.399 123.487 160.391 123.517 160.377 123.544C159.857 124.453 159.127 125.225 158.247 125.792C157.367 126.36 156.363 126.708 155.321 126.806H155.286Z" fill="#263238"/>
<path d="M158.913 113.767C158.803 113.766 158.698 113.726 158.615 113.653C158.193 113.261 157.682 112.977 157.127 112.824C156.571 112.67 155.987 112.652 155.424 112.771C155.365 112.789 155.304 112.794 155.243 112.788C155.182 112.781 155.123 112.762 155.07 112.732C155.017 112.702 154.97 112.662 154.932 112.614C154.895 112.565 154.867 112.51 154.852 112.451C154.834 112.393 154.829 112.332 154.836 112.272C154.843 112.212 154.862 112.154 154.892 112.102C154.922 112.049 154.962 112.004 155.01 111.967C155.058 111.931 155.113 111.905 155.172 111.89C155.881 111.734 156.617 111.749 157.32 111.934C158.022 112.12 158.67 112.469 159.21 112.955C159.253 112.997 159.288 113.048 159.311 113.104C159.335 113.16 159.347 113.22 159.347 113.281C159.347 113.342 159.335 113.402 159.311 113.458C159.288 113.514 159.253 113.565 159.21 113.607C159.134 113.696 159.028 113.753 158.913 113.767Z" fill="#263238"/>
<path d="M144.556 114.031C144.488 114.047 144.417 114.047 144.35 114.031C144.244 113.973 144.165 113.876 144.129 113.761C144.092 113.646 144.102 113.521 144.155 113.413C144.468 112.758 144.932 112.187 145.509 111.747C146.086 111.307 146.759 111.011 147.473 110.883C147.592 110.87 147.712 110.905 147.807 110.98C147.901 111.055 147.962 111.164 147.976 111.283C147.984 111.344 147.98 111.405 147.964 111.463C147.948 111.522 147.921 111.577 147.884 111.625C147.846 111.673 147.8 111.713 147.747 111.743C147.694 111.772 147.636 111.791 147.576 111.798C147.011 111.904 146.48 112.143 146.026 112.495C145.572 112.847 145.209 113.303 144.967 113.825C144.923 113.892 144.862 113.947 144.789 113.983C144.717 114.02 144.636 114.036 144.556 114.031Z" fill="#263238"/>
<path d="M201.584 147.321L202.019 147.87L202.556 148.523C202.922 148.958 203.3 149.404 203.7 149.839C204.49 150.721 205.313 151.591 206.194 152.415C207.919 154.107 209.741 155.697 211.651 157.177C213.591 158.647 215.603 160.019 217.68 161.287C218.721 161.917 219.785 162.512 220.86 163.096L222.496 163.931L223.286 164.332C223.48 164.424 223.675 164.515 223.858 164.584C224.442 164.827 225.067 164.956 225.699 164.962C226.281 164.928 226.839 164.721 227.301 164.366C228.834 163.095 230.045 161.479 230.836 159.65C231.898 157.445 232.752 155.145 233.387 152.781C234.094 150.37 234.679 147.925 235.137 145.455L240.022 145.764C240.175 151.399 239.371 157.02 237.643 162.386C237.153 163.849 236.521 165.26 235.755 166.599C234.905 168.125 233.807 169.498 232.506 170.663C230.957 172.039 229.063 172.969 227.027 173.353C225.047 173.698 223.013 173.557 221.101 172.941C220.654 172.815 220.243 172.654 219.819 172.494L218.824 172.082L216.879 171.269C215.587 170.685 214.317 170.125 213.07 169.415C210.567 168.093 208.155 166.606 205.851 164.962C203.544 163.297 201.347 161.484 199.273 159.535C198.244 158.551 197.248 157.509 196.276 156.433C195.795 155.884 195.315 155.288 194.857 154.762L194.159 153.857C193.919 153.537 193.736 153.285 193.416 152.827L201.584 147.321Z" fill="#B97964"/>
<path d="M209.695 153.354L202.534 165.385L199.044 162.088L205.657 150.034L209.695 153.354Z" fill="#263238"/>
<path d="M194.034 138.38C198.152 138.311 208.151 150.125 208.151 150.125L199.456 165.271C199.456 165.271 188.382 155.506 188.394 150.16C188.405 144.585 189.343 138.517 194.034 138.38Z" fill="#45BD43"/>
<path opacity="0.3" d="M194.034 138.38C198.152 138.311 208.151 150.125 208.151 150.125L199.456 165.271C199.456 165.271 188.382 155.506 188.394 150.16C188.405 144.585 189.343 138.517 194.034 138.38Z" fill="black"/>
<path d="M294.042 367.323C293.724 367.311 293.418 367.194 293.173 366.991C293.058 366.914 292.966 366.808 292.908 366.683C292.849 366.557 292.826 366.419 292.841 366.281C292.944 365.045 296.044 363.419 296.387 363.236C296.425 363.212 296.468 363.198 296.513 363.198C296.558 363.198 296.602 363.212 296.639 363.236C296.673 363.265 296.699 363.302 296.713 363.345C296.727 363.387 296.729 363.433 296.719 363.477C296.364 364.713 295.575 366.842 294.431 367.22C294.308 367.277 294.177 367.312 294.042 367.323ZM296.113 363.889C294.9 364.576 293.356 365.652 293.298 366.293C293.289 366.355 293.3 366.418 293.329 366.473C293.357 366.529 293.403 366.574 293.459 366.602C293.565 366.706 293.699 366.779 293.844 366.813C293.989 366.847 294.14 366.842 294.282 366.796C294.912 366.613 295.575 365.537 296.113 363.912V363.889Z" fill="#45BD43"/>
<path d="M293.619 364.324C293.116 364.366 292.613 364.242 292.189 363.969C292.051 363.85 291.958 363.688 291.925 363.509C291.891 363.33 291.92 363.145 292.006 362.984C292.067 362.818 292.166 362.669 292.296 362.548C292.425 362.426 292.58 362.337 292.749 362.286C294.076 361.84 296.502 363.179 296.605 363.236C296.642 363.256 296.673 363.286 296.695 363.322C296.717 363.358 296.73 363.4 296.73 363.442C296.729 363.482 296.717 363.52 296.698 363.554C296.678 363.588 296.65 363.616 296.616 363.637C295.682 364.09 294.657 364.324 293.619 364.324ZM293.379 362.652C293.216 362.65 293.054 362.673 292.898 362.721C292.792 362.754 292.696 362.81 292.614 362.885C292.533 362.961 292.47 363.053 292.429 363.156C292.315 363.431 292.429 363.545 292.429 363.625C292.944 364.06 294.843 363.877 295.93 363.431C295.137 363.01 294.271 362.745 293.379 362.652Z" fill="#45BD43"/>
<path d="M187.696 403.418C186.896 403.485 186.094 403.297 185.408 402.88C185.228 402.748 185.082 402.575 184.98 402.376C184.879 402.178 184.826 401.958 184.824 401.735C184.811 401.614 184.83 401.491 184.881 401.381C184.931 401.27 185.01 401.175 185.11 401.105C186.151 400.395 190.064 402.181 190.83 402.536C190.874 402.558 190.91 402.593 190.933 402.636C190.955 402.679 190.964 402.728 190.956 402.777C190.952 402.823 190.934 402.867 190.903 402.902C190.872 402.937 190.83 402.962 190.785 402.971C189.773 403.224 188.738 403.373 187.696 403.418ZM185.865 401.437C185.711 401.423 185.556 401.455 185.419 401.529C185.385 401.552 185.358 401.586 185.341 401.624C185.325 401.663 185.32 401.705 185.328 401.746C185.332 401.896 185.37 402.043 185.439 402.176C185.509 402.309 185.607 402.424 185.728 402.513C186.632 403.2 188.783 402.937 190.041 402.708C188.721 402.077 187.313 401.648 185.865 401.437Z" fill="#45BD43"/>
<path d="M190.785 403.017H190.693C189.4 402.49 186.792 400.395 186.941 399.308C186.941 399.068 187.124 398.77 187.719 398.701C190.007 398.404 190.968 402.582 191.002 402.754C191.012 402.795 191.01 402.837 190.998 402.877C190.986 402.918 190.964 402.954 190.933 402.983C190.889 403.009 190.837 403.021 190.785 403.017ZM187.925 399.136H187.776C187.536 399.136 187.398 399.239 187.387 399.354C187.307 399.972 189.103 401.643 190.43 402.353C190.144 401.369 189.297 399.136 187.925 399.136Z" fill="#45BD43"/>
<path d="M156.968 115.233L155.046 114.924C155.046 114.924 156.179 116.263 156.968 115.233Z" fill="#263238"/>
<path d="M85.3994 35.2361C83.3745 37.7775 72.2205 40.7653 63.3545 39.9411C60.3 59.9975 70.9735 83.0876 70.9735 83.0876C70.9735 83.0876 94.1395 80.3287 94.7115 70.7813C95.2835 61.2339 85.3994 35.2361 85.3994 35.2361Z" fill="#45BD43"/>
<path opacity="0.4" d="M85.3994 35.2361C83.3745 37.7775 72.2205 40.7653 63.3545 39.9411C60.3 59.9975 70.9735 83.0876 70.9735 83.0876C70.9735 83.0876 94.1395 80.3287 94.7115 70.7813C95.2835 61.2339 85.3994 35.2361 85.3994 35.2361Z" fill="#FAFAFA"/>
<path d="M260.763 19.9763C262.834 22.8954 273.347 25.7917 281.481 24.2806C285.84 48.0232 277.763 76.2304 277.763 76.2304C277.763 76.2304 256.176 74.3071 254.883 62.9625C253.59 51.6178 260.763 19.9763 260.763 19.9763Z" fill="#45BD43"/>
<path opacity="0.4" d="M260.763 19.9763C262.834 22.8954 273.347 25.7917 281.481 24.2806C285.84 48.0232 277.763 76.2304 277.763 76.2304C277.763 76.2304 256.176 74.3071 254.883 62.9625C253.59 51.6178 260.763 19.9763 260.763 19.9763Z" fill="#FAFAFA"/>
<path d="M108.92 225.6C108.755 225.624 108.588 225.616 108.426 225.575C108.265 225.534 108.114 225.461 107.981 225.361C107.848 225.261 107.736 225.135 107.652 224.992C107.567 224.848 107.512 224.689 107.49 224.524L80.32 31.6644C80.2977 31.4941 80.3098 31.321 80.3557 31.1555C80.4015 30.9899 80.4801 30.8353 80.5868 30.7008C80.6935 30.5662 80.8261 30.4545 80.9768 30.3723C81.1275 30.29 81.2932 30.2389 81.464 30.2219C81.6293 30.1994 81.7973 30.2096 81.9587 30.252C82.12 30.2945 82.2713 30.3683 82.4041 30.4693C82.5369 30.5703 82.6485 30.6965 82.7326 30.8406C82.8166 30.9848 82.8715 31.1441 82.894 31.3095L110.064 224.158C110.086 224.328 110.074 224.501 110.028 224.667C109.983 224.832 109.904 224.987 109.797 225.121C109.69 225.256 109.558 225.368 109.407 225.45C109.256 225.532 109.091 225.583 108.92 225.6Z" fill="#45BD43"/>
<path opacity="0.2" d="M108.92 225.6C108.755 225.624 108.588 225.616 108.426 225.575C108.265 225.534 108.114 225.461 107.981 225.361C107.848 225.261 107.736 225.135 107.652 224.992C107.567 224.848 107.512 224.689 107.49 224.524L80.32 31.6644C80.2977 31.4941 80.3098 31.321 80.3557 31.1555C80.4015 30.9899 80.4801 30.8353 80.5868 30.7008C80.6935 30.5662 80.8261 30.4545 80.9768 30.3723C81.1275 30.29 81.2932 30.2389 81.464 30.2219C81.6293 30.1994 81.7973 30.2096 81.9587 30.252C82.12 30.2945 82.2713 30.3683 82.4041 30.4693C82.5369 30.5703 82.6485 30.6965 82.7326 30.8406C82.8166 30.9848 82.8715 31.1441 82.894 31.3095L110.064 224.158C110.086 224.328 110.074 224.501 110.028 224.667C109.983 224.832 109.904 224.987 109.797 225.121C109.69 225.256 109.558 225.368 109.407 225.45C109.256 225.532 109.091 225.583 108.92 225.6Z" fill="black"/>
<path d="M238.386 211.268C238.557 211.29 238.73 211.278 238.895 211.232C239.06 211.186 239.215 211.107 239.349 211.001C239.484 210.894 239.595 210.761 239.678 210.61C239.76 210.46 239.811 210.294 239.828 210.123L267.055 17.2746C267.079 17.1092 267.071 16.9407 267.03 16.7786C266.989 16.6165 266.916 16.4641 266.817 16.3301C266.717 16.1961 266.591 16.0832 266.448 15.9977C266.304 15.9123 266.145 15.856 265.98 15.8322C265.81 15.8099 265.637 15.822 265.471 15.8679C265.306 15.9138 265.151 15.9924 265.017 16.0992C264.882 16.206 264.771 16.3387 264.689 16.4895C264.606 16.6403 264.555 16.8061 264.538 16.977L237.311 209.825C237.265 210.159 237.352 210.497 237.553 210.767C237.755 211.037 238.054 211.217 238.386 211.268Z" fill="#45BD43"/>
<path opacity="0.2" d="M238.386 211.268C238.557 211.29 238.73 211.278 238.895 211.232C239.06 211.186 239.215 211.107 239.349 211.001C239.484 210.894 239.595 210.761 239.678 210.61C239.76 210.46 239.811 210.294 239.828 210.123L267.055 17.2746C267.079 17.1092 267.071 16.9407 267.03 16.7786C266.989 16.6165 266.916 16.4641 266.817 16.3301C266.717 16.1961 266.591 16.0832 266.448 15.9977C266.304 15.9123 266.145 15.856 265.98 15.8322C265.81 15.8099 265.637 15.822 265.471 15.8679C265.306 15.9138 265.151 15.9924 265.017 16.0992C264.882 16.206 264.771 16.3387 264.689 16.4895C264.606 16.6403 264.555 16.8061 264.538 16.977L237.311 209.825C237.265 210.159 237.352 210.497 237.553 210.767C237.755 211.037 238.054 211.217 238.386 211.268Z" fill="black"/>
<path d="M79.2332 35.7398L84.3812 73.6088C84.4127 73.8482 84.4956 74.0778 84.6242 74.282C84.7529 74.4862 84.9242 74.6601 85.1264 74.7917C85.3286 74.9234 85.5569 75.0096 85.7956 75.0445C86.0342 75.0794 86.2777 75.0622 86.5091 74.994C98.0177 71.6971 162.013 55.2581 260.317 65.7214C260.734 65.7695 261.155 65.6584 261.494 65.4101C261.833 65.1618 262.067 64.7947 262.147 64.382C264.001 54.7888 267.192 27.4631 268.005 20.4685C268.053 20.0276 267.927 19.5851 267.653 19.2362C267.38 18.8873 266.98 18.6598 266.54 18.6025C253.339 16.9312 163.226 6.9373 80.3886 33.9081C80.0139 34.0323 79.6938 34.2828 79.4831 34.6169C79.2724 34.9509 79.1841 35.3478 79.2332 35.7398Z" fill="#45BD43"/>
<path opacity="0.6" d="M79.2332 35.7398L84.3812 73.6088C84.4127 73.8482 84.4956 74.0778 84.6242 74.282C84.7529 74.4862 84.9242 74.6601 85.1264 74.7917C85.3286 74.9234 85.5569 75.0096 85.7956 75.0445C86.0342 75.0794 86.2777 75.0622 86.5091 74.994C98.0177 71.6971 162.013 55.2581 260.317 65.7214C260.734 65.7695 261.155 65.6584 261.494 65.4101C261.833 65.1618 262.067 64.7947 262.147 64.382C264.001 54.7888 267.192 27.4631 268.005 20.4685C268.053 20.0276 267.927 19.5851 267.653 19.2362C267.38 18.8873 266.98 18.6598 266.54 18.6025C253.339 16.9312 163.226 6.9373 80.3886 33.9081C80.0139 34.0323 79.6938 34.2828 79.4831 34.6169C79.2724 34.9509 79.1841 35.3478 79.2332 35.7398Z" fill="#FAFAFA"/>
<path d="M95.7411 42.3566L101.164 41.2118L104.996 51.1828L105.968 40.2387L111.38 39.094L116.127 48.8703L116.196 38.1209L121.596 36.9761L120.886 56.3228L115.292 57.4676L109.927 46.4548L108.783 58.7726L103.189 59.9174L95.7411 42.3566Z" fill="#FAFAFA"/>
<path d="M124.25 36.7701L139.682 34.4805L140.186 38.4643L130.53 39.8838L130.908 42.8603L139.865 41.5438L140.346 45.3559L131.388 46.6723L131.8 50.37L141.741 48.9161L142.279 53.1518L126.56 55.4413L124.25 36.7701Z" fill="#FAFAFA"/>
<path d="M143.606 34.034L149.395 33.4044L150.63 47.5653L159.656 46.5922L160.068 51.1713L145.196 52.774L143.606 34.034Z" fill="#FAFAFA"/>
<path d="M174.197 42.4252L179.356 43.57C179.142 44.8925 178.655 46.1557 177.926 47.2791C177.257 48.2904 176.344 49.1171 175.272 49.6831C173.987 50.3026 172.59 50.6532 171.165 50.7134C169.464 50.8948 167.744 50.7114 166.12 50.1753C164.714 49.5671 163.519 48.5552 162.688 47.2676C161.593 45.5836 161.002 43.6215 160.983 41.6124C160.683 38.9767 161.44 36.3295 163.088 34.2516C163.971 33.3136 165.034 32.5636 166.214 32.0463C167.393 31.529 168.665 31.255 169.952 31.2408C171.894 30.9869 173.866 31.3471 175.592 32.2711C177.109 33.2798 178.25 34.7604 178.841 36.4839L173.773 37.995C173.634 37.5542 173.421 37.14 173.144 36.7701C172.793 36.3543 172.345 36.0318 171.84 35.8314C171.018 35.4953 170.102 35.4677 169.261 35.7538C168.42 36.0399 167.711 36.6203 167.264 37.3882C166.708 38.5646 166.498 39.8747 166.658 41.166C166.757 43.2495 167.138 44.6575 167.802 45.3902C168.147 45.7554 168.574 46.0338 169.047 46.2029C169.52 46.372 170.026 46.4269 170.524 46.3633C170.994 46.3575 171.456 46.2525 171.882 46.0553C172.308 45.858 172.687 45.5728 172.995 45.2185C173.628 44.4056 174.042 43.4438 174.197 42.4252Z" fill="#FAFAFA"/>
<path d="M181.472 40.2387C181.383 38.9219 181.555 37.6004 181.979 36.3507C182.403 35.101 183.071 33.9478 183.944 32.9579C184.879 32.0366 185.99 31.3125 187.21 30.8288C188.431 30.345 189.735 30.1114 191.048 30.1418C192.35 30.012 193.666 30.1479 194.914 30.5415C196.163 30.935 197.319 31.5779 198.312 32.4313C199.204 33.3583 199.896 34.4581 200.347 35.663C200.797 36.868 200.996 38.1525 200.932 39.4374C201.031 41.3175 200.678 43.194 199.902 44.9094C199.202 46.338 198.101 47.5315 196.733 48.3437C195.143 49.2325 193.35 49.6977 191.528 49.6945C189.729 49.8211 187.924 49.5312 186.254 48.8474C184.818 48.1866 183.62 47.0995 182.822 45.7336C181.884 44.0578 181.418 42.1588 181.472 40.2387ZM187.273 40.0784C187.171 41.5284 187.576 42.9686 188.417 44.1538C188.774 44.5577 189.221 44.8718 189.721 45.0707C190.222 45.2696 190.763 45.3476 191.299 45.2986C191.848 45.3109 192.392 45.1989 192.892 44.971C193.391 44.743 193.832 44.4049 194.182 43.9821C194.98 42.6509 195.322 41.0952 195.155 39.5518C195.253 38.1697 194.846 36.799 194.011 35.6939C193.645 35.2916 193.192 34.979 192.686 34.7804C192.18 34.5819 191.635 34.5028 191.094 34.5492C190.556 34.5475 190.025 34.6671 189.539 34.8989C189.054 35.1308 188.627 35.469 188.291 35.8886C187.486 37.1247 187.127 38.5988 187.273 40.067V40.0784Z" fill="#FAFAFA"/>
<path d="M204.455 30.096H212.086L214.717 41.6239L217.955 30.1761L225.585 30.2448L225.07 49.1336H220.311L220.7 34.7209L216.651 49.0992H212.349L209.089 34.6522L208.7 49.0649H203.941L204.455 30.096Z" fill="#FAFAFA"/>
<path d="M229.772 30.428L245.296 31.1264L245.056 35.1559L235.332 34.7209L235.138 37.7775L244.152 38.1781L243.912 41.9673L234.897 41.5667L234.669 45.2986L244.667 45.7336L244.393 50.0151L228.582 49.3053L229.772 30.428Z" fill="#FAFAFA"/>
</g>
<defs>
<clipPath id="clip0_100_9647">
<rect width="572" height="427" fill="white" transform="translate(-97)"/>
</clipPath>
</defs>
</svg>
