<svg width="393" height="357" viewBox="0 0 393 357" fill="none" xmlns="http://www.w3.org/2000/svg">
<g clip-path="url(#clip0_100_11505)">
<path d="M388.104 328.756H356.442V328.995H388.104V328.756Z" fill="#EBEBEB"/>
<path d="M274.646 331.359H266.339V331.598H274.646V331.359Z" fill="#EBEBEB"/>
<path d="M355.486 319.874H337.14V320.113H355.486V319.874Z" fill="#EBEBEB"/>
<path d="M49.4414 321.482H8.15173V321.721H49.4414V321.482Z" fill="#EBEBEB"/>
<path d="M64.0108 321.482H57.9594V321.721H64.0108V321.482Z" fill="#EBEBEB"/>
<path d="M173.243 325.521H83.6853V325.76H173.243V325.521Z" fill="#EBEBEB"/>
<path d="M185.91 270.669H1.30678C-0.140972 270.669 -1.52943 270.093 -2.55314 269.069C-3.57686 268.044 -4.15198 266.654 -4.15198 265.204V5.41721C-4.13937 3.97609 -3.5587 2.5983 -2.53634 1.58373C-1.51399 0.569154 -0.132728 -5.52498e-05 1.30678 4.02228e-09H185.91C186.627 4.02228e-09 187.337 0.141357 187.999 0.416002C188.662 0.690648 189.263 1.0932 189.77 1.60068C190.277 2.10816 190.679 2.71063 190.954 3.37368C191.228 4.03673 191.369 4.74738 191.369 5.46507V265.204C191.369 265.922 191.228 266.632 190.954 267.296C190.679 267.959 190.277 268.561 189.77 269.069C189.263 269.576 188.662 269.979 187.999 270.253C187.337 270.528 186.627 270.669 185.91 270.669ZM1.30678 0.191422C-0.0768085 0.193952 -1.40301 0.745336 -2.38135 1.72481C-3.3597 2.70429 -3.91045 4.03202 -3.91298 5.41721V265.204C-3.91045 266.589 -3.3597 267.917 -2.38135 268.896C-1.40301 269.876 -0.0768085 270.427 1.30678 270.43H185.91C187.294 270.427 188.62 269.876 189.599 268.896C190.577 267.917 191.128 266.589 191.13 265.204V5.41721C191.128 4.03202 190.577 2.70429 189.599 1.72481C188.62 0.745336 187.294 0.193952 185.91 0.191422H1.30678Z" fill="#EBEBEB"/>
<path d="M392.693 270.669H208.09C206.642 270.669 205.253 270.093 204.23 269.069C203.206 268.044 202.631 266.654 202.631 265.204V5.41721C202.643 3.97609 203.224 2.5983 204.246 1.58373C205.269 0.569154 206.65 -5.52498e-05 208.09 4.02228e-09H392.693C394.141 4.02229e-09 395.529 0.575782 396.553 1.60068C397.577 2.62558 398.152 4.01564 398.152 5.46507V265.204C398.152 266.654 397.577 268.044 396.553 269.069C395.529 270.093 394.141 270.669 392.693 270.669ZM208.09 0.191422C206.706 0.193952 205.38 0.745336 204.401 1.72481C203.423 2.70429 202.872 4.03202 202.87 5.41721V265.204C202.872 266.589 203.423 267.917 204.401 268.896C205.38 269.876 206.706 270.427 208.09 270.43H392.693C394.077 270.427 395.403 269.876 396.381 268.896C397.36 267.917 397.91 266.589 397.913 265.204V5.41721C397.91 4.03202 397.36 2.70429 396.381 1.72481C395.403 0.745336 394.077 0.193952 392.693 0.191422H208.09Z" fill="#EBEBEB"/>
<path d="M436 313.356H-42V313.595H436V313.356Z" fill="#EBEBEB"/>
<path d="M72.0795 248.608C71.2764 239.362 61.8503 235.907 50.6746 236.883C39.499 237.86 30.8281 242.904 31.612 252.149L72.0795 248.608Z" fill="#F0F0F0"/>
<path d="M50.3114 232.663C55.4929 232.203 57.1468 227.82 56.6975 222.632C56.2481 217.445 53.8295 213.415 48.6671 213.865C43.5047 214.315 41.8317 218.708 42.281 223.895C42.7303 229.083 45.1299 233.112 50.3114 232.663Z" fill="#F0F0F0"/>
<path d="M283.136 51.6837C283.226 52.7098 283.011 53.7398 282.517 54.6433C282.023 55.5469 281.272 56.2834 280.359 56.7596C279.447 57.2358 278.414 57.4304 277.391 57.3186C276.368 57.2069 275.402 56.794 274.613 56.132C273.825 55.47 273.25 54.5888 272.962 53.5999C272.674 52.6109 272.686 51.5586 272.996 50.5762C273.305 49.5938 273.899 48.7255 274.702 48.081C275.504 47.4365 276.48 47.0448 277.505 46.9556C278.878 46.8361 280.242 47.2669 281.297 48.1534C282.353 49.0399 283.014 50.3096 283.136 51.6837Z" fill="#F5F5F5"/>
<path d="M311.882 49.1377C311.971 50.1617 311.755 51.1891 311.26 52.0899C310.766 52.9907 310.016 53.7246 309.105 54.1986C308.194 54.6726 307.163 54.8655 306.142 54.753C305.122 54.6405 304.158 54.2275 303.372 53.5663C302.586 52.9052 302.013 52.0255 301.726 51.0385C301.44 50.0516 301.452 49.0016 301.761 48.0215C302.07 47.0414 302.663 46.1752 303.464 45.5322C304.265 44.8893 305.238 44.4987 306.261 44.4096C307.632 44.2928 308.994 44.7248 310.047 45.611C311.101 46.4973 311.761 47.7654 311.882 49.1377Z" fill="#F5F5F5"/>
<path d="M340.639 46.6206C340.73 47.6467 340.514 48.6767 340.02 49.5802C339.526 50.4838 338.775 51.2202 337.863 51.6965C336.95 52.1727 335.917 52.3672 334.895 52.2555C333.872 52.1438 332.905 51.7308 332.117 51.0689C331.328 50.4069 330.754 49.5257 330.466 48.5367C330.178 47.5478 330.189 46.4955 330.499 45.5131C330.808 44.5307 331.402 43.6624 332.205 43.0179C333.007 42.3734 333.983 41.9817 335.008 41.8925C336.381 41.773 337.745 42.2038 338.801 43.0903C339.856 43.9768 340.518 45.2465 340.639 46.6206Z" fill="#F5F5F5"/>
<path d="M285.698 80.9902C285.788 82.0163 285.573 83.0463 285.079 83.9499C284.585 84.8534 283.834 85.5899 282.922 86.0661C282.009 86.5423 280.976 86.7369 279.953 86.6252C278.93 86.5135 277.964 86.1005 277.175 85.4385C276.387 84.7765 275.812 83.8953 275.524 82.9064C275.237 81.9174 275.248 80.8652 275.558 79.8828C275.867 78.9004 276.461 78.032 277.264 77.3875C278.066 76.743 279.042 76.3514 280.067 76.2621C281.44 76.1427 282.804 76.5735 283.859 77.4599C284.915 78.3464 285.576 79.6161 285.698 80.9902Z" fill="#F5F5F5"/>
<path d="M314.445 78.4826C314.533 79.5066 314.317 80.534 313.822 81.4348C313.328 82.3356 312.578 83.0695 311.667 83.5435C310.756 84.0175 309.725 84.2104 308.705 84.0979C307.684 83.9854 306.72 83.5724 305.934 82.9112C305.148 82.2501 304.575 81.3704 304.288 80.3834C304.002 79.3964 304.014 78.3465 304.323 77.3664C304.632 76.3863 305.225 75.52 306.026 74.8771C306.827 74.2342 307.801 73.8436 308.823 73.7545C309.503 73.6954 310.187 73.7708 310.837 73.9764C311.487 74.182 312.09 74.5138 312.612 74.9529C313.134 75.392 313.565 75.9297 313.879 76.5353C314.193 77.1409 314.386 77.8026 314.445 78.4826Z" fill="#F5F5F5"/>
<path d="M343.201 75.9558C343.292 76.9819 343.076 78.0119 342.582 78.9154C342.088 79.819 341.337 80.5554 340.425 81.0317C339.513 81.5079 338.48 81.7024 337.457 81.5907C336.434 81.479 335.467 81.0661 334.679 80.4041C333.89 79.7421 333.316 78.8609 333.028 77.8719C332.74 76.883 332.751 75.8307 333.061 74.8483C333.371 73.8659 333.964 72.9976 334.767 72.3531C335.57 71.7086 336.545 71.3169 337.57 71.2277C338.943 71.1082 340.307 71.539 341.363 72.4255C342.418 73.312 343.08 74.5817 343.201 75.9558Z" fill="#F5F5F5"/>
<path d="M288.26 110.335C288.348 111.359 288.132 112.386 287.638 113.287C287.143 114.188 286.393 114.922 285.482 115.396C284.571 115.87 283.54 116.063 282.52 115.95C281.499 115.838 280.535 115.425 279.749 114.764C278.963 114.102 278.39 113.223 278.103 112.236C277.817 111.249 277.829 110.199 278.138 109.219C278.447 108.239 279.04 107.372 279.841 106.729C280.642 106.087 281.616 105.696 282.638 105.607C283.318 105.546 284.003 105.621 284.653 105.826C285.304 106.031 285.908 106.363 286.43 106.802C286.952 107.242 287.383 107.78 287.697 108.386C288.011 108.992 288.202 109.655 288.26 110.335Z" fill="#F5F5F5"/>
<path d="M317.016 107.808C317.107 108.834 316.892 109.864 316.397 110.768C315.903 111.671 315.152 112.408 314.24 112.884C313.328 113.36 312.295 113.555 311.272 113.443C310.249 113.331 309.282 112.918 308.494 112.257C307.706 111.595 307.131 110.713 306.843 109.724C306.555 108.735 306.567 107.683 306.876 106.701C307.186 105.718 307.779 104.85 308.582 104.205C309.385 103.561 310.36 103.169 311.385 103.08C312.758 102.961 314.122 103.391 315.178 104.278C316.234 105.164 316.895 106.434 317.016 107.808Z" fill="#F5F5F5"/>
<path d="M345.763 105.281C345.854 106.308 345.638 107.338 345.144 108.241C344.65 109.145 343.899 109.881 342.987 110.357C342.075 110.834 341.042 111.028 340.019 110.916C338.996 110.805 338.029 110.392 337.241 109.73C336.452 109.068 335.878 108.187 335.59 107.198C335.302 106.209 335.313 105.156 335.623 104.174C335.933 103.192 336.526 102.323 337.329 101.679C338.132 101.034 339.107 100.643 340.132 100.553C341.505 100.434 342.869 100.865 343.925 101.751C344.98 102.638 345.642 103.907 345.763 105.281Z" fill="#F5F5F5"/>
<path d="M339.549 106.985L280.487 112.154L332.857 48.4487L279.216 53.1481C279.066 53.1625 278.915 53.1468 278.771 53.1019C278.628 53.0569 278.495 52.9837 278.38 52.8865C278.265 52.7893 278.171 52.6701 278.102 52.5358C278.034 52.4016 277.993 52.255 277.983 52.1048C277.956 51.804 278.05 51.505 278.244 51.2735C278.437 51.042 278.715 50.8969 279.015 50.8701L338.086 45.7018L285.707 109.407L339.367 104.707C339.67 104.683 339.97 104.779 340.202 104.974C340.435 105.169 340.581 105.448 340.61 105.751C340.622 105.901 340.604 106.053 340.557 106.197C340.51 106.341 340.435 106.474 340.336 106.589C340.237 106.703 340.117 106.798 339.982 106.866C339.847 106.934 339.7 106.974 339.549 106.985Z" fill="#E6E6E6"/>
<path d="M340.457 220.718C340.366 220.439 340.196 220.193 339.966 220.011C339.737 219.829 339.459 219.719 339.167 219.694C336.599 219.575 334.167 218.5 332.35 216.679C329.989 214.296 328.603 210.687 328.374 206.4C328.352 206.013 328.183 205.649 327.902 205.382C327.622 205.115 327.25 204.966 326.863 204.964C326.654 204.965 326.447 205.008 326.255 205.092C326.063 205.175 325.89 205.296 325.746 205.448C325.602 205.6 325.491 205.78 325.418 205.976C325.346 206.173 325.314 206.382 325.324 206.591C325.592 211.625 327.293 215.932 330.19 218.832C332.458 221.107 335.468 222.49 338.67 222.728H338.89C339.141 222.747 339.393 222.704 339.624 222.602C339.854 222.5 340.056 222.342 340.211 222.143C340.367 221.944 340.47 221.71 340.513 221.462C340.556 221.213 340.537 220.957 340.457 220.718Z" fill="#F0F0F0"/>
<path d="M337.398 239.085C324.731 237.974 315.592 229.332 312.705 215.837C312.659 215.634 312.654 215.424 312.691 215.22C312.729 215.015 312.807 214.82 312.921 214.647C313.035 214.473 313.183 214.325 313.357 214.21C313.53 214.096 313.724 214.017 313.928 213.98C314.315 213.911 314.714 213.994 315.041 214.211C315.369 214.429 315.6 214.764 315.687 215.147C318.278 227.274 326.404 235.046 337.675 236.031C350.027 237.113 363.287 228.978 365.667 208.476C365.708 208.077 365.905 207.709 366.214 207.453C366.524 207.197 366.921 207.073 367.321 207.108C367.524 207.124 367.721 207.182 367.901 207.276C368.081 207.37 368.24 207.5 368.37 207.657C368.499 207.814 368.595 207.995 368.653 208.19C368.711 208.385 368.73 208.59 368.707 208.792C366.422 228.126 353.727 240.511 337.398 239.085Z" fill="#F0F0F0"/>
<path d="M313.498 202.389C313.296 202.373 313.098 202.315 312.918 202.221C312.738 202.127 312.579 201.997 312.45 201.84C312.32 201.683 312.224 201.502 312.166 201.307C312.108 201.112 312.09 200.907 312.112 200.705C314.387 181.371 327.083 168.977 343.402 170.412C357.742 171.666 367.35 182.386 368.851 198.532C368.866 198.735 368.841 198.939 368.777 199.132C368.713 199.325 368.612 199.503 368.478 199.656C368.345 199.809 368.182 199.935 368 200.024C367.818 200.114 367.619 200.166 367.417 200.178C367.018 200.197 366.627 200.06 366.327 199.795C366.028 199.531 365.842 199.16 365.81 198.762C364.424 184.214 355.849 174.576 343.144 173.466C330.84 172.384 317.523 180.51 315.152 200.992C315.135 201.192 315.079 201.388 314.987 201.566C314.894 201.745 314.768 201.904 314.614 202.034C314.461 202.164 314.283 202.262 314.092 202.323C313.9 202.384 313.698 202.406 313.498 202.389Z" fill="#F0F0F0"/>
<path d="M338.02 230.882C335.748 230.7 333.523 230.144 331.433 229.236C331.238 229.151 331.063 229.026 330.919 228.869C330.774 228.712 330.664 228.527 330.595 228.326C330.526 228.124 330.499 227.911 330.517 227.698C330.534 227.486 330.595 227.28 330.697 227.092C330.876 226.763 331.17 226.513 331.524 226.389C331.877 226.265 332.264 226.277 332.609 226.422C334.602 227.279 336.732 227.772 338.899 227.877C348.258 228.413 358.143 221.771 359.118 205.73C359.711 195.843 356.327 187.86 350.017 184.042C349.691 183.844 349.45 183.531 349.342 183.164C349.234 182.798 349.267 182.404 349.434 182.06C349.529 181.871 349.662 181.702 349.825 181.566C349.988 181.43 350.177 181.328 350.38 181.268C350.584 181.208 350.797 181.19 351.008 181.216C351.218 181.242 351.421 181.311 351.604 181.419C358.918 185.841 362.837 194.819 362.168 205.911C361.212 221.378 351.595 231.677 338.717 230.94L338.02 230.882Z" fill="#F0F0F0"/>
<path d="M324.406 221.34C324.23 221.459 324.031 221.541 323.823 221.58C323.614 221.619 323.399 221.615 323.192 221.567C322.985 221.52 322.789 221.43 322.618 221.304C322.447 221.177 322.304 221.017 322.198 220.833C319.364 215.558 318.119 209.574 318.613 203.605C319.511 188.799 328.374 178.72 340.41 178.548C340.622 178.544 340.832 178.583 341.028 178.664C341.224 178.745 341.401 178.866 341.548 179.019C341.696 179.171 341.81 179.353 341.883 179.552C341.957 179.751 341.989 179.963 341.977 180.175C341.954 180.558 341.787 180.918 341.511 181.184C341.235 181.449 340.869 181.602 340.486 181.611C331.557 181.783 322.59 188.54 321.672 203.787C321.208 209.174 322.317 214.581 324.865 219.349C325.057 219.68 325.116 220.072 325.031 220.445C324.946 220.818 324.722 221.144 324.406 221.359V221.34Z" fill="#F0F0F0"/>
<path d="M345.304 220.134C345.159 219.794 345.143 219.412 345.257 219.06C345.371 218.708 345.609 218.41 345.926 218.22C349.95 215.798 352.417 210.716 352.455 204.581C352.455 199.671 351.069 195.517 348.45 192.885C347.432 191.876 346.22 191.086 344.887 190.562C343.554 190.039 342.128 189.794 340.696 189.842C335.983 189.842 332.159 192.435 330.047 196.991C329.884 197.338 329.596 197.61 329.242 197.753C328.888 197.897 328.492 197.902 328.135 197.767C327.935 197.693 327.753 197.578 327.6 197.43C327.447 197.282 327.326 197.104 327.246 196.907C327.165 196.71 327.125 196.499 327.13 196.286C327.135 196.073 327.184 195.863 327.274 195.67C329.894 190.091 334.798 186.789 340.658 186.779C342.494 186.732 344.32 187.056 346.027 187.734C347.734 188.412 349.287 189.428 350.591 190.722C353.794 193.938 355.534 198.867 355.495 204.61C355.438 211.836 352.398 217.904 347.446 220.881C347.258 220.983 347.051 221.045 346.839 221.063C346.626 221.08 346.411 221.053 346.21 220.983C346.008 220.912 345.823 220.801 345.667 220.654C345.511 220.508 345.388 220.331 345.304 220.134Z" fill="#F0F0F0"/>
<path d="M334.291 208.831C334.087 208.914 333.867 208.952 333.647 208.942C333.427 208.933 333.211 208.875 333.015 208.775C332.819 208.674 332.647 208.531 332.511 208.358C332.374 208.184 332.277 207.983 332.226 207.768C332.121 207.357 332.045 206.926 331.978 206.486C331.108 200.743 334.186 195.776 339.129 194.886C340.279 194.635 341.473 194.658 342.613 194.952C343.754 195.246 344.81 195.804 345.696 196.58C345.863 196.728 345.993 196.911 346.079 197.117C346.165 197.323 346.203 197.545 346.191 197.768C346.179 197.99 346.117 198.207 346.01 198.403C345.903 198.598 345.753 198.766 345.572 198.896L345.476 198.963C345.19 199.162 344.843 199.257 344.495 199.231C344.147 199.205 343.818 199.059 343.564 198.819C343.028 198.366 342.394 198.044 341.712 197.878C341.03 197.712 340.319 197.706 339.635 197.862C335.869 198.542 334.435 202.466 334.97 205.988C335.027 206.333 335.085 206.668 335.171 206.945C335.263 207.306 335.222 207.687 335.055 208.02C334.888 208.352 334.606 208.613 334.262 208.754L334.291 208.831Z" fill="#F0F0F0"/>
<path d="M339.348 214.726C339.107 214.703 338.876 214.618 338.677 214.48C338.478 214.342 338.317 214.156 338.21 213.938C338.103 213.721 338.053 213.479 338.064 213.237C338.076 212.995 338.15 212.76 338.278 212.554L338.412 212.343C338.549 212.124 338.743 211.946 338.974 211.83C339.205 211.713 339.464 211.663 339.721 211.683C340.201 211.71 340.682 211.681 341.155 211.597C344.444 211.003 345.935 207.941 345.935 204.82C345.926 204.446 346.052 204.08 346.291 203.791C346.53 203.503 346.866 203.311 347.235 203.251C347.448 203.218 347.664 203.231 347.871 203.288C348.078 203.345 348.271 203.444 348.437 203.581C348.603 203.717 348.738 203.887 348.834 204.079C348.93 204.271 348.985 204.481 348.994 204.696C349.08 209.692 346.126 213.817 341.7 214.612C340.925 214.755 340.134 214.794 339.348 214.726Z" fill="#F0F0F0"/>
<path d="M340.027 209.07C339.255 209.005 338.523 208.699 337.933 208.197C337.343 207.694 336.926 207.018 336.739 206.266C336.685 206.053 336.682 205.831 336.731 205.617C336.78 205.404 336.879 205.205 337.021 205.038C337.162 204.87 337.341 204.739 337.543 204.654C337.745 204.57 337.964 204.535 338.182 204.552H338.536C338.803 204.58 339.057 204.686 339.266 204.856C339.475 205.026 339.63 205.253 339.712 205.51C339.745 205.643 339.819 205.763 339.924 205.852C340.028 205.941 340.158 205.995 340.295 206.007C341.031 206.074 341.155 205.05 341.174 204.801C341.219 204.429 341.149 204.051 340.974 203.72C340.71 203.401 340.574 202.995 340.591 202.581C340.615 202.277 340.73 201.987 340.92 201.748C341.11 201.51 341.366 201.333 341.657 201.242C341.948 201.15 342.259 201.148 342.551 201.234C342.843 201.321 343.103 201.493 343.297 201.729C344.043 202.673 344.386 203.873 344.253 205.069C344.004 207.586 342.236 209.261 340.027 209.07Z" fill="#F0F0F0"/>
<path d="M311.271 174.815C311.071 174.798 310.876 174.742 310.698 174.649C310.52 174.557 310.362 174.43 310.233 174.276C310.104 174.122 310.007 173.944 309.947 173.753C309.887 173.561 309.866 173.359 309.884 173.159L311.041 159.884L324.301 161.052C324.501 161.069 324.695 161.125 324.873 161.218C325.052 161.31 325.21 161.437 325.338 161.591C325.467 161.745 325.564 161.923 325.624 162.114C325.684 162.306 325.705 162.508 325.687 162.708C325.67 162.908 325.614 163.103 325.522 163.282C325.43 163.461 325.303 163.62 325.149 163.75C324.996 163.879 324.818 163.978 324.627 164.039C324.435 164.1 324.234 164.122 324.033 164.105L313.823 163.205L312.934 173.427C312.916 173.628 312.859 173.823 312.765 174.001C312.672 174.18 312.544 174.338 312.39 174.467C312.235 174.596 312.057 174.693 311.865 174.752C311.673 174.812 311.471 174.834 311.271 174.815Z" fill="#F0F0F0"/>
<path d="M374.3 180.338C374.1 180.321 373.905 180.264 373.727 180.172C373.549 180.079 373.391 179.953 373.262 179.799C373.133 179.645 373.036 179.467 372.976 179.275C372.917 179.083 372.895 178.882 372.914 178.682L373.803 168.46L363.593 167.57C363.392 167.552 363.197 167.494 363.019 167.401C362.841 167.307 362.683 167.18 362.554 167.025C362.426 166.87 362.329 166.692 362.269 166.499C362.209 166.307 362.188 166.105 362.206 165.904C362.223 165.704 362.279 165.51 362.372 165.331C362.464 165.153 362.591 164.995 362.745 164.866C362.898 164.737 363.076 164.639 363.268 164.58C363.459 164.52 363.66 164.498 363.86 164.517L377.12 165.675L375.963 178.978C375.92 179.378 375.721 179.745 375.41 179.999C375.098 180.254 374.7 180.375 374.3 180.338Z" fill="#F0F0F0"/>
<path d="M369.606 251.719L356.346 250.56C356.146 250.542 355.951 250.485 355.773 250.392C355.595 250.298 355.437 250.17 355.308 250.016C355.179 249.861 355.082 249.682 355.022 249.49C354.963 249.298 354.942 249.096 354.96 248.895C354.977 248.695 355.033 248.5 355.125 248.322C355.218 248.144 355.344 247.985 355.498 247.856C355.652 247.727 355.83 247.63 356.021 247.57C356.213 247.51 356.414 247.489 356.614 247.507L366.824 248.397L367.713 238.185C367.73 237.984 367.786 237.788 367.879 237.608C367.972 237.429 368.099 237.27 368.254 237.14C368.409 237.01 368.587 236.912 368.78 236.851C368.973 236.791 369.175 236.769 369.376 236.788C369.576 236.805 369.771 236.861 369.949 236.953C370.127 237.046 370.285 237.173 370.414 237.327C370.543 237.481 370.64 237.658 370.7 237.85C370.76 238.042 370.781 238.244 370.763 238.444L369.606 251.719Z" fill="#F0F0F0"/>
<path d="M316.787 247.067L303.527 245.899L304.684 232.634C304.723 232.229 304.919 231.856 305.23 231.594C305.541 231.333 305.942 231.205 306.347 231.236C306.548 231.255 306.742 231.312 306.921 231.405C307.099 231.499 307.257 231.627 307.385 231.781C307.514 231.936 307.611 232.115 307.671 232.307C307.731 232.499 307.752 232.701 307.733 232.902L306.844 243.105L317.045 244.004C317.245 244.021 317.44 244.077 317.619 244.17C317.797 244.262 317.956 244.389 318.086 244.543C318.215 244.696 318.313 244.874 318.374 245.066C318.435 245.258 318.458 245.46 318.441 245.66C318.407 246.066 318.213 246.441 317.904 246.705C317.594 246.969 317.192 247.099 316.787 247.067Z" fill="#F0F0F0"/>
<path d="M29.4419 218.344C29.1928 218.363 28.9463 218.283 28.7551 218.122C28.5639 217.961 28.4433 217.732 28.419 217.483L27.7115 209.328L35.8567 208.61C36.1058 208.592 36.3523 208.671 36.5435 208.832C36.7347 208.993 36.8553 209.223 36.8796 209.472C36.8957 209.72 36.8149 209.964 36.6544 210.153C36.4938 210.343 36.2661 210.462 36.0192 210.486L29.7478 211.042L30.2928 217.32C30.3116 217.568 30.2333 217.814 30.0745 218.005C29.9157 218.196 29.6888 218.318 29.4419 218.344Z" fill="#E0E0E0"/>
<path d="M68.1981 214.946C67.9505 214.965 67.7052 214.887 67.5143 214.728C67.3234 214.569 67.2018 214.342 67.1752 214.095L66.6302 207.806L60.3493 208.362C60.1002 208.38 59.8537 208.301 59.6625 208.14C59.4713 207.979 59.3507 207.749 59.3264 207.5C59.3077 207.251 59.3873 207.004 59.5481 206.813C59.7089 206.621 59.9382 206.5 60.1868 206.476L68.3319 205.768L69.0489 213.922C69.0677 214.17 68.9895 214.416 68.8307 214.607C68.6719 214.798 68.445 214.92 68.1981 214.946Z" fill="#E0E0E0"/>
<path d="M72.2134 250.082L64.0587 250.8C63.8096 250.818 63.563 250.739 63.3719 250.578C63.1807 250.417 63.06 250.187 63.0358 249.938C63.0171 249.689 63.0967 249.442 63.2575 249.251C63.4183 249.059 63.6475 248.939 63.8962 248.914L70.1675 248.369L69.6226 242.09C69.6038 241.842 69.6821 241.597 69.8409 241.406C69.9997 241.214 70.2265 241.093 70.4734 241.066C70.7211 241.047 70.9663 241.126 71.1572 241.285C71.3481 241.444 71.4698 241.671 71.4964 241.918L72.2134 250.082Z" fill="#E0E0E0"/>
<path d="M39.7285 252.924L31.612 253.633L30.895 245.469C30.8789 245.221 30.9597 244.976 31.1203 244.787C31.2808 244.598 31.5086 244.478 31.7554 244.454C32.0015 244.438 32.2442 244.517 32.4331 244.676C32.6219 244.835 32.7422 245.06 32.7688 245.306L33.3233 251.594L39.5946 251.039C39.8437 251.02 40.0903 251.1 40.2814 251.261C40.4726 251.422 40.5933 251.651 40.6175 251.9C40.6266 252.026 40.6108 252.152 40.571 252.272C40.5312 252.392 40.4682 252.502 40.3856 252.597C40.303 252.693 40.2024 252.77 40.0896 252.827C39.9768 252.883 39.8541 252.916 39.7285 252.924Z" fill="#E0E0E0"/>
<path d="M67.5385 82.311L36.392 84.9909L35.7515 77.6882C35.7047 74.2029 36.9759 70.8288 39.3102 68.2426C41.6445 65.6565 44.8692 64.0497 48.3374 63.7445C51.8057 63.4393 55.2609 64.4583 58.01 66.5971C60.7591 68.7359 62.5988 71.8362 63.16 75.2763L63.5233 79.5258L68.0261 79.1334L67.6532 74.8839C67.4436 72.487 66.7644 70.1549 65.6545 68.0208C64.5446 65.8867 63.0257 63.9924 61.1846 62.4459C59.3434 60.8995 57.2161 59.7313 54.924 59.0079C52.6319 58.2846 50.2199 58.0204 47.8258 58.2303C42.9906 58.6542 38.5217 60.9837 35.4022 64.7064C33.8575 66.5496 32.6906 68.6794 31.9682 70.9742C31.2457 73.269 30.9817 75.6837 31.1914 78.0806L31.8319 85.4312C30.0584 85.7787 28.4758 86.7705 27.3887 88.2158C26.3015 89.6611 25.7866 91.4578 25.9429 93.2603L28.1704 118.758C28.2499 119.72 28.5184 120.657 28.9606 121.515C29.4029 122.373 30.0101 123.135 30.7474 123.758C31.4846 124.381 32.3375 124.851 33.257 125.143C34.1764 125.434 35.1444 125.541 36.1052 125.457L71.0279 122.404C71.9891 122.325 72.9252 122.056 73.7823 121.613C74.6394 121.17 75.4008 120.562 76.0226 119.824C76.6444 119.086 77.1144 118.232 77.4057 117.312C77.697 116.391 77.8038 115.422 77.7199 114.46L75.4924 88.9629C75.4071 88.003 75.1336 87.0693 74.6876 86.2154C74.2415 85.3614 73.6317 84.6038 72.893 83.986C72.1542 83.3682 71.301 82.9022 70.3823 82.6148C69.4635 82.3274 68.4972 82.2242 67.5385 82.311ZM54.2883 101.96L55.0531 110.737C55.1046 111.09 55.0835 111.45 54.9911 111.795C54.8987 112.14 54.737 112.462 54.5159 112.742C54.2947 113.022 54.0188 113.254 53.705 113.424C53.3912 113.593 53.0461 113.697 52.6909 113.728C52.3358 113.759 51.9779 113.718 51.6394 113.606C51.3008 113.494 50.9886 113.314 50.722 113.077C50.4554 112.84 50.2399 112.551 50.0887 112.227C49.9376 111.904 49.8539 111.553 49.8429 111.196L49.0781 102.41C48.2895 101.925 47.6737 101.204 47.3185 100.348C46.9634 99.4924 46.8869 98.5464 47.1 97.6447C47.3131 96.743 47.805 95.9316 48.5055 95.3261C49.206 94.7205 50.0795 94.3517 51.0016 94.2721C51.9237 94.1925 52.8474 94.4062 53.6411 94.8827C54.4348 95.3592 55.0582 96.0743 55.4223 96.9262C55.7865 97.778 55.8729 98.7232 55.6693 99.627C55.4657 100.531 54.9824 101.347 54.2883 101.96Z" fill="#EBEBEB"/>
<path d="M120.941 97.0408L117.795 91.882C116.21 92.108 114.601 92.108 113.015 91.882L109.861 97.0216L109.258 96.8589C107.214 96.3197 105.252 95.5051 103.427 94.4375L102.891 94.1312L104.22 88.5417C104.246 88.4333 104.293 88.331 104.358 88.2409C104.424 88.1508 104.507 88.0746 104.602 88.0167C104.697 87.9589 104.803 87.9205 104.913 87.9038C105.023 87.8871 105.135 87.8925 105.243 87.9196C105.46 87.9718 105.647 88.1079 105.763 88.2981C105.88 88.4884 105.916 88.7171 105.865 88.9341L104.813 93.2889C106.171 94.0299 107.604 94.6266 109.086 95.0691L112.165 90.0348L112.729 90.1305C114.514 90.4177 116.335 90.4177 118.12 90.1305L118.675 90.0348L121.753 95.0691C123.237 94.63 124.67 94.0332 126.027 93.2889L124.66 87.5463L125.118 87.2113C126.364 86.3121 127.48 85.2462 128.436 84.0433C128.569 83.87 128.763 83.7552 128.979 83.723C129.195 83.6909 129.415 83.7439 129.592 83.871C129.685 83.9356 129.764 84.0185 129.824 84.1146C129.884 84.2107 129.924 84.3181 129.941 84.43C129.958 84.542 129.952 84.6563 129.923 84.7659C129.894 84.8755 129.844 84.9781 129.774 85.0674C128.835 86.2551 127.753 87.3224 126.552 88.245L127.958 94.112L127.413 94.4183C125.59 95.4842 123.631 96.2988 121.591 96.8398L120.941 97.0408ZM101.61 85.8044C101.352 85.5077 101.094 85.1918 100.846 84.8473L94.9853 86.2542L94.6698 85.7182C93.6112 83.8868 92.798 81.9238 92.2511 79.8799L92.0981 79.2769L97.2319 76.1185C97.0061 74.5313 97.0061 72.9201 97.2319 71.333L92.0981 68.1841L92.2511 67.5715C92.7981 65.5307 93.6113 63.5709 94.6698 61.7428L94.9853 61.1972L100.846 62.6042C101.824 61.3223 102.968 60.1765 104.249 59.1969L103.188 54.7559C103.136 54.5389 103.172 54.3102 103.289 54.12C103.405 53.9297 103.592 53.7936 103.809 53.7414C103.916 53.7158 104.027 53.7116 104.135 53.7291C104.243 53.7466 104.347 53.7854 104.44 53.8432C104.534 53.901 104.615 53.9768 104.679 54.0661C104.743 54.1554 104.788 54.2565 104.813 54.3635L106.142 59.8956L105.683 60.221C104.21 61.2819 102.919 62.5748 101.859 64.0494L101.524 64.5088L95.7883 63.1401C95.0449 64.4987 94.4488 65.9329 94.0101 67.4184L99.0291 70.5003L98.9431 71.0554C98.6238 72.8406 98.6238 74.6683 98.9431 76.4535L99.0291 77.0182L94.0101 80.1C94.4505 81.5819 95.0465 83.0127 95.7883 84.3687L101.524 83.0001L101.859 83.4595C102.156 83.8934 102.475 84.3119 102.815 84.7133C102.962 84.8681 103.044 85.0737 103.044 85.2875C103.044 85.5014 102.962 85.707 102.815 85.8618C102.733 85.9399 102.637 86.0005 102.531 86.0401C102.426 86.0797 102.313 86.0973 102.2 86.0919C102.088 86.0866 101.977 86.0583 101.876 86.0089C101.774 85.9594 101.684 85.8898 101.61 85.8044ZM135.778 86.2734L133.617 85.7565C133.401 85.7043 133.213 85.5681 133.097 85.3779C132.98 85.1877 132.944 84.959 132.996 84.742C133.048 84.5251 133.184 84.3377 133.374 84.2211C133.564 84.1044 133.792 84.068 134.009 84.1199L134.965 84.34C135.704 82.9837 136.297 81.5528 136.734 80.0713L131.715 76.9894L131.81 76.4248C132.13 74.6396 132.13 72.8118 131.81 71.0267L131.715 70.4716L136.734 67.3897C136.299 65.9045 135.706 64.4702 134.965 63.1114L129.229 64.4801L128.904 64.0207C127.842 62.5483 126.551 61.2558 125.08 60.1923L124.621 59.8668L125.988 54.1242C124.631 53.383 123.199 52.7894 121.715 52.3536L118.608 57.4262L118.054 57.3305C116.268 57.0433 114.448 57.0433 112.662 57.3305L112.098 57.4262L109.048 52.3727L108.474 52.545C108.27 52.6124 108.048 52.597 107.855 52.5022C107.662 52.4074 107.514 52.2406 107.442 52.0377C107.402 51.9329 107.384 51.8212 107.388 51.7092C107.393 51.5972 107.419 51.4872 107.466 51.3856C107.513 51.284 107.58 51.1928 107.663 51.1174C107.746 51.0421 107.843 50.984 107.949 50.9466C108.369 50.8126 108.799 50.6882 109.22 50.5734L109.822 50.4106L112.977 55.5599C114.562 55.324 116.173 55.324 117.757 55.5599L120.902 50.4106L121.514 50.5734C123.554 51.1185 125.511 51.9328 127.336 52.9948L127.881 53.3107L126.476 59.1777C127.758 60.1551 128.903 61.3012 129.879 62.585L135.74 61.1781L136.055 61.7236C137.117 63.5498 137.931 65.5101 138.474 67.5524L138.636 68.1649L133.493 71.3138C133.731 72.9001 133.731 74.5131 133.493 76.0993L138.636 79.2578L138.474 79.8608C137.931 81.9061 137.118 83.8696 136.055 85.6991L135.778 86.2734ZM115.147 81.9281C113.064 81.8455 111.089 80.98 109.615 79.5041C108.14 78.0283 107.276 76.0505 107.193 73.965C107.137 71.9137 107.849 69.9155 109.19 68.3637C110.531 66.812 112.404 65.8191 114.44 65.5808C114.559 65.5659 114.681 65.5765 114.796 65.612C114.911 65.6475 115.017 65.707 115.107 65.7866C115.197 65.8662 115.27 65.9641 115.32 66.0738C115.369 66.1835 115.395 66.3025 115.396 66.423C115.395 66.6266 115.319 66.8227 115.184 66.9744C115.048 67.1261 114.862 67.2227 114.66 67.2461C113.243 67.4079 111.919 68.0307 110.89 69.0191C109.861 70.0074 109.185 71.3066 108.965 72.717C108.745 74.1274 108.994 75.5711 109.673 76.8263C110.352 78.0814 111.424 79.0787 112.724 79.6649C114.024 80.2512 115.48 80.3939 116.869 80.0712C118.258 79.7485 119.503 78.9782 120.412 77.8787C121.321 76.7792 121.845 75.4112 121.902 73.9848C121.96 72.5585 121.548 71.1527 120.73 69.9834C120.612 69.8178 120.561 69.6138 120.585 69.4118C120.61 69.2098 120.71 69.0245 120.864 68.8923C120.953 68.813 121.058 68.7536 121.172 68.718C121.286 68.6824 121.406 68.6715 121.525 68.686C121.643 68.7005 121.757 68.74 121.859 68.802C121.961 68.864 122.049 68.947 122.117 69.0455C122.986 70.291 123.493 71.7542 123.579 73.2714C123.666 74.7886 123.329 76.3001 122.607 77.6368C121.885 78.9735 120.806 80.0828 119.49 80.8406C118.174 81.5984 116.674 81.975 115.157 81.9281H115.147Z" fill="#F0F0F0"/>
<path d="M61.5444 167.101L59.5081 163.78C58.4781 163.933 57.4311 163.933 56.4011 163.78L54.3648 167.101L53.9728 166.996C52.6531 166.647 51.3862 166.122 50.2062 165.435L49.862 165.234L50.7224 161.617C50.7565 161.478 50.8437 161.358 50.9653 161.282C51.0869 161.207 51.2332 161.183 51.3725 161.215C51.4423 161.231 51.508 161.262 51.566 161.304C51.624 161.347 51.673 161.4 51.7103 161.461C51.7476 161.523 51.7724 161.591 51.7834 161.662C51.7943 161.733 51.7911 161.805 51.774 161.875L51.1048 164.689C51.9819 165.17 52.9082 165.555 53.8677 165.837L55.8562 162.593L56.2099 162.65C57.3652 162.842 58.544 162.842 59.6993 162.65L60.053 162.593L62.051 165.837C63.0053 165.549 63.9278 165.164 64.8043 164.689L63.9248 160.995L64.2212 160.774C65.0249 160.196 65.7454 159.51 66.3626 158.736C66.4466 158.622 66.5721 158.546 66.7118 158.524C66.8515 158.503 66.994 158.538 67.1083 158.621C67.167 158.663 67.2168 158.716 67.2549 158.777C67.2929 158.838 67.3185 158.907 67.33 158.978C67.3416 159.049 67.3389 159.122 67.3222 159.192C67.3055 159.262 67.275 159.328 67.2326 159.387C66.6235 160.154 65.9237 160.845 65.1485 161.444L66.1045 165.273L65.7508 165.474C64.5716 166.162 63.3044 166.687 61.9841 167.034L61.5444 167.101ZM49.059 159.836L48.5619 159.233L44.7379 160.133L44.5371 159.789C43.8636 158.602 43.3524 157.331 43.0171 156.008L42.9119 155.616L46.2292 153.577C46.0763 152.546 46.0763 151.498 46.2292 150.466L42.9119 148.428L43.0171 148.035C43.3636 146.713 43.8878 145.445 44.5754 144.264L44.7761 143.91L48.6001 144.867C49.215 144.029 49.9311 143.271 50.732 142.609L50.0532 139.737C50.0362 139.668 50.0332 139.596 50.0442 139.526C50.0553 139.456 50.0802 139.388 50.1176 139.327C50.155 139.267 50.2041 139.214 50.2619 139.173C50.3198 139.132 50.3854 139.102 50.4548 139.086C50.5941 139.055 50.7404 139.079 50.862 139.154C50.9836 139.229 51.0708 139.349 51.1048 139.488L51.9652 143.058L51.6593 143.279C50.7119 143.959 49.882 144.79 49.2024 145.738L48.9825 146.035L45.2924 145.154C44.8176 146.032 44.4332 146.956 44.1452 147.911L47.386 149.902L47.3286 150.265C47.2301 150.841 47.1789 151.423 47.1757 152.007C47.1789 152.594 47.23 153.18 47.3286 153.759L47.386 154.113L44.1452 156.104C44.4314 157.063 44.8159 157.99 45.2924 158.87L48.9825 157.98L49.2024 158.276C49.3999 158.56 49.6138 158.831 49.8429 159.09C49.9371 159.189 49.9895 159.321 49.9895 159.458C49.9895 159.595 49.9371 159.727 49.8429 159.827C49.7935 159.881 49.7333 159.925 49.6663 159.955C49.5992 159.986 49.5266 160.002 49.453 160.003C49.3795 160.003 49.3065 159.989 49.2387 159.961C49.1709 159.932 49.1098 159.89 49.059 159.836ZM71.133 160.133L69.7373 159.808C69.6675 159.791 69.6018 159.76 69.5438 159.718C69.4859 159.676 69.4368 159.622 69.3995 159.561C69.3622 159.5 69.3374 159.432 69.3264 159.361C69.3155 159.29 69.3187 159.217 69.3358 159.147C69.3515 159.078 69.3809 159.012 69.4222 158.954C69.4636 158.896 69.516 158.847 69.5766 158.81C69.6371 158.772 69.7044 158.747 69.7747 158.736C69.845 158.725 69.9168 158.728 69.9858 158.745L70.5881 158.889C71.0686 158.011 71.4532 157.083 71.7353 156.123L68.4945 154.132L68.5518 153.778C68.6505 153.199 68.7016 152.613 68.7048 152.026C68.7016 151.443 68.6504 150.86 68.5518 150.285L68.4945 149.921L71.7353 147.93C71.4514 146.973 71.0669 146.049 70.5881 145.174L66.898 146.054L66.6781 145.757C65.9985 144.809 65.1686 143.978 64.2212 143.298L63.9248 143.078L64.8043 139.383C63.9297 138.904 63.0068 138.519 62.051 138.235L60.053 141.479L59.6993 141.422C58.544 141.23 57.3652 141.23 56.2099 141.422L55.8562 141.479L53.8677 138.235L53.4948 138.349C53.3617 138.392 53.2171 138.381 53.0921 138.318C52.967 138.256 52.8714 138.147 52.8256 138.014C52.7999 137.947 52.7879 137.876 52.7904 137.804C52.7929 137.732 52.8098 137.661 52.8401 137.596C52.8705 137.531 52.9136 137.472 52.967 137.424C53.0203 137.376 53.0828 137.339 53.1507 137.316L53.9728 137.067L54.3648 136.971L56.4011 140.292C57.4311 140.139 58.4781 140.139 59.5081 140.292L61.5444 136.971L61.9363 137.067C63.2556 137.421 64.5222 137.949 65.703 138.637L66.0567 138.838L65.1007 142.666C65.9239 143.303 66.6627 144.043 67.2995 144.867L71.1235 143.91L71.3242 144.264C72.0118 145.445 72.536 146.713 72.8825 148.035L72.9877 148.428L69.6704 150.466C69.8234 151.498 69.8234 152.546 69.6704 153.577L72.9877 155.616L72.8825 156.008C72.5343 157.329 72.0102 158.598 71.3242 159.779L71.133 160.133ZM57.8064 157.329C56.5074 157.24 55.2867 156.674 54.3775 155.741C53.4683 154.808 52.9344 153.572 52.8776 152.27C52.8208 150.968 53.2453 149.69 54.0698 148.681C54.8943 147.672 56.0612 147.003 57.3475 146.801C57.4242 146.793 57.5017 146.801 57.5751 146.824C57.6485 146.848 57.7161 146.887 57.7737 146.938C57.8313 146.99 57.8775 147.052 57.9095 147.123C57.9415 147.193 57.9584 147.269 57.9594 147.346C57.9601 147.479 57.9117 147.607 57.8234 147.706C57.7351 147.805 57.6132 147.868 57.4814 147.882C56.675 147.975 55.9125 148.298 55.2859 148.815C54.6593 149.331 54.1953 150.018 53.9499 150.793C53.7045 151.567 53.6881 152.396 53.9027 153.18C54.1174 153.964 54.5539 154.668 55.1596 155.209C55.7653 155.75 56.5144 156.104 57.3165 156.228C58.1186 156.352 58.9394 156.241 59.68 155.909C60.4207 155.577 61.0494 155.037 61.4905 154.355C61.9315 153.673 62.166 152.877 62.1658 152.065C62.1676 151.201 61.9003 150.358 61.401 149.653C61.328 149.544 61.2965 149.413 61.3123 149.283C61.3281 149.153 61.3901 149.033 61.487 148.945C61.5446 148.893 61.6125 148.854 61.6863 148.83C61.7601 148.807 61.838 148.799 61.9149 148.809C61.9918 148.818 62.0659 148.843 62.1322 148.883C62.1985 148.923 62.2556 148.977 62.2996 149.04C62.8587 149.846 63.1838 150.79 63.2387 151.77C63.2936 152.749 63.0762 153.724 62.6105 154.587C62.1449 155.45 61.4494 156.167 60.6013 156.657C59.7531 157.148 58.7857 157.394 57.8064 157.367V157.329Z" fill="#E6E6E6"/>
<path d="M197 356.052C299.371 356.052 382.359 351.202 382.359 345.218C382.359 339.234 299.371 334.384 197 334.384C94.6292 334.384 11.6412 339.234 11.6412 345.218C11.6412 351.202 94.6292 356.052 197 356.052Z" fill="#F5F5F5"/>
<path d="M305.458 86.9338H274.331L252.343 338.892H283.47C287.839 338.807 292.026 337.125 295.242 334.163C298.457 331.201 300.479 327.164 300.927 322.812L320.133 103.004C320.356 100.956 320.141 98.8834 319.501 96.9253C318.862 94.9671 317.813 93.1678 316.424 91.6473C315.036 90.1268 313.339 88.92 311.449 88.1072C309.558 87.2945 307.516 86.8945 305.458 86.9338Z" fill="#45BD43"/>
<path d="M299.11 86.9336H193.759C189.39 87.0156 185.202 88.695 181.985 91.6552C178.767 94.6154 176.743 98.6519 176.293 103.003L157.087 322.812C156.866 324.859 157.082 326.929 157.721 328.885C158.359 330.842 159.407 332.64 160.793 334.161C162.178 335.681 163.871 336.889 165.759 337.705C167.647 338.521 169.687 338.925 171.742 338.891H277.084C281.447 338.798 285.626 337.112 288.835 334.151C292.045 331.191 294.063 327.158 294.512 322.812L313.718 103.003C313.94 100.961 313.727 98.8948 313.091 96.9414C312.456 94.988 311.413 93.1921 310.032 91.6727C308.65 90.1533 306.962 88.9451 305.08 88.1281C303.197 87.3111 301.162 86.9039 299.11 86.9336Z" fill="#45BD43"/>
<path opacity="0.3" d="M299.11 86.9336H193.759C189.39 87.0156 185.202 88.695 181.985 91.6552C178.767 94.6154 176.743 98.6519 176.293 103.003L157.087 322.812C156.866 324.859 157.082 326.929 157.721 328.885C158.359 330.842 159.407 332.64 160.793 334.161C162.178 335.681 163.871 336.889 165.759 337.705C167.647 338.521 169.687 338.925 171.742 338.891H277.084C281.447 338.798 285.626 337.112 288.835 334.151C292.045 331.191 294.063 327.158 294.512 322.812L313.718 103.003C313.94 100.961 313.727 98.8948 313.091 96.9414C312.456 94.988 311.413 93.1921 310.032 91.6727C308.65 90.1533 306.962 88.9451 305.08 88.1281C303.197 87.3111 301.162 86.9039 299.11 86.9336Z" fill="white"/>
<path opacity="0.4" d="M298.661 92.083H270.88C270.051 92.0898 269.244 92.3451 268.563 92.8161C267.881 93.287 267.356 93.9518 267.056 94.7246C265.96 97.5632 264.044 100.011 261.553 101.755C259.062 103.498 256.109 104.46 253.069 104.516H236.684C233.821 104.574 231.028 103.63 228.786 101.848C226.544 100.066 224.992 97.5573 224.399 94.7533C224.241 93.9947 223.823 93.3153 223.217 92.8329C222.611 92.3505 221.856 92.0954 221.082 92.1117H193.31C190.34 92.1643 187.493 93.3046 185.307 95.317C183.121 97.3295 181.747 100.074 181.446 103.032L162.23 322.841C162.076 324.233 162.221 325.641 162.654 326.973C163.087 328.304 163.798 329.528 164.741 330.562C165.684 331.597 166.836 332.418 168.121 332.971C169.406 333.525 170.793 333.797 172.192 333.771H277.543C280.513 333.716 283.361 332.574 285.547 330.56C287.733 328.546 289.106 325.8 289.407 322.841L308.613 103.032C308.77 101.64 308.628 100.23 308.197 98.8968C307.766 97.5637 307.055 96.338 306.113 95.3016C305.171 94.2653 304.019 93.4421 302.734 92.887C301.449 92.332 300.06 92.0579 298.661 92.083Z" fill="white"/>
<path d="M272.409 211.52H198.683C198.176 211.528 197.673 211.429 197.208 211.228C196.742 211.027 196.325 210.729 195.983 210.355C195.642 209.98 195.383 209.537 195.226 209.055C195.068 208.572 195.015 208.062 195.069 207.558L195.442 203.327C195.551 202.255 196.049 201.259 196.842 200.529C197.635 199.799 198.667 199.385 199.744 199.365H273.48C273.987 199.357 274.489 199.456 274.955 199.657C275.42 199.858 275.837 200.156 276.179 200.53C276.521 200.905 276.779 201.348 276.937 201.83C277.094 202.313 277.148 202.823 277.094 203.327L276.73 207.558C276.618 208.633 276.117 209.63 275.321 210.36C274.524 211.09 273.489 211.503 272.409 211.52Z" fill="white"/>
<path d="M270.822 229.705H197.086C196.58 229.714 196.077 229.614 195.612 229.413C195.147 229.212 194.731 228.914 194.39 228.539C194.049 228.164 193.791 227.721 193.635 227.239C193.478 226.757 193.426 226.247 193.482 225.743L193.845 221.512C193.957 220.44 194.456 219.446 195.248 218.717C196.04 217.987 197.071 217.572 198.147 217.55H271.883C272.39 217.541 272.893 217.641 273.358 217.842C273.824 218.043 274.241 218.341 274.583 218.715C274.924 219.09 275.183 219.533 275.34 220.015C275.498 220.498 275.551 221.008 275.497 221.512L275.124 225.743C275.013 226.814 274.514 227.809 273.722 228.538C272.93 229.268 271.899 229.683 270.822 229.705Z" fill="white"/>
<path opacity="0.1" d="M250.01 96.1986C249.889 97.3896 249.335 98.4947 248.454 99.3044C247.573 100.114 246.426 100.572 245.23 100.592C244.668 100.602 244.11 100.492 243.594 100.269C243.078 100.047 242.615 99.717 242.236 99.3013C241.857 98.8857 241.571 98.394 241.396 97.859C241.222 97.324 241.163 96.758 241.225 96.1986C241.346 95.0075 241.9 93.9024 242.781 93.0927C243.662 92.283 244.809 91.825 246.005 91.8055C246.567 91.7953 247.124 91.9051 247.641 92.1276C248.157 92.3501 248.62 92.6802 248.999 93.0958C249.378 93.5114 249.664 94.0031 249.838 94.5381C250.013 95.0731 250.071 95.6391 250.01 96.1986Z" fill="black"/>
<path opacity="0.1" d="M248.022 96.1986C247.954 96.8488 247.652 97.4519 247.171 97.8943C246.69 98.3368 246.065 98.5881 245.412 98.6009C245.104 98.6069 244.799 98.5471 244.517 98.4256C244.234 98.304 243.981 98.1235 243.774 97.8961C243.566 97.6687 243.41 97.3997 243.315 97.1069C243.22 96.8142 243.188 96.5045 243.223 96.1986C243.288 95.5476 243.59 94.9433 244.071 94.5005C244.552 94.0576 245.179 93.807 245.832 93.7962C246.139 93.7918 246.444 93.8526 246.726 93.9747C247.007 94.0968 247.26 94.2773 247.467 94.5043C247.674 94.7314 247.83 94.9998 247.926 95.2919C248.021 95.5839 248.054 95.8929 248.022 96.1986Z" fill="black"/>
<g opacity="0.8">
<path d="M285.688 103.53C285.523 103.532 285.36 103.499 285.208 103.434C285.057 103.368 284.921 103.271 284.81 103.149C284.699 103.027 284.615 102.882 284.563 102.725C284.512 102.568 284.495 102.402 284.512 102.238L284.723 99.8833C284.758 99.5354 284.919 99.2125 285.177 98.9761C285.434 98.7396 285.769 98.6061 286.118 98.6008C286.282 98.5987 286.445 98.6312 286.596 98.6963C286.747 98.7615 286.882 98.8577 286.993 98.9788C287.104 99.0998 287.188 99.243 287.24 99.3988C287.292 99.5547 287.31 99.7198 287.294 99.8833L287.084 102.238C287.049 102.587 286.888 102.911 286.631 103.149C286.373 103.387 286.038 103.522 285.688 103.53Z" fill="white"/>
<path d="M295.975 103.53C295.81 103.532 295.646 103.499 295.495 103.434C295.343 103.368 295.207 103.271 295.096 103.149C294.985 103.027 294.901 102.882 294.85 102.725C294.799 102.568 294.781 102.402 294.799 102.238L295.286 96.7154C295.321 96.3674 295.483 96.0446 295.74 95.8081C295.998 95.5717 296.333 95.4381 296.682 95.4328C296.846 95.4307 297.009 95.4632 297.16 95.5284C297.31 95.5935 297.446 95.6897 297.557 95.8108C297.668 95.9319 297.752 96.075 297.804 96.2309C297.856 96.3867 297.874 96.5518 297.858 96.7154L297.37 102.238C297.335 102.587 297.174 102.911 296.917 103.149C296.66 103.387 296.325 103.522 295.975 103.53Z" fill="white"/>
<path d="M290.831 103.53C290.666 103.532 290.503 103.499 290.351 103.434C290.2 103.368 290.064 103.271 289.953 103.149C289.842 103.027 289.758 102.882 289.707 102.725C289.655 102.568 289.638 102.402 289.656 102.238L290 98.3042C290.035 97.9537 290.197 97.6284 290.457 97.3902C290.716 97.1519 291.053 97.0174 291.405 97.0121C291.57 97.0096 291.733 97.0424 291.884 97.1082C292.035 97.1739 292.17 97.2713 292.281 97.3936C292.391 97.5159 292.474 97.6604 292.524 97.8174C292.574 97.9745 292.59 98.1404 292.571 98.3042L292.227 102.238C292.192 102.587 292.031 102.911 291.774 103.149C291.517 103.387 291.182 103.522 290.831 103.53Z" fill="white"/>
</g>
<g opacity="0.8">
<path d="M197.612 103.53H191.149C191.056 103.532 190.964 103.514 190.878 103.477C190.793 103.44 190.716 103.386 190.654 103.317C190.591 103.248 190.544 103.166 190.516 103.078C190.488 102.989 190.479 102.895 190.49 102.803L190.786 99.3283C190.807 99.131 190.899 98.9482 191.045 98.8143C191.191 98.6803 191.381 98.6044 191.579 98.6009H198.042C198.135 98.5988 198.227 98.6168 198.313 98.6536C198.398 98.6904 198.475 98.7451 198.537 98.8141C198.6 98.883 198.647 98.9646 198.675 99.0533C198.704 99.142 198.713 99.2358 198.702 99.3283L198.396 102.803C198.379 103 198.289 103.184 198.144 103.318C197.999 103.453 197.81 103.528 197.612 103.53Z" fill="white"/>
<path d="M200.604 102.582C200.511 102.584 200.418 102.566 200.332 102.53C200.246 102.493 200.169 102.438 200.106 102.37C200.043 102.301 199.995 102.219 199.965 102.131C199.936 102.042 199.925 101.948 199.935 101.855L200.078 100.266C200.097 100.068 200.189 99.8842 200.335 99.7499C200.482 99.6155 200.673 99.5403 200.872 99.5388C200.965 99.5368 201.057 99.5548 201.143 99.5916C201.228 99.6284 201.305 99.6831 201.367 99.752C201.43 99.821 201.477 99.9026 201.505 99.9913C201.533 100.08 201.542 100.174 201.531 100.266L201.398 101.855C201.377 102.052 201.284 102.235 201.138 102.369C200.992 102.503 200.802 102.579 200.604 102.582Z" fill="white"/>
</g>
<path d="M260.261 183.698C273.125 171.368 274.408 151.809 263.127 140.01C251.845 128.211 232.27 128.641 219.406 140.971C206.541 153.3 205.258 172.86 216.54 184.658C227.822 196.457 247.396 196.027 260.261 183.698Z" fill="white"/>
<path d="M239.944 161.157C231.837 161.157 224.982 164.249 224.399 170.958L223.749 178.414H253.127L253.777 170.958C254.36 164.249 248.06 161.157 239.944 161.157Z" fill="#45BD43"/>
<path d="M240.211 158.085C243.978 158.085 245.718 155.032 246.043 151.261C246.368 147.49 245.173 144.437 241.406 144.437C237.64 144.437 235.909 147.499 235.575 151.261C235.24 155.022 236.445 158.085 240.211 158.085Z" fill="#45BD43"/>
<path d="M269.044 205.184C267.046 205.184 265.354 205.95 265.22 207.606L265.058 209.453H272.314L272.476 207.606C272.61 205.95 271.052 205.184 269.044 205.184Z" fill="#45BD43"/>
<path d="M269.111 204.428C270.067 204.428 270.469 203.672 270.555 202.743C270.641 201.815 270.335 201.059 269.407 201.059C268.48 201.059 268.05 201.815 267.964 202.743C267.878 203.672 268.184 204.428 269.111 204.428Z" fill="#45BD43"/>
<path d="M246.712 247.89H218.032C217.254 247.904 216.483 247.752 215.768 247.445C215.054 247.137 214.413 246.68 213.888 246.105C213.364 245.53 212.967 244.85 212.726 244.11C212.484 243.37 212.403 242.587 212.487 241.812C212.657 240.167 213.423 238.64 214.64 237.521C215.857 236.401 217.441 235.766 219.093 235.735H247.773C248.55 235.722 249.321 235.875 250.035 236.183C250.749 236.492 251.389 236.948 251.913 237.523C252.438 238.097 252.834 238.777 253.076 239.517C253.318 240.256 253.401 241.039 253.318 241.812C253.15 243.459 252.385 244.987 251.167 246.107C249.95 247.227 248.365 247.861 246.712 247.89Z" fill="#45BD43"/>
<path d="M243.242 315.672H212.545C211.721 315.695 210.902 315.539 210.144 315.216C209.386 314.893 208.706 314.411 208.151 313.802C207.596 313.192 207.179 312.47 206.927 311.685C206.676 310.899 206.596 310.069 206.694 309.25L208.654 286.835C208.829 285.096 209.635 283.482 210.919 282.298C212.204 281.114 213.877 280.444 215.623 280.413H246.33C247.151 280.398 247.966 280.559 248.72 280.884C249.474 281.21 250.151 281.692 250.704 282.3C251.258 282.908 251.676 283.626 251.93 284.408C252.185 285.19 252.27 286.017 252.18 286.835L250.22 309.25C250.041 310.989 249.232 312.602 247.947 313.785C246.661 314.968 244.988 315.639 243.242 315.672Z" fill="#45BD43"/>
<g opacity="0.6">
<path d="M233.777 292.491C233.827 292.002 233.773 291.508 233.619 291.041C233.464 290.574 233.212 290.146 232.879 289.784C232.547 289.422 232.141 289.135 231.689 288.942C231.238 288.749 230.75 288.653 230.259 288.663C229.213 288.678 228.209 289.075 227.436 289.781C226.663 290.486 226.174 291.45 226.062 292.491C226.002 293.073 226.088 293.662 226.313 294.202C226.539 294.742 226.896 295.217 227.353 295.583L226.684 303.306C226.651 303.599 226.681 303.895 226.772 304.175C226.863 304.455 227.012 304.713 227.211 304.93C227.409 305.148 227.651 305.32 227.921 305.436C228.192 305.552 228.483 305.609 228.777 305.603C229.4 305.59 229.997 305.349 230.455 304.926C230.913 304.503 231.2 303.927 231.263 303.306L231.942 295.583C232.454 295.232 232.884 294.774 233.201 294.24C233.518 293.706 233.714 293.109 233.777 292.491Z" fill="white"/>
</g>
<path d="M246.597 285.083H242.639L243.595 273.99C243.762 272.451 243.6 270.893 243.12 269.421C242.64 267.949 241.852 266.596 240.81 265.452C239.768 264.308 238.494 263.399 237.074 262.785C235.654 262.171 234.119 261.867 232.573 261.892C229.286 261.957 226.136 263.222 223.716 265.451C221.297 267.679 219.775 270.716 219.437 273.99L218.481 285.083H214.523L215.479 273.99C215.925 269.645 217.943 265.614 221.154 262.657C224.365 259.7 228.545 258.022 232.907 257.94C234.96 257.905 236.997 258.307 238.883 259.121C240.768 259.934 242.459 261.14 243.843 262.658C245.228 264.176 246.274 265.972 246.912 267.926C247.55 269.879 247.765 271.947 247.544 273.99L246.597 285.083Z" fill="#45BD43"/>
<path d="M269.532 222.173L269.656 221.091C269.682 220.84 269.654 220.587 269.575 220.348C269.496 220.109 269.368 219.889 269.198 219.703C269.028 219.517 268.821 219.368 268.591 219.268C268.36 219.167 268.11 219.117 267.859 219.119C267.323 219.131 266.81 219.337 266.416 219.7C266.021 220.063 265.773 220.558 265.717 221.091L265.622 222.153C265.407 222.159 265.203 222.243 265.046 222.39C264.89 222.536 264.792 222.734 264.771 222.948L264.522 225.819C264.51 225.92 264.519 226.021 264.55 226.118C264.58 226.214 264.632 226.303 264.7 226.377C264.768 226.452 264.851 226.511 264.945 226.55C265.038 226.589 265.138 226.608 265.239 226.604H269.178C269.391 226.6 269.596 226.518 269.753 226.374C269.909 226.229 270.008 226.032 270.029 225.819L270.277 222.948C270.286 222.846 270.272 222.744 270.238 222.649C270.204 222.553 270.15 222.465 270.079 222.392C270.009 222.319 269.923 222.261 269.829 222.223C269.735 222.185 269.633 222.168 269.532 222.173ZM267.744 219.627C267.934 219.624 268.122 219.662 268.296 219.738C268.47 219.813 268.626 219.925 268.754 220.065C268.882 220.205 268.979 220.37 269.039 220.55C269.099 220.73 269.12 220.921 269.101 221.11L269.006 222.173H266.042L266.138 221.11C266.18 220.71 266.366 220.338 266.661 220.065C266.957 219.792 267.342 219.636 267.744 219.627Z" fill="#45BD43"/>
<path d="M210.241 223.312L208.864 223.025C208.826 223.017 208.79 223 208.759 222.976C208.728 222.953 208.702 222.922 208.685 222.887C208.667 222.852 208.658 222.813 208.658 222.774C208.657 222.735 208.666 222.696 208.682 222.661L209.256 221.302C209.28 221.243 209.282 221.178 209.262 221.118C209.243 221.057 209.202 221.006 209.149 220.973C209.095 220.939 209.031 220.926 208.968 220.936C208.906 220.945 208.848 220.976 208.807 221.024L207.765 222.096C207.74 222.128 207.708 222.154 207.671 222.171C207.635 222.189 207.595 222.198 207.554 222.198C207.514 222.198 207.474 222.189 207.437 222.171C207.401 222.154 207.369 222.128 207.344 222.096L206.493 221.024C206.311 220.794 205.919 221.024 205.986 221.302L206.321 222.661C206.331 222.701 206.332 222.742 206.325 222.782C206.318 222.822 206.303 222.861 206.281 222.895C206.258 222.929 206.229 222.958 206.195 222.981C206.161 223.003 206.122 223.018 206.082 223.025L204.658 223.312C204.352 223.369 204.313 223.8 204.61 223.857L205.986 224.144C206.025 224.152 206.061 224.168 206.092 224.192C206.123 224.216 206.148 224.247 206.165 224.282C206.182 224.318 206.19 224.357 206.189 224.396C206.188 224.435 206.177 224.474 206.158 224.508L205.604 225.877C205.58 225.935 205.578 226.001 205.598 226.061C205.617 226.121 205.658 226.172 205.711 226.206C205.765 226.239 205.829 226.252 205.892 226.243C205.954 226.233 206.012 226.202 206.053 226.154L207.095 225.082C207.122 225.053 207.155 225.03 207.191 225.014C207.227 224.999 207.266 224.99 207.306 224.99C207.345 224.99 207.384 224.999 207.42 225.014C207.457 225.03 207.489 225.053 207.516 225.082L208.367 226.154C208.549 226.384 208.94 226.154 208.864 225.877L208.529 224.518C208.515 224.436 208.533 224.353 208.58 224.285C208.626 224.217 208.697 224.17 208.778 224.154L210.202 223.867C210.499 223.8 210.537 223.369 210.241 223.312Z" fill="#263238"/>
<path d="M219.284 223.312L217.908 223.025C217.869 223.017 217.833 223 217.802 222.976C217.771 222.953 217.746 222.922 217.729 222.887C217.711 222.852 217.702 222.813 217.701 222.774C217.701 222.735 217.709 222.696 217.726 222.661L218.3 221.302C218.324 221.243 218.326 221.178 218.306 221.118C218.287 221.057 218.246 221.006 218.192 220.973C218.138 220.939 218.075 220.926 218.012 220.936C217.949 220.945 217.892 220.976 217.85 221.024L216.808 222.096C216.783 222.128 216.751 222.154 216.715 222.171C216.678 222.189 216.639 222.198 216.598 222.198C216.558 222.198 216.518 222.189 216.481 222.171C216.445 222.154 216.413 222.128 216.388 222.096L215.537 221.024C215.355 220.794 214.963 221.024 215.04 221.302L215.374 222.661C215.383 222.701 215.383 222.743 215.375 222.783C215.366 222.823 215.35 222.862 215.327 222.895C215.304 222.929 215.274 222.958 215.24 222.981C215.205 223.003 215.166 223.018 215.126 223.025L213.701 223.312C213.395 223.369 213.357 223.8 213.654 223.857L215.03 224.144C215.068 224.152 215.105 224.169 215.136 224.192C215.167 224.216 215.192 224.247 215.209 224.282C215.227 224.317 215.236 224.356 215.237 224.395C215.237 224.434 215.229 224.473 215.212 224.508L214.638 225.867C214.614 225.926 214.612 225.991 214.632 226.051C214.651 226.112 214.692 226.163 214.746 226.196C214.799 226.229 214.863 226.243 214.926 226.233C214.989 226.224 215.046 226.192 215.088 226.145L216.13 225.073C216.156 225.044 216.189 225.021 216.225 225.005C216.261 224.989 216.3 224.981 216.34 224.981C216.379 224.981 216.418 224.989 216.455 225.005C216.491 225.021 216.523 225.044 216.55 225.073L217.401 226.145C217.583 226.374 217.975 226.145 217.908 225.867L217.573 224.508C217.565 224.468 217.564 224.428 217.572 224.388C217.579 224.348 217.595 224.31 217.617 224.276C217.639 224.242 217.668 224.213 217.701 224.191C217.735 224.168 217.772 224.152 217.812 224.144L219.237 223.857C219.543 223.8 219.581 223.369 219.284 223.312Z" fill="#263238"/>
<path d="M228.328 223.312L226.961 223.024C226.922 223.018 226.884 223.003 226.852 222.98C226.82 222.956 226.794 222.925 226.776 222.89C226.758 222.854 226.749 222.815 226.75 222.775C226.75 222.735 226.76 222.696 226.779 222.661L227.353 221.302C227.39 221.241 227.401 221.168 227.384 221.099C227.367 221.029 227.323 220.97 227.262 220.933C227.201 220.896 227.128 220.885 227.059 220.902C226.99 220.919 226.931 220.963 226.894 221.024L225.862 222.096C225.836 222.128 225.803 222.154 225.766 222.172C225.728 222.189 225.688 222.199 225.646 222.199C225.605 222.199 225.565 222.189 225.527 222.172C225.49 222.154 225.457 222.128 225.431 222.096L224.581 221.024C224.399 220.794 224.007 221.024 224.083 221.302L224.418 222.661C224.426 222.7 224.427 222.741 224.419 222.781C224.412 222.821 224.397 222.859 224.374 222.893C224.352 222.926 224.323 222.955 224.29 222.978C224.256 223.001 224.219 223.016 224.179 223.024L222.755 223.312C222.449 223.369 222.41 223.8 222.707 223.857L224.074 224.144C224.112 224.152 224.148 224.169 224.179 224.192C224.21 224.216 224.236 224.247 224.253 224.282C224.271 224.317 224.28 224.355 224.28 224.395C224.281 224.434 224.272 224.473 224.255 224.508L223.682 225.867C223.645 225.928 223.634 226.001 223.651 226.07C223.668 226.139 223.712 226.199 223.773 226.236C223.834 226.272 223.907 226.283 223.976 226.266C224.045 226.249 224.104 226.206 224.141 226.145L225.173 225.073C225.2 225.044 225.233 225.021 225.269 225.005C225.305 224.989 225.344 224.981 225.384 224.981C225.423 224.981 225.462 224.989 225.498 225.005C225.534 225.021 225.567 225.044 225.594 225.073L226.454 226.145C226.636 226.374 227.028 226.145 226.951 225.867L226.617 224.508C226.602 224.428 226.619 224.346 226.664 224.278C226.708 224.211 226.777 224.163 226.856 224.144L228.28 223.857C228.548 223.8 228.624 223.369 228.328 223.312Z" fill="#263238"/>
<path d="M237.381 223.312L236.005 223.025C235.966 223.017 235.93 223 235.899 222.976C235.868 222.953 235.843 222.922 235.826 222.887C235.808 222.852 235.799 222.813 235.798 222.774C235.798 222.735 235.806 222.696 235.823 222.661L236.397 221.302C236.421 221.243 236.423 221.178 236.403 221.118C236.384 221.057 236.343 221.006 236.289 220.973C236.236 220.939 236.172 220.926 236.109 220.936C236.046 220.945 235.989 220.976 235.947 221.024L234.905 222.096C234.88 222.128 234.848 222.154 234.812 222.171C234.776 222.189 234.736 222.198 234.695 222.198C234.655 222.198 234.615 222.189 234.578 222.171C234.542 222.154 234.51 222.128 234.485 222.096L233.634 221.024C233.452 220.794 233.06 221.024 233.127 221.302L233.462 222.661C233.472 222.701 233.473 222.742 233.466 222.782C233.459 222.822 233.444 222.861 233.422 222.895C233.399 222.929 233.37 222.958 233.336 222.981C233.302 223.003 233.263 223.018 233.223 223.025L231.798 223.312C231.493 223.369 231.454 223.8 231.798 223.857L233.175 224.144C233.214 224.152 233.25 224.168 233.281 224.192C233.312 224.216 233.337 224.247 233.354 224.282C233.37 224.318 233.379 224.357 233.377 224.396C233.376 224.435 233.366 224.474 233.347 224.508L232.783 225.867C232.759 225.926 232.757 225.991 232.777 226.051C232.796 226.112 232.837 226.163 232.891 226.196C232.944 226.229 233.008 226.243 233.071 226.233C233.133 226.224 233.191 226.192 233.232 226.145L234.274 225.073C234.301 225.044 234.334 225.021 234.37 225.005C234.406 224.989 234.445 224.981 234.485 224.981C234.524 224.981 234.563 224.989 234.6 225.005C234.636 225.021 234.668 225.044 234.695 225.073L235.546 226.145C235.728 226.374 236.12 226.145 236.043 225.867L235.708 224.508C235.694 224.427 235.713 224.344 235.759 224.276C235.805 224.208 235.876 224.161 235.957 224.144L237.381 223.857C237.64 223.8 237.678 223.369 237.381 223.312Z" fill="#263238"/>
<path d="M246.425 223.312L245.049 223.025C245.01 223.017 244.974 223 244.943 222.976C244.912 222.953 244.887 222.922 244.869 222.887C244.852 222.852 244.842 222.813 244.842 222.774C244.842 222.735 244.85 222.696 244.867 222.661L245.44 221.302C245.464 221.243 245.467 221.178 245.447 221.118C245.427 221.057 245.387 221.006 245.333 220.973C245.279 220.939 245.215 220.926 245.153 220.936C245.09 220.945 245.033 220.976 244.991 221.024L243.949 222.096C243.924 222.128 243.892 222.154 243.856 222.171C243.819 222.189 243.779 222.198 243.739 222.198C243.698 222.198 243.658 222.189 243.622 222.171C243.585 222.154 243.554 222.128 243.528 222.096L242.678 221.024C242.496 220.794 242.104 221.024 242.181 221.302L242.515 222.661C242.523 222.701 242.523 222.743 242.515 222.783C242.507 222.823 242.491 222.862 242.468 222.895C242.445 222.929 242.415 222.958 242.38 222.981C242.346 223.003 242.307 223.018 242.267 223.025L240.842 223.312C240.536 223.369 240.498 223.8 240.794 223.857L242.171 224.144C242.209 224.152 242.245 224.169 242.276 224.192C242.307 224.216 242.333 224.247 242.35 224.282C242.368 224.317 242.377 224.356 242.377 224.395C242.378 224.434 242.369 224.473 242.353 224.508L241.779 225.867C241.755 225.926 241.753 225.991 241.772 226.051C241.792 226.112 241.832 226.163 241.886 226.196C241.94 226.229 242.004 226.243 242.067 226.233C242.129 226.224 242.187 226.192 242.228 226.145L243.27 225.073C243.297 225.044 243.33 225.021 243.366 225.005C243.402 224.989 243.441 224.981 243.481 224.981C243.52 224.981 243.559 224.989 243.595 225.005C243.632 225.021 243.664 225.044 243.691 225.073L244.542 226.145C244.723 226.374 245.115 226.145 245.049 225.867L244.714 224.508C244.706 224.468 244.705 224.428 244.713 224.388C244.72 224.348 244.735 224.31 244.758 224.276C244.78 224.242 244.809 224.213 244.842 224.191C244.876 224.168 244.913 224.152 244.953 224.144L246.377 223.857C246.712 223.8 246.712 223.369 246.425 223.312Z" fill="#263238"/>
<path d="M255.469 223.312L254.092 223.024C254.054 223.017 254.018 223.001 253.986 222.977C253.955 222.953 253.931 222.922 253.914 222.886C253.897 222.851 253.889 222.812 253.89 222.773C253.891 222.734 253.901 222.695 253.92 222.661L254.494 221.302C254.512 221.272 254.524 221.238 254.529 221.203C254.535 221.168 254.533 221.133 254.525 221.099C254.516 221.064 254.501 221.032 254.48 221.004C254.459 220.975 254.433 220.951 254.403 220.933C254.373 220.915 254.339 220.903 254.305 220.898C254.27 220.892 254.234 220.894 254.2 220.902C254.166 220.911 254.134 220.926 254.105 220.947C254.077 220.968 254.053 220.994 254.035 221.024L253.002 222.096C252.976 222.128 252.944 222.154 252.906 222.172C252.869 222.189 252.829 222.199 252.787 222.199C252.746 222.199 252.705 222.189 252.668 222.172C252.631 222.154 252.598 222.128 252.572 222.096L251.721 221.024C251.54 220.794 251.148 221.024 251.224 221.302L251.559 222.661C251.567 222.7 251.568 222.741 251.56 222.781C251.553 222.821 251.537 222.859 251.515 222.893C251.493 222.926 251.464 222.955 251.431 222.978C251.397 223.001 251.36 223.016 251.32 223.024L249.895 223.312C249.59 223.369 249.551 223.8 249.848 223.857L251.215 224.144C251.253 224.152 251.289 224.169 251.32 224.192C251.351 224.216 251.376 224.247 251.394 224.282C251.411 224.317 251.421 224.355 251.421 224.395C251.422 224.434 251.413 224.473 251.396 224.508L250.823 225.867C250.786 225.928 250.775 226.001 250.792 226.07C250.809 226.139 250.853 226.199 250.914 226.236C250.974 226.272 251.047 226.283 251.116 226.266C251.185 226.249 251.245 226.206 251.282 226.145L252.314 225.073C252.341 225.044 252.373 225.021 252.41 225.005C252.446 224.989 252.485 224.981 252.524 224.981C252.564 224.981 252.603 224.989 252.639 225.005C252.675 225.021 252.708 225.044 252.735 225.073L253.586 226.145C253.63 226.195 253.69 226.228 253.756 226.24C253.822 226.251 253.89 226.24 253.949 226.208C254.008 226.175 254.054 226.124 254.08 226.062C254.106 226.001 254.11 225.932 254.092 225.867L253.758 224.508C253.743 224.428 253.76 224.346 253.805 224.278C253.849 224.211 253.918 224.163 253.997 224.144L255.421 223.857C255.727 223.8 255.765 223.369 255.469 223.312Z" fill="#263238"/>
<path d="M233.663 203.49H216.684C216.163 203.499 215.663 203.699 215.279 204.051C214.895 204.404 214.654 204.885 214.6 205.404C214.573 205.648 214.598 205.896 214.674 206.129C214.75 206.363 214.875 206.578 215.04 206.759C215.206 206.94 215.409 207.084 215.634 207.181C215.86 207.277 216.104 207.324 216.349 207.318H233.328C233.849 207.309 234.349 207.11 234.733 206.757C235.117 206.404 235.358 205.923 235.412 205.404C235.438 205.16 235.412 204.914 235.335 204.681C235.258 204.448 235.133 204.234 234.968 204.053C234.803 203.872 234.601 203.728 234.376 203.631C234.151 203.534 233.908 203.486 233.663 203.49Z" fill="#263238"/>
<path d="M250.909 203.49H241.052C240.532 203.499 240.034 203.699 239.652 204.052C239.269 204.405 239.029 204.886 238.978 205.404C238.951 205.648 238.976 205.894 239.051 206.127C239.127 206.36 239.251 206.574 239.415 206.755C239.58 206.937 239.781 207.08 240.006 207.178C240.231 207.275 240.473 207.323 240.718 207.318H250.536C251.056 207.309 251.555 207.109 251.937 206.756C252.319 206.404 252.559 205.922 252.611 205.404C252.637 205.164 252.613 204.921 252.54 204.691C252.467 204.46 252.346 204.248 252.186 204.067C252.025 203.887 251.829 203.742 251.609 203.643C251.389 203.543 251.15 203.491 250.909 203.49Z" fill="#263238"/>
<path d="M263.92 290.252C257.919 292.54 252.501 296.136 248.06 300.78C245.363 298.683 242.148 297.36 238.758 296.951L238.309 296.884L238.118 299.143L238.366 299.239C242.084 300.609 245.228 303.2 247.286 306.589L247.611 307.125L247.964 306.551C251.923 300.223 257.511 295.079 264.14 291.658L264.36 291.544L264.484 290.051L263.92 290.252Z" fill="#263238"/>
<path opacity="0.2" d="M178.492 101.807C177.274 103.937 176.524 106.303 176.293 108.746L162.058 271.664H206.111L214.963 237.697L212.047 203.72L220.9 169.752L218.032 135.784L226.885 101.807H178.492Z" fill="black"/>
<path d="M214.16 126.213L223.013 92.2361H111.61L102.767 126.213L105.673 160.181L96.8304 194.149L99.7366 228.126L90.8936 262.093H202.287L211.139 228.126L208.223 194.149L217.076 160.181L214.16 126.213Z" fill="#45BD43"/>
<path opacity="0.7" d="M214.16 126.213L223.013 92.2361H111.61L102.767 126.213L105.673 160.181L96.8304 194.149L99.7366 228.126L90.8936 262.093H202.287L211.139 228.126L208.223 194.149L217.076 160.181L214.16 126.213Z" fill="white"/>
<path opacity="0.5" d="M214.16 126.213H102.767L111.61 92.2361H223.013L214.16 126.213Z" fill="white"/>
<path opacity="0.5" d="M208.223 194.149H96.8303L105.673 160.181H217.076L208.223 194.149Z" fill="white"/>
<path opacity="0.5" d="M202.287 262.093H90.884L99.7366 228.126H211.139L202.287 262.093Z" fill="white"/>
<path opacity="0.2" d="M199.256 140.407C198.113 140.738 196.928 140.899 195.738 140.886C194.125 140.957 192.519 140.628 191.063 139.929C190.8 139.772 190.499 139.69 190.193 139.689C189.913 139.693 189.637 139.766 189.39 139.9H189.333C188.906 140.14 188.45 140.323 187.975 140.445C186.906 140.728 185.803 140.867 184.696 140.857C184.362 140.857 184.037 140.857 183.74 140.857C182.882 140.802 182.032 140.651 181.207 140.407C181.085 140.371 180.96 140.349 180.834 140.34C180.624 140.323 180.412 140.35 180.213 140.418C180.013 140.487 179.83 140.596 179.675 140.739C179.519 140.882 179.395 141.055 179.31 141.249C179.225 141.442 179.181 141.651 179.18 141.862V142.896H135.816C135.019 142.896 134.23 143.053 133.494 143.358C132.758 143.664 132.09 144.112 131.527 144.676C130.964 145.241 130.518 145.911 130.214 146.648C129.91 147.385 129.754 148.176 129.755 148.973V155.089C129.752 155.888 129.907 156.679 130.211 157.417C130.514 158.156 130.96 158.827 131.523 159.392C132.087 159.958 132.756 160.406 133.492 160.713C134.229 161.019 135.018 161.176 135.816 161.176H185.079H185.404C185.93 161.617 186.484 162.057 187.077 162.507C187.669 162.957 188.511 163.579 189.285 164.134C189.549 164.325 189.867 164.428 190.193 164.428C190.519 164.428 190.837 164.325 191.101 164.134C197.296 159.635 201.273 156.534 201.273 148.016V141.891C201.276 141.646 201.221 141.404 201.112 141.184C201.003 140.965 200.843 140.775 200.646 140.63C200.448 140.485 200.219 140.389 199.978 140.35C199.736 140.312 199.489 140.331 199.256 140.407Z" fill="black"/>
<path d="M184.132 139.536H134.879C131.526 139.536 128.809 142.257 128.809 145.614V151.73C128.809 155.086 131.526 157.807 134.879 157.807H184.132C187.485 157.807 190.203 155.086 190.203 151.73V145.614C190.203 142.257 187.485 139.536 184.132 139.536Z" fill="#45BD43"/>
<path d="M194.792 137.517C193.179 137.586 191.573 137.257 190.117 136.56C189.858 136.401 189.56 136.316 189.256 136.316C188.953 136.316 188.655 136.401 188.396 136.56C186.937 137.258 185.328 137.587 183.712 137.517C182.522 137.529 181.337 137.368 180.194 137.038C179.963 136.961 179.718 136.939 179.478 136.975C179.237 137.012 179.009 137.105 178.812 137.247C178.615 137.389 178.454 137.577 178.344 137.793C178.233 138.01 178.176 138.25 178.176 138.493V144.618C178.176 153.146 182.153 156.247 188.348 160.746C188.612 160.937 188.93 161.04 189.256 161.04C189.583 161.04 189.9 160.937 190.165 160.746C196.36 156.247 200.336 153.146 200.336 144.618V138.493C200.335 138.249 200.277 138.009 200.165 137.793C200.053 137.576 199.892 137.389 199.694 137.247C199.496 137.105 199.268 137.012 199.027 136.976C198.786 136.94 198.541 136.961 198.31 137.038C197.167 137.369 195.981 137.53 194.792 137.517Z" fill="#45BD43"/>
<path opacity="0.3" d="M194.792 137.517C193.179 137.586 191.573 137.257 190.117 136.56C189.858 136.401 189.56 136.316 189.256 136.316C188.953 136.316 188.655 136.401 188.396 136.56C186.937 137.258 185.328 137.587 183.712 137.517C182.522 137.529 181.337 137.368 180.194 137.038C179.963 136.961 179.718 136.939 179.478 136.975C179.237 137.012 179.009 137.105 178.812 137.247C178.615 137.389 178.454 137.577 178.344 137.793C178.233 138.01 178.176 138.25 178.176 138.493V144.618C178.176 153.146 182.153 156.247 188.348 160.746C188.612 160.937 188.93 161.04 189.256 161.04C189.583 161.04 189.9 160.937 190.165 160.746C196.36 156.247 200.336 153.146 200.336 144.618V138.493C200.335 138.249 200.277 138.009 200.165 137.793C200.053 137.576 199.892 137.389 199.694 137.247C199.496 137.105 199.268 137.012 199.027 136.976C198.786 136.94 198.541 136.961 198.31 137.038C197.167 137.369 195.981 137.53 194.792 137.517Z" fill="white"/>
<path opacity="0.2" d="M188.396 136.541C186.937 137.239 185.328 137.568 183.712 137.498C182.522 137.51 181.337 137.348 180.194 137.019C179.963 136.942 179.718 136.92 179.478 136.956C179.237 136.993 179.009 137.086 178.812 137.228C178.615 137.37 178.454 137.557 178.344 137.774C178.233 137.991 178.176 138.231 178.176 138.474V144.599C178.176 153.127 182.153 156.228 188.348 160.727C188.626 160.928 188.962 161.032 189.304 161.023V136.292C188.984 136.285 188.669 136.372 188.396 136.541Z" fill="white"/>
<path d="M198.138 142.953C194.411 144.415 191.092 146.756 188.463 149.777C186.629 148.424 184.48 147.564 182.22 147.279H181.924V148.744L182.086 148.801C184.6 149.709 186.766 151.383 188.281 153.587L188.52 153.931L188.721 153.558C190.919 149.469 194.266 146.115 198.348 143.91L198.491 143.843V142.886L198.138 142.953Z" fill="#263238"/>
<path d="M221.043 101.798H216.818C216.274 101.808 215.735 101.702 215.235 101.487C214.736 101.271 214.288 100.952 213.922 100.55C213.555 100.148 213.279 99.6719 213.11 99.1543C212.942 98.6367 212.886 98.0891 212.946 97.5481L213.319 93.3177C213.434 92.1671 213.966 91.0988 214.816 90.3154C215.665 89.5321 216.772 89.0882 217.927 89.0681H222.152C222.697 89.0566 223.237 89.1617 223.738 89.3762C224.239 89.5908 224.688 89.9099 225.055 90.3122C225.423 90.7145 225.7 91.1908 225.869 91.7091C226.038 92.2274 226.094 92.7758 226.034 93.3177L225.661 97.5481C225.532 98.6947 224.994 99.7562 224.146 100.537C223.297 101.318 222.196 101.766 221.043 101.798Z" fill="#45BD43"/>
<path d="M222.802 93.3081L221.885 92.2936L219.571 94.4184L217.64 92.2936L216.541 93.3081L218.481 95.4329L216.177 97.5577L217.095 98.5626L219.399 96.4378L221.34 98.5626L222.43 97.5577L220.489 95.4329L222.802 93.3081Z" fill="white"/>
<path d="M126.61 138.292C129.057 140.962 131.39 143.728 133.713 146.514C136.036 149.299 138.283 152.141 140.52 154.993C140.615 155.118 140.577 155.07 140.596 155.108C140.615 155.147 140.596 155.156 140.596 155.166C140.613 155.201 140.635 155.234 140.663 155.261C140.744 155.377 140.848 155.476 140.968 155.552C141.088 155.627 141.221 155.678 141.361 155.702C141.469 155.716 141.578 155.716 141.686 155.702C141.743 155.706 141.801 155.706 141.858 155.702H141.944C141.992 155.702 141.944 155.702 142.097 155.644L144.487 154.343C147.699 152.639 150.94 150.974 154.286 149.481L157.087 152.955C154.391 155.434 151.58 158.544 148.741 160.822L146.6 162.507C146.467 162.615 146.326 162.715 146.179 162.803C146.017 162.919 145.848 163.024 145.672 163.119C145.326 163.319 144.969 163.498 144.602 163.655C143.861 163.967 143.083 164.182 142.288 164.297C140.68 164.533 139.038 164.369 137.508 163.818C136.73 163.541 135.991 163.165 135.309 162.698C134.965 162.468 134.64 162.2 134.353 161.942C134.191 161.808 134.057 161.655 133.904 161.511L133.522 161.129C130.988 158.525 128.493 155.903 126.046 153.232C123.598 150.562 121.18 147.873 118.866 145.078L126.61 138.292Z" fill="#B55B52"/>
<path d="M153.024 151.586L155.252 144.417L161.121 147.346C161.121 147.346 160.261 152.572 155.997 153.481L153.024 151.586Z" fill="#B55B52"/>
<path d="M157.594 142.436L162.89 143.891L161.112 147.346L155.242 144.417L157.594 142.436Z" fill="#B55B52"/>
<path d="M95.75 140.245C95.1191 143.288 94.3351 146.303 93.5225 149.308C92.7099 152.314 91.8209 155.29 90.8935 158.267L90.5494 159.387L90.3773 159.942C90.3542 160.022 90.3221 160.099 90.2817 160.171C90.1727 160.479 90.1114 160.802 90.1001 161.129C90.0799 161.824 90.2734 162.509 90.6545 163.091C90.8426 163.346 91.0504 163.586 91.276 163.808L92.0694 164.679L93.6373 166.431C94.6602 167.618 95.6927 168.805 96.6678 170.049L93.3313 173.877C91.9547 173.092 90.6354 172.241 89.3162 171.398L87.3563 170.097L86.4003 169.436C86.0753 169.207 85.8076 169.053 85.2818 168.623C83.4113 167.027 82.1206 164.856 81.6108 162.449C81.3542 161.222 81.2929 159.963 81.4292 158.717C81.4292 158.41 81.5247 158.066 81.5725 157.76L81.6777 157.185L81.8785 156.037C82.4138 152.964 82.9874 149.902 83.628 146.858C84.2685 143.815 84.9568 140.781 85.7694 137.785L95.75 140.245Z" fill="#B55B52"/>
<path d="M93.3983 169.743L97.337 167.723L99.077 174.423C99.077 174.423 95.9126 175.638 93.4652 174.078L93.3983 169.743Z" fill="#B55B52"/>
<path d="M102.786 165.569L102.968 171.733L98.5607 174.614L97.0311 167.847L102.786 165.569Z" fill="#B55B52"/>
<path d="M115.683 108.603C115.778 109.072 116.113 109.407 116.419 109.349C116.725 109.292 116.906 108.851 116.811 108.392C116.715 107.933 116.381 107.588 116.075 107.646C115.769 107.703 115.587 108.153 115.683 108.603Z" fill="#263238"/>
<path d="M116.065 109.416C116.926 110.751 117.965 111.962 119.153 113.015C118.876 113.313 118.538 113.547 118.161 113.701C117.785 113.855 117.379 113.924 116.973 113.905L116.065 109.416Z" fill="#A02724"/>
<path d="M113.417 106.325C113.362 106.324 113.308 106.308 113.262 106.277C113.216 106.247 113.18 106.204 113.158 106.153C113.136 106.103 113.128 106.047 113.137 105.993C113.146 105.938 113.17 105.887 113.207 105.846C113.506 105.507 113.881 105.244 114.301 105.077C114.722 104.911 115.175 104.847 115.625 104.889C115.662 104.896 115.698 104.91 115.729 104.931C115.761 104.951 115.788 104.978 115.809 105.009C115.831 105.04 115.846 105.075 115.853 105.112C115.861 105.149 115.862 105.187 115.855 105.224C115.849 105.261 115.836 105.296 115.816 105.327C115.797 105.359 115.771 105.386 115.741 105.408C115.71 105.429 115.676 105.444 115.64 105.452C115.604 105.46 115.566 105.461 115.53 105.454C115.173 105.42 114.813 105.471 114.481 105.604C114.148 105.738 113.852 105.948 113.618 106.219C113.567 106.279 113.495 106.317 113.417 106.325Z" fill="#263238"/>
<path d="M101.897 115.274C102.949 119.667 104.01 127.716 100.243 130.635C100.243 130.635 101.715 135.095 111.715 135.095C122.709 135.095 116.973 132.224 116.973 132.224C110.97 131.056 111.123 125.84 112.193 122.423L101.897 115.274Z" fill="#B55B52"/>
<path d="M99.0673 131.449C98.4173 130.233 97.6907 128.836 99.1821 128.396C100.826 127.917 111.371 127.027 114.478 127.927C113.522 129.621 115.138 131.755 115.138 131.755L99.0673 131.449Z" fill="#263238"/>
<path d="M107.805 336.824H114.698L115.386 322.927H108.484L107.805 336.824Z" fill="#B55B52"/>
<path d="M64.03 334.91L71.0183 335.283L75.263 321.587L68.2746 321.214L64.03 334.91Z" fill="#B55B52"/>
<path d="M70.808 334.728L64.2212 333.302C64.1058 333.276 63.985 333.29 63.8788 333.342C63.7727 333.395 63.6876 333.482 63.638 333.589L61.3532 338.557C61.2969 338.677 61.269 338.809 61.2717 338.942C61.2743 339.075 61.3073 339.206 61.3682 339.324C61.4291 339.443 61.5163 339.545 61.6231 339.625C61.7299 339.704 61.8534 339.758 61.9841 339.782C64.2881 340.241 65.4353 340.346 68.332 340.978C70.1101 341.361 74.1349 342.347 76.5918 342.892C79.0487 343.438 79.8996 341.064 78.9436 340.624C74.6416 338.662 72.8443 336.929 71.678 335.312C71.4687 335.018 71.1593 334.81 70.808 334.728Z" fill="#263238"/>
<path d="M114.335 336.125H107.786C107.668 336.127 107.553 336.168 107.461 336.243C107.369 336.318 107.305 336.421 107.279 336.537L106.094 341.868C106.063 341.997 106.063 342.132 106.092 342.261C106.121 342.39 106.179 342.511 106.262 342.615C106.345 342.718 106.451 342.801 106.571 342.858C106.691 342.914 106.822 342.942 106.954 342.94C109.316 342.94 112.69 342.758 115.702 342.758C119.172 342.758 122.164 342.95 126.218 342.95C128.675 342.95 129.363 340.461 128.33 340.231C123.637 339.207 119.813 339.093 115.759 336.594C115.335 336.312 114.843 336.15 114.335 336.125Z" fill="#263238"/>
<path d="M87.7483 132.664C82.5477 135.143 81.1328 150.17 81.1328 150.17L94.0101 156.123C96.1868 152.447 97.3727 148.269 97.4517 143.996C97.7098 136.234 93.0733 130.166 87.7483 132.664Z" fill="#263238"/>
<path opacity="0.4" d="M94.708 141.929C92.3849 145.547 92.6048 151.136 93.4078 155.855L93.9814 156.123C96.1561 152.446 97.3418 148.268 97.423 143.996C97.423 143.537 97.423 143.039 97.423 142.628L94.708 141.929Z" fill="black"/>
<path d="M123.684 132.3C123.684 132.3 130.07 139.517 124.038 184.176H91.9834C91.7635 179.246 94.8514 155.214 90.0714 131.994C93.6141 131.312 97.1969 130.858 100.798 130.635C105.338 130.377 109.89 130.377 114.43 130.635C117.553 130.952 120.647 131.509 123.684 132.3Z" fill="#45BD43"/>
<path opacity="0.6" d="M123.684 132.3C123.684 132.3 130.07 139.517 124.038 184.176H91.9834C91.7635 179.246 94.8514 155.214 90.0714 131.994C93.6141 131.312 97.1969 130.858 100.798 130.635C105.338 130.377 109.89 130.377 114.43 130.635C117.553 130.952 120.647 131.509 123.684 132.3Z" fill="#FAFAFA"/>
<path opacity="0.2" d="M126.485 145.949L126.371 145.844L119.994 142.436C119.344 152.266 123.732 158.429 126.342 161.119C126.669 156.069 126.717 151.004 126.485 145.949Z" fill="black"/>
<path opacity="0.2" d="M115.386 322.927L115.033 330.096H108.13L108.484 322.927H115.386Z" fill="black"/>
<path opacity="0.2" d="M68.2746 321.223L75.263 321.587L73.0738 328.651L66.0854 328.277L68.2746 321.223Z" fill="black"/>
<path d="M99.6792 110.814C101.218 116.556 101.83 120.011 105.415 122.404C110.75 126.003 117.384 121.868 117.595 115.771C117.776 110.287 115.233 101.798 109.067 100.64C107.706 100.37 106.298 100.454 104.978 100.884C103.659 101.315 102.472 102.076 101.53 103.097C100.588 104.117 99.9236 105.363 99.5996 106.714C99.2756 108.065 99.303 109.476 99.6792 110.814Z" fill="#B55B52"/>
<path d="M112.671 184.176C112.671 184.176 105.865 230.03 102.155 247.22C98.0444 266.075 76.1138 328.287 76.1138 328.287L65.3779 325.961C65.3779 325.961 79.1348 275.234 82.5859 248.933C83.9243 238.664 85.54 222.134 87.5858 208.323C89.5647 194.924 92.0025 184.185 92.0025 184.185L112.671 184.176Z" fill="#263238"/>
<path d="M78.6855 324.698L76.6779 328.584L64.6132 325.961L65.6265 322.334L78.6855 324.698Z" fill="#45BD43"/>
<path opacity="0.6" d="M78.6855 324.698L76.6779 328.584L64.6132 325.961L65.6265 322.334L78.6855 324.698Z" fill="white"/>
<path opacity="0.6" d="M108.369 200.513C100.501 202.054 101.333 231.428 102.28 246.531C104.555 235.85 107.872 215.31 110.138 200.724C109.59 200.454 108.966 200.379 108.369 200.513Z" fill="black"/>
<path d="M124.038 184.176C124.038 184.176 127.241 229.045 126.591 247.344C125.912 266.381 116.897 328.698 116.897 328.698H106.744C106.744 328.698 106.371 267.444 105.922 248.79C105.425 228.403 102.968 184.166 102.968 184.166L124.038 184.176Z" fill="#263238"/>
<path d="M118.847 324.659C118.895 324.659 118.273 328.88 118.273 328.88H105.922L105.587 325.109L118.847 324.659Z" fill="#45BD43"/>
<path opacity="0.6" d="M118.847 324.659C118.895 324.659 118.273 328.88 118.273 328.88H105.922L105.587 325.109L118.847 324.659Z" fill="white"/>
<path d="M119.946 140.694C119.946 152.735 126.342 157.693 126.342 157.693L136.772 147.528C134.303 143.398 131.492 139.482 128.369 135.823C122.336 128.903 119.946 132.961 119.946 140.694Z" fill="#263238"/>
<path opacity="0.2" d="M117.193 117.953C116.98 118.557 116.624 119.099 116.154 119.533C115.684 119.967 115.115 120.279 114.497 120.442C113.817 120.581 113.2 120.935 112.737 121.452C112.274 121.969 111.99 122.622 111.926 123.313C113.163 122.899 114.286 122.197 115.201 121.266C116.117 120.334 116.799 119.199 117.193 117.953Z" fill="black"/>
<path d="M114.497 99.3761C116.639 96.6675 113.34 96.5048 113.34 96.5048C114.201 93.2794 110.339 95.0117 110.339 95.0117C108.025 91.815 106.715 95.7104 106.715 95.7104C104.316 93.0018 103.847 97.4236 103.847 97.4236C101.438 93.9876 100.215 98.9454 100.215 98.9454C97.9966 95.3754 96.6391 100.017 96.6391 100.017C92.0599 98.3808 94.23 103.147 94.23 103.147C90.3295 103.252 93.4652 106.286 93.4652 106.286C88.7808 106.286 92.9107 108.976 92.9107 108.976C89.1919 111.417 93.8667 112.077 93.8667 112.077C90.8362 116.862 96.0464 115.063 96.0464 115.063C93.9336 119.772 98.6085 117.695 98.6085 117.695C98.3121 122.232 100.922 120.997 102.184 120.155C102.423 121.112 102.882 122.069 103.723 122.146C105.358 122.366 105.635 119.274 105.635 119.274C105.635 119.274 107.146 120.461 108.417 119.82C109.689 119.179 109.211 117.561 109.211 117.561C109.487 117.768 109.822 117.879 110.167 117.879C110.511 117.879 110.846 117.768 111.123 117.561C111.667 117.14 111.667 114.096 110.979 113.024L113.465 112.067C113.465 112.067 115.31 111.809 114.488 109.368C113.992 107.966 113.948 106.442 114.363 105.013C117.174 103.693 114.86 102.142 114.86 102.142C118.12 100.046 114.497 99.3761 114.497 99.3761Z" fill="#263238"/>
<path d="M109.459 111.024C109.848 112.452 110.699 113.711 111.878 114.604C113.436 115.771 114.602 114.604 114.488 112.852C114.392 111.263 113.455 108.746 111.734 108.268C110.014 107.789 109.048 109.33 109.459 111.024Z" fill="#B55B52"/>
</g>
<defs>
<clipPath id="clip0_100_11505">
<rect width="478" height="357" fill="white" transform="translate(-42)"/>
</clipPath>
</defs>
</svg>
