<svg width="393" height="294" viewBox="0 0 393 294" fill="none" xmlns="http://www.w3.org/2000/svg">
<g clip-path="url(#clip0_100_11911)">
<path d="M393 258.058H-1V258.255H393V258.058Z" fill="#EBEBEB"/>
<path d="M353.521 270.74H311.702V270.937H353.521V270.74Z" fill="#EBEBEB"/>
<path d="M260.001 268.273H213.777V268.47H260.001V268.273Z" fill="#EBEBEB"/>
<path d="M313.719 267.138H298.598V267.335H313.719V267.138Z" fill="#EBEBEB"/>
<path d="M112.204 264.75H78.1704V264.947H112.204V264.75Z" fill="#EBEBEB"/>
<path d="M73.7812 264.75H61.6145V264.947H73.7812V264.75Z" fill="#EBEBEB"/>
<path d="M145.308 268.076H102.598V268.273H145.308V268.076Z" fill="#EBEBEB"/>
<path d="M185.756 222.904H33.609C32.4156 222.904 31.2712 222.43 30.4274 221.586C29.5835 220.742 29.1095 219.597 29.1095 218.403V4.46123C29.1199 3.27443 29.5985 2.13977 30.4412 1.30424C31.2839 0.468715 32.4224 -4.54998e-05 33.609 3.31246e-09H185.756C186.949 3.31248e-09 188.094 0.474174 188.938 1.31821C189.781 2.16224 190.255 3.307 190.255 4.50064V218.403C190.255 219.597 189.781 220.742 188.938 221.586C188.094 222.43 186.949 222.904 185.756 222.904ZM33.609 0.157641C32.4685 0.159725 31.3754 0.613806 30.569 1.42043C29.7625 2.22706 29.3086 3.32049 29.3065 4.46123V218.403C29.3086 219.544 29.7625 220.638 30.569 221.444C31.3754 222.251 32.4685 222.705 33.609 222.707H185.756C186.896 222.705 187.99 222.251 188.796 221.444C189.602 220.638 190.056 219.544 190.058 218.403V4.46123C190.056 3.32049 189.602 2.22706 188.796 1.42043C187.99 0.613806 186.896 0.159725 185.756 0.157641H33.609Z" fill="#EBEBEB"/>
<path d="M356.208 222.904H204.045C202.853 222.902 201.709 222.427 200.866 221.584C200.023 220.74 199.548 219.596 199.546 218.403V4.46123C199.558 3.27508 200.038 2.14161 200.88 1.30652C201.722 0.471431 202.859 0.00200857 204.045 0H356.208C357.392 0.0041022 358.526 0.474695 359.366 1.30978C360.205 2.14487 360.682 3.27716 360.692 4.46123V218.403C360.692 219.594 360.22 220.737 359.38 221.58C358.539 222.424 357.399 222.9 356.208 222.904ZM204.045 0.157641C202.905 0.159725 201.812 0.613806 201.005 1.42043C200.199 2.22706 199.745 3.32049 199.743 4.46123V218.403C199.745 219.544 200.199 220.638 201.005 221.444C201.812 222.251 202.905 222.705 204.045 222.707H356.208C357.349 222.705 358.442 222.251 359.248 221.444C360.055 220.638 360.509 219.544 360.511 218.403V4.46123C360.509 3.32049 360.055 2.22706 359.248 1.42043C358.442 0.613806 357.349 0.159725 356.208 0.157641H204.045Z" fill="#EBEBEB"/>
<path d="M292.751 175.596C272.594 149.459 263.264 123.835 238.757 161.542C227.725 149.885 218.04 138.227 210.98 127.232C172.801 67.7461 134.418 104.374 103.245 144.777C72.0712 185.181 36.036 258.05 36.036 258.05H360.511C360.511 258.05 313.026 201.89 292.751 175.596Z" fill="#F5F5F5"/>
<path d="M223.58 196.594C213.139 176.991 208.34 157.759 195.543 186.607C183.376 214.044 152.203 258.05 152.203 258.05H258.457C258.457 258.05 234.005 216.188 223.58 196.594Z" fill="#F0F0F0"/>
<path d="M51.142 27.1536C51.9277 27.1264 52.6996 27.3652 53.3326 27.8314C58.1473 25.4668 63.7342 24.0481 68.4071 24.2136C70.3297 24.1928 72.2266 24.6563 73.9231 25.5614C79.053 22.0224 85.6643 19.5159 90.5341 19.5159C93.3 19.5159 95.0572 20.3041 95.7192 21.6835C101.03 19.3188 106.523 17.8528 111.006 17.8528C118.146 17.8528 120.604 21.5573 117.893 26.7595C121.258 26.8462 124.095 28.9034 121.676 30.7478H42.8444C42.9389 30.6296 43.0335 30.5192 43.1438 30.401C45.3052 28.3487 48.162 27.1888 51.142 27.1536Z" fill="#FAFAFA"/>
<path d="M132.582 50.1061C132.813 50.0968 133.044 50.1354 133.259 50.2195C133.475 50.3036 133.671 50.4313 133.835 50.5948C136.75 48.8923 140.076 47.844 142.794 47.9622C143.922 47.9542 145.024 48.2987 145.946 48.9475C149.098 46.3779 153.038 44.5493 155.922 44.5493C157.498 44.5493 158.531 45.1404 158.854 46.1257C162.061 44.3995 165.339 43.3354 167.963 43.3354C171.209 43.3354 172.691 44.967 172.352 47.4735C173.691 46.7881 175.16 46.3933 176.662 46.3149C178.396 46.3149 179.239 47.1031 179.152 48.4351C179.305 48.4273 179.457 48.4273 179.61 48.4351C182.257 48.6479 183.345 50.3189 182.139 52.2264H127.948C129.154 50.9374 130.818 50.1756 132.582 50.1061Z" fill="#FAFAFA"/>
<path d="M60.5664 74.5247C60.7253 74.5178 60.8839 74.5444 61.0319 74.6028C61.1799 74.6612 61.3139 74.7501 61.4253 74.8636C63.2893 73.7057 65.4329 73.0763 67.6269 73.0429C68.4124 73.0345 69.1809 73.2715 69.8254 73.7207C72.0003 71.9473 74.7504 70.6861 76.7204 70.6861C77.8473 70.6861 78.5249 71.0881 78.7535 71.7739C80.674 70.6438 82.8337 69.9823 85.0575 69.8428C87.3033 69.8428 88.3355 70.9699 88.0991 72.704C89.0245 72.2319 90.0401 71.9632 91.0778 71.9158C92.2755 71.9158 92.8587 72.4911 92.7956 73.3818H93.1108C94.9469 73.5316 95.6876 74.6823 94.8602 75.9986H57.3593C58.1936 75.1055 59.3454 74.5761 60.5664 74.5247Z" fill="#FAFAFA"/>
<path d="M313.262 67.0446C328.446 67.0446 340.756 54.7322 340.756 39.5441C340.756 24.3561 328.446 12.0437 313.262 12.0437C298.078 12.0437 285.769 24.3561 285.769 39.5441C285.769 54.7322 298.078 67.0446 313.262 67.0446Z" fill="#F0F0F0"/>
<path d="M246.156 38.7403C246.941 38.7145 247.711 38.9502 248.347 39.4103C253.162 37.0457 258.749 35.6348 263.413 35.7925C265.336 35.776 267.231 36.2393 268.929 37.1403C274.051 33.6091 280.671 31.1026 285.541 31.1026C288.306 31.1026 290.064 31.8908 290.726 33.2623C296.037 30.8977 301.529 29.4316 306.013 29.4316C313.152 29.4316 315.611 33.1362 312.9 38.3383C316.265 38.4329 319.101 40.4823 316.682 42.3267H237.859C237.953 42.2163 238.048 42.0981 238.158 41.9798C240.318 39.9264 243.176 38.7687 246.156 38.7403Z" fill="#FAFAFA"/>
<path d="M298.7 82.8561C298.932 82.8448 299.164 82.8832 299.38 82.9689C299.596 83.0545 299.792 83.1853 299.953 83.3526C302.876 81.6422 306.202 80.5939 308.92 80.7121C310.048 80.7015 311.151 81.0462 312.072 81.6974C315.224 79.1278 319.164 77.3071 322.041 77.3071C323.664 77.3071 324.657 77.8904 324.98 78.8835C328.187 77.1573 331.465 76.0933 334.081 76.0933C337.328 76.0933 338.809 77.7248 338.478 80.2313C339.817 79.545 341.286 79.1502 342.789 79.0727C344.522 79.0727 345.365 79.9003 345.279 81.1929H345.728C348.383 81.4136 349.463 83.0768 348.265 84.9842H294.074C295.276 83.6935 296.938 82.9288 298.7 82.8561Z" fill="#FAFAFA"/>
<path d="M196 293.653C280.381 293.653 348.785 289.659 348.785 284.731C348.785 279.803 280.381 275.808 196 275.808C111.619 275.808 43.2147 279.803 43.2147 284.731C43.2147 289.659 111.619 293.653 196 293.653Z" fill="#F5F5F5"/>
<path d="M307.511 181.026L306.758 181.258L308.634 187.376L309.387 187.145L307.511 181.026Z" fill="#45BD43"/>
<path d="M300.268 157.395L299.514 157.626L305.096 175.832L305.85 175.601L300.268 157.395Z" fill="#45BD43"/>
<path d="M274.012 81.1848H245.983L187.553 271.717C187.101 273.201 187.003 274.771 187.267 276.3C187.531 277.828 188.149 279.274 189.072 280.521C189.995 281.768 191.198 282.781 192.583 283.479C193.968 284.177 195.497 284.541 197.048 284.541H322.955C324.508 284.542 326.039 284.178 327.426 283.479C328.812 282.78 330.016 281.765 330.939 280.516C331.863 279.267 332.48 277.82 332.743 276.289C333.005 274.758 332.905 273.187 332.45 271.702L274.012 81.1848Z" fill="#45BD43"/>
<path opacity="0.2" d="M274.012 81.1848H260.002L242.232 284.541H322.955C324.508 284.542 326.039 284.178 327.426 283.479C328.812 282.78 330.016 281.765 330.939 280.516C331.863 279.267 332.48 277.82 332.743 276.289C333.005 274.758 332.905 273.187 332.45 271.702L274.012 81.1848Z" fill="#263238"/>
<path opacity="0.2" d="M274.012 81.1848H267.432L287.487 284.541H322.947C324.5 284.542 326.031 284.178 327.418 283.479C328.804 282.78 330.008 281.765 330.931 280.516C331.855 279.267 332.472 277.82 332.735 276.289C332.997 274.758 332.897 273.187 332.442 271.702L274.012 81.1848Z" fill="#263238"/>
<path opacity="0.2" d="M245.983 81.1848H252.736L204.408 284.541H197.048C195.495 284.542 193.964 284.178 192.577 283.479C191.191 282.78 189.987 281.765 189.064 280.516C188.141 279.267 187.523 277.82 187.26 276.289C186.998 274.758 187.098 273.187 187.553 271.702L245.983 81.1848Z" fill="white"/>
<path d="M259.781 73.6104C263.873 73.6086 267.851 74.957 271.099 77.4465C274.348 79.936 276.684 83.4276 277.747 87.3803L286.793 121.037L284.39 131.677L275.186 122.96L266.463 142.996L258.52 129.068L248.654 142.996L244.368 122.109L235.4 133.995L233.272 120.248L241.783 87.4906C242.827 83.5122 245.159 79.992 248.416 77.4806C251.672 74.9692 255.669 73.6081 259.781 73.6104Z" fill="#45BD43"/>
<path opacity="0.7" d="M259.781 73.6104C263.873 73.6086 267.851 74.957 271.099 77.4465C274.348 79.936 276.684 83.4276 277.747 87.3803L286.793 121.037L284.39 131.677L275.186 122.96L266.463 142.996L258.52 129.068L248.654 142.996L244.368 122.109L235.4 133.995L233.272 120.248L241.783 87.4906C242.827 83.5122 245.159 79.992 248.416 77.4806C251.672 74.9692 255.669 73.6081 259.781 73.6104Z" fill="white"/>
<path d="M242.232 285.33C242.081 285.33 241.934 285.287 241.807 285.206C241.679 285.125 241.578 285.009 241.515 284.872L228.158 255.93C228.089 255.779 228.07 255.61 228.102 255.447C228.135 255.284 228.218 255.136 228.34 255.023L280.348 206.296L248.04 143.335C247.963 143.181 247.936 143.008 247.961 142.838L259.261 75.5807C259.295 75.3716 259.411 75.1849 259.583 75.0614C259.756 74.938 259.97 74.888 260.179 74.9225C260.388 74.957 260.575 75.0731 260.698 75.2454C260.821 75.4176 260.871 75.6317 260.837 75.8408L249.576 142.838L282.026 206.099C282.104 206.251 282.13 206.423 282.102 206.591C282.073 206.758 281.992 206.912 281.868 207.029L229.86 255.772L242.973 284.218C243.062 284.407 243.072 284.624 243.001 284.821C242.93 285.017 242.784 285.178 242.595 285.267C242.48 285.314 242.356 285.336 242.232 285.33Z" fill="white"/>
<path d="M289.082 208.291C290.098 203.982 287.431 199.665 283.123 198.648C278.815 197.631 274.499 200.299 273.482 204.608C272.466 208.917 275.134 213.234 279.441 214.251C283.749 215.268 288.065 212.599 289.082 208.291Z" fill="#45BD43"/>
<path d="M281.293 215.266C279.552 215.266 277.851 214.75 276.403 213.782C274.956 212.815 273.827 211.44 273.161 209.831C272.495 208.222 272.321 206.452 272.66 204.744C273 203.036 273.838 201.468 275.069 200.236C276.3 199.005 277.869 198.167 279.576 197.827C281.283 197.487 283.053 197.662 284.662 198.328C286.27 198.994 287.645 200.123 288.612 201.571C289.579 203.018 290.095 204.721 290.095 206.462C290.093 208.796 289.165 211.035 287.515 212.685C285.865 214.336 283.627 215.264 281.293 215.266ZM281.293 199.242C279.864 199.242 278.466 199.666 277.278 200.461C276.089 201.255 275.163 202.385 274.616 203.706C274.07 205.027 273.927 206.481 274.207 207.883C274.486 209.285 275.175 210.573 276.186 211.583C277.198 212.594 278.486 213.282 279.888 213.56C281.291 213.838 282.744 213.693 284.064 213.145C285.384 212.597 286.512 211.669 287.305 210.48C288.098 209.29 288.521 207.892 288.519 206.462C288.517 204.546 287.755 202.71 286.4 201.356C285.045 200.002 283.208 199.242 281.293 199.242Z" fill="white"/>
<path d="M237.639 256.158C238.347 251.775 235.369 247.647 230.987 246.939C226.605 246.231 222.479 249.21 221.771 253.592C221.063 257.975 224.041 262.103 228.423 262.811C232.804 263.519 236.931 260.54 237.639 256.158Z" fill="#45BD43"/>
<path d="M228.875 264.395C227.134 264.395 225.432 263.878 223.985 262.911C222.537 261.943 221.409 260.567 220.743 258.958C220.077 257.349 219.903 255.578 220.243 253.87C220.583 252.162 221.423 250.593 222.654 249.362C223.886 248.131 225.455 247.293 227.163 246.955C228.871 246.616 230.641 246.791 232.249 247.459C233.857 248.126 235.232 249.256 236.198 250.705C237.164 252.154 237.679 253.857 237.677 255.598C237.675 257.932 236.747 260.17 235.097 261.819C233.446 263.468 231.208 264.395 228.875 264.395ZM228.875 248.371C227.446 248.371 226.049 248.795 224.861 249.589C223.673 250.383 222.746 251.512 222.2 252.833C221.653 254.153 221.51 255.607 221.788 257.009C222.067 258.411 222.755 259.699 223.766 260.709C224.776 261.72 226.064 262.409 227.466 262.687C228.867 262.966 230.32 262.823 231.641 262.276C232.961 261.729 234.09 260.803 234.884 259.614C235.678 258.425 236.101 257.028 236.101 255.598C236.099 253.682 235.337 251.845 233.983 250.49C232.628 249.135 230.791 248.373 228.875 248.371Z" fill="white"/>
<path d="M248.725 150.988C253.151 150.988 256.739 147.399 256.739 142.972C256.739 138.545 253.151 134.956 248.725 134.956C244.299 134.956 240.711 138.545 240.711 142.972C240.711 147.399 244.299 150.988 248.725 150.988Z" fill="#45BD43"/>
<path d="M248.725 151.776C246.984 151.776 245.283 151.26 243.835 150.293C242.388 149.325 241.26 147.95 240.593 146.341C239.927 144.733 239.753 142.962 240.092 141.255C240.432 139.547 241.27 137.978 242.501 136.747C243.732 135.515 245.301 134.677 247.008 134.337C248.716 133.997 250.485 134.172 252.094 134.838C253.702 135.505 255.077 136.633 256.044 138.081C257.011 139.529 257.527 141.231 257.527 142.972C257.525 145.307 256.597 147.545 254.947 149.195C253.297 150.846 251.059 151.774 248.725 151.776ZM248.725 135.744C247.296 135.744 245.899 136.168 244.711 136.962C243.522 137.757 242.596 138.886 242.049 140.206C241.502 141.527 241.359 142.98 241.638 144.382C241.917 145.784 242.605 147.072 243.616 148.083C244.626 149.094 245.914 149.782 247.316 150.061C248.717 150.34 250.17 150.197 251.491 149.65C252.811 149.103 253.939 148.176 254.733 146.988C255.527 145.799 255.951 144.402 255.951 142.972C255.949 141.056 255.187 139.219 253.833 137.864C252.478 136.509 250.641 135.746 248.725 135.744Z" fill="white"/>
<path d="M268.258 76.2108C268.966 71.8279 265.988 67.7007 261.606 66.9923C257.224 66.284 253.098 69.2628 252.39 73.6457C251.682 78.0285 254.66 82.1558 259.042 82.8641C263.423 83.5724 267.55 80.5937 268.258 76.2108Z" fill="#45BD43"/>
<path d="M260.025 84.5111C258.284 84.5111 256.582 83.9945 255.134 83.0267C253.687 82.059 252.558 80.6835 251.892 79.0742C251.226 77.465 251.053 75.6944 251.393 73.9863C251.733 72.2782 252.572 70.7095 253.804 69.4785C255.036 68.2475 256.605 67.4096 258.313 67.0708C260.021 66.732 261.791 66.9075 263.399 67.575C265.007 68.2426 266.381 69.3723 267.347 70.8212C268.314 72.2701 268.829 73.9731 268.827 75.7147C268.823 78.0477 267.894 80.2839 266.244 81.9329C264.594 83.5818 262.358 84.509 260.025 84.5111ZM260.025 68.4869C258.596 68.4869 257.199 68.9108 256.011 69.705C254.822 70.4992 253.896 71.628 253.349 72.9487C252.802 74.2695 252.659 75.7227 252.938 77.1248C253.217 78.5269 253.905 79.8147 254.916 80.8256C255.926 81.8364 257.214 82.5248 258.615 82.8037C260.017 83.0825 261.47 82.9394 262.79 82.3924C264.111 81.8453 265.239 80.9189 266.033 79.7303C266.827 78.5417 267.251 77.1442 267.251 75.7147C267.249 73.7984 266.487 71.9612 265.132 70.6062C263.778 69.2511 261.941 68.489 260.025 68.4869Z" fill="white"/>
<path d="M260.001 75.7541C259.792 75.7541 259.592 75.6711 259.444 75.5233C259.296 75.3755 259.213 75.175 259.213 74.9659V39.5441C259.213 39.335 259.296 39.1345 259.444 38.9867C259.592 38.8389 259.792 38.7559 260.001 38.7559C260.21 38.7559 260.411 38.8389 260.559 38.9867C260.706 39.1345 260.789 39.335 260.789 39.5441V74.9659C260.789 75.175 260.706 75.3755 260.559 75.5233C260.411 75.6711 260.21 75.7541 260.001 75.7541Z" fill="#45BD43"/>
<path d="M228.221 54.2756C235.313 56.6875 242.342 51.911 249.411 54.2756V42.2318C242.319 39.8672 235.282 44.6437 228.221 42.2318V54.2756Z" fill="#45BD43"/>
<path opacity="0.2" d="M235.959 42.6812V54.717C240.443 54.1259 244.927 52.7465 249.411 54.2756V42.2319C244.927 40.7028 240.443 42.0821 235.959 42.6812Z" fill="black"/>
<path d="M238.812 51.5799C245.904 53.9918 252.941 49.2153 260.002 51.5799V39.5441C252.91 37.1322 245.881 41.9087 238.812 39.5441V51.5799Z" fill="#45BD43"/>
<path d="M124.071 126.609L126.522 130.55L119.485 131.449C119.631 130.149 119.855 128.859 120.155 127.587C120.261 127.124 120.543 126.721 120.943 126.465C121.342 126.208 121.826 126.119 122.29 126.215L124.071 126.609Z" fill="#7F3E3B"/>
<path d="M125.939 136.872L120.462 135.193L119.485 131.457L126.522 130.558L125.939 136.872Z" fill="#7F3E3B"/>
<path d="M144.599 82.4777C145.434 82.2176 146.443 81.8708 147.372 81.5476C148.302 81.2244 149.264 80.8697 150.201 80.5072C152.069 79.7663 153.921 79.0017 155.717 78.1426C159.163 76.6355 162.353 74.6012 165.173 72.1128C165.752 71.5632 166.28 70.9616 166.749 70.3157L166.907 70.0871C166.946 70.0871 167.112 69.6851 166.789 70.4182C166.637 70.8394 166.584 71.2894 166.631 71.7345C166.631 71.8133 166.631 71.8921 166.631 71.9709L166.671 72.1365C166.685 72.1876 166.704 72.2376 166.726 72.2862V72.3808C166.828 72.6094 166.86 72.5936 166.844 72.5542C166.786 72.4537 166.723 72.3563 166.655 72.2626C166.123 71.6053 165.532 70.9984 164.89 70.4497C164.173 69.8191 163.416 69.1728 162.628 68.5422C159.476 66.02 156.001 63.545 152.636 61.0622L154.685 57.2236C158.768 58.785 162.721 60.6696 166.505 62.8593C167.466 63.4268 168.436 64.0101 169.397 64.6879C170.456 65.4085 171.448 66.2237 172.36 67.1235C173.091 67.8348 173.671 68.6876 174.062 69.63L174.164 69.9058L174.267 70.2526C174.267 70.3709 174.322 70.4733 174.354 70.6073C174.385 70.7413 174.393 70.899 174.409 71.0408C174.48 71.7498 174.394 72.4656 174.157 73.1375C174.029 73.5 173.86 73.8465 173.652 74.17L173.392 74.6114C172.709 75.7369 171.917 76.7929 171.028 77.7642C167.545 81.4845 163.558 83.9043 159.539 85.9852C157.533 87.0027 155.476 87.9182 153.377 88.7281C152.326 89.138 151.276 89.5242 150.225 89.8868C149.153 90.2651 148.145 90.5725 146.947 90.9115L144.599 82.4777Z" fill="#7F3E3B"/>
<path d="M147.798 55.7576L143.606 58.5006L149.61 59.8799L151.147 55.6394L147.798 55.7576Z" fill="#7F3E3B"/>
<path d="M156.293 57.87L151.147 55.6394L149.571 59.8721C149.571 59.8721 153.661 64.1599 156.253 61.2987L156.293 57.87Z" fill="#7F3E3B"/>
<path d="M125.655 90.005C123.717 93.5204 121.755 97.154 119.887 100.74C118.02 104.327 116.184 107.968 114.655 111.578C114.261 112.485 113.867 113.375 113.575 114.266L113.457 114.565C113.461 114.537 113.461 114.508 113.457 114.479C113.457 114.424 113.457 114.408 113.457 114.416C113.415 114.546 113.415 114.687 113.457 114.818C113.637 115.484 113.921 116.117 114.3 116.694C114.759 117.449 115.264 118.176 115.813 118.869C118.337 121.907 121.079 124.757 124.016 127.397L121.589 131C117.666 129.013 114.032 126.502 110.786 123.535C109.911 122.721 109.097 121.844 108.351 120.911C107.474 119.827 106.76 118.622 106.231 117.332C105.89 116.493 105.688 115.604 105.632 114.699C105.599 114.173 105.626 113.644 105.711 113.123C105.753 112.838 105.814 112.557 105.892 112.28L106.026 111.838C106.341 110.758 106.68 109.694 107.043 108.685C108.507 104.658 110.185 100.711 112.07 96.8624C113.946 93.0475 115.892 89.3587 118.067 85.6699L125.655 90.005Z" fill="#7F3E3B"/>
<path d="M131.179 64.759C130.667 70.0873 131.423 75.2421 130.233 79.8689C130.233 79.8689 131.557 84.1646 139.421 84.1646C148.089 84.1646 143.361 79.8689 143.361 79.8689C138.594 78.7418 138.586 75.2421 139.28 71.9474L131.179 64.759Z" fill="#7F3E3B"/>
<path d="M129.154 81.3427C128.484 79.987 127.736 78.4264 129.154 77.9377C130.73 77.4017 139.177 76.8578 142.148 77.8667C142.938 78.0802 143.614 78.5927 144.033 79.2958C144.453 79.999 144.582 80.8376 144.394 81.6343L129.154 81.3427Z" fill="#263238"/>
<path d="M112.283 275.139C111.737 275.011 111.208 274.821 110.707 274.571C110.681 274.558 110.659 274.538 110.645 274.512C110.631 274.487 110.625 274.458 110.628 274.429C110.629 274.4 110.638 274.372 110.655 274.348C110.672 274.324 110.695 274.306 110.722 274.295C110.983 274.208 113.236 273.404 113.874 273.901C113.942 273.956 113.993 274.028 114.023 274.11C114.052 274.192 114.058 274.281 114.04 274.366C114.029 274.514 113.981 274.657 113.899 274.781C113.818 274.905 113.706 275.006 113.575 275.075C113.165 275.249 112.707 275.272 112.283 275.139ZM111.18 274.461C112.188 274.894 113 275.028 113.402 274.815C113.49 274.766 113.564 274.696 113.618 274.61C113.672 274.525 113.703 274.427 113.709 274.327C113.709 274.208 113.709 274.161 113.654 274.137C113.339 273.877 112.094 274.161 111.18 274.461Z" fill="#45BD43"/>
<path d="M110.746 274.587L110.667 274.547C110.648 274.528 110.634 274.504 110.627 274.478C110.62 274.451 110.62 274.424 110.628 274.397C110.628 274.319 111.18 272.569 112.023 272.135C112.123 272.077 112.236 272.042 112.351 272.033C112.467 272.023 112.584 272.039 112.692 272.08C112.802 272.104 112.899 272.165 112.968 272.253C113.037 272.34 113.073 272.449 113.071 272.561C113.071 273.278 111.534 274.374 110.817 274.579L110.746 274.587ZM112.527 272.34C112.403 272.315 112.273 272.337 112.165 272.403C111.612 272.868 111.214 273.489 111.022 274.185C111.755 273.838 112.763 272.979 112.771 272.553C112.771 272.514 112.771 272.427 112.59 272.364L112.527 272.34Z" fill="#45BD43"/>
<path d="M152.889 279.269C152.33 279.257 151.775 279.18 151.234 279.04C151.206 279.033 151.181 279.018 151.161 278.997C151.142 278.976 151.129 278.95 151.123 278.922C151.118 278.892 151.122 278.862 151.135 278.835C151.147 278.809 151.168 278.786 151.194 278.772C151.423 278.622 153.464 277.369 154.165 277.732C154.242 277.773 154.306 277.834 154.35 277.909C154.395 277.984 154.418 278.07 154.417 278.157C154.436 278.304 154.418 278.453 154.364 278.591C154.31 278.728 154.223 278.85 154.11 278.945C153.752 279.189 153.321 279.303 152.889 279.269ZM151.667 278.827C152.747 279.048 153.574 279.008 153.913 278.717C153.99 278.651 154.05 278.567 154.086 278.471C154.122 278.376 154.133 278.274 154.118 278.173C154.118 278.055 154.063 278.015 154.023 278C153.661 277.81 152.502 278.354 151.667 278.827Z" fill="#45BD43"/>
<path d="M151.273 279.024C151.245 279.031 151.215 279.031 151.186 279.024C151.165 279.008 151.148 278.986 151.137 278.961C151.126 278.936 151.122 278.909 151.123 278.882C151.123 278.804 151.281 276.983 152.014 276.384C152.101 276.309 152.203 276.253 152.313 276.219C152.422 276.186 152.538 276.174 152.652 276.187C152.764 276.188 152.872 276.228 152.958 276.3C153.044 276.372 153.103 276.471 153.125 276.581C153.259 277.29 151.998 278.67 151.344 279.024H151.273ZM152.55 276.455C152.422 276.458 152.3 276.505 152.203 276.589C151.762 277.162 151.501 277.853 151.454 278.575C152.108 278.078 152.912 276.999 152.833 276.612C152.833 276.573 152.833 276.486 152.613 276.463H152.55V276.455Z" fill="#45BD43"/>
<path d="M144.465 278.819H150.249L150.312 265.412H144.52L144.465 278.819Z" fill="#7F3E3B"/>
<path d="M103.906 273.491L109.438 274.563L114.04 261.416L108.508 260.344L103.906 273.491Z" fill="#7F3E3B"/>
<path d="M110.187 273.791L103.804 272.435C103.694 272.412 103.58 272.427 103.481 272.479C103.382 272.531 103.304 272.615 103.26 272.719L101.259 277.558C101.213 277.679 101.193 277.808 101.202 277.937C101.211 278.066 101.248 278.192 101.31 278.305C101.373 278.418 101.459 278.516 101.563 278.593C101.667 278.67 101.786 278.723 101.913 278.748C104.143 279.182 105.246 279.284 108.043 279.883C109.761 280.246 113.276 281.184 115.655 281.688C118.035 282.193 118.752 279.891 117.815 279.466C113.615 277.574 112.204 275.903 111.03 274.335C110.823 274.058 110.524 273.865 110.187 273.791Z" fill="#263238"/>
<path d="M150.186 278.149H143.882C143.768 278.149 143.658 278.188 143.571 278.26C143.483 278.332 143.423 278.432 143.401 278.544L142.455 283.69C142.433 283.817 142.439 283.947 142.473 284.071C142.507 284.196 142.568 284.311 142.652 284.408C142.735 284.506 142.839 284.585 142.957 284.638C143.074 284.691 143.201 284.717 143.33 284.715C145.607 284.715 148.901 284.55 151.769 284.55C155.118 284.55 155.284 284.731 159.216 284.731C161.58 284.731 162.155 282.327 161.155 282.106C156.584 281.121 155.639 281.011 151.612 278.599C151.187 278.321 150.693 278.165 150.186 278.149Z" fill="#263238"/>
<path d="M120.699 81.0273C115.372 82.4855 109.076 97.217 109.076 97.217L121.305 104.13C121.305 104.13 124.166 98.9117 126.987 92.4484C129.942 85.6777 129.587 78.6076 120.699 81.0273Z" fill="#263238"/>
<path d="M155.3 107.046C155.3 113.509 154.866 121.549 153.905 131.528H122.937C122.558 127.035 124.41 106.029 120.005 84.8108C119.903 84.3343 119.9 83.8419 119.995 83.364C120.091 82.8861 120.284 82.433 120.561 82.0326C120.839 81.6321 121.196 81.293 121.61 81.036C122.024 80.7791 122.486 80.6098 122.968 80.5387C124.844 80.2628 127.192 79.9791 129.501 79.8687C133.884 79.6163 138.277 79.6163 142.66 79.8687C144.475 80.0371 146.279 80.3002 148.066 80.6569C149.301 80.8943 150.446 81.4703 151.373 82.3207C152.299 83.1711 152.971 84.2625 153.314 85.4729C154.329 89.5068 154.921 93.6357 155.079 97.7925C155.237 100.457 155.323 103.515 155.3 107.046Z" fill="#263238"/>
<path d="M141.376 92.22C146.198 94.892 157.286 91.8417 157.286 91.8417L156.71 76.8264C152.691 77.3325 148.761 78.3936 145.032 79.9792C137.483 83.0375 135.939 89.2091 141.376 92.22Z" fill="#263238"/>
<path d="M147.711 78.647C147.711 78.647 145.473 79.4352 144.646 79.6795C141.675 82.9427 139.823 90.0286 139.823 90.0286L143.606 95.0258C142.172 87.6246 147.711 78.647 147.711 78.647Z" fill="#45BD43"/>
<path opacity="0.2" d="M147.711 78.647C147.711 78.647 145.473 79.4352 144.646 79.6795C141.675 82.9427 139.823 90.0286 139.823 90.0286L143.606 95.0258C142.172 87.6246 147.711 78.647 147.711 78.647Z" fill="black"/>
<path d="M155.308 115.819C152.353 118.097 146.482 112.8 146.482 112.8L146.655 115.488C152.037 119.988 155.221 117.758 155.221 117.758C155.341 117.119 155.371 116.466 155.308 115.819Z" fill="#45BD43"/>
<path opacity="0.2" d="M155.308 115.819C152.353 118.097 146.482 112.8 146.482 112.8L146.655 115.488C152.037 119.988 155.221 117.758 155.221 117.758C155.341 117.119 155.371 116.466 155.308 115.819Z" fill="black"/>
<path d="M127.775 79.6797C126.89 79.7452 126.012 79.8877 125.151 80.1053C123.822 83.4955 123.524 87.2025 124.292 90.7618L127.696 89.2327C127.696 89.2327 126.593 84.0779 127.775 79.6797Z" fill="#45BD43"/>
<path opacity="0.2" d="M127.775 79.6797C126.89 79.7452 126.012 79.8877 125.151 80.1053C123.822 83.4955 123.524 87.2025 124.292 90.7618L127.696 89.2327C127.696 89.2327 126.593 84.0779 127.775 79.6797Z" fill="black"/>
<path d="M123.78 90.0525C125.632 87.1598 139.847 87.483 142.92 89.8555C145.993 92.2279 149.705 118.097 145.158 120.99C140.611 123.882 119.635 125.262 119.485 119.413C119.335 113.565 124.111 103.397 123.543 100.039C122.976 96.6813 121.266 93.9935 123.78 90.0525Z" fill="#45BD43"/>
<path opacity="0.4" d="M123.977 99.0851C123.977 99.0851 129.162 101.103 140.131 98.6516C137.995 99.7709 126.727 102.317 123.977 99.0851Z" fill="#263238"/>
<path opacity="0.4" d="M130.241 98.3285C130.304 98.8093 130.036 99.2034 129.635 99.2034C129.415 99.1756 129.212 99.0736 129.059 98.9145C128.906 98.7554 128.811 98.5486 128.791 98.3285C128.728 97.8477 128.996 97.4536 129.39 97.4536C129.611 97.4798 129.816 97.581 129.971 97.7403C130.126 97.8995 130.221 98.1072 130.241 98.3285Z" fill="#263238"/>
<path opacity="0.4" d="M142.321 121.383H142.266C142.241 121.377 142.217 121.366 142.196 121.35C142.175 121.334 142.158 121.314 142.146 121.291C142.133 121.268 142.125 121.242 142.123 121.216C142.121 121.19 142.124 121.164 142.132 121.139C143.803 115.622 143.598 108.102 141.518 98.6831C140.651 94.7421 141.636 90.9902 142.156 90.2099C142.17 90.1882 142.189 90.1695 142.211 90.155C142.232 90.1404 142.257 90.1303 142.282 90.1252C142.308 90.1201 142.334 90.12 142.36 90.1251C142.386 90.1302 142.41 90.1403 142.432 90.1548C142.453 90.1692 142.472 90.1879 142.487 90.2096C142.501 90.2313 142.511 90.2556 142.516 90.2813C142.521 90.3069 142.522 90.3332 142.516 90.3589C142.511 90.3845 142.501 90.4089 142.487 90.4306C141.951 91.2188 141.1 94.9864 141.896 98.5964C144 108.055 144.205 115.708 142.51 121.249C142.496 121.288 142.47 121.322 142.437 121.346C142.403 121.37 142.363 121.383 142.321 121.383Z" fill="#263238"/>
<g opacity="0.2">
<path d="M150.312 265.412L150.28 272.324H144.488L144.52 265.412H150.312Z" fill="black"/>
<path d="M108.508 260.344L114.04 261.416L111.66 268.194L106.128 267.122L108.508 260.344Z" fill="black"/>
</g>
<path d="M142.92 131.528C142.92 131.528 138.058 175.77 135.088 192.322C131.841 210.45 115.017 267.461 115.017 267.461L104.647 265.254C104.647 265.254 116.231 211.948 117.791 193.969C119.477 174.461 122.937 131.496 122.937 131.496L142.92 131.528Z" fill="#45BD43"/>
<path d="M117.342 263.993L115.577 267.785L103.906 265.302L104.742 261.763L117.342 263.993Z" fill="#263238"/>
<path opacity="0.2" d="M139.374 147.292C131.841 148.781 133.732 177.117 135.214 191.691C137.002 181.389 139.445 161.566 141.092 147.497C140.559 147.236 139.954 147.164 139.374 147.292Z" fill="black"/>
<path d="M153.905 131.528C153.905 131.528 156.372 174.824 156.427 192.479C156.474 210.845 152.384 270.984 152.384 270.984H142.582C142.582 270.984 139.942 211.917 138.807 193.882C137.57 174.177 133.551 131.528 133.551 131.528H153.905Z" fill="#45BD43"/>
<path d="M154.118 267.075C154.165 267.075 153.724 271.15 153.724 271.15H141.793L141.336 267.517L154.118 267.075Z" fill="#263238"/>
<path d="M144.323 59.2415C144.386 59.7065 144.685 60.0297 144.993 60.0297C145.3 60.0297 145.489 59.6041 145.426 59.139C145.363 58.674 145.056 58.3508 144.756 58.3508C144.457 58.3508 144.26 58.7765 144.323 59.2415Z" fill="#263238"/>
<path d="M144.646 60.0613C145.403 61.4226 146.338 62.6764 147.428 63.7895C147.136 64.0496 146.791 64.2424 146.416 64.3541C146.042 64.4658 145.647 64.4937 145.261 64.4358L144.646 60.0613Z" fill="#630F0F"/>
<path d="M144.512 56.2227C144.553 56.206 144.59 56.1804 144.62 56.1477C144.65 56.115 144.672 56.076 144.685 56.0336C144.695 55.9984 144.697 55.9617 144.693 55.9255C144.688 55.8894 144.676 55.8545 144.658 55.823C144.639 55.7915 144.615 55.7639 144.586 55.7419C144.557 55.7199 144.524 55.7038 144.488 55.6947C144.069 55.6132 143.636 55.6322 143.225 55.75C142.814 55.8678 142.437 56.0811 142.124 56.3725C142.092 56.395 142.065 56.4242 142.045 56.4581C142.025 56.4919 142.012 56.5297 142.008 56.5689C142.004 56.608 142.008 56.6477 142.02 56.6851C142.032 56.7225 142.053 56.7568 142.079 56.7858C142.106 56.8148 142.139 56.8377 142.175 56.853C142.211 56.8683 142.25 56.8757 142.29 56.8746C142.329 56.8735 142.368 56.864 142.403 56.8468C142.438 56.8295 142.47 56.8049 142.495 56.7745C142.742 56.5394 143.042 56.3673 143.37 56.2727C143.698 56.178 144.044 56.1636 144.378 56.2306C144.423 56.2382 144.469 56.2355 144.512 56.2227Z" fill="#263238"/>
<path d="M128.689 59.8483C129.847 65.4997 130.265 68.8496 133.527 71.4743C134.584 72.3391 135.857 72.8981 137.208 73.0907C138.56 73.2833 139.938 73.1023 141.194 72.5672C142.45 72.032 143.535 71.1632 144.333 70.055C145.13 68.9467 145.609 67.6412 145.718 66.2801C146.222 61.0464 144.244 52.6914 138.342 50.9968C137.076 50.5967 135.727 50.5372 134.431 50.8243C133.135 51.1115 131.937 51.7352 130.958 52.6325C129.98 53.5299 129.255 54.6693 128.856 55.936C128.458 57.2028 128.4 58.5522 128.689 59.8483Z" fill="#7F3E3B"/>
<path d="M140.84 60.6918C139.879 63.6712 134.536 69.362 132.637 69.8034C130.738 70.2448 125.545 65.7521 125.08 63.4032C123.189 63.1904 121.14 59.4149 124.008 57.9331C121.881 56.8533 122.432 51.2176 126.758 51.6275C124.126 49.0894 127.286 44.7937 130.88 45.9366C131.739 43.7454 136.593 42.3424 139.39 45.7159C141.573 44.4863 145.395 46.9613 145.111 50.6659C144.963 51.8123 144.487 52.8916 143.741 53.774C142.994 54.6563 142.009 55.3041 140.903 55.6394C141.841 56.7508 140.84 60.6918 140.84 60.6918Z" fill="#263238"/>
<path d="M137.979 59.9035C138.302 61.3186 139.066 62.5942 140.162 63.545C141.62 64.7904 142.786 63.7736 142.755 62.0632C142.755 60.4868 141.927 58.0276 140.288 57.4364C138.649 56.8453 137.617 58.2089 137.979 59.9035Z" fill="#7F3E3B"/>
</g>
<defs>
<clipPath id="clip0_100_11911">
<rect width="394" height="294" fill="white" transform="translate(-1)"/>
</clipPath>
</defs>
</svg>
