<svg width="393" height="304" viewBox="0 0 393 304" fill="none" xmlns="http://www.w3.org/2000/svg">
<g clip-path="url(#clip0_100_12009)">
<path d="M393 266.835H-14V267.039H393V266.835Z" fill="#FAFAFA"/>
<path d="M330.501 275.703H310.289V275.906H330.501V275.703Z" fill="#E0E0E0"/>
<path d="M343.305 275.597H336.476V275.8H343.305V275.597Z" fill="#E0E0E0"/>
<path d="M256.272 276.966H213.953V277.17H256.272V276.966Z" fill="#E0E0E0"/>
<path d="M203.965 279.175H197.656V279.379H203.965V279.175Z" fill="#E0E0E0"/>
<path d="M77.1272 272.728H66.2522V272.932H77.1272V272.728Z" fill="#E0E0E0"/>
<path d="M136.802 272.728H81.645V272.932H136.802V272.728Z" fill="#E0E0E0"/>
<path d="M89.785 277.651H51.4131V277.854H89.785V277.651Z" fill="#E0E0E0"/>
<path d="M178.918 230.486H21.7427C20.5114 230.484 19.3313 229.992 18.4614 229.12C17.5915 228.247 17.1029 227.065 17.1029 225.832V4.61298C17.1136 3.38722 17.6069 2.21519 18.4757 1.35147C19.3444 0.487752 20.5184 0.00209979 21.7427 0H178.918C180.151 0 181.333 0.490302 182.205 1.36305C183.076 2.23579 183.566 3.41948 183.566 4.65373V225.832C183.566 227.066 183.076 228.25 182.205 229.123C181.333 229.996 180.151 230.486 178.918 230.486ZM21.7427 0.163003C20.5654 0.165162 19.437 0.634949 18.6053 1.46925C17.7735 2.30354 17.3064 3.43418 17.3064 4.61298V225.832C17.3064 227.011 17.7735 228.142 18.6053 228.976C19.437 229.81 20.5654 230.28 21.7427 230.282H178.918C180.096 230.28 181.225 229.81 182.058 228.976C182.891 228.142 183.36 227.012 183.362 225.832V4.61298C183.36 3.43343 182.891 2.30281 182.058 1.46875C181.225 0.634684 180.096 0.165158 178.918 0.163003H21.7427Z" fill="#E0E0E0"/>
<path d="M354.994 230.486H197.811C196.579 230.484 195.398 229.993 194.527 229.12C193.656 228.248 193.165 227.066 193.163 225.832V4.61298C193.176 3.38647 193.671 2.21445 194.541 1.35096C195.411 0.487467 196.586 0.00207689 197.811 0H354.994C356.217 0.00424173 357.389 0.490841 358.256 1.35433C359.123 2.21782 359.615 3.38862 359.626 4.61298V225.832C359.626 227.064 359.139 228.245 358.27 229.117C357.402 229.989 356.224 230.482 354.994 230.486ZM197.811 0.163003C196.633 0.165158 195.504 0.634684 194.671 1.46875C193.838 2.30281 193.369 3.43343 193.366 4.61298V225.832C193.369 227.012 193.838 228.142 194.671 228.976C195.504 229.81 196.633 230.28 197.811 230.282H354.994C356.172 230.28 357.302 229.81 358.135 228.976C358.968 228.142 359.437 227.012 359.439 225.832V4.61298C359.437 3.43343 358.968 2.30281 358.135 1.46875C357.302 0.634684 356.172 0.165158 354.994 0.163003H197.811Z" fill="#E0E0E0"/>
<path d="M264.185 266.835H292.943V214.577H264.185V266.835Z" fill="#E0E0E0"/>
<path d="M327.253 214.577H292.943V266.835H327.253V214.577Z" fill="#EBEBEB"/>
<g style="mix-blend-mode:multiply" opacity="0.7">
<path d="M264.185 221.366H327.554V219.002H264.185V221.366Z" fill="#E0E0E0"/>
</g>
<path d="M262.597 219.988H292.943V209.1H262.597V219.988Z" fill="#E0E0E0"/>
<path d="M328.841 209.108H292.943V219.996H328.841V209.108Z" fill="#EBEBEB"/>
<path d="M143.965 15.4771H47.1558V131.127H143.965V15.4771Z" fill="#E0E0E0"/>
<path d="M148.401 15.4771H49.2316V131.127H148.401V15.4771Z" fill="#EBEBEB"/>
<path d="M143.965 131.127H47.1558V139.367H143.965V131.127Z" fill="#E0E0E0"/>
<path d="M155.776 131.127H56.6063V139.367H155.776V131.127Z" fill="#EBEBEB"/>
<path d="M142.198 124.917V21.6875L55.4342 21.6875V124.917H142.198Z" fill="#F5F5F5"/>
<path d="M66.0813 124.917L102.475 21.6875H119.651L83.2648 124.917H66.0813Z" fill="#FAFAFA"/>
<path d="M58.2994 89.896C58.1821 89.8939 58.0703 89.8457 57.9881 89.7619C57.9059 89.678 57.8598 89.5652 57.8599 89.4478V25.7218C57.8599 25.6051 57.9062 25.4932 57.9886 25.4106C58.071 25.3281 58.1828 25.2817 58.2994 25.2817C58.4168 25.2817 58.5294 25.3278 58.6132 25.4101C58.6969 25.4924 58.745 25.6044 58.7471 25.7218V89.4478C58.7471 89.5666 58.7 89.6807 58.616 89.7647C58.532 89.8488 58.4182 89.896 58.2994 89.896Z" fill="#EBEBEB"/>
<path d="M86.9523 124.917L123.346 21.6875H130.045L93.6515 124.917H86.9523Z" fill="#FAFAFA"/>
<path d="M142.19 124.917V21.6875H141.401V124.917H142.19Z" fill="#E0E0E0"/>
<path d="M149.858 29.6256H53.0573L52.4875 24.0999H149.288L149.858 29.6256Z" fill="#E0E0E0"/>
<path d="M149.858 33.6763H53.0573L52.4875 28.1423H149.288L149.858 33.6763Z" fill="#E0E0E0"/>
<path d="M149.858 38.5339H53.0573L52.4875 33H149.288L149.858 38.5339Z" fill="#E0E0E0"/>
<path d="M149.858 43.9374H53.0573L52.4875 38.4116H149.288L149.858 43.9374Z" fill="#E0E0E0"/>
<path d="M149.858 50.4168H53.0573L52.4875 44.8828H149.288L149.858 50.4168Z" fill="#E0E0E0"/>
<path d="M149.858 57.6947H53.0573L52.4875 52.1689H149.288L149.858 57.6947Z" fill="#E0E0E0"/>
<path d="M320.033 15.4771H223.224V131.127H320.033V15.4771Z" fill="#E0E0E0"/>
<path d="M324.461 15.4771H225.292V131.127H324.461V15.4771Z" fill="#EBEBEB"/>
<path d="M320.033 131.127H223.224V139.367H320.033V131.127Z" fill="#E0E0E0"/>
<path d="M331.844 131.127H232.675V139.367H331.844V131.127Z" fill="#EBEBEB"/>
<path d="M318.267 124.917V21.6875L231.502 21.6875V124.917H318.267Z" fill="#F5F5F5"/>
<path d="M242.15 124.917L278.543 21.6875H295.719L259.325 124.917H242.15Z" fill="#FAFAFA"/>
<path d="M234.368 89.896C234.25 89.8939 234.139 89.8457 234.056 89.7619C233.974 89.678 233.928 89.5652 233.928 89.4478V25.7218C233.928 25.6051 233.974 25.4932 234.057 25.4106C234.139 25.3281 234.251 25.2817 234.368 25.2817C234.484 25.2817 234.596 25.3281 234.678 25.4106C234.761 25.4932 234.807 25.6051 234.807 25.7218V89.4478C234.807 89.5652 234.761 89.678 234.679 89.7619C234.597 89.8457 234.485 89.8939 234.368 89.896Z" fill="#EBEBEB"/>
<path d="M263.021 124.917L299.414 21.6875H306.106L269.72 124.917H263.021Z" fill="#FAFAFA"/>
<path d="M318.259 124.917V21.6875H317.469V124.917H318.259Z" fill="#E0E0E0"/>
<path d="M325.926 29.6256H229.126L228.548 24.0999H325.357L325.926 29.6256Z" fill="#E0E0E0"/>
<path d="M325.926 33.6763H229.126L228.548 28.1423H325.357L325.926 33.6763Z" fill="#E0E0E0"/>
<path d="M325.926 38.5339H229.126L228.548 33H325.357L325.926 38.5339Z" fill="#E0E0E0"/>
<path d="M325.926 43.9374H229.126L228.548 38.4116H325.357L325.926 43.9374Z" fill="#E0E0E0"/>
<path d="M325.926 50.4168H229.126L228.548 44.8828H325.357L325.926 50.4168Z" fill="#E0E0E0"/>
<path d="M325.926 57.6947H229.126L228.548 52.1689H325.357L325.926 57.6947Z" fill="#E0E0E0"/>
<path d="M244.885 193.533H225.552V266.836H244.885V193.533Z" fill="#E0E0E0"/>
<path d="M241.205 266.835H244.876V257.854H237.355L241.205 266.835Z" fill="#F5F5F5"/>
<path d="M57.2738 193.533H37.9413V266.836H57.2738V193.533Z" fill="#E0E0E0"/>
<path d="M244.885 193.533H54.0667V261.897H244.885V193.533Z" fill="#F5F5F5"/>
<path d="M150.705 196.956V245.775H242.036V196.956H150.705Z" fill="#E0E0E0"/>
<path d="M56.9156 196.956V245.775H148.246V196.956H56.9156Z" fill="#E0E0E0"/>
<path d="M242.027 256.094V250.657H150.697V256.094H242.027Z" fill="#E0E0E0"/>
<path d="M148.238 256.102V250.666H56.9076V256.102H148.238Z" fill="#E0E0E0"/>
<path d="M134.742 199.874H70.4362C69.0084 199.875 67.5951 199.587 66.2816 199.026C64.968 198.466 63.7812 197.645 62.7927 196.614H142.418C141.426 197.649 140.234 198.472 138.914 199.033C137.595 199.593 136.175 199.879 134.742 199.874Z" fill="#F5F5F5"/>
<path d="M228.873 199.874H164.567C163.139 199.875 161.726 199.587 160.413 199.026C159.099 198.466 157.912 197.645 156.924 196.614H236.549C235.559 197.652 234.367 198.476 233.047 199.037C231.727 199.597 230.307 199.882 228.873 199.874Z" fill="#F5F5F5"/>
<path d="M57.7379 266.835H54.0586V257.854H61.58L57.7379 266.835Z" fill="#F5F5F5"/>
<g style="mix-blend-mode:multiply" opacity="0.4">
<path d="M194.026 148.528H172.504V193.533H194.026V148.528Z" fill="#E0E0E0"/>
</g>
<path d="M212.105 193.533H175.678L172.251 144.934H208.67L212.105 193.533Z" fill="#E0E0E0"/>
<path d="M216.248 193.533H176.712L173.285 144.934H212.813L216.248 193.533Z" fill="#F5F5F5"/>
<path d="M178.544 191.675L175.377 146.792H210.99L214.164 191.675H178.544Z" fill="#FAFAFA"/>
<path d="M187.164 181.626L185.414 156.841H202.369L204.119 181.626H187.164Z" fill="#F5F5F5"/>
<path d="M115.711 185.554C120.935 185.554 125.17 181.314 125.17 176.084C125.17 170.853 120.935 166.613 115.711 166.613C110.487 166.613 106.252 170.853 106.252 176.084C106.252 181.314 110.487 185.554 115.711 185.554Z" fill="#EBEBEB"/>
<path d="M131.909 190.069C137.133 190.069 141.368 185.829 141.368 180.599C141.368 175.368 137.133 171.128 131.909 171.128C126.686 171.128 122.451 175.368 122.451 180.599C122.451 185.829 126.686 190.069 131.909 190.069Z" fill="#EBEBEB"/>
<path d="M148.005 182.485C151.226 181.156 152.762 177.464 151.435 174.239C150.107 171.014 146.42 169.476 143.199 170.805C139.977 172.134 138.442 175.825 139.769 179.051C141.096 182.276 144.783 183.814 148.005 182.485Z" fill="#EBEBEB"/>
<path d="M131.414 171.371C131.971 167.927 129.634 164.683 126.195 164.126C122.756 163.568 119.516 165.907 118.959 169.351C118.402 172.794 120.738 176.038 124.178 176.596C127.617 177.154 130.857 174.814 131.414 171.371Z" fill="#EBEBEB"/>
<path d="M100.587 178.904C100.587 178.904 101.328 193.533 129.712 193.533C158.096 193.533 158.837 178.904 158.837 178.904H100.587Z" fill="#E0E0E0"/>
<path d="M74.376 188.521C74.376 188.521 65.129 172.563 77.9576 159.857C77.9576 159.857 81.3031 162.041 81.2136 164.983C81.1241 167.925 77.6239 168.659 78.3809 171.112C79.1379 173.565 82.4509 176.002 80.2938 177.999C78.1367 179.996 80.6438 181.821 80.4973 184.307C80.3508 186.793 74.376 188.521 74.376 188.521Z" fill="#E0E0E0"/>
<path d="M75.076 189.98C75.076 189.98 78.8204 171.919 62.6463 163.899C62.6463 163.899 60.1554 167.037 61.1322 169.808C62.109 172.579 65.6906 172.163 65.7476 174.698C65.8046 177.233 63.387 180.599 66.1058 181.829C68.8245 183.06 66.9767 185.579 67.8966 187.885C68.8164 190.191 75.076 189.98 75.076 189.98Z" fill="#E0E0E0"/>
<path d="M60.8879 181.626C60.8879 181.626 61.1973 193.533 72.984 193.533C84.7707 193.533 85.08 181.626 85.08 181.626H60.8879Z" fill="#EBEBEB"/>
<path d="M189.5 303.641C276.665 303.641 347.327 299.511 347.327 294.415C347.327 289.32 276.665 285.189 189.5 285.189C102.335 285.189 31.6736 289.32 31.6736 294.415C31.6736 299.511 102.335 303.641 189.5 303.641Z" fill="#F5F5F5"/>
<path d="M132.886 177.216C132.404 177.185 131.951 176.97 131.621 176.617C131.29 176.264 131.106 175.798 131.106 175.313C131.106 174.829 131.29 174.363 131.621 174.01C131.951 173.656 132.404 173.442 132.886 173.41C137.542 173.41 141.466 166.735 141.466 158.83C141.497 158.346 141.711 157.893 142.064 157.562C142.417 157.231 142.883 157.047 143.367 157.047C143.85 157.047 144.316 157.231 144.669 157.562C145.022 157.893 145.236 158.346 145.267 158.83C145.267 169.14 139.846 177.216 132.886 177.216Z" fill="#45BD43"/>
<path d="M161.612 177.216C161.13 177.185 160.677 176.97 160.347 176.617C160.016 176.264 159.832 175.798 159.832 175.313C159.832 174.829 160.016 174.363 160.347 174.01C160.677 173.656 161.13 173.442 161.612 173.41C166.268 173.41 170.192 166.735 170.192 158.83C170.223 158.346 170.437 157.893 170.79 157.562C171.143 157.231 171.609 157.047 172.093 157.047C172.576 157.047 173.042 157.231 173.395 157.562C173.748 157.893 173.962 158.346 173.993 158.83C174.034 169.14 168.556 177.216 161.612 177.216Z" fill="#45BD43"/>
<path d="M190.314 177.216C189.831 177.185 189.379 176.97 189.048 176.617C188.718 176.264 188.534 175.798 188.534 175.313C188.534 174.829 188.718 174.363 189.048 174.01C189.379 173.656 189.831 173.442 190.314 173.41C194.962 173.41 198.893 166.735 198.893 158.83C198.893 158.326 199.093 157.843 199.449 157.487C199.805 157.131 200.287 156.931 200.79 156.931C201.293 156.931 201.775 157.131 202.131 157.487C202.487 157.843 202.687 158.326 202.687 158.83C202.711 169.14 197.282 177.216 190.314 177.216Z" fill="#45BD43"/>
<path d="M219.064 177.216C218.804 177.233 218.544 177.197 218.298 177.109C218.053 177.021 217.828 176.884 217.638 176.705C217.448 176.527 217.296 176.311 217.192 176.072C217.089 175.832 217.035 175.574 217.035 175.313C217.035 175.052 217.089 174.794 217.192 174.555C217.296 174.315 217.448 174.1 217.638 173.921C217.828 173.743 218.053 173.606 218.298 173.518C218.544 173.43 218.804 173.393 219.064 173.41C223.712 173.41 227.644 166.735 227.644 158.83C227.644 158.326 227.844 157.843 228.199 157.487C228.555 157.131 229.038 156.931 229.541 156.931C230.044 156.931 230.526 157.131 230.882 157.487C231.237 157.843 231.437 158.326 231.437 158.83C231.437 169.14 226 177.216 219.064 177.216Z" fill="#45BD43"/>
<path d="M247.782 177.216C247.3 177.185 246.847 176.97 246.517 176.617C246.186 176.264 246.002 175.798 246.002 175.313C246.002 174.829 246.186 174.363 246.517 174.01C246.847 173.656 247.3 173.442 247.782 173.41C252.438 173.41 256.362 166.735 256.362 158.83C256.394 158.346 256.608 157.893 256.96 157.562C257.313 157.231 257.779 157.047 258.263 157.047C258.746 157.047 259.212 157.231 259.565 157.562C259.918 157.893 260.132 158.346 260.163 158.83C260.163 169.14 254.726 177.216 247.782 177.216Z" fill="#45BD43"/>
<path d="M276.508 177.216C276.026 177.185 275.573 176.97 275.243 176.617C274.912 176.264 274.728 175.798 274.728 175.313C274.728 174.829 274.912 174.363 275.243 174.01C275.573 173.656 276.026 173.442 276.508 173.41C281.156 173.41 285.088 166.735 285.088 158.83C285.119 158.346 285.333 157.893 285.686 157.562C286.039 157.231 286.505 157.047 286.989 157.047C287.472 157.047 287.938 157.231 288.291 157.562C288.644 157.893 288.858 158.346 288.889 158.83C288.889 169.14 283.452 177.216 276.508 177.216Z" fill="#45BD43"/>
<g opacity="0.3">
<path d="M132.886 177.216C132.404 177.185 131.951 176.97 131.621 176.617C131.29 176.264 131.106 175.798 131.106 175.313C131.106 174.829 131.29 174.363 131.621 174.01C131.951 173.656 132.404 173.442 132.886 173.41C137.542 173.41 141.466 166.735 141.466 158.83C141.497 158.346 141.711 157.893 142.064 157.562C142.417 157.231 142.883 157.047 143.367 157.047C143.85 157.047 144.316 157.231 144.669 157.562C145.022 157.893 145.236 158.346 145.267 158.83C145.267 169.14 139.846 177.216 132.886 177.216Z" fill="black"/>
<path d="M161.612 177.216C161.13 177.185 160.677 176.97 160.347 176.617C160.016 176.264 159.832 175.798 159.832 175.313C159.832 174.829 160.016 174.363 160.347 174.01C160.677 173.656 161.13 173.442 161.612 173.41C166.268 173.41 170.192 166.735 170.192 158.83C170.223 158.346 170.437 157.893 170.79 157.562C171.143 157.231 171.609 157.047 172.093 157.047C172.576 157.047 173.042 157.231 173.395 157.562C173.748 157.893 173.962 158.346 173.993 158.83C174.034 169.14 168.556 177.216 161.612 177.216Z" fill="black"/>
<path d="M190.314 177.216C189.831 177.185 189.379 176.97 189.048 176.617C188.718 176.264 188.534 175.798 188.534 175.313C188.534 174.829 188.718 174.363 189.048 174.01C189.379 173.656 189.831 173.442 190.314 173.41C194.962 173.41 198.894 166.735 198.894 158.83C198.894 158.326 199.093 157.843 199.449 157.487C199.805 157.131 200.287 156.931 200.79 156.931C201.293 156.931 201.776 157.131 202.131 157.487C202.487 157.843 202.687 158.326 202.687 158.83C202.711 169.14 197.282 177.216 190.314 177.216Z" fill="black"/>
<path d="M219.064 177.216C218.804 177.233 218.544 177.197 218.298 177.109C218.053 177.021 217.828 176.884 217.638 176.705C217.448 176.527 217.296 176.311 217.192 176.072C217.089 175.832 217.035 175.574 217.035 175.313C217.035 175.052 217.089 174.794 217.192 174.555C217.296 174.315 217.448 174.1 217.638 173.921C217.828 173.743 218.053 173.606 218.298 173.518C218.544 173.43 218.804 173.393 219.064 173.41C223.712 173.41 227.644 166.735 227.644 158.83C227.644 158.326 227.844 157.843 228.2 157.487C228.555 157.131 229.038 156.931 229.541 156.931C230.044 156.931 230.526 157.131 230.882 157.487C231.237 157.843 231.437 158.326 231.437 158.83C231.437 169.14 226 177.216 219.064 177.216Z" fill="black"/>
<path d="M247.782 177.216C247.3 177.185 246.847 176.97 246.517 176.617C246.186 176.264 246.002 175.798 246.002 175.313C246.002 174.829 246.186 174.363 246.517 174.01C246.847 173.656 247.3 173.442 247.782 173.41C252.438 173.41 256.362 166.735 256.362 158.83C256.394 158.346 256.608 157.893 256.96 157.562C257.313 157.231 257.779 157.047 258.263 157.047C258.746 157.047 259.212 157.231 259.565 157.562C259.918 157.893 260.132 158.346 260.163 158.83C260.163 169.14 254.726 177.216 247.782 177.216Z" fill="black"/>
<path d="M276.508 177.216C276.026 177.185 275.573 176.97 275.243 176.617C274.912 176.264 274.728 175.798 274.728 175.313C274.728 174.829 274.912 174.363 275.243 174.01C275.573 173.656 276.026 173.442 276.508 173.41C281.156 173.41 285.088 166.735 285.088 158.83C285.12 158.346 285.334 157.893 285.687 157.562C286.04 157.231 286.505 157.047 286.989 157.047C287.472 157.047 287.938 157.231 288.291 157.562C288.644 157.893 288.858 158.346 288.889 158.83C288.889 169.14 283.452 177.216 276.508 177.216Z" fill="black"/>
</g>
<path d="M114.889 160.778H299.813C302.293 160.827 304.669 161.781 306.496 163.46C308.323 165.14 309.475 167.428 309.736 169.898L319.976 285.491C320.101 286.651 319.978 287.824 319.616 288.933C319.254 290.042 318.66 291.061 317.876 291.923C317.091 292.785 316.132 293.47 315.063 293.934C313.993 294.397 312.838 294.628 311.673 294.611H126.74C124.262 294.558 121.888 293.603 120.062 291.924C118.236 290.246 117.082 287.959 116.818 285.491L106.586 169.898C106.46 168.737 106.582 167.564 106.943 166.454C107.305 165.345 107.898 164.325 108.683 163.463C109.468 162.601 110.428 161.915 111.497 161.452C112.567 160.989 113.723 160.759 114.889 160.778Z" fill="#45BD43"/>
<path opacity="0.4" d="M114.889 160.778H299.813C302.293 160.827 304.669 161.781 306.496 163.46C308.323 165.14 309.475 167.428 309.736 169.898L319.976 285.491C320.101 286.651 319.978 287.824 319.616 288.933C319.254 290.042 318.66 291.061 317.876 291.923C317.091 292.785 316.132 293.47 315.063 293.934C313.993 294.397 312.838 294.628 311.673 294.611H126.74C124.262 294.558 121.888 293.603 120.062 291.924C118.236 290.246 117.082 287.959 116.818 285.491L106.586 169.898C106.46 168.737 106.582 167.564 106.943 166.454C107.305 165.345 107.898 164.325 108.683 163.463C109.468 162.601 110.428 161.915 111.497 161.452C112.567 160.989 113.723 160.759 114.889 160.778Z" fill="#FAFAFA"/>
<path d="M298.275 160.778H113.342C110.896 160.807 108.552 161.764 106.784 163.457C105.016 165.15 103.956 167.452 103.818 169.897L98.6087 285.491C98.5466 286.668 98.7253 287.846 99.1339 288.952C99.5424 290.058 100.172 291.069 100.984 291.923C101.797 292.777 102.775 293.456 103.858 293.918C104.942 294.38 106.108 294.616 107.286 294.611H292.235C294.681 294.582 297.025 293.624 298.793 291.931C300.561 290.238 301.621 287.936 301.759 285.491L306.976 169.897C307.037 168.718 306.857 167.539 306.447 166.432C306.036 165.324 305.404 164.313 304.59 163.459C303.775 162.605 302.794 161.927 301.709 161.466C300.623 161.005 299.454 160.77 298.275 160.778Z" fill="#45BD43"/>
<path opacity="0.2" d="M298.275 160.778H113.342C110.896 160.807 108.552 161.764 106.784 163.457C105.016 165.15 103.956 167.452 103.818 169.897L98.6087 285.491C98.5466 286.668 98.7253 287.846 99.1339 288.952C99.5424 290.058 100.172 291.069 100.984 291.923C101.797 292.777 102.775 293.456 103.858 293.918C104.942 294.38 106.108 294.616 107.286 294.611H292.235C294.681 294.582 297.025 293.624 298.793 291.931C300.561 290.238 301.621 287.936 301.759 285.491L306.976 169.897C307.037 168.718 306.857 167.539 306.447 166.432C306.036 165.324 305.404 164.313 304.59 163.459C303.775 162.605 302.794 161.927 301.709 161.466C300.623 161.005 299.454 160.77 298.275 160.778Z" fill="#FAFAFA"/>
<path d="M116.736 264.064L121.043 168.602C121.094 167.665 121.5 166.784 122.177 166.136C122.854 165.488 123.753 165.122 124.689 165.113H286.537C286.988 165.111 287.435 165.2 287.851 165.376C288.266 165.553 288.641 165.812 288.953 166.139C289.265 166.465 289.506 166.852 289.663 167.276C289.82 167.699 289.889 168.15 289.866 168.602L285.552 264.064C285.5 265.001 285.095 265.882 284.417 266.53C283.74 267.178 282.842 267.543 281.905 267.552H120.066C119.615 267.555 119.168 267.466 118.752 267.289C118.337 267.113 117.962 266.854 117.65 266.527C117.338 266.2 117.096 265.813 116.939 265.39C116.782 264.966 116.713 264.515 116.736 264.064Z" fill="#45BD43"/>
<path opacity="0.1" d="M116.736 264.064L121.043 168.602C121.094 167.665 121.5 166.784 122.177 166.136C122.854 165.488 123.753 165.122 124.689 165.113H286.537C286.988 165.111 287.435 165.2 287.851 165.376C288.266 165.553 288.641 165.812 288.953 166.139C289.265 166.465 289.506 166.852 289.663 167.276C289.82 167.699 289.889 168.15 289.866 168.602L285.552 264.064C285.5 265.001 285.095 265.882 284.417 266.53C283.74 267.178 282.842 267.543 281.905 267.552H120.066C119.615 267.555 119.168 267.466 118.752 267.289C118.337 267.113 117.962 266.854 117.65 266.527C117.338 266.2 117.096 265.813 116.939 265.39C116.782 264.966 116.713 264.515 116.736 264.064Z" fill="#FAFAFA"/>
<path opacity="0.1" d="M112.17 271.856L116.688 171.609C116.739 170.626 117.164 169.7 117.875 169.02C118.586 168.339 119.53 167.957 120.513 167.95H290.477C290.95 167.946 291.42 168.039 291.856 168.224C292.292 168.408 292.686 168.68 293.013 169.023C293.341 169.366 293.594 169.772 293.758 170.217C293.923 170.662 293.994 171.136 293.969 171.609L289.443 271.856C289.391 272.839 288.968 273.765 288.259 274.446C287.55 275.127 286.608 275.512 285.625 275.523H115.646C115.172 275.526 114.703 275.432 114.268 275.247C113.833 275.061 113.44 274.788 113.114 274.444C112.788 274.1 112.536 273.693 112.374 273.248C112.211 272.803 112.142 272.329 112.17 271.856Z" fill="black"/>
<path d="M107.97 279.941L112.683 175.375C112.746 174.352 113.192 173.391 113.931 172.683C114.67 171.974 115.648 171.571 116.671 171.552H293.969C294.463 171.548 294.954 171.645 295.409 171.838C295.865 172.031 296.276 172.316 296.618 172.674C296.959 173.032 297.224 173.456 297.396 173.921C297.567 174.385 297.642 174.88 297.615 175.375L292.878 279.941C292.815 280.963 292.369 281.924 291.63 282.633C290.891 283.341 289.912 283.745 288.889 283.763H111.616C111.121 283.768 110.631 283.672 110.175 283.479C109.718 283.287 109.307 283.003 108.965 282.644C108.623 282.286 108.358 281.861 108.187 281.396C108.016 280.931 107.942 280.436 107.97 279.941Z" fill="#FAFAFA"/>
<path d="M276.484 177.819C276.151 177.82 275.821 177.752 275.514 177.62C275.208 177.488 274.932 177.295 274.703 177.052C274.475 176.809 274.298 176.522 274.184 176.209C274.07 175.895 274.022 175.561 274.042 175.228C274.073 174.574 274.352 173.957 274.823 173.502C275.294 173.048 275.92 172.79 276.574 172.783C276.907 172.782 277.237 172.85 277.543 172.982C277.849 173.114 278.125 173.307 278.354 173.55C278.583 173.793 278.76 174.08 278.873 174.394C278.987 174.707 279.036 175.041 279.016 175.374C278.984 176.028 278.705 176.646 278.235 177.1C277.764 177.555 277.138 177.812 276.484 177.819Z" fill="#45BD43"/>
<path d="M247.758 177.819C247.425 177.82 247.095 177.752 246.788 177.62C246.482 177.488 246.206 177.295 245.977 177.052C245.748 176.809 245.572 176.522 245.458 176.209C245.344 175.895 245.296 175.561 245.316 175.228C245.347 174.574 245.626 173.957 246.097 173.502C246.568 173.048 247.194 172.79 247.847 172.783C248.181 172.782 248.511 172.85 248.817 172.982C249.123 173.114 249.399 173.307 249.628 173.55C249.857 173.793 250.034 174.08 250.147 174.394C250.261 174.707 250.309 175.041 250.289 175.374C250.26 176.029 249.982 176.647 249.511 177.102C249.04 177.557 248.412 177.814 247.758 177.819Z" fill="#45BD43"/>
<path d="M219.032 177.819C218.698 177.82 218.368 177.752 218.062 177.62C217.756 177.488 217.48 177.295 217.251 177.052C217.022 176.809 216.846 176.522 216.732 176.209C216.618 175.895 216.57 175.561 216.59 175.228C216.623 174.575 216.903 173.958 217.373 173.504C217.843 173.05 218.468 172.792 219.121 172.783C219.455 172.782 219.785 172.85 220.091 172.982C220.397 173.114 220.673 173.307 220.902 173.55C221.131 173.793 221.308 174.08 221.421 174.394C221.535 174.707 221.583 175.041 221.563 175.374C221.534 176.029 221.255 176.647 220.784 177.102C220.314 177.557 219.686 177.814 219.032 177.819Z" fill="#45BD43"/>
<path d="M190.314 177.819C189.981 177.82 189.651 177.752 189.344 177.62C189.038 177.488 188.762 177.295 188.533 177.052C188.304 176.809 188.128 176.522 188.014 176.209C187.9 175.895 187.852 175.561 187.872 175.228C187.907 174.574 188.189 173.958 188.66 173.504C189.132 173.05 189.758 172.792 190.412 172.783C190.745 172.782 191.075 172.85 191.381 172.982C191.688 173.114 191.964 173.307 192.192 173.55C192.421 173.793 192.598 174.08 192.712 174.394C192.825 174.707 192.874 175.041 192.854 175.374C192.824 176.03 192.544 176.65 192.072 177.105C191.599 177.56 190.97 177.816 190.314 177.819Z" fill="#45BD43"/>
<path d="M161.588 177.819C161.254 177.82 160.924 177.752 160.618 177.62C160.312 177.488 160.036 177.295 159.807 177.052C159.578 176.809 159.402 176.522 159.288 176.209C159.174 175.895 159.126 175.561 159.146 175.228C159.177 174.574 159.456 173.957 159.927 173.502C160.397 173.048 161.024 172.79 161.677 172.783C162.011 172.782 162.341 172.85 162.647 172.982C162.953 173.114 163.229 173.307 163.458 173.55C163.687 173.793 163.864 174.08 163.977 174.394C164.091 174.707 164.139 175.041 164.119 175.374C164.088 176.028 163.809 176.646 163.338 177.1C162.868 177.555 162.242 177.812 161.588 177.819Z" fill="#45BD43"/>
<path d="M132.862 177.819C132.528 177.82 132.198 177.752 131.892 177.62C131.586 177.488 131.31 177.295 131.081 177.052C130.852 176.809 130.676 176.522 130.562 176.209C130.448 175.895 130.4 175.561 130.42 175.228C130.451 174.574 130.73 173.957 131.201 173.502C131.671 173.048 132.298 172.79 132.951 172.783C133.285 172.782 133.615 172.85 133.921 172.982C134.227 173.114 134.503 173.307 134.732 173.55C134.961 173.793 135.138 174.08 135.251 174.394C135.365 174.707 135.413 175.041 135.393 175.374C135.364 176.029 135.085 176.647 134.614 177.102C134.143 177.557 133.516 177.814 132.862 177.819Z" fill="#45BD43"/>
<g opacity="0.1">
<path d="M276.484 177.819C276.151 177.82 275.821 177.752 275.514 177.62C275.208 177.488 274.932 177.295 274.703 177.052C274.475 176.809 274.298 176.522 274.184 176.209C274.07 175.895 274.022 175.561 274.042 175.228C274.073 174.574 274.352 173.957 274.823 173.502C275.294 173.048 275.92 172.79 276.574 172.783C276.907 172.782 277.237 172.85 277.543 172.982C277.849 173.114 278.125 173.307 278.354 173.55C278.583 173.793 278.76 174.08 278.873 174.394C278.987 174.707 279.036 175.041 279.016 175.374C278.984 176.028 278.705 176.646 278.235 177.1C277.764 177.555 277.138 177.812 276.484 177.819Z" fill="#FAFAFA"/>
<path d="M247.758 177.819C247.425 177.82 247.095 177.752 246.788 177.62C246.482 177.488 246.206 177.295 245.977 177.052C245.748 176.809 245.572 176.522 245.458 176.209C245.344 175.895 245.296 175.561 245.316 175.228C245.347 174.574 245.626 173.957 246.097 173.502C246.568 173.048 247.194 172.79 247.847 172.783C248.181 172.782 248.511 172.85 248.817 172.982C249.123 173.114 249.399 173.307 249.628 173.55C249.857 173.793 250.034 174.08 250.147 174.394C250.261 174.707 250.309 175.041 250.289 175.374C250.26 176.029 249.982 176.647 249.511 177.102C249.04 177.557 248.412 177.814 247.758 177.819Z" fill="#FAFAFA"/>
<path d="M219.032 177.819C218.698 177.82 218.368 177.752 218.062 177.62C217.756 177.488 217.48 177.295 217.251 177.052C217.022 176.809 216.846 176.522 216.732 176.209C216.618 175.895 216.57 175.561 216.59 175.228C216.623 174.575 216.903 173.958 217.373 173.504C217.843 173.05 218.468 172.792 219.121 172.783C219.455 172.782 219.785 172.85 220.091 172.982C220.397 173.114 220.673 173.307 220.902 173.55C221.131 173.793 221.308 174.08 221.421 174.394C221.535 174.707 221.583 175.041 221.563 175.374C221.534 176.029 221.255 176.647 220.784 177.102C220.314 177.557 219.686 177.814 219.032 177.819Z" fill="#FAFAFA"/>
<path d="M190.314 177.819C189.981 177.82 189.651 177.752 189.344 177.62C189.038 177.488 188.762 177.295 188.533 177.052C188.304 176.809 188.128 176.522 188.014 176.209C187.9 175.895 187.852 175.561 187.872 175.228C187.907 174.574 188.189 173.958 188.66 173.504C189.132 173.05 189.758 172.792 190.412 172.783C190.745 172.782 191.075 172.85 191.381 172.982C191.688 173.114 191.964 173.307 192.192 173.55C192.421 173.793 192.598 174.08 192.712 174.394C192.825 174.707 192.874 175.041 192.854 175.374C192.824 176.03 192.544 176.65 192.072 177.105C191.599 177.56 190.97 177.816 190.314 177.819Z" fill="#FAFAFA"/>
<path d="M161.588 177.819C161.254 177.82 160.924 177.752 160.618 177.62C160.312 177.488 160.036 177.295 159.807 177.052C159.578 176.809 159.402 176.522 159.288 176.209C159.174 175.895 159.126 175.561 159.146 175.228C159.177 174.574 159.456 173.957 159.927 173.502C160.397 173.048 161.024 172.79 161.677 172.783C162.011 172.782 162.341 172.85 162.647 172.982C162.953 173.114 163.229 173.307 163.458 173.55C163.687 173.793 163.864 174.08 163.977 174.394C164.091 174.707 164.139 175.041 164.119 175.374C164.088 176.028 163.809 176.646 163.338 177.1C162.868 177.555 162.242 177.812 161.588 177.819Z" fill="#FAFAFA"/>
<path d="M132.862 177.819C132.528 177.82 132.198 177.752 131.892 177.62C131.586 177.488 131.31 177.295 131.081 177.052C130.852 176.809 130.676 176.522 130.562 176.209C130.448 175.895 130.4 175.561 130.42 175.228C130.451 174.574 130.73 173.957 131.201 173.502C131.671 173.048 132.298 172.79 132.951 172.783C133.285 172.782 133.615 172.85 133.921 172.982C134.227 173.114 134.503 173.307 134.732 173.55C134.961 173.793 135.138 174.08 135.251 174.394C135.365 174.707 135.413 175.041 135.393 175.374C135.364 176.029 135.085 176.647 134.614 177.102C134.143 177.557 133.516 177.814 132.862 177.819Z" fill="#FAFAFA"/>
</g>
<path d="M140.041 186.931H125.593C125.383 186.933 125.176 186.891 124.983 186.809C124.791 186.726 124.617 186.604 124.474 186.451C124.331 186.298 124.222 186.116 124.152 185.919C124.083 185.721 124.055 185.511 124.071 185.301C124.087 184.874 124.263 184.469 124.565 184.167C124.867 183.865 125.272 183.688 125.699 183.671H140.147C140.357 183.67 140.564 183.712 140.757 183.794C140.949 183.877 141.122 183.999 141.265 184.152C141.409 184.305 141.518 184.486 141.588 184.684C141.657 184.882 141.685 185.092 141.669 185.301C141.653 185.729 141.476 186.134 141.175 186.436C140.873 186.738 140.468 186.915 140.041 186.931Z" fill="#45BD43"/>
<path d="M168.767 186.931H154.319C154.109 186.933 153.902 186.891 153.709 186.809C153.517 186.726 153.344 186.604 153.2 186.451C153.057 186.298 152.948 186.116 152.878 185.919C152.809 185.721 152.781 185.511 152.797 185.301C152.813 184.867 152.996 184.456 153.306 184.153C153.617 183.85 154.032 183.677 154.465 183.671H168.906C169.116 183.67 169.323 183.712 169.516 183.794C169.709 183.877 169.883 183.999 170.027 184.152C170.17 184.305 170.281 184.486 170.351 184.684C170.422 184.882 170.451 185.092 170.436 185.301C170.419 185.735 170.237 186.147 169.927 186.45C169.616 186.753 169.201 186.926 168.767 186.931Z" fill="#45BD43"/>
<path d="M197.493 186.931H183.045C182.835 186.933 182.627 186.891 182.434 186.809C182.241 186.726 182.068 186.604 181.924 186.451C181.78 186.298 181.67 186.117 181.599 185.919C181.529 185.721 181.5 185.511 181.515 185.301C181.531 184.867 181.714 184.456 182.024 184.153C182.335 183.85 182.75 183.677 183.183 183.671H197.64C197.849 183.67 198.057 183.712 198.249 183.794C198.442 183.877 198.615 183.999 198.758 184.152C198.901 184.305 199.011 184.486 199.081 184.684C199.15 184.882 199.178 185.092 199.162 185.301C199.147 185.736 198.966 186.148 198.655 186.452C198.344 186.756 197.928 186.928 197.493 186.931Z" fill="#45BD43"/>
<path d="M226.211 186.931H211.763C211.553 186.933 211.346 186.891 211.153 186.809C210.961 186.726 210.787 186.604 210.644 186.451C210.501 186.298 210.392 186.116 210.322 185.919C210.253 185.721 210.225 185.511 210.241 185.301C210.257 184.874 210.433 184.469 210.735 184.167C211.037 183.865 211.442 183.688 211.869 183.671H226.317C226.527 183.67 226.734 183.712 226.927 183.794C227.119 183.877 227.292 183.999 227.435 184.152C227.579 184.305 227.688 184.486 227.758 184.684C227.827 184.882 227.855 185.092 227.839 185.301C227.823 185.729 227.646 186.134 227.345 186.436C227.043 186.738 226.638 186.915 226.211 186.931Z" fill="#45BD43"/>
<path d="M254.937 186.931H240.489C240.279 186.933 240.072 186.891 239.879 186.809C239.687 186.726 239.514 186.604 239.371 186.451C239.227 186.298 239.118 186.116 239.048 185.919C238.979 185.721 238.951 185.511 238.967 185.301C238.983 184.867 239.166 184.456 239.476 184.153C239.787 183.85 240.202 183.677 240.635 183.671H255.084C255.293 183.67 255.501 183.712 255.693 183.794C255.886 183.877 256.059 183.999 256.202 184.152C256.345 184.305 256.455 184.486 256.525 184.684C256.594 184.882 256.622 185.092 256.606 185.301C256.589 185.735 256.407 186.147 256.097 186.45C255.786 186.753 255.371 186.926 254.937 186.931Z" fill="#45BD43"/>
<path d="M283.663 186.931H269.215C269.005 186.933 268.798 186.891 268.605 186.809C268.413 186.726 268.24 186.604 268.097 186.451C267.954 186.298 267.844 186.116 267.774 185.919C267.705 185.721 267.677 185.511 267.693 185.301C267.709 184.867 267.892 184.456 268.202 184.153C268.513 183.85 268.928 183.677 269.361 183.671H283.802C284.012 183.67 284.22 183.712 284.412 183.794C284.605 183.877 284.779 183.999 284.923 184.152C285.066 184.305 285.177 184.486 285.247 184.684C285.318 184.882 285.347 185.092 285.332 185.301C285.316 185.735 285.133 186.147 284.823 186.45C284.512 186.753 284.097 186.926 283.663 186.931Z" fill="#45BD43"/>
<g opacity="0.3">
<path d="M140.041 186.931H125.593C125.383 186.933 125.176 186.891 124.983 186.809C124.791 186.726 124.617 186.604 124.474 186.451C124.331 186.298 124.222 186.116 124.152 185.919C124.083 185.721 124.055 185.511 124.071 185.301C124.087 184.874 124.263 184.469 124.565 184.167C124.867 183.865 125.272 183.688 125.699 183.671H140.147C140.357 183.67 140.564 183.712 140.757 183.794C140.949 183.877 141.122 183.999 141.265 184.152C141.409 184.305 141.518 184.486 141.588 184.684C141.657 184.882 141.685 185.092 141.669 185.301C141.653 185.729 141.476 186.134 141.175 186.436C140.873 186.738 140.468 186.915 140.041 186.931Z" fill="black"/>
<path d="M168.767 186.931H154.319C154.109 186.933 153.902 186.891 153.709 186.809C153.517 186.726 153.344 186.604 153.2 186.451C153.057 186.298 152.948 186.116 152.878 185.919C152.809 185.721 152.781 185.511 152.797 185.301C152.813 184.867 152.996 184.456 153.306 184.153C153.617 183.85 154.032 183.677 154.465 183.671H168.906C169.116 183.67 169.323 183.712 169.516 183.794C169.709 183.877 169.883 183.999 170.027 184.152C170.17 184.305 170.281 184.486 170.351 184.684C170.422 184.882 170.451 185.092 170.436 185.301C170.419 185.735 170.237 186.147 169.927 186.45C169.616 186.753 169.201 186.926 168.767 186.931Z" fill="black"/>
<path d="M197.493 186.931H183.045C182.835 186.933 182.627 186.891 182.434 186.809C182.241 186.726 182.068 186.604 181.924 186.451C181.78 186.298 181.67 186.117 181.599 185.919C181.529 185.721 181.5 185.511 181.515 185.301C181.531 184.867 181.714 184.456 182.024 184.153C182.335 183.85 182.75 183.677 183.183 183.671H197.64C197.849 183.67 198.057 183.712 198.249 183.794C198.442 183.877 198.615 183.999 198.758 184.152C198.901 184.305 199.011 184.486 199.081 184.684C199.15 184.882 199.178 185.092 199.162 185.301C199.147 185.736 198.966 186.148 198.655 186.452C198.344 186.756 197.928 186.928 197.493 186.931Z" fill="black"/>
<path d="M226.211 186.931H211.763C211.553 186.933 211.346 186.891 211.153 186.809C210.961 186.726 210.787 186.604 210.644 186.451C210.501 186.298 210.392 186.116 210.322 185.919C210.253 185.721 210.225 185.511 210.241 185.301C210.257 184.874 210.433 184.469 210.735 184.167C211.037 183.865 211.442 183.688 211.869 183.671H226.317C226.527 183.67 226.734 183.712 226.927 183.794C227.119 183.877 227.292 183.999 227.435 184.152C227.579 184.305 227.688 184.486 227.758 184.684C227.827 184.882 227.855 185.092 227.839 185.301C227.823 185.729 227.646 186.134 227.345 186.436C227.043 186.738 226.638 186.915 226.211 186.931Z" fill="black"/>
<path d="M254.937 186.931H240.489C240.279 186.933 240.072 186.891 239.879 186.809C239.687 186.726 239.514 186.604 239.371 186.451C239.227 186.298 239.118 186.116 239.048 185.919C238.979 185.721 238.951 185.511 238.967 185.301C238.983 184.867 239.166 184.456 239.476 184.153C239.787 183.85 240.202 183.677 240.635 183.671H255.084C255.293 183.67 255.501 183.712 255.693 183.794C255.886 183.877 256.059 183.999 256.202 184.152C256.345 184.305 256.455 184.486 256.525 184.684C256.594 184.882 256.622 185.092 256.606 185.301C256.589 185.735 256.407 186.147 256.097 186.45C255.786 186.753 255.371 186.926 254.937 186.931Z" fill="black"/>
<path d="M283.663 186.931H269.215C269.005 186.933 268.798 186.891 268.605 186.809C268.413 186.726 268.24 186.604 268.097 186.451C267.954 186.298 267.844 186.116 267.774 185.919C267.705 185.721 267.677 185.511 267.693 185.301C267.709 184.867 267.892 184.456 268.202 184.153C268.513 183.85 268.928 183.677 269.361 183.671H283.802C284.012 183.67 284.22 183.712 284.412 183.794C284.605 183.877 284.779 183.999 284.923 184.152C285.066 184.305 285.177 184.486 285.247 184.684C285.318 184.882 285.347 185.092 285.332 185.301C285.316 185.735 285.133 186.147 284.823 186.45C284.512 186.753 284.097 186.926 283.663 186.931Z" fill="black"/>
</g>
<path d="M140.839 217.715H122.019C121.607 217.716 121.198 217.634 120.818 217.472C120.438 217.31 120.095 217.072 119.811 216.773C119.526 216.474 119.305 216.12 119.161 215.733C119.017 215.345 118.954 214.932 118.975 214.52L119.789 195.677C119.838 194.82 120.21 194.014 120.83 193.421C121.449 192.828 122.27 192.493 123.126 192.482H141.946C142.359 192.48 142.768 192.563 143.147 192.725C143.527 192.886 143.87 193.124 144.155 193.423C144.44 193.722 144.661 194.076 144.805 194.464C144.948 194.851 145.011 195.264 144.99 195.677L144.176 214.52C144.125 215.375 143.753 216.18 143.134 216.773C142.515 217.365 141.695 217.702 140.839 217.715Z" fill="#45BD43"/>
<path d="M169.565 217.715H150.745C150.332 217.717 149.923 217.635 149.543 217.474C149.162 217.313 148.819 217.075 148.534 216.776C148.249 216.476 148.028 216.122 147.884 215.734C147.741 215.346 147.679 214.933 147.701 214.52L148.515 195.677C148.564 194.82 148.936 194.014 149.556 193.421C150.175 192.828 150.996 192.493 151.852 192.482H170.697C171.11 192.48 171.519 192.563 171.899 192.725C172.279 192.886 172.623 193.124 172.908 193.423C173.194 193.722 173.415 194.076 173.56 194.463C173.705 194.851 173.769 195.263 173.749 195.677L172.894 214.52C172.847 215.375 172.477 216.181 171.859 216.774C171.241 217.367 170.421 217.703 169.565 217.715Z" fill="#45BD43"/>
<path d="M198.283 217.714H179.471C179.058 217.716 178.649 217.633 178.269 217.471C177.889 217.31 177.545 217.072 177.26 216.773C176.974 216.474 176.753 216.12 176.608 215.733C176.463 215.345 176.399 214.933 176.419 214.519L177.233 195.676C177.282 194.82 177.654 194.014 178.273 193.421C178.893 192.828 179.714 192.492 180.57 192.482H199.382C199.795 192.479 200.204 192.561 200.585 192.722C200.965 192.883 201.308 193.121 201.593 193.42C201.879 193.72 202.1 194.074 202.243 194.462C202.386 194.85 202.448 195.263 202.426 195.676L201.612 214.519C201.563 215.375 201.192 216.179 200.575 216.772C199.957 217.365 199.138 217.701 198.283 217.714Z" fill="#45BD43"/>
<path d="M227.009 217.715H208.222C207.809 217.717 207.399 217.635 207.018 217.474C206.637 217.313 206.294 217.075 206.008 216.776C205.722 216.477 205.5 216.122 205.356 215.734C205.212 215.346 205.148 214.933 205.169 214.52L205.983 195.677C206.031 194.821 206.401 194.015 207.019 193.422C207.637 192.829 208.457 192.493 209.313 192.482H228.132C228.545 192.48 228.954 192.563 229.334 192.725C229.714 192.886 230.056 193.124 230.341 193.423C230.626 193.722 230.847 194.076 230.991 194.464C231.135 194.851 231.198 195.264 231.177 195.677L230.363 214.52C230.313 215.379 229.939 216.187 229.316 216.78C228.694 217.374 227.869 217.708 227.009 217.715Z" fill="#45BD43"/>
<path d="M255.735 217.714H236.915C236.503 217.716 236.094 217.633 235.714 217.471C235.334 217.31 234.992 217.072 234.707 216.773C234.422 216.474 234.201 216.12 234.057 215.732C233.913 215.345 233.85 214.932 233.871 214.519L234.685 195.676C234.734 194.82 235.106 194.014 235.726 193.421C236.345 192.828 237.166 192.492 238.023 192.482H256.834C257.248 192.479 257.657 192.561 258.038 192.722C258.419 192.883 258.762 193.121 259.048 193.42C259.334 193.719 259.556 194.074 259.7 194.462C259.844 194.85 259.908 195.263 259.887 195.676L259.073 214.519C259.021 215.375 258.649 216.18 258.03 216.773C257.411 217.365 256.591 217.701 255.735 217.714Z" fill="#45BD43"/>
<path d="M284.453 217.715H265.642C265.228 217.717 264.819 217.635 264.439 217.474C264.058 217.313 263.715 217.075 263.43 216.776C263.145 216.476 262.924 216.122 262.781 215.734C262.637 215.346 262.575 214.933 262.597 214.52L263.411 195.677C263.461 194.82 263.832 194.014 264.452 193.421C265.071 192.828 265.892 192.493 266.749 192.482H285.56C285.973 192.48 286.382 192.563 286.763 192.725C287.143 192.886 287.486 193.124 287.772 193.423C288.057 193.722 288.279 194.076 288.424 194.463C288.568 194.851 288.632 195.263 288.613 195.677L287.758 214.52C287.711 215.371 287.344 216.174 286.731 216.766C286.119 217.359 285.305 217.697 284.453 217.715Z" fill="#45BD43"/>
<g opacity="0.8">
<path d="M140.839 217.714H122.019C121.607 217.716 121.198 217.633 120.818 217.471C120.438 217.31 120.095 217.072 119.811 216.773C119.526 216.474 119.305 216.12 119.161 215.732C119.017 215.345 118.954 214.932 118.975 214.519L119.789 195.676C119.838 194.82 120.21 194.014 120.83 193.421C121.449 192.828 122.27 192.492 123.126 192.481H141.946C142.359 192.48 142.768 192.562 143.147 192.724C143.527 192.886 143.87 193.124 144.155 193.423C144.44 193.722 144.661 194.076 144.805 194.463C144.948 194.851 145.011 195.264 144.99 195.676L144.176 214.519C144.125 215.375 143.753 216.18 143.134 216.773C142.515 217.365 141.695 217.701 140.839 217.714Z" fill="#FAFAFA"/>
<path d="M169.565 217.714H150.745C150.332 217.717 149.923 217.635 149.543 217.474C149.162 217.312 148.819 217.075 148.534 216.775C148.249 216.476 148.028 216.122 147.884 215.734C147.741 215.346 147.679 214.932 147.701 214.519L148.515 195.676C148.564 194.82 148.936 194.014 149.556 193.421C150.175 192.828 150.996 192.492 151.852 192.481H170.697C171.11 192.48 171.519 192.562 171.899 192.724C172.279 192.886 172.623 193.124 172.908 193.423C173.194 193.721 173.415 194.075 173.56 194.463C173.705 194.85 173.769 195.263 173.749 195.676L172.894 214.519C172.847 215.375 172.477 216.181 171.859 216.774C171.241 217.367 170.421 217.703 169.565 217.714Z" fill="#FAFAFA"/>
<path d="M198.283 217.714H179.471C179.058 217.716 178.649 217.633 178.269 217.471C177.889 217.31 177.545 217.072 177.26 216.773C176.974 216.474 176.753 216.12 176.608 215.733C176.463 215.345 176.399 214.933 176.419 214.519L177.233 195.676C177.282 194.82 177.654 194.014 178.273 193.421C178.893 192.828 179.714 192.492 180.57 192.482H199.382C199.795 192.479 200.204 192.561 200.585 192.722C200.965 192.883 201.308 193.121 201.593 193.42C201.879 193.72 202.1 194.074 202.243 194.462C202.386 194.85 202.448 195.263 202.426 195.676L201.612 214.519C201.563 215.375 201.192 216.179 200.575 216.772C199.957 217.365 199.138 217.701 198.283 217.714Z" fill="#FAFAFA"/>
<path d="M227.009 217.714H208.222C207.809 217.717 207.399 217.635 207.018 217.474C206.637 217.312 206.294 217.075 206.008 216.776C205.722 216.477 205.5 216.122 205.356 215.734C205.212 215.346 205.148 214.933 205.169 214.519L205.983 195.676C206.031 194.821 206.401 194.015 207.019 193.422C207.637 192.829 208.457 192.493 209.313 192.481H228.132C228.545 192.48 228.954 192.562 229.334 192.724C229.714 192.886 230.056 193.124 230.341 193.423C230.626 193.722 230.847 194.076 230.991 194.463C231.135 194.851 231.198 195.264 231.177 195.676L230.363 214.519C230.313 215.379 229.939 216.187 229.316 216.78C228.694 217.374 227.869 217.707 227.009 217.714Z" fill="#FAFAFA"/>
<path d="M255.735 217.714H236.915C236.503 217.716 236.094 217.633 235.714 217.471C235.334 217.31 234.992 217.072 234.707 216.773C234.422 216.474 234.201 216.12 234.057 215.732C233.913 215.345 233.85 214.932 233.871 214.519L234.685 195.676C234.734 194.82 235.106 194.014 235.726 193.421C236.345 192.828 237.166 192.492 238.023 192.482H256.834C257.248 192.479 257.657 192.561 258.038 192.722C258.419 192.883 258.762 193.121 259.048 193.42C259.334 193.719 259.556 194.074 259.7 194.462C259.844 194.85 259.908 195.263 259.887 195.676L259.073 214.519C259.021 215.375 258.649 216.18 258.03 216.773C257.411 217.365 256.591 217.701 255.735 217.714Z" fill="#FAFAFA"/>
<path d="M284.453 217.714H265.642C265.228 217.717 264.819 217.635 264.439 217.474C264.058 217.312 263.715 217.075 263.43 216.775C263.145 216.476 262.924 216.122 262.781 215.734C262.637 215.346 262.575 214.932 262.597 214.519L263.411 195.676C263.461 194.82 263.832 194.014 264.452 193.421C265.071 192.828 265.892 192.492 266.749 192.481H285.56C285.973 192.48 286.382 192.562 286.763 192.724C287.143 192.886 287.486 193.124 287.772 193.423C288.057 193.721 288.279 194.075 288.424 194.463C288.568 194.85 288.632 195.263 288.613 195.676L287.758 214.519C287.711 215.371 287.344 216.173 286.731 216.766C286.119 217.358 285.305 217.697 284.453 217.714Z" fill="#FAFAFA"/>
</g>
<path d="M139.52 246.949H120.701C120.288 246.951 119.879 246.868 119.499 246.706C119.12 246.544 118.777 246.306 118.492 246.007C118.207 245.708 117.986 245.354 117.842 244.967C117.698 244.579 117.635 244.167 117.656 243.754L118.47 224.911C118.522 224.055 118.894 223.25 119.513 222.658C120.132 222.065 120.951 221.729 121.808 221.716H140.66C141.073 221.714 141.481 221.797 141.861 221.959C142.241 222.121 142.584 222.359 142.869 222.658C143.154 222.957 143.375 223.311 143.518 223.698C143.662 224.085 143.725 224.498 143.704 224.911L142.89 243.754C142.839 244.615 142.462 245.425 141.836 246.018C141.21 246.612 140.382 246.944 139.52 246.949Z" fill="#45BD43"/>
<path d="M168.246 246.949H149.427C149.014 246.951 148.605 246.868 148.225 246.706C147.846 246.544 147.503 246.306 147.218 246.007C146.933 245.708 146.712 245.354 146.568 244.967C146.425 244.58 146.361 244.167 146.382 243.754L147.196 224.911C147.246 224.054 147.618 223.249 148.237 222.656C148.856 222.063 149.677 221.727 150.534 221.716H169.345C169.762 221.713 170.175 221.796 170.558 221.959C170.942 222.122 171.288 222.363 171.575 222.665C171.861 222.968 172.083 223.326 172.226 223.718C172.369 224.11 172.43 224.527 172.406 224.944L171.592 243.754C171.544 244.613 171.172 245.421 170.551 246.014C169.929 246.608 169.105 246.942 168.246 246.949Z" fill="#45BD43"/>
<path d="M196.964 246.949H178.153C177.74 246.952 177.33 246.87 176.95 246.708C176.57 246.547 176.226 246.309 175.941 246.01C175.656 245.711 175.435 245.356 175.292 244.968C175.149 244.58 175.086 244.167 175.108 243.754L175.922 224.911C175.972 224.054 176.344 223.249 176.963 222.656C177.582 222.063 178.403 221.727 179.26 221.716H198.071C198.484 221.713 198.894 221.795 199.274 221.957C199.654 222.118 199.998 222.356 200.283 222.655C200.568 222.954 200.789 223.309 200.932 223.697C201.075 224.085 201.138 224.498 201.116 224.911L200.302 243.754C200.252 244.611 199.88 245.416 199.261 246.009C198.642 246.602 197.821 246.938 196.964 246.949Z" fill="#45BD43"/>
<path d="M225.69 246.949H206.879C206.466 246.95 206.057 246.868 205.676 246.706C205.296 246.544 204.953 246.307 204.667 246.008C204.382 245.709 204.16 245.355 204.015 244.968C203.871 244.58 203.807 244.167 203.826 243.754L204.64 224.911C204.688 224.055 205.058 223.249 205.676 222.656C206.294 222.063 207.114 221.727 207.97 221.716H226.789C227.208 221.709 227.624 221.788 228.011 221.949C228.398 222.111 228.748 222.35 229.037 222.654C229.327 222.957 229.551 223.317 229.695 223.711C229.839 224.105 229.9 224.525 229.874 224.944L229.06 243.787C229.003 244.643 228.623 245.445 227.997 246.032C227.372 246.619 226.548 246.947 225.69 246.949Z" fill="#45BD43"/>
<path d="M254.416 246.949H235.597C235.184 246.951 234.775 246.868 234.395 246.706C234.016 246.544 233.673 246.307 233.388 246.008C233.103 245.709 232.882 245.355 232.738 244.967C232.595 244.58 232.531 244.167 232.552 243.754L233.366 224.911C233.41 224.048 233.78 223.234 234.401 222.635C235.023 222.035 235.849 221.695 236.712 221.684H255.532C255.944 221.682 256.353 221.765 256.733 221.926C257.113 222.088 257.456 222.326 257.74 222.625C258.025 222.924 258.246 223.278 258.39 223.666C258.534 224.053 258.597 224.466 258.576 224.878L257.762 243.722C257.719 244.585 257.349 245.399 256.727 245.998C256.106 246.598 255.279 246.938 254.416 246.949Z" fill="#45BD43"/>
<path d="M283.11 246.949H264.323C263.91 246.952 263.5 246.87 263.12 246.708C262.74 246.547 262.396 246.309 262.111 246.01C261.826 245.711 261.605 245.356 261.462 244.968C261.319 244.58 261.256 244.167 261.278 243.754L262.092 224.911C262.142 224.054 262.514 223.249 263.133 222.656C263.752 222.063 264.573 221.727 265.43 221.716H284.241C284.654 221.715 285.064 221.797 285.444 221.959C285.824 222.121 286.167 222.358 286.453 222.657C286.738 222.956 286.96 223.31 287.105 223.697C287.249 224.085 287.314 224.498 287.294 224.911L286.439 243.754C286.392 244.61 286.022 245.416 285.404 246.009C284.786 246.602 283.966 246.938 283.11 246.949Z" fill="#45BD43"/>
<g opacity="0.8">
<path d="M139.52 246.949H120.701C120.288 246.951 119.879 246.868 119.499 246.707C119.12 246.545 118.777 246.307 118.492 246.008C118.207 245.709 117.986 245.355 117.842 244.967C117.698 244.58 117.635 244.167 117.656 243.755L118.47 224.911C118.522 224.056 118.894 223.251 119.513 222.658C120.132 222.066 120.951 221.729 121.808 221.717H140.66C141.073 221.715 141.481 221.798 141.861 221.959C142.241 222.121 142.584 222.359 142.869 222.658C143.154 222.957 143.375 223.311 143.518 223.699C143.662 224.086 143.725 224.499 143.704 224.911L142.89 243.755C142.839 244.616 142.462 245.425 141.836 246.019C141.21 246.612 140.382 246.945 139.52 246.949Z" fill="#FAFAFA"/>
<path d="M168.246 246.949H149.427C149.014 246.951 148.605 246.868 148.225 246.706C147.846 246.544 147.503 246.306 147.218 246.007C146.933 245.708 146.712 245.354 146.568 244.967C146.425 244.58 146.361 244.167 146.382 243.754L147.196 224.911C147.246 224.054 147.618 223.249 148.237 222.656C148.856 222.063 149.677 221.727 150.534 221.716H169.345C169.762 221.713 170.175 221.796 170.558 221.959C170.942 222.122 171.288 222.363 171.575 222.665C171.861 222.968 172.083 223.326 172.226 223.718C172.369 224.11 172.43 224.527 172.406 224.944L171.592 243.754C171.544 244.613 171.172 245.421 170.551 246.014C169.929 246.608 169.105 246.942 168.246 246.949Z" fill="#FAFAFA"/>
<path d="M196.964 246.949H178.153C177.74 246.952 177.33 246.87 176.95 246.708C176.57 246.547 176.226 246.309 175.941 246.01C175.656 245.711 175.435 245.356 175.292 244.968C175.149 244.58 175.086 244.167 175.108 243.754L175.922 224.911C175.972 224.054 176.344 223.249 176.963 222.656C177.582 222.063 178.403 221.727 179.26 221.716H198.071C198.484 221.713 198.894 221.795 199.274 221.957C199.654 222.118 199.998 222.356 200.283 222.655C200.568 222.954 200.789 223.309 200.932 223.697C201.075 224.085 201.138 224.498 201.116 224.911L200.302 243.754C200.252 244.611 199.88 245.416 199.261 246.009C198.642 246.602 197.821 246.938 196.964 246.949Z" fill="#FAFAFA"/>
<path d="M225.69 246.949H206.879C206.466 246.951 206.057 246.868 205.676 246.706C205.296 246.545 204.953 246.307 204.667 246.008C204.382 245.709 204.16 245.355 204.015 244.968C203.871 244.58 203.806 244.167 203.826 243.754L204.64 224.911C204.688 224.055 205.058 223.25 205.676 222.656C206.294 222.063 207.114 221.727 207.97 221.716H226.789C227.208 221.709 227.624 221.788 228.011 221.95C228.398 222.111 228.748 222.351 229.037 222.654C229.327 222.957 229.551 223.317 229.695 223.711C229.839 224.105 229.9 224.525 229.874 224.944L229.06 243.787C229.003 244.643 228.623 245.446 227.997 246.033C227.372 246.619 226.547 246.947 225.69 246.949Z" fill="#FAFAFA"/>
<path d="M254.416 246.949H235.597C235.184 246.951 234.775 246.868 234.395 246.706C234.016 246.544 233.673 246.307 233.388 246.008C233.103 245.709 232.882 245.355 232.738 244.967C232.595 244.58 232.531 244.167 232.552 243.754L233.366 224.911C233.41 224.048 233.78 223.234 234.401 222.635C235.023 222.035 235.849 221.695 236.712 221.684H255.532C255.944 221.682 256.353 221.765 256.733 221.926C257.113 222.088 257.456 222.326 257.74 222.625C258.025 222.924 258.246 223.278 258.39 223.666C258.534 224.053 258.597 224.466 258.576 224.878L257.762 243.722C257.719 244.585 257.349 245.399 256.727 245.998C256.106 246.598 255.279 246.938 254.416 246.949Z" fill="#FAFAFA"/>
<path d="M283.11 246.949H264.323C263.91 246.952 263.5 246.87 263.12 246.709C262.74 246.547 262.396 246.31 262.111 246.01C261.826 245.711 261.605 245.356 261.462 244.968C261.319 244.581 261.256 244.167 261.278 243.754L262.092 224.911C262.142 224.055 262.514 223.249 263.133 222.656C263.752 222.063 264.573 221.727 265.43 221.716H284.241C284.654 221.715 285.064 221.797 285.444 221.959C285.824 222.121 286.167 222.358 286.453 222.657C286.738 222.956 286.96 223.31 287.105 223.698C287.249 224.085 287.314 224.498 287.294 224.911L286.439 243.754C286.392 244.61 286.022 245.416 285.404 246.009C284.786 246.602 283.966 246.938 283.11 246.949Z" fill="#FAFAFA"/>
</g>
<path d="M138.218 276.175H119.382C118.969 276.178 118.56 276.096 118.179 275.935C117.799 275.773 117.456 275.536 117.17 275.237C116.885 274.937 116.664 274.583 116.521 274.195C116.378 273.807 116.315 273.394 116.338 272.981L117.152 254.146C117.201 253.289 117.573 252.483 118.192 251.89C118.811 251.297 119.632 250.962 120.489 250.951H139.309C139.722 250.948 140.131 251.03 140.511 251.191C140.892 251.353 141.235 251.59 141.52 251.89C141.805 252.189 142.026 252.543 142.17 252.931C142.313 253.319 142.375 253.733 142.353 254.146L141.539 272.981C141.492 273.835 141.123 274.64 140.507 275.232C139.89 275.825 139.072 276.162 138.218 276.175Z" fill="#45BD43"/>
<path d="M166.928 276.175H148.108C147.695 276.178 147.286 276.096 146.905 275.935C146.525 275.773 146.182 275.536 145.897 275.236C145.611 274.937 145.39 274.583 145.247 274.195C145.104 273.807 145.041 273.393 145.064 272.98L145.878 254.145C145.925 253.288 146.296 252.481 146.916 251.888C147.536 251.295 148.358 250.96 149.215 250.951H168.027C168.44 250.947 168.851 251.028 169.232 251.189C169.613 251.35 169.958 251.587 170.244 251.886C170.53 252.186 170.751 252.541 170.895 252.929C171.039 253.318 171.101 253.732 171.079 254.145L170.265 272.98C170.22 273.838 169.849 274.646 169.229 275.24C168.609 275.834 167.786 276.168 166.928 276.175Z" fill="#45BD43"/>
<path d="M195.646 276.175H176.834C176.421 276.178 176.012 276.096 175.631 275.935C175.251 275.773 174.908 275.536 174.623 275.237C174.337 274.937 174.116 274.583 173.973 274.195C173.83 273.807 173.768 273.394 173.79 272.981L174.604 254.146C174.651 253.288 175.022 252.481 175.642 251.888C176.262 251.295 177.084 250.96 177.941 250.951H196.826C197.239 250.948 197.649 251.03 198.03 251.191C198.411 251.353 198.754 251.59 199.04 251.889C199.326 252.188 199.548 252.543 199.692 252.931C199.836 253.319 199.9 253.732 199.878 254.146L199.024 272.981C198.976 273.845 198.599 274.658 197.971 275.252C197.342 275.846 196.51 276.177 195.646 276.175Z" fill="#45BD43"/>
<path d="M224.372 276.175H205.56C205.147 276.178 204.737 276.096 204.356 275.935C203.976 275.774 203.632 275.536 203.346 275.237C203.06 274.938 202.838 274.583 202.694 274.195C202.55 273.807 202.487 273.394 202.508 272.981L203.322 254.146C203.367 253.289 203.737 252.482 204.355 251.889C204.973 251.295 205.794 250.96 206.651 250.951H225.471C225.884 250.948 226.293 251.03 226.673 251.191C227.054 251.353 227.397 251.59 227.682 251.89C227.967 252.189 228.188 252.543 228.331 252.931C228.475 253.319 228.537 253.733 228.515 254.146L227.701 272.981C227.654 273.836 227.283 274.642 226.665 275.235C226.047 275.828 225.228 276.164 224.372 276.175Z" fill="#45BD43"/>
<path d="M253.098 276.175H234.27C233.857 276.178 233.448 276.096 233.067 275.935C232.687 275.773 232.344 275.536 232.058 275.237C231.773 274.937 231.552 274.583 231.409 274.195C231.266 273.807 231.203 273.394 231.226 272.981L232.04 254.146C232.089 253.289 232.461 252.483 233.08 251.89C233.699 251.297 234.52 250.962 235.377 250.951H254.197C254.61 250.948 255.019 251.03 255.399 251.191C255.78 251.353 256.123 251.59 256.408 251.89C256.693 252.189 256.914 252.543 257.058 252.931C257.201 253.319 257.263 253.733 257.241 254.146L256.427 272.981C256.378 273.836 256.007 274.64 255.389 275.233C254.772 275.826 253.953 276.162 253.098 276.175Z" fill="#45BD43"/>
<path d="M281.824 276.175H263.004C262.591 276.178 262.182 276.096 261.801 275.935C261.421 275.773 261.078 275.536 260.793 275.237C260.507 274.937 260.286 274.583 260.143 274.195C260 273.807 259.937 273.394 259.96 272.981L260.774 254.146C260.821 253.288 261.192 252.481 261.812 251.888C262.432 251.295 263.254 250.96 264.111 250.951H282.923C283.336 250.948 283.746 251.03 284.126 251.191C284.507 251.353 284.851 251.59 285.137 251.889C285.423 252.188 285.644 252.543 285.789 252.931C285.933 253.319 285.996 253.732 285.975 254.146L285.12 272.981C285.075 273.831 284.71 274.634 284.099 275.226C283.487 275.819 282.675 276.158 281.824 276.175Z" fill="#45BD43"/>
<g opacity="0.8">
<path d="M138.218 276.175H119.382C118.969 276.178 118.56 276.096 118.179 275.935C117.799 275.773 117.456 275.536 117.17 275.236C116.885 274.937 116.664 274.582 116.521 274.195C116.378 273.807 116.315 273.393 116.338 272.98L117.152 254.145C117.201 253.289 117.573 252.483 118.192 251.89C118.811 251.297 119.632 250.961 120.489 250.951H139.309C139.722 250.948 140.131 251.03 140.511 251.191C140.892 251.352 141.235 251.59 141.52 251.889C141.805 252.189 142.026 252.543 142.17 252.931C142.313 253.319 142.375 253.732 142.353 254.145L141.539 272.98C141.492 273.835 141.123 274.639 140.507 275.232C139.89 275.825 139.072 276.162 138.218 276.175Z" fill="#FAFAFA"/>
<path d="M166.928 276.175H148.108C147.695 276.178 147.286 276.096 146.905 275.935C146.525 275.773 146.182 275.536 145.897 275.236C145.611 274.937 145.39 274.583 145.247 274.195C145.104 273.807 145.041 273.393 145.064 272.98L145.878 254.145C145.925 253.288 146.296 252.481 146.916 251.888C147.536 251.295 148.358 250.96 149.215 250.951H168.027C168.44 250.947 168.851 251.028 169.232 251.189C169.613 251.35 169.958 251.587 170.244 251.886C170.53 252.186 170.751 252.541 170.895 252.929C171.039 253.318 171.101 253.732 171.079 254.145L170.265 272.98C170.22 273.838 169.849 274.646 169.229 275.24C168.609 275.834 167.786 276.168 166.928 276.175Z" fill="#FAFAFA"/>
<path d="M195.646 276.175H176.834C176.421 276.178 176.012 276.096 175.631 275.935C175.251 275.773 174.908 275.536 174.623 275.236C174.337 274.937 174.116 274.582 173.973 274.195C173.83 273.807 173.768 273.393 173.79 272.98L174.604 254.145C174.651 253.288 175.022 252.481 175.642 251.888C176.262 251.295 177.084 250.96 177.941 250.951H196.826C197.239 250.948 197.649 251.03 198.03 251.191C198.411 251.352 198.754 251.59 199.04 251.889C199.326 252.188 199.548 252.543 199.692 252.931C199.836 253.319 199.9 253.732 199.878 254.145L199.024 272.98C198.976 273.844 198.599 274.657 197.971 275.252C197.342 275.846 196.51 276.176 195.646 276.175Z" fill="#FAFAFA"/>
<path d="M224.372 276.175H205.56C205.147 276.178 204.737 276.096 204.356 275.935C203.976 275.773 203.632 275.536 203.346 275.237C203.06 274.938 202.838 274.583 202.694 274.195C202.55 273.807 202.487 273.394 202.508 272.98L203.322 254.145C203.367 253.289 203.737 252.482 204.355 251.888C204.974 251.295 205.794 250.96 206.651 250.951H225.471C225.884 250.948 226.293 251.03 226.673 251.191C227.054 251.352 227.397 251.59 227.682 251.889C227.967 252.189 228.188 252.543 228.332 252.931C228.475 253.319 228.537 253.732 228.515 254.145L227.701 272.98C227.654 273.836 227.284 274.642 226.666 275.235C226.048 275.828 225.228 276.164 224.372 276.175Z" fill="#FAFAFA"/>
<path d="M253.098 276.175H234.27C233.857 276.178 233.448 276.096 233.067 275.935C232.687 275.773 232.344 275.536 232.058 275.236C231.773 274.937 231.552 274.582 231.409 274.195C231.266 273.807 231.203 273.393 231.226 272.98L232.04 254.145C232.089 253.289 232.461 252.483 233.08 251.89C233.699 251.297 234.52 250.961 235.377 250.951H254.197C254.61 250.948 255.019 251.03 255.399 251.191C255.78 251.352 256.123 251.59 256.408 251.889C256.693 252.189 256.914 252.543 257.058 252.931C257.201 253.319 257.263 253.732 257.241 254.145L256.427 272.98C256.378 273.835 256.007 274.64 255.389 275.233C254.772 275.826 253.953 276.162 253.098 276.175Z" fill="#FAFAFA"/>
<path d="M281.824 276.175H263.004C262.591 276.178 262.182 276.096 261.801 275.935C261.421 275.773 261.078 275.536 260.793 275.236C260.507 274.937 260.286 274.582 260.143 274.195C260 273.807 259.938 273.393 259.96 272.98L260.774 254.145C260.821 253.288 261.193 252.481 261.812 251.888C262.432 251.295 263.254 250.96 264.111 250.951H282.923C283.336 250.948 283.746 251.03 284.127 251.191C284.507 251.352 284.851 251.59 285.137 251.889C285.423 252.188 285.645 252.543 285.789 252.931C285.933 253.319 285.996 253.732 285.975 254.145L285.121 272.98C285.076 273.831 284.711 274.634 284.099 275.226C283.488 275.819 282.675 276.158 281.824 276.175Z" fill="#FAFAFA"/>
</g>
<path d="M132.886 177.216C125.951 177.216 120.513 169.14 120.513 158.83C120.513 148.52 125.951 140.451 132.886 140.451C139.822 140.451 145.267 148.528 145.267 158.83C145.236 159.313 145.022 159.766 144.669 160.097C144.316 160.428 143.85 160.612 143.366 160.612C142.883 160.612 142.417 160.428 142.064 160.097C141.711 159.766 141.497 159.313 141.466 158.83C141.466 150.932 137.542 144.249 132.886 144.249C128.23 144.249 124.307 150.932 124.307 158.83C124.307 166.727 128.238 173.41 132.886 173.41C133.146 173.393 133.407 173.43 133.652 173.518C133.898 173.606 134.123 173.743 134.313 173.921C134.503 174.1 134.655 174.315 134.758 174.555C134.862 174.794 134.915 175.052 134.915 175.313C134.915 175.574 134.862 175.832 134.758 176.072C134.655 176.311 134.503 176.527 134.313 176.705C134.123 176.884 133.898 177.021 133.652 177.109C133.407 177.197 133.146 177.233 132.886 177.216Z" fill="#45BD43"/>
<path d="M161.612 177.216C154.677 177.216 149.24 169.14 149.24 158.83C149.24 148.52 154.677 140.451 161.612 140.451C168.548 140.451 174.034 148.528 174.034 158.83C174.002 159.313 173.788 159.766 173.435 160.097C173.082 160.428 172.617 160.612 172.133 160.612C171.65 160.612 171.184 160.428 170.831 160.097C170.478 159.766 170.264 159.313 170.233 158.83C170.233 150.932 166.309 144.249 161.653 144.249C156.997 144.249 153.073 150.932 153.073 158.83C153.073 166.727 157.005 173.41 161.653 173.41C162.136 173.442 162.588 173.656 162.919 174.01C163.249 174.363 163.433 174.829 163.433 175.313C163.433 175.798 163.249 176.264 162.919 176.617C162.588 176.971 162.136 177.185 161.653 177.216H161.612Z" fill="#45BD43"/>
<path d="M190.314 177.216C183.371 177.216 177.933 169.14 177.933 158.83C177.933 148.52 183.371 140.451 190.314 140.451C197.257 140.451 202.687 148.528 202.687 158.83C202.687 159.333 202.487 159.816 202.131 160.173C201.776 160.529 201.293 160.729 200.79 160.729C200.287 160.729 199.805 160.529 199.449 160.173C199.093 159.816 198.893 159.333 198.893 158.83C198.893 150.932 194.962 144.249 190.314 144.249C185.666 144.249 181.734 150.932 181.734 158.83C181.734 166.727 185.666 173.41 190.314 173.41C190.797 173.442 191.249 173.656 191.58 174.01C191.91 174.363 192.094 174.829 192.094 175.313C192.094 175.798 191.91 176.264 191.58 176.617C191.249 176.971 190.797 177.185 190.314 177.216Z" fill="#45BD43"/>
<path d="M219.064 177.216C212.121 177.216 206.683 169.14 206.683 158.83C206.683 148.52 212.121 140.451 219.064 140.451C226.008 140.451 231.437 148.528 231.437 158.83C231.437 159.333 231.237 159.816 230.882 160.173C230.526 160.529 230.044 160.729 229.541 160.729C229.038 160.729 228.555 160.529 228.199 160.173C227.844 159.816 227.644 159.333 227.644 158.83C227.644 150.932 223.712 144.249 219.064 144.249C214.416 144.249 210.485 150.932 210.485 158.83C210.485 166.727 214.408 173.41 219.064 173.41C219.547 173.442 220 173.656 220.33 174.01C220.661 174.363 220.845 174.829 220.845 175.313C220.845 175.798 220.661 176.264 220.33 176.617C220 176.971 219.547 177.185 219.064 177.216Z" fill="#45BD43"/>
<path d="M247.782 177.216C240.847 177.216 235.41 169.14 235.41 158.83C235.41 148.52 240.847 140.451 247.782 140.451C254.718 140.451 260.163 148.528 260.163 158.83C260.132 159.313 259.918 159.766 259.565 160.097C259.212 160.428 258.746 160.612 258.263 160.612C257.779 160.612 257.313 160.428 256.96 160.097C256.608 159.766 256.394 159.313 256.362 158.83C256.362 150.932 252.438 144.249 247.782 144.249C243.126 144.249 239.203 150.932 239.203 158.83C239.203 166.727 243.134 173.41 247.782 173.41C248.042 173.393 248.303 173.43 248.549 173.518C248.794 173.606 249.019 173.743 249.209 173.921C249.399 174.1 249.551 174.315 249.654 174.555C249.758 174.794 249.812 175.052 249.812 175.313C249.812 175.574 249.758 175.832 249.654 176.072C249.551 176.311 249.399 176.527 249.209 176.705C249.019 176.884 248.794 177.021 248.549 177.109C248.303 177.197 248.042 177.233 247.782 177.216Z" fill="#45BD43"/>
<path d="M276.508 177.216C269.573 177.216 264.136 169.14 264.136 158.83C264.136 148.52 269.573 140.451 276.508 140.451C283.444 140.451 288.889 148.528 288.889 158.83C288.858 159.313 288.644 159.766 288.291 160.097C287.938 160.428 287.472 160.612 286.989 160.612C286.505 160.612 286.04 160.428 285.687 160.097C285.334 159.766 285.12 159.313 285.088 158.83C285.088 150.932 281.156 144.249 276.508 144.249C271.86 144.249 267.929 150.932 267.929 158.83C267.929 166.727 271.86 173.41 276.508 173.41C276.991 173.442 277.444 173.656 277.774 174.01C278.105 174.363 278.289 174.829 278.289 175.313C278.289 175.798 278.105 176.264 277.774 176.617C277.444 176.971 276.991 177.185 276.508 177.216Z" fill="#45BD43"/>
<g opacity="0.3">
<path d="M132.886 177.216C125.951 177.216 120.513 169.14 120.513 158.83C120.513 148.52 125.951 140.451 132.886 140.451C139.822 140.451 145.267 148.528 145.267 158.83C145.236 159.313 145.022 159.766 144.669 160.097C144.316 160.428 143.85 160.612 143.366 160.612C142.883 160.612 142.417 160.428 142.064 160.097C141.711 159.766 141.497 159.313 141.466 158.83C141.466 150.932 137.542 144.249 132.886 144.249C128.23 144.249 124.307 150.932 124.307 158.83C124.307 166.727 128.238 173.41 132.886 173.41C133.146 173.393 133.407 173.43 133.652 173.518C133.898 173.606 134.123 173.743 134.313 173.921C134.503 174.1 134.655 174.315 134.758 174.555C134.862 174.794 134.915 175.052 134.915 175.313C134.915 175.574 134.862 175.832 134.758 176.072C134.655 176.311 134.503 176.527 134.313 176.705C134.123 176.884 133.898 177.021 133.652 177.109C133.407 177.197 133.146 177.233 132.886 177.216Z" fill="black"/>
<path d="M161.612 177.216C154.677 177.216 149.24 169.14 149.24 158.83C149.24 148.52 154.677 140.451 161.612 140.451C168.548 140.451 174.034 148.528 174.034 158.83C174.002 159.313 173.788 159.766 173.435 160.097C173.082 160.428 172.617 160.612 172.133 160.612C171.65 160.612 171.184 160.428 170.831 160.097C170.478 159.766 170.264 159.313 170.233 158.83C170.233 150.932 166.309 144.249 161.653 144.249C156.997 144.249 153.073 150.932 153.073 158.83C153.073 166.727 157.005 173.41 161.653 173.41C162.136 173.442 162.588 173.656 162.919 174.01C163.249 174.363 163.433 174.829 163.433 175.313C163.433 175.798 163.249 176.264 162.919 176.617C162.588 176.971 162.136 177.185 161.653 177.216H161.612Z" fill="black"/>
<path d="M190.314 177.216C183.371 177.216 177.933 169.14 177.933 158.83C177.933 148.52 183.371 140.451 190.314 140.451C197.257 140.451 202.687 148.528 202.687 158.83C202.687 159.333 202.487 159.816 202.131 160.173C201.776 160.529 201.293 160.729 200.79 160.729C200.287 160.729 199.805 160.529 199.449 160.173C199.093 159.816 198.893 159.333 198.893 158.83C198.893 150.932 194.962 144.249 190.314 144.249C185.666 144.249 181.734 150.932 181.734 158.83C181.734 166.727 185.666 173.41 190.314 173.41C190.797 173.442 191.249 173.656 191.58 174.01C191.91 174.363 192.094 174.829 192.094 175.313C192.094 175.798 191.91 176.264 191.58 176.617C191.249 176.971 190.797 177.185 190.314 177.216Z" fill="black"/>
<path d="M219.064 177.216C212.121 177.216 206.683 169.14 206.683 158.83C206.683 148.52 212.121 140.451 219.064 140.451C226.008 140.451 231.437 148.528 231.437 158.83C231.437 159.333 231.237 159.816 230.882 160.173C230.526 160.529 230.044 160.729 229.541 160.729C229.038 160.729 228.555 160.529 228.199 160.173C227.844 159.816 227.644 159.333 227.644 158.83C227.644 150.932 223.712 144.249 219.064 144.249C214.416 144.249 210.485 150.932 210.485 158.83C210.485 166.727 214.408 173.41 219.064 173.41C219.547 173.442 220 173.656 220.33 174.01C220.661 174.363 220.845 174.829 220.845 175.313C220.845 175.798 220.661 176.264 220.33 176.617C220 176.971 219.547 177.185 219.064 177.216Z" fill="black"/>
<path d="M247.782 177.216C240.847 177.216 235.41 169.14 235.41 158.83C235.41 148.52 240.847 140.451 247.782 140.451C254.718 140.451 260.163 148.528 260.163 158.83C260.132 159.313 259.918 159.766 259.565 160.097C259.212 160.428 258.746 160.612 258.263 160.612C257.779 160.612 257.313 160.428 256.96 160.097C256.608 159.766 256.394 159.313 256.362 158.83C256.362 150.932 252.438 144.249 247.782 144.249C243.126 144.249 239.203 150.932 239.203 158.83C239.203 166.727 243.134 173.41 247.782 173.41C248.042 173.393 248.303 173.43 248.549 173.518C248.794 173.606 249.019 173.743 249.209 173.921C249.399 174.1 249.551 174.315 249.654 174.555C249.758 174.794 249.812 175.052 249.812 175.313C249.812 175.574 249.758 175.832 249.654 176.072C249.551 176.311 249.399 176.527 249.209 176.705C249.019 176.884 248.794 177.021 248.549 177.109C248.303 177.197 248.042 177.233 247.782 177.216Z" fill="black"/>
<path d="M276.508 177.216C269.573 177.216 264.136 169.14 264.136 158.83C264.136 148.52 269.573 140.451 276.508 140.451C283.444 140.451 288.889 148.528 288.889 158.83C288.858 159.313 288.644 159.766 288.291 160.097C287.938 160.428 287.472 160.612 286.989 160.612C286.505 160.612 286.04 160.428 285.687 160.097C285.334 159.766 285.12 159.313 285.088 158.83C285.088 150.932 281.156 144.249 276.508 144.249C271.86 144.249 267.929 150.932 267.929 158.83C267.929 166.727 271.86 173.41 276.508 173.41C276.991 173.442 277.444 173.656 277.774 174.01C278.105 174.363 278.289 174.829 278.289 175.313C278.289 175.798 278.105 176.264 277.774 176.617C277.444 176.971 276.991 177.185 276.508 177.216Z" fill="black"/>
</g>
<path d="M220.985 218.766C214.343 217.446 206.887 218.986 204.225 225.995C202.084 231.635 204.828 237.748 210.737 239.239C215.947 240.551 224.933 238.946 226.789 232.931C228.914 226.052 220.277 223.819 215.434 223.411C213.977 223.289 213.985 225.571 215.434 225.693C217.64 225.881 220.163 226.003 222.117 227.218C226.187 229.769 224.51 233.86 221.042 235.816C217.575 237.772 212.259 238.261 208.832 236.093C205.088 233.705 204.966 228.456 207.204 225.033C210.143 220.51 215.507 220.005 220.342 220.958C221.775 221.243 222.386 219.043 220.945 218.758L220.985 218.766Z" fill="#45BD43"/>
<path opacity="0.1" d="M220.985 218.766C214.343 217.446 206.887 218.986 204.225 225.995C202.084 231.635 204.828 237.748 210.737 239.239C215.947 240.551 224.933 238.946 226.789 232.931C228.914 226.052 220.277 223.819 215.434 223.411C213.977 223.289 213.985 225.571 215.434 225.693C217.64 225.881 220.163 226.003 222.117 227.218C226.187 229.769 224.51 233.86 221.042 235.816C217.575 237.772 212.259 238.261 208.832 236.093C205.088 233.705 204.966 228.456 207.204 225.033C210.143 220.51 215.507 220.005 220.342 220.958C221.775 221.243 222.386 219.043 220.945 218.758L220.985 218.766Z" fill="#FAFAFA"/>
<path d="M147.701 192.514C154.053 200.946 161.135 208.8 168.865 215.987C169.939 216.989 171.559 215.375 170.493 214.357C162.896 207.312 155.931 199.613 149.679 191.349C148.808 190.191 146.83 191.349 147.717 192.498L147.701 192.514Z" fill="#45BD43"/>
<path d="M150.053 215.033C154.856 206.484 163.265 199.189 171.217 193.606C172.406 192.791 171.274 190.786 170.07 191.634C161.8 197.453 153.106 204.968 148.092 213.876C147.954 214.135 147.922 214.438 148.002 214.721C148.081 215.004 148.267 215.245 148.52 215.394C148.773 215.543 149.073 215.589 149.359 215.521C149.645 215.454 149.893 215.279 150.053 215.033Z" fill="#45BD43"/>
<g opacity="0.2">
<path d="M147.701 192.514C154.053 200.946 161.135 208.8 168.865 215.987C169.939 216.989 171.559 215.375 170.493 214.357C162.896 207.312 155.931 199.613 149.679 191.349C148.808 190.191 146.83 191.349 147.717 192.498L147.701 192.514Z" fill="black"/>
<path d="M150.053 215.033C154.856 206.484 163.265 199.189 171.217 193.606C172.406 192.791 171.274 190.786 170.07 191.634C161.8 197.453 153.106 204.968 148.092 213.876C147.954 214.135 147.922 214.438 148.002 214.721C148.081 215.004 148.267 215.245 148.52 215.394C148.773 215.543 149.073 215.589 149.359 215.521C149.645 215.454 149.893 215.279 150.053 215.033Z" fill="black"/>
</g>
<path d="M238.234 199.809H253.09C253.374 199.784 253.639 199.654 253.833 199.444C254.026 199.233 254.133 198.958 254.133 198.672C254.133 198.386 254.026 198.11 253.833 197.9C253.639 197.689 253.374 197.559 253.09 197.535H238.234C237.95 197.559 237.684 197.689 237.491 197.9C237.298 198.11 237.191 198.386 237.191 198.672C237.191 198.958 237.298 199.233 237.491 199.444C237.684 199.654 237.95 199.784 238.234 199.809Z" fill="#45BD43"/>
<path d="M238.063 204.038H246.675C246.978 204.038 247.267 203.918 247.481 203.704C247.695 203.49 247.815 203.2 247.815 202.897C247.815 202.595 247.695 202.305 247.481 202.091C247.267 201.877 246.978 201.756 246.675 201.756H238.063C237.761 201.756 237.471 201.877 237.257 202.091C237.044 202.305 236.924 202.595 236.924 202.897C236.924 203.2 237.044 203.49 237.257 203.704C237.471 203.918 237.761 204.038 238.063 204.038Z" fill="#45BD43"/>
<g opacity="0.1">
<path d="M238.234 199.809H253.09C253.374 199.784 253.639 199.654 253.833 199.444C254.026 199.233 254.133 198.958 254.133 198.672C254.133 198.386 254.026 198.11 253.833 197.9C253.639 197.689 253.374 197.559 253.09 197.535H238.234C237.95 197.559 237.684 197.689 237.491 197.9C237.298 198.11 237.191 198.386 237.191 198.672C237.191 198.958 237.298 199.233 237.491 199.444C237.684 199.654 237.95 199.784 238.234 199.809Z" fill="#FAFAFA"/>
<path d="M238.063 204.038H246.675C246.978 204.038 247.267 203.918 247.481 203.704C247.695 203.49 247.815 203.2 247.815 202.897C247.815 202.595 247.695 202.305 247.481 202.091C247.267 201.877 246.978 201.756 246.675 201.756H238.063C237.761 201.756 237.471 201.877 237.257 202.091C237.044 202.305 236.924 202.595 236.924 202.897C236.924 203.2 237.044 203.49 237.257 203.704C237.471 203.918 237.761 204.038 238.063 204.038Z" fill="#FAFAFA"/>
</g>
<path d="M149.256 258.196H161.995C162.297 258.196 162.587 258.076 162.801 257.862C163.014 257.648 163.135 257.358 163.135 257.055C163.135 256.752 163.014 256.462 162.801 256.248C162.587 256.034 162.297 255.914 161.995 255.914H149.256C148.954 255.914 148.664 256.034 148.45 256.248C148.236 256.462 148.116 256.752 148.116 257.055C148.116 257.358 148.236 257.648 148.45 257.862C148.664 258.076 148.954 258.196 149.256 258.196Z" fill="#45BD43"/>
<path d="M148.8 263.094H165.324C165.626 263.094 165.916 262.974 166.13 262.76C166.344 262.546 166.464 262.256 166.464 261.953C166.464 261.651 166.344 261.36 166.13 261.146C165.916 260.932 165.626 260.812 165.324 260.812H148.8C148.498 260.812 148.208 260.932 147.994 261.146C147.78 261.36 147.66 261.651 147.66 261.953C147.66 262.256 147.78 262.546 147.994 262.76C148.208 262.974 148.498 263.094 148.8 263.094Z" fill="#45BD43"/>
<path d="M148.8 268.139H157.062C157.364 268.139 157.654 268.019 157.868 267.805C158.082 267.591 158.202 267.301 158.202 266.998C158.202 266.696 158.082 266.405 157.868 266.191C157.654 265.977 157.364 265.857 157.062 265.857H148.8C148.498 265.857 148.208 265.977 147.994 266.191C147.78 266.405 147.66 266.696 147.66 266.998C147.66 267.301 147.78 267.591 147.994 267.805C148.208 268.019 148.498 268.139 148.8 268.139Z" fill="#45BD43"/>
<g opacity="0.1">
<path d="M149.256 258.196H161.995C162.297 258.196 162.587 258.076 162.801 257.862C163.014 257.648 163.135 257.358 163.135 257.055C163.135 256.752 163.014 256.462 162.801 256.248C162.587 256.034 162.297 255.914 161.995 255.914H149.256C148.954 255.914 148.664 256.034 148.45 256.248C148.236 256.462 148.116 256.752 148.116 257.055C148.116 257.358 148.236 257.648 148.45 257.862C148.664 258.076 148.954 258.196 149.256 258.196Z" fill="#FAFAFA"/>
<path d="M148.8 263.094H165.324C165.626 263.094 165.916 262.974 166.13 262.76C166.344 262.546 166.464 262.256 166.464 261.953C166.464 261.651 166.344 261.36 166.13 261.146C165.916 260.932 165.626 260.812 165.324 260.812H148.8C148.498 260.812 148.208 260.932 147.994 261.146C147.78 261.36 147.66 261.651 147.66 261.953C147.66 262.256 147.78 262.546 147.994 262.76C148.208 262.974 148.498 263.094 148.8 263.094Z" fill="#FAFAFA"/>
<path d="M148.8 268.139H157.062C157.364 268.139 157.654 268.019 157.868 267.805C158.082 267.591 158.202 267.301 158.202 266.998C158.202 266.696 158.082 266.405 157.868 266.191C157.654 265.977 157.364 265.857 157.062 265.857H148.8C148.498 265.857 148.208 265.977 147.994 266.191C147.78 266.405 147.66 266.696 147.66 266.998C147.66 267.301 147.78 267.591 147.994 267.805C148.208 268.019 148.498 268.139 148.8 268.139Z" fill="#FAFAFA"/>
</g>
<path d="M59.4146 130.231L63.2648 130.06L61.5229 137.395C60.1488 136.453 58.8966 135.344 57.7948 134.094C57.477 133.72 57.3193 133.236 57.3559 132.746C57.3925 132.256 57.6203 131.801 57.9901 131.478L59.4146 130.231Z" fill="#E4897B"/>
<path d="M67.7337 134.013L66.008 139.979L61.5228 137.379L63.2648 130.06L67.7337 134.013Z" fill="#E4897B"/>
<path d="M66.9745 98.5953L59.0961 99.3257L77.1654 294.721L85.0438 293.99L66.9745 98.5953Z" fill="#45BD43"/>
<path opacity="0.3" d="M66.9745 98.5953L59.0961 99.3257L77.1654 294.721L85.0438 293.99L66.9745 98.5953Z" fill="black"/>
<path d="M82.7348 97.1305L74.8564 97.8608L92.9258 293.256L100.804 292.525L82.7348 97.1305Z" fill="#45BD43"/>
<path opacity="0.3" d="M82.7348 97.1305L74.8564 97.8608L92.9258 293.256L100.804 292.525L82.7348 97.1305Z" fill="black"/>
<path d="M74.8587 97.8629L66.9803 98.5933L85.0497 293.988L92.9281 293.258L74.8587 97.8629Z" fill="#45BD43"/>
<path opacity="0.1" d="M74.8587 97.8629L66.9803 98.5933L85.0497 293.988L92.9281 293.258L74.8587 97.8629Z" fill="black"/>
<path d="M73.1956 84.199L66.1057 84.8591L59.0972 99.3256L82.7357 97.1332L73.1956 84.199Z" fill="#45BD43"/>
<g opacity="0.8">
<path d="M73.1956 84.199L66.1057 84.8591L59.0972 99.3256L82.7357 97.1332L73.1956 84.199Z" fill="#FAFAFA"/>
</g>
<path d="M69.1094 78.657L66.1057 84.8592L73.1957 84.1991L69.1094 78.657Z" fill="#263238"/>
<path d="M128.678 89.7004C129.492 90.5155 130.168 91.2897 130.868 92.1455C131.568 93.0012 132.235 93.7755 132.903 94.5905C134.246 96.2205 135.499 97.9402 136.72 99.6925C139.237 103.255 141.361 107.081 143.053 111.103C143.257 111.624 143.444 112.17 143.639 112.733L143.932 113.548C144.094 114.036 144.208 114.538 144.274 115.047C144.451 116.669 144.236 118.31 143.647 119.831C142.769 122.077 141.538 124.168 140.001 126.026C137.283 129.356 134.154 132.327 130.688 134.868L127.62 131.608C130.035 128.585 132.243 125.402 134.229 122.081C135.1 120.662 135.768 119.129 136.216 117.525C136.339 117.131 136.353 116.712 136.256 116.311L135.979 115.708C135.792 115.308 135.629 114.893 135.426 114.501C133.703 111.154 131.687 107.965 129.402 104.974C128.263 103.417 127.058 101.901 125.837 100.385C125.227 99.6355 124.608 98.8856 123.973 98.1521L122.117 96.0086L128.678 89.7004Z" fill="#E4897B"/>
<path d="M122.695 134.094L126.163 140.965L129.557 138.039L126.773 133.157L122.695 134.094Z" fill="#E4897B"/>
<path d="M96.5737 93.7265C94.4627 97.7527 92.2704 101.733 89.9966 105.666C88.8814 107.647 87.7092 109.595 86.5696 111.559L84.8195 114.493L84.38 115.227C84.1602 115.577 83.916 115.993 83.6962 116.27C83.4764 116.547 83.2567 116.881 83.045 117.134C82.8334 117.386 82.6055 117.672 82.3938 117.908C80.7495 119.701 78.999 121.394 77.1517 122.977C75.369 124.501 73.5863 125.985 71.7467 127.395C68.1081 130.239 64.3719 132.888 60.4972 135.414L57.7052 131.894L67.3511 122.382C68.9303 120.752 70.5257 119.22 72.0316 117.606C73.5112 116.088 74.9053 114.488 76.2074 112.814C76.3648 112.619 76.5032 112.431 76.6226 112.252C76.7609 112.056 76.8586 111.893 76.9563 111.73C77.0405 111.599 77.1166 111.463 77.1842 111.323L77.5587 110.565L79.0646 107.492C80.0983 105.463 81.1077 103.417 82.1578 101.404C84.2362 97.3452 86.4068 93.3326 88.6698 89.3662L96.5737 93.7265Z" fill="#E4897B"/>
<path d="M119.423 66.1953C119.317 66.668 119.488 67.1163 119.789 67.1978C120.09 67.2793 120.424 66.9533 120.53 66.4806C120.636 66.0078 120.456 65.5596 120.155 65.4781C119.854 65.3966 119.496 65.7226 119.423 66.1953Z" fill="#263238"/>
<path d="M119.439 67.1082C119.694 68.6978 120.159 70.2464 120.823 71.713C120.448 71.8615 120.046 71.926 119.643 71.9021C119.241 71.8781 118.849 71.7663 118.495 71.5744L119.439 67.1082Z" fill="#DE5753"/>
<path d="M120.668 63.3266C120.61 63.3268 120.554 63.3098 120.505 63.2777C120.205 63.0937 119.864 62.9857 119.512 62.963C119.16 62.9403 118.808 63.0035 118.487 63.1473C118.416 63.1747 118.338 63.174 118.268 63.1451C118.199 63.1163 118.143 63.0616 118.112 62.9925C118.085 62.922 118.086 62.8438 118.114 62.7739C118.143 62.7041 118.198 62.6481 118.267 62.6176C118.678 62.4407 119.126 62.3661 119.573 62.4001C120.019 62.4342 120.451 62.5759 120.831 62.8132C120.862 62.8336 120.888 62.8601 120.909 62.8911C120.929 62.922 120.943 62.9567 120.95 62.9932C120.957 63.0297 120.957 63.0672 120.949 63.1035C120.941 63.1398 120.926 63.1741 120.904 63.2044C120.878 63.2424 120.842 63.2734 120.801 63.2947C120.76 63.316 120.714 63.327 120.668 63.3266Z" fill="#263238"/>
<path d="M102.956 67.9966C103.981 72.3814 105.145 80.4011 102.198 83.327C102.198 83.327 103.566 87.7688 111.698 87.7688C120.652 87.7688 115.768 83.327 115.768 83.327C110.843 82.1615 110.827 78.5347 111.543 75.1361L102.956 67.9966Z" fill="#E4897B"/>
<path d="M101.091 84.851C100.391 83.4492 99.6262 81.8354 101.091 81.3301C102.671 80.7759 111.437 80.2136 114.506 81.2486C115.324 81.4677 116.024 81.9969 116.459 82.7241C116.893 83.4513 117.028 84.3194 116.834 85.1444L101.091 84.851Z" fill="#45BD43"/>
<path opacity="0.6" d="M101.091 84.851C100.391 83.4492 99.6262 81.8354 101.091 81.3301C102.671 80.7759 111.437 80.2136 114.506 81.2486C115.324 81.4677 116.024 81.9969 116.459 82.7241C116.893 83.4513 117.028 84.3194 116.834 85.1444L101.091 84.851Z" fill="#FAFAFA"/>
<path d="M89.3779 289.33C88.8524 289.327 88.3287 289.27 87.815 289.159C87.7887 289.154 87.7643 289.141 87.7454 289.122C87.7265 289.103 87.7138 289.079 87.7092 289.053C87.7038 289.025 87.7063 288.997 87.7164 288.971C87.7265 288.945 87.7437 288.922 87.7662 288.906C87.8313 288.857 89.3942 287.732 90.3059 287.928C90.4044 287.945 90.4978 287.984 90.5794 288.042C90.6611 288.1 90.7289 288.175 90.778 288.262C90.8513 288.359 90.8909 288.478 90.8909 288.6C90.8909 288.722 90.8513 288.841 90.778 288.938C90.5826 289.256 89.9884 289.33 89.3779 289.33ZM88.2139 288.955C89.1093 289.101 90.3303 289.101 90.5745 288.767C90.5745 288.767 90.6722 288.637 90.5338 288.401C90.504 288.349 90.4629 288.304 90.4136 288.27C90.3643 288.236 90.308 288.214 90.2489 288.205C89.5097 288.253 88.8014 288.519 88.2139 288.971V288.955Z" fill="#FAFAFA"/>
<path d="M87.8477 289.183H87.7744C87.7532 289.171 87.7358 289.153 87.7243 289.131C87.7128 289.11 87.7076 289.085 87.7093 289.061C87.7093 288.987 87.7826 287.26 88.4582 286.689C88.5392 286.616 88.635 286.562 88.7389 286.53C88.8429 286.497 88.9526 286.488 89.0605 286.502C89.1703 286.502 89.2767 286.54 89.3613 286.61C89.446 286.68 89.5037 286.777 89.5245 286.885C89.6548 287.553 88.5152 288.857 87.8965 289.191L87.8477 289.183ZM88.9629 286.738C88.8458 286.739 88.7332 286.783 88.6454 286.86C88.2461 287.408 88.0245 288.065 88.0105 288.743C88.5966 288.278 89.321 287.292 89.2478 286.901C89.2478 286.86 89.2478 286.762 89.028 286.738H88.9629Z" fill="#FAFAFA"/>
<path d="M125.292 289.33C124.674 289.33 124.059 289.272 123.452 289.159C123.424 289.154 123.397 289.14 123.377 289.12C123.356 289.099 123.343 289.073 123.338 289.045C123.334 289.016 123.337 288.988 123.349 288.962C123.36 288.935 123.379 288.913 123.403 288.898C123.704 288.727 126.358 287.203 127.001 288.254C127.066 288.346 127.1 288.455 127.1 288.568C127.1 288.68 127.066 288.79 127.001 288.882C126.822 289.24 126.057 289.33 125.292 289.33ZM123.9 288.947C125.023 289.11 126.537 289.085 126.798 288.719C126.798 288.719 126.879 288.604 126.757 288.401C126.399 287.822 124.787 288.515 123.9 288.963V288.947Z" fill="#FAFAFA"/>
<path d="M123.476 289.183C123.45 289.19 123.422 289.19 123.395 289.183C123.375 289.169 123.359 289.149 123.349 289.126C123.338 289.103 123.335 289.078 123.338 289.053C123.338 288.988 123.436 287.374 124.152 286.746C124.261 286.647 124.39 286.573 124.531 286.531C124.672 286.488 124.821 286.479 124.966 286.502C125.365 286.543 125.479 286.746 125.503 286.909C125.617 287.602 124.258 288.865 123.542 289.191L123.476 289.183ZM124.844 286.738C124.663 286.736 124.488 286.803 124.356 286.926C123.928 287.45 123.679 288.099 123.647 288.776C124.364 288.336 125.275 287.333 125.218 286.917C125.218 286.877 125.218 286.771 124.925 286.738H124.844Z" fill="#FAFAFA"/>
<path d="M116.899 289.036H122.882L122.939 275.173H116.964L116.899 289.036Z" fill="#E4897B"/>
<path d="M80.9938 289.036H86.9767L89.4512 275.173H83.4683L80.9938 289.036Z" fill="#E4897B"/>
<path d="M87.3756 288.344H80.6601C80.5414 288.342 80.426 288.383 80.3349 288.459C80.2438 288.535 80.183 288.642 80.1635 288.759L79.1867 294.081C79.1667 294.213 79.1755 294.348 79.2127 294.476C79.2498 294.605 79.3144 294.723 79.4019 294.824C79.4894 294.925 79.5977 295.005 79.7194 295.06C79.8411 295.115 79.9732 295.142 80.1066 295.141C82.4509 295.1 83.5823 294.961 86.5372 294.961C88.3524 294.961 92.1049 295.157 94.6202 295.157C97.1354 295.157 97.3552 292.712 96.3214 292.443C91.6735 291.432 89.8827 290.039 88.3605 288.718C88.0888 288.478 87.7386 288.344 87.3756 288.344Z" fill="#263238"/>
<path d="M122.817 288.344H116.305C116.186 288.342 116.071 288.383 115.98 288.459C115.889 288.535 115.828 288.642 115.809 288.759L114.832 294.081C114.809 294.212 114.815 294.347 114.85 294.475C114.886 294.603 114.948 294.722 115.035 294.824C115.121 294.925 115.229 295.006 115.35 295.06C115.471 295.115 115.602 295.143 115.735 295.141C118.088 295.1 121.482 294.961 124.445 294.961C127.913 294.961 130.908 295.157 134.97 295.157C137.412 295.157 138.006 292.712 136.973 292.443C132.251 291.416 128.426 291.31 124.29 288.816C123.853 288.524 123.343 288.36 122.817 288.344Z" fill="#263238"/>
<path d="M90.7943 84.6798C85.2347 85.9676 79.3983 101.265 79.3983 101.265L90.949 108.992C93.6009 104.966 95.9255 100.733 97.9005 96.3345C100.953 89.3336 96.4679 83.3677 90.7943 84.6798Z" fill="#45BD43"/>
<path opacity="0.7" d="M90.7943 84.6798C85.2347 85.9676 79.3983 101.265 79.3983 101.265L90.949 108.992C93.6009 104.966 95.9255 100.733 97.9005 96.3345C100.953 89.3336 96.4679 83.3677 90.7943 84.6798Z" fill="black"/>
<path d="M95.1818 94.4355L90.4036 108.625L90.9489 108.992C90.9489 108.992 93.1305 105.732 95.4504 101.388L95.1818 94.4355Z" fill="#45BD43"/>
<path opacity="0.8" d="M95.1818 94.4355L90.4036 108.625L90.9489 108.992C90.9489 108.992 93.1305 105.732 95.4504 101.388L95.1818 94.4355Z" fill="black"/>
<path d="M128.1 111.429C128.051 118.112 127.652 126.425 126.659 136.743H94.6689C94.2538 131.853 96.4191 107.843 90.7943 84.68C94.3128 83.9971 97.8722 83.5452 101.45 83.3271C105.977 83.0661 110.516 83.0661 115.043 83.3271C118.166 83.631 121.26 84.176 124.299 84.9571C124.299 84.9571 127.034 87.9237 127.864 101.836C128.027 104.615 128.116 107.777 128.1 111.429Z" fill="#45BD43"/>
<path opacity="0.7" d="M128.1 111.429C128.051 118.112 127.652 126.425 126.659 136.743H94.6689C94.2538 131.853 96.4191 107.843 90.7943 84.68C94.3128 83.9971 97.8722 83.5452 101.45 83.3271C105.977 83.0661 110.516 83.0661 115.043 83.3271C118.166 83.631 121.26 84.176 124.299 84.9571C124.299 84.9571 127.034 87.9237 127.864 101.836C128.027 104.615 128.116 107.777 128.1 111.429Z" fill="black"/>
<path d="M128.1 111.429C126.163 107.891 122.646 100.793 123.143 96.7583L127.864 101.877C128.027 104.615 128.116 107.777 128.1 111.429Z" fill="#45BD43"/>
<path opacity="0.8" d="M128.1 111.429C126.163 107.891 122.646 100.793 123.143 96.7583L127.864 101.877C128.027 104.615 128.116 107.777 128.1 111.429Z" fill="black"/>
<path d="M118.031 90.4012C117.526 96.1063 130.444 109.831 130.444 109.831L140.798 101.388C138.086 96.8055 134.837 92.5646 131.12 88.7548C125.064 82.8949 118.601 84.0115 118.031 90.4012Z" fill="#45BD43"/>
<path opacity="0.7" d="M118.031 90.4012C117.526 96.1063 130.444 109.831 130.444 109.831L140.798 101.388C138.086 96.8055 134.837 92.5646 131.12 88.7548C125.064 82.8949 118.601 84.0115 118.031 90.4012Z" fill="black"/>
<path d="M122.939 275.181L122.907 282.321H116.932L116.956 275.181H122.939Z" fill="#CE6F64"/>
<path d="M83.4683 275.181H89.4512L88.1732 282.321H82.1903L83.4683 275.181Z" fill="#CE6F64"/>
<path d="M104.03 61.2481C103.159 67.1488 102.353 70.5393 104.616 74.2884C105.335 75.5025 106.373 76.4963 107.616 77.1622C108.859 77.8281 110.261 78.1406 111.669 78.0659C113.077 77.9912 114.437 77.532 115.603 76.7383C116.769 75.9446 117.696 74.8465 118.283 73.563C120.619 68.6729 121.661 59.8382 116.525 56.1054C115.441 55.2675 114.156 54.7301 112.799 54.5473C111.442 54.3644 110.061 54.5426 108.794 55.0639C107.528 55.5852 106.421 56.4311 105.584 57.5167C104.748 58.6023 104.212 59.8893 104.03 61.2481Z" fill="#E4897B"/>
<path d="M121.734 58.4528C119.973 59.4161 118.034 60.0122 116.036 60.205C114.547 67.0267 110.583 74.8753 104.168 72.6177C101.726 71.8027 99.2843 65.8775 99.032 60.6207C98.6087 61.1342 98.3238 61.8025 98.104 62.0796C97.7379 59.7433 98.0021 57.3516 98.8692 55.1519C100.644 50.1152 101.824 53.4567 103.753 50.4004C104.999 48.3792 107.213 47.336 111.079 47.2056C109.997 47.7679 109.793 48.6726 111.397 48.5422C113 48.4118 119.846 48.0369 123.835 50.7346C121.14 51.3458 122.784 55.6247 126.382 53.3426C125.072 55.4698 123.444 57.491 121.734 58.4528Z" fill="#263238"/>
<path d="M111.429 64.8995C111.452 66.4 111.954 67.8538 112.862 69.0479C114.075 70.6127 115.467 69.8629 115.8 68.1025C116.093 66.5376 115.8 63.8318 114.286 62.8864C112.772 61.941 111.421 63.1064 111.429 64.8995Z" fill="#E4897B"/>
<path d="M104.136 51.0361C103.323 50.9845 102.536 50.7348 101.842 50.3086C101.148 49.8824 100.569 49.2928 100.155 48.5911C100.155 48.5911 100.049 53.367 104.136 51.0361Z" fill="#1E2A4C"/>
<path d="M115.304 136.743C115.304 136.743 110.29 182.498 107.221 199.638C103.867 218.383 90.9408 280.943 90.9408 280.943H79.9518C79.9518 280.943 87.7499 219.923 89.3779 201.308C91.128 181.137 94.7015 136.71 94.7015 136.71L115.304 136.743Z" fill="#45BD43"/>
<path opacity="0.6" d="M115.304 136.743C115.304 136.743 110.29 182.498 107.221 199.638C103.867 218.383 90.9408 280.943 90.9408 280.943H79.9518C79.9518 280.943 87.7499 219.923 89.3779 201.308C91.128 181.137 94.7015 136.71 94.7015 136.71L115.304 136.743Z" fill="#FAFAFA"/>
<path d="M92.4955 276.901C92.5444 276.901 91.5269 281.115 91.5269 281.115H79.2111L79.2925 277.357L92.4955 276.901Z" fill="#45BD43"/>
<path opacity="0.1" d="M92.4955 276.901C92.5444 276.901 91.5269 281.115 91.5269 281.115H79.2111L79.2925 277.357L92.4955 276.901Z" fill="#FAFAFA"/>
<path d="M111.649 153.043C103.859 154.583 105.821 183.883 107.343 198.953C109.199 188.301 111.722 167.803 113.423 153.255C112.873 152.986 112.247 152.912 111.649 153.043Z" fill="#45BD43"/>
<path opacity="0.4" d="M111.649 153.043C103.859 154.583 105.821 183.883 107.343 198.953C109.199 188.301 111.722 167.803 113.423 153.255C112.873 152.986 112.247 152.912 111.649 153.043Z" fill="#FAFAFA"/>
<path d="M126.651 136.743C126.651 136.743 129.207 181.503 129.256 199.768C129.313 218.758 125.088 280.943 125.088 280.943H114.954C114.954 280.943 112.227 219.866 111.055 201.219C109.785 180.884 105.625 136.743 105.625 136.743H126.651Z" fill="#45BD43"/>
<path opacity="0.6" d="M126.651 136.743C126.651 136.743 129.207 181.503 129.256 199.768C129.313 218.758 125.088 280.943 125.088 280.943H114.954C114.954 280.943 112.227 219.866 111.055 201.219C109.785 180.884 105.625 136.743 105.625 136.743H126.651Z" fill="#FAFAFA"/>
<path d="M129.101 130.989L126.26 131.217C126.029 131.237 125.805 131.307 125.604 131.425C125.403 131.542 125.231 131.702 125.1 131.894C124.969 132.086 124.883 132.305 124.847 132.535C124.811 132.764 124.827 132.999 124.893 133.222L126.065 137.175C126.164 137.496 126.339 137.789 126.575 138.028C126.811 138.266 127.101 138.445 127.421 138.547C127.741 138.65 128.081 138.673 128.411 138.616C128.742 138.559 129.054 138.422 129.321 138.218C130.788 136.851 131.841 135.096 132.357 133.157L129.101 130.989Z" fill="#E4897B"/>
<path d="M122.687 273.657C122.659 273.653 122.635 273.639 122.617 273.618C122.599 273.597 122.589 273.571 122.589 273.543C123.712 256.338 126.317 214.699 126.268 199.768C126.268 184.486 124.412 150.305 123.826 140.19C123.825 140.177 123.827 140.163 123.831 140.15C123.836 140.138 123.843 140.126 123.852 140.116C123.861 140.106 123.872 140.098 123.885 140.093C123.897 140.087 123.911 140.084 123.924 140.084C123.951 140.084 123.977 140.094 123.996 140.113C124.016 140.131 124.028 140.156 124.03 140.182C124.583 150.297 126.399 184.478 126.472 199.768C126.521 214.707 123.916 256.346 122.793 273.559C122.793 273.573 122.79 273.586 122.784 273.599C122.779 273.611 122.771 273.622 122.761 273.631C122.751 273.641 122.739 273.648 122.727 273.652C122.714 273.656 122.7 273.658 122.687 273.657Z" fill="#45BD43"/>
<path opacity="0.3" d="M122.687 273.657C122.659 273.653 122.635 273.639 122.617 273.618C122.599 273.597 122.589 273.571 122.589 273.543C123.712 256.338 126.317 214.699 126.268 199.768C126.268 184.486 124.412 150.305 123.826 140.19C123.825 140.177 123.827 140.163 123.831 140.15C123.836 140.138 123.843 140.126 123.852 140.116C123.861 140.106 123.872 140.098 123.885 140.093C123.897 140.087 123.911 140.084 123.924 140.084C123.951 140.084 123.977 140.094 123.996 140.113C124.016 140.131 124.028 140.156 124.03 140.182C124.583 150.297 126.399 184.478 126.472 199.768C126.521 214.707 123.916 256.346 122.793 273.559C122.793 273.573 122.79 273.586 122.784 273.599C122.779 273.611 122.771 273.622 122.761 273.631C122.751 273.641 122.739 273.648 122.727 273.652C122.714 273.656 122.7 273.658 122.687 273.657Z" fill="#FAFAFA"/>
<path d="M126.879 276.901C126.928 276.901 126.472 281.115 126.472 281.115H114.148L113.668 277.357L126.879 276.901Z" fill="#45BD43"/>
<path opacity="0.1" d="M126.879 276.901C126.928 276.901 126.472 281.115 126.472 281.115H114.148L113.668 277.357L126.879 276.901Z" fill="#FAFAFA"/>
</g>
<defs>
<clipPath id="clip0_100_12009">
<rect width="407" height="304" fill="white" transform="translate(-14)"/>
</clipPath>
</defs>
</svg>
