<svg width="393" height="364" viewBox="0 0 393 364" fill="none" xmlns="http://www.w3.org/2000/svg">
<g clip-path="url(#clip0_100_12803)">
<path d="M440 319.5H-48V319.744H440V319.5Z" fill="#EBEBEB"/>
<path d="M391.102 335.202H358.777V335.446H391.102V335.202Z" fill="#EBEBEB"/>
<path d="M275.271 337.856H266.789V338.1H275.271V337.856Z" fill="#EBEBEB"/>
<path d="M357.801 326.146H339.072V326.39H357.801V326.146Z" fill="#EBEBEB"/>
<path d="M45.3544 327.785H3.20093V328.029H45.3544V327.785Z" fill="#EBEBEB"/>
<path d="M60.2286 327.785H54.0505V328.029H60.2286V327.785Z" fill="#EBEBEB"/>
<path d="M171.746 331.904H80.3147V332.148H171.746V331.904Z" fill="#EBEBEB"/>
<path d="M183.312 275.976H-5.14383C-6.62018 275.974 -8.03518 275.386 -9.0782 274.341C-10.1212 273.296 -10.707 271.88 -10.707 270.404V5.52343C-10.6942 4.05575 -10.1027 2.6524 -9.06106 1.61821C-8.01943 0.584018 -6.61176 0.00251422 -5.14383 0H183.312C184.79 0 186.208 0.587072 187.253 1.63207C188.298 2.67706 188.885 4.09438 188.885 5.57222V270.404C188.885 271.882 188.298 273.299 187.253 274.344C186.208 275.389 184.79 275.976 183.312 275.976ZM-5.14383 0.195175C-6.55547 0.19776 -7.9084 0.760267 -8.90567 1.75923C-9.90293 2.75819 -10.463 4.11198 -10.463 5.52343V270.404C-10.463 271.816 -9.90293 273.169 -8.90567 274.168C-7.9084 275.167 -6.55547 275.73 -5.14383 275.732H183.312C184.725 275.73 186.079 275.168 187.077 274.169C188.076 273.17 188.638 271.817 188.641 270.404V5.52343C188.638 4.11108 188.076 2.75732 187.077 1.75863C186.079 0.75995 184.725 0.197755 183.312 0.195175H-5.14383Z" fill="#EBEBEB"/>
<path d="M394.431 275.976H205.965C204.488 275.974 203.072 275.386 202.027 274.342C200.983 273.297 200.395 271.881 200.392 270.404V5.52343C200.407 4.05486 201.001 2.65152 202.044 1.6176C203.088 0.583677 204.496 0.0024868 205.965 0H394.431C395.897 0.00507892 397.302 0.587718 398.342 1.62163C399.381 2.65555 399.971 4.05743 399.984 5.52343V270.404C399.984 271.879 399.4 273.293 398.359 274.337C397.318 275.382 395.905 275.971 394.431 275.976ZM205.965 0.195175C204.553 0.197755 203.199 0.75995 202.2 1.75863C201.201 2.75732 200.639 4.11108 200.636 5.52343V270.404C200.639 271.817 201.201 273.17 202.2 274.169C203.199 275.168 204.553 275.73 205.965 275.732H394.431C395.843 275.73 397.197 275.168 398.196 274.169C399.195 273.17 399.757 271.817 399.76 270.404V5.52343C399.757 4.11108 399.195 2.75732 398.196 1.75863C397.197 0.75995 395.843 0.197755 394.431 0.195175H205.965Z" fill="#EBEBEB"/>
<path d="M112.542 10.4907H43.0022V246.369H112.542V10.4907Z" fill="#FAFAFA"/>
<path d="M102.187 10.4907H98.1266L73.873 246.369H77.9332L102.187 10.4907Z" fill="#F5F5F5"/>
<path d="M111.312 11.3982H42.5532V13.4768H111.312V11.3982Z" fill="#E0E0E0"/>
<path d="M111.312 244.3H42.5532V248.75H111.312V244.3Z" fill="#EBEBEB"/>
<path d="M110.171 248.554H45.1982V248.75H110.171V248.554Z" fill="#EBEBEB"/>
<path d="M45.1982 11.3981H110.171V248.554H114.065V8.48022H41.304V248.554H45.1982V11.3981Z" fill="#EBEBEB"/>
<path d="M189.929 10.4907H120.389V246.369H189.929V10.4907Z" fill="#FAFAFA"/>
<path d="M170.634 10.4907H148.469L124.215 246.369H146.38L170.634 10.4907Z" fill="#F5F5F5"/>
<path d="M190.652 11.3982H119.94V13.4768H190.652V11.3982Z" fill="#E0E0E0"/>
<path d="M190.652 244.3H119.94V248.75H190.652V244.3Z" fill="#EBEBEB"/>
<path d="M187.558 248.554H122.585V248.75H187.558V248.554Z" fill="#EBEBEB"/>
<path d="M122.585 11.3981H187.557V248.554H191.442V8.48022H118.691V248.554H122.585V11.3981Z" fill="#EBEBEB"/>
<path d="M265.355 10.4907H197.767V246.369H265.355V10.4907Z" fill="#FAFAFA"/>
<path d="M236.065 10.4907H232.005L207.751 246.369H211.811L236.065 10.4907Z" fill="#F5F5F5"/>
<path d="M266.087 11.3982H197.327V13.4768H266.087V11.3982Z" fill="#E0E0E0"/>
<path d="M266.087 244.3H197.327V248.75H266.087V244.3Z" fill="#EBEBEB"/>
<path d="M264.945 248.554H199.972V248.75H264.945V248.554Z" fill="#EBEBEB"/>
<path d="M199.972 11.3981H264.935V248.554H268.829V8.48022H196.078V248.554H199.972V11.3981Z" fill="#EBEBEB"/>
<path d="M344.694 10.4907H275.154V246.369H344.694V10.4907Z" fill="#FAFAFA"/>
<path d="M337.891 10.4907H315.726L291.463 246.369H313.637L337.891 10.4907Z" fill="#F5F5F5"/>
<path d="M343.464 11.3982H274.705V13.4768H343.464V11.3982Z" fill="#E0E0E0"/>
<path d="M343.464 244.3H274.705V248.75H343.464V244.3Z" fill="#EBEBEB"/>
<path d="M277.35 11.3981H342.322V248.554H346.216V8.48022H273.465V248.554H277.35V11.3981Z" fill="#EBEBEB"/>
<path d="M342.322 248.554H277.35V248.75H342.322V248.554Z" fill="#EBEBEB"/>
<path d="M95.9015 192.11H65.7139V244.309H95.9015V192.11Z" fill="#EBEBEB"/>
<path d="M90.104 184.811V197.907H87.7324H73.8927H71.5112V184.811H90.104Z" fill="#EBEBEB"/>
<path d="M90.104 197.907H93.969V194.042H90.104V197.907Z" fill="#FAFAFA"/>
<path d="M82.6277 197.907H86.4927V194.042H82.6277V197.907Z" fill="#FAFAFA"/>
<path d="M75.1419 197.907H79.0068V194.042H75.1419V197.907Z" fill="#FAFAFA"/>
<path d="M67.656 197.907H71.521V194.042H67.656V197.907Z" fill="#F0F0F0"/>
<path d="M90.104 204.923H93.969V201.059H90.104V204.923Z" fill="#F0F0F0"/>
<path d="M82.6277 204.923H86.4927V201.059H82.6277V204.923Z" fill="#F0F0F0"/>
<path d="M75.1419 204.923H79.0068V201.059H75.1419V204.923Z" fill="#FAFAFA"/>
<path d="M67.656 204.923H71.521V201.059H67.656V204.923Z" fill="#FAFAFA"/>
<path d="M90.104 211.949H93.969V208.085H90.104V211.949Z" fill="#F0F0F0"/>
<path d="M82.6277 211.949H86.4927V208.085H82.6277V211.949Z" fill="#FAFAFA"/>
<path d="M75.1419 211.949H79.0068V208.085H75.1419V211.949Z" fill="#FAFAFA"/>
<path d="M82.6277 191.837H86.4927V187.972H82.6277V191.837Z" fill="#FAFAFA"/>
<path d="M75.1419 191.837H79.0068V187.972H75.1419V191.837Z" fill="#F0F0F0"/>
<path d="M67.656 211.949H71.521V208.085H67.656V211.949Z" fill="#F0F0F0"/>
<path d="M90.104 218.976H93.969V215.111H90.104V218.976Z" fill="#FAFAFA"/>
<path d="M82.6277 218.976H86.4927V215.111H82.6277V218.976Z" fill="#F0F0F0"/>
<path d="M75.1419 218.976H79.0068V215.111H75.1419V218.976Z" fill="#F0F0F0"/>
<path d="M67.656 218.976H71.521V215.111H67.656V218.976Z" fill="#FAFAFA"/>
<path d="M90.104 226.002H93.969V222.138H90.104V226.002Z" fill="#F0F0F0"/>
<path d="M82.6277 226.002H86.4927V222.138H82.6277V226.002Z" fill="#FAFAFA"/>
<path d="M75.1419 226.002H79.0068V222.138H75.1419V226.002Z" fill="#FAFAFA"/>
<path d="M67.656 226.002H71.521V222.138H67.656V226.002Z" fill="#F0F0F0"/>
<path d="M90.104 233.019H93.969V229.154H90.104V233.019Z" fill="#F0F0F0"/>
<path d="M82.6277 233.019H86.4927V229.154H82.6277V233.019Z" fill="#FAFAFA"/>
<path d="M75.1419 233.019H79.0068V229.154H75.1419V233.019Z" fill="#F0F0F0"/>
<path d="M67.656 233.019H71.521V229.154H67.656V233.019Z" fill="#FAFAFA"/>
<path d="M90.104 240.045H93.969V236.18H90.104V240.045Z" fill="#FAFAFA"/>
<path d="M82.6277 240.045H86.4927V236.18H82.6277V240.045Z" fill="#FAFAFA"/>
<path d="M75.1419 240.045H79.0068V236.18H75.1419V240.045Z" fill="#F0F0F0"/>
<path d="M67.656 240.045H71.521V236.18H67.656V240.045Z" fill="#F0F0F0"/>
<path d="M308.572 211.12H281.527V244.3H308.572V211.12Z" fill="#F0F0F0"/>
<path d="M283.879 214.809H290.165H291.902H293.629V218.263H291.902H290.165H283.879V214.809Z" fill="#E6E6E6"/>
<path d="M283.879 221.513H290.165H291.902H293.629V224.977H291.902H290.165H283.879V221.513Z" fill="#FAFAFA"/>
<path d="M283.879 228.217H290.165H291.902H293.629V231.682H291.902H290.165H283.879V228.217Z" fill="#E6E6E6"/>
<path d="M283.879 234.922H290.165H292.839H293.629V238.386H292.839H290.165H283.879V234.922Z" fill="#FAFAFA"/>
<path d="M296.46 214.809H302.755H304.482H306.21V218.263H304.482H302.755H296.46V214.809Z" fill="#FAFAFA"/>
<path d="M296.46 221.513H302.755H305.195H306.21V224.977H305.195H302.755H296.46V221.513Z" fill="#FAFAFA"/>
<path d="M296.46 228.217H302.755H304.482H306.21V231.682H304.482H302.755H296.46V228.217Z" fill="#E6E6E6"/>
<path d="M296.46 234.922H302.755H304.482H306.21V238.386H304.482H302.755H296.46V234.922Z" fill="#FAFAFA"/>
<path d="M178.247 223.689H153.671V244.309H178.247V223.689Z" fill="#F0F0F0"/>
<path d="M173.533 229.408H176.675V226.265H173.533V229.408Z" fill="#FAFAFA"/>
<path d="M167.442 229.408H170.585V226.265H167.442V229.408Z" fill="#FAFAFA"/>
<path d="M161.342 229.408H164.485V226.265H161.342V229.408Z" fill="#FAFAFA"/>
<path d="M155.252 229.408H158.395V226.265H155.252V229.408Z" fill="#FAFAFA"/>
<path d="M173.533 235.117H176.675V231.974H173.533V235.117Z" fill="#FAFAFA"/>
<path d="M167.442 235.117H170.585V231.974H167.442V235.117Z" fill="#FAFAFA"/>
<path d="M161.342 235.117H164.485V231.974H161.342V235.117Z" fill="#FAFAFA"/>
<path d="M155.252 235.117H158.395V231.974H155.252V235.117Z" fill="#E6E6E6"/>
<path d="M173.533 240.835H176.675V237.693H173.533V240.835Z" fill="#E6E6E6"/>
<path d="M167.442 240.835H170.585V237.693H167.442V240.835Z" fill="#E6E6E6"/>
<path d="M161.342 240.835H164.485V237.693H161.342V240.835Z" fill="#FAFAFA"/>
<path d="M155.252 240.835H158.395V237.693H155.252V240.835Z" fill="#E6E6E6"/>
<path d="M150.343 208.446H125.767V244.309H150.343V208.446Z" fill="#F0F0F0"/>
<path d="M148.771 210.017H139.529V218.878H148.771V210.017Z" fill="#FAFAFA"/>
<path d="M136.581 210.017H127.338V218.878H136.581V210.017Z" fill="#FAFAFA"/>
<path d="M148.771 221.445H139.529V230.306H148.771V221.445Z" fill="#FAFAFA"/>
<path d="M136.581 221.445H127.338V230.306H136.581V221.445Z" fill="#FAFAFA"/>
<path d="M148.771 232.872H139.529V241.733H148.771V232.872Z" fill="#FAFAFA"/>
<path d="M136.581 232.872H127.338V241.733H136.581V232.872Z" fill="#FAFAFA"/>
<path d="M196 363.571C300.513 363.571 385.237 358.625 385.237 352.524C385.237 346.423 300.513 341.477 196 341.477C91.4876 341.477 6.76343 346.423 6.76343 352.524C6.76343 358.625 91.4876 363.571 196 363.571Z" fill="#F5F5F5"/>
<path d="M385.9 24.0161V238.942L360.036 264.803H210.308V24.0161H385.9Z" fill="#45BD43"/>
<path opacity="0.8" d="M385.9 24.0161V238.942L360.036 264.803H210.308V24.0161H385.9Z" fill="white"/>
<path opacity="0.2" d="M360.036 264.803V239.703H385.9L360.544 265.056" fill="black"/>
<path opacity="0.1" d="M276.754 44.8899H228.325C227.644 44.8899 226.991 44.6195 226.51 44.1382C226.029 43.6569 225.758 43.0041 225.758 42.3234C225.757 41.9855 225.822 41.6507 225.951 41.3382C226.079 41.0257 226.268 40.7416 226.506 40.5022C226.745 40.2629 227.028 40.073 227.34 39.9434C227.652 39.8138 227.987 39.7471 228.325 39.7471H276.754C277.436 39.7497 278.089 40.0222 278.57 40.5051C279.051 40.988 279.321 41.6418 279.321 42.3234C279.321 43.0041 279.051 43.6569 278.569 44.1382C278.088 44.6195 277.435 44.8899 276.754 44.8899Z" fill="black"/>
<path opacity="0.1" d="M364.594 65.7151H247.845C247.507 65.7151 247.172 65.6484 246.86 65.5188C246.548 65.3892 246.265 65.1993 246.026 64.9599C245.788 64.7206 245.599 64.4365 245.471 64.124C245.342 63.8115 245.277 63.4767 245.278 63.1388C245.278 62.4581 245.549 61.8053 246.03 61.324C246.511 60.8427 247.164 60.5723 247.845 60.5723H364.594C365.275 60.5723 365.928 60.8427 366.409 61.324C366.891 61.8053 367.161 62.4581 367.161 63.1388C367.161 63.8204 366.891 64.4742 366.41 64.9571C365.929 65.44 365.276 65.7125 364.594 65.7151Z" fill="black"/>
<path opacity="0.1" d="M364.594 75.835H228.325C227.644 75.835 226.991 75.5646 226.51 75.0833C226.029 74.6019 225.758 73.9491 225.758 73.2684C225.757 72.9306 225.822 72.5958 225.951 72.2833C226.079 71.9707 226.268 71.6867 226.506 71.4473C226.745 71.2079 227.028 71.018 227.34 70.8884C227.652 70.7588 227.987 70.6921 228.325 70.6921H364.594C365.276 70.6947 365.929 70.9673 366.41 71.4502C366.891 71.933 367.161 72.5868 367.161 73.2684C367.161 73.9491 366.891 74.6019 366.409 75.0833C365.928 75.5646 365.275 75.835 364.594 75.835Z" fill="black"/>
<path opacity="0.1" d="M364.594 87.272H228.325C227.987 87.272 227.652 87.2053 227.34 87.0757C227.028 86.9461 226.745 86.7562 226.506 86.5168C226.268 86.2775 226.079 85.9934 225.951 85.6809C225.822 85.3683 225.757 85.0335 225.758 84.6957C225.758 84.015 226.029 83.3622 226.51 82.8809C226.991 82.3996 227.644 82.1292 228.325 82.1292H364.594C365.275 82.1292 365.928 82.3996 366.409 82.8809C366.891 83.3622 367.161 84.015 367.161 84.6957C367.161 85.3773 366.891 86.0311 366.41 86.514C365.929 86.9968 365.276 87.2694 364.594 87.272Z" fill="black"/>
<path opacity="0.1" d="M364.594 98.6995H228.325C227.644 98.6995 226.992 98.4291 226.51 97.9478C226.029 97.4664 225.758 96.8136 225.758 96.1329C225.758 95.4522 226.029 94.7994 226.51 94.3181C226.992 93.8368 227.644 93.5664 228.325 93.5664H364.594C365.275 93.5664 365.928 93.8368 366.409 94.3181C366.891 94.7994 367.161 95.4522 367.161 96.1329C367.161 96.8136 366.891 97.4664 366.409 97.9478C365.928 98.4291 365.275 98.6995 364.594 98.6995Z" fill="black"/>
<path opacity="0.1" d="M364.594 110.137H228.325C227.644 110.137 226.991 109.866 226.51 109.385C226.029 108.904 225.758 108.251 225.758 107.57C225.757 107.233 225.822 106.898 225.951 106.587C226.079 106.275 226.268 105.991 226.507 105.753C226.746 105.514 227.029 105.325 227.341 105.196C227.653 105.068 227.988 105.002 228.325 105.004H364.594C365.275 105.004 365.928 105.274 366.409 105.755C366.891 106.237 367.161 106.89 367.161 107.57C367.161 108.251 366.891 108.904 366.409 109.385C365.928 109.866 365.275 110.137 364.594 110.137Z" fill="black"/>
<path opacity="0.1" d="M364.594 121.574H228.325C227.644 121.574 226.991 121.304 226.51 120.822C226.029 120.341 225.758 119.688 225.758 119.007C225.757 118.67 225.822 118.335 225.951 118.022C226.079 117.71 226.268 117.426 226.506 117.186C226.745 116.947 227.028 116.757 227.34 116.627C227.652 116.498 227.987 116.431 228.325 116.431H364.594C365.276 116.434 365.929 116.706 366.41 117.189C366.891 117.672 367.161 118.326 367.161 119.007C367.161 119.688 366.891 120.341 366.409 120.822C365.928 121.304 365.275 121.574 364.594 121.574Z" fill="black"/>
<path opacity="0.1" d="M364.604 127.868H228.325C226.908 127.868 225.758 129.017 225.758 130.435V130.445C225.758 131.862 226.908 133.011 228.325 133.011H364.604C366.022 133.011 367.171 131.862 367.171 130.445V130.435C367.171 129.017 366.022 127.868 364.604 127.868Z" fill="black"/>
<path opacity="0.1" d="M364.594 144.429H228.325C227.644 144.429 226.992 144.159 226.51 143.677C226.029 143.196 225.758 142.543 225.758 141.862C225.758 141.182 226.029 140.529 226.51 140.048C226.992 139.566 227.644 139.296 228.325 139.296H364.594C365.275 139.296 365.928 139.566 366.409 140.048C366.891 140.529 367.161 141.182 367.161 141.862C367.161 142.543 366.891 143.196 366.409 143.677C365.928 144.159 365.275 144.429 364.594 144.429Z" fill="black"/>
<path opacity="0.1" d="M364.594 155.876H228.325C227.644 155.876 226.991 155.605 226.51 155.124C226.029 154.643 225.758 153.99 225.758 153.309C225.757 152.972 225.822 152.638 225.951 152.326C226.079 152.014 226.268 151.73 226.507 151.492C226.746 151.253 227.029 151.064 227.341 150.935C227.653 150.807 227.988 150.741 228.325 150.743H364.594C365.275 150.743 365.928 151.013 366.409 151.494C366.891 151.976 367.161 152.629 367.161 153.309C367.161 153.99 366.891 154.643 366.409 155.124C365.928 155.605 365.275 155.876 364.594 155.876Z" fill="black"/>
<path opacity="0.1" d="M364.594 167.313H228.325C227.644 167.313 226.991 167.043 226.51 166.561C226.029 166.08 225.758 165.427 225.758 164.746C225.757 164.409 225.822 164.074 225.951 163.761C226.079 163.449 226.268 163.165 226.506 162.925C226.745 162.686 227.028 162.496 227.34 162.366C227.652 162.237 227.987 162.17 228.325 162.17H364.594C365.276 162.173 365.929 162.445 366.41 162.928C366.891 163.411 367.161 164.065 367.161 164.746C367.161 165.427 366.891 166.08 366.409 166.561C365.928 167.043 365.275 167.313 364.594 167.313Z" fill="black"/>
<path opacity="0.1" d="M364.594 178.75H228.325C227.987 178.75 227.652 178.684 227.34 178.554C227.028 178.424 226.745 178.234 226.506 177.995C226.268 177.756 226.079 177.472 225.951 177.159C225.822 176.847 225.757 176.512 225.758 176.174C225.758 175.493 226.029 174.84 226.51 174.359C226.991 173.878 227.644 173.607 228.325 173.607H364.594C365.275 173.607 365.928 173.878 366.409 174.359C366.891 174.84 367.161 175.493 367.161 176.174C367.161 176.856 366.891 177.509 366.41 177.992C365.929 178.475 365.276 178.748 364.594 178.75Z" fill="black"/>
<path opacity="0.1" d="M286.514 190.178H228.325C227.644 190.178 226.992 189.907 226.51 189.426C226.029 188.945 225.758 188.292 225.758 187.611C225.758 186.931 226.029 186.278 226.51 185.796C226.992 185.315 227.644 185.045 228.325 185.045H286.514C287.195 185.045 287.848 185.315 288.329 185.796C288.811 186.278 289.081 186.931 289.081 187.611C289.081 188.292 288.811 188.945 288.329 189.426C287.848 189.907 287.195 190.178 286.514 190.178Z" fill="black"/>
<path d="M354.112 76.6838L353.926 76.5277C353.399 76.1275 353.097 76.2642 352.853 75.4932C352.677 74.937 352.853 74.3124 352.648 73.7367C352.183 72.7456 351.651 71.787 351.057 70.8676L348.656 66.5445C348.12 65.5872 347.226 64.8813 346.171 64.5814C345.115 64.2814 343.984 64.4118 343.025 64.9441L320.918 77.2596C320.83 78.0012 320.215 78.5087 320.089 79.2113C320.045 79.4189 320.056 79.6343 320.121 79.8363C320.186 80.0382 320.303 80.2197 320.459 80.3628C320.211 80.3579 319.971 80.2723 319.776 80.1189C318.459 79.387 318.107 78.8014 316.751 79.5431C316.165 79.8554 315.589 80.1872 315.013 80.519L309.157 83.7881L290.809 94.0055L269.337 105.989L251.446 115.953C249.006 117.309 246.049 118.5 243.873 120.227C244.478 120.539 244.585 121.018 244.048 121.486L243.072 122.374C243.072 122.618 243.424 122.618 243.648 122.52L244.858 122.003C244.018 123.071 243.005 123.991 241.862 124.726C239.943 125.84 237.881 126.687 235.733 127.244L236.767 125.946C236.846 125.838 236.943 125.702 236.875 125.575C236.806 125.448 236.68 125.438 236.562 125.429C236.045 125.37 235.528 125.429 235.147 125.048C231.809 127 228.315 128.854 224.919 130.747C223.961 131.283 223.255 132.177 222.955 133.232C222.655 134.287 222.786 135.418 223.318 136.378L245.61 176.389C245.874 176.863 246.228 177.281 246.654 177.619C247.079 177.956 247.567 178.206 248.089 178.355C248.611 178.503 249.157 178.548 249.697 178.485C250.236 178.422 250.758 178.254 251.232 177.989L257.098 174.681C257.098 173.988 257.644 173.217 257.234 172.583C257.176 172.506 257.139 172.415 257.127 172.319C257.127 172.192 257.244 172.095 257.351 172.026C257.952 171.645 258.641 171.423 259.352 171.382C259.596 171.382 259.918 171.49 259.879 171.724C259.879 171.509 261.138 171.06 261.343 170.992C261.441 171.519 261.08 172.085 261.694 172.192C262.309 172.3 263.246 171.216 263.646 171.021L269.502 167.752L288.046 157.437L308.386 146.107L321.904 138.574C322.392 138.291 322.968 137.959 323.436 137.725C323.606 136.83 324.041 136.007 324.686 135.363C325.662 134.69 327.204 135.431 328.014 134.475C328.17 134.289 328.267 134.065 328.404 133.87C328.677 133.552 329.008 133.291 329.38 133.099C329.616 132.914 329.901 132.802 330.2 132.777C330.493 132.777 330.805 133.021 330.766 133.314C332.777 132.845 334.592 131.489 336.368 130.484C337.012 130.123 342.663 127.468 342.644 127.049C342.566 125.751 343.356 124.638 343.317 123.301C343.317 123.047 342.82 121.349 343.044 121.223C337.969 124.248 332.699 127 327.526 129.869C327.35 129.976 326.686 130.201 326.55 130.396C326.55 130.396 326.501 130.484 326.481 130.532L326.335 130.854V130.932C326.125 131.597 325.877 132.248 325.593 132.884C325.593 132.972 324.49 134.338 324.402 134.016C323.973 132.445 323.426 132.201 322.226 132.845L320.508 133.821L315.052 136.856L296.674 147.103L275.017 159.164L256.971 169.216L249.407 173.422C247.897 170.689 246.378 167.96 244.849 165.234L241.921 159.974C241.624 159.245 241.186 158.582 240.632 158.023C240.213 157.71 239.5 157.788 239.129 157.505C238.222 156.813 237.568 155.554 236.709 154.744C236.123 154.197 235.235 152.558 235.479 151.65C235.772 151.767 236.065 151.894 236.358 151.982C236.204 151.381 236.239 150.748 236.455 150.167C233.527 145.239 230.833 140.086 228.032 135.051L227.847 134.729L234.679 130.923L239.666 128.141C240.692 127.701 241.672 127.161 242.594 126.531C243.229 125.985 243.873 125.302 244.546 124.716C244.998 124.372 245.49 124.084 246.01 123.857L247.855 122.96C247.95 122.903 248.057 122.869 248.167 122.862C248.277 122.874 248.386 122.9 248.489 122.94C249.465 123.145 251.886 121.34 252.764 120.852L258.444 117.69L275.583 108.136L296.938 96.25L318.312 84.3346L335.509 74.7613L344.293 69.882L344.703 69.6575L354.2 86.706C354.787 87.8552 355.728 88.7855 356.884 89.3604C357.274 89.4872 357.713 89.7605 357.665 90.1606C357.616 90.5607 357.03 90.8925 357.167 91.3023C357.303 91.7122 358.055 91.5561 358.231 91.9269C358.406 92.2977 357.928 92.9028 357.987 93.4102C358.188 94.0177 358.488 94.5881 358.875 95.0985L361.637 100.066C363.179 102.818 364.711 105.579 366.263 108.361L349.378 117.768C349.462 117.835 349.531 117.918 349.583 118.012L349.671 118.236C350.007 118.355 350.333 118.499 350.647 118.666C350.782 118.741 350.893 118.852 350.969 118.986C351.045 119.12 351.082 119.273 351.077 119.427C351.074 119.579 351.031 119.728 350.953 119.859C350.874 119.989 350.761 120.096 350.628 120.169L349.593 120.754C349.556 120.98 349.452 121.19 349.293 121.356C349.135 121.521 348.929 121.635 348.705 121.681C348.585 121.691 348.464 121.691 348.344 121.681C348.241 121.756 348.123 121.809 347.999 121.834C347.874 121.859 347.745 121.857 347.622 121.828C347.401 121.76 347.214 121.609 347.102 121.407C346.989 121.206 346.958 120.968 347.016 120.744C347.057 120.644 347.109 120.549 347.173 120.461C347.099 120.319 347.065 120.159 347.075 119.999C347.086 119.839 347.139 119.685 347.231 119.554H346.919C346.743 119.554 346.587 119.456 346.421 119.407C345.543 119.95 344.86 120.756 344.469 121.71C344.427 121.763 344.406 121.829 344.41 121.896C344.41 122.033 344.625 122.042 344.752 122.101C345.045 122.237 344.977 122.667 344.83 122.95C344.684 123.233 344.508 123.594 344.703 123.848C344.777 123.933 344.859 124.011 344.947 124.082C345.367 124.56 344.723 125.946 345.748 125.38C345.676 125.078 345.721 124.761 345.874 124.492C346.048 124.22 346.315 124.022 346.626 123.935C347.385 123.751 348.159 123.64 348.939 123.604L369.289 112.225C370.246 111.689 370.952 110.796 371.252 109.74C371.552 108.685 371.422 107.554 370.889 106.594L370.772 106.389L361.578 89.8873L356.269 80.3433C355.752 79.4358 355.293 78.4892 354.727 77.5914C354.571 77.2582 354.364 76.9519 354.112 76.6838Z" fill="#45BD43"/>
<path d="M260.084 130.601C259.411 129.781 259.616 129.762 259.489 128.883C259.489 128.883 259.489 128.883 259.489 128.825L259.411 128.737L259.294 128.6C258.835 128.805 258.376 129.03 257.917 129.283L248.928 134.29L252.549 140.779C252.042 139.881 253.838 140.145 253.906 140.135C254.097 140.079 254.293 140.046 254.492 140.037C254.687 140.079 254.858 140.194 254.97 140.359C255.345 141.016 255.457 141.79 255.282 142.526C255.175 143.502 255.692 144.478 255.136 145.454C255.614 146.234 259.938 154.1 259.957 154.09L268.946 149.084C269.463 148.791 270.693 148.274 270.996 147.757C271.298 147.239 270.82 146.429 271.357 146.185C271.559 146.111 271.775 146.083 271.99 146.104C272.204 146.124 272.412 146.192 272.596 146.303C274.308 144.608 275.409 142.392 275.725 140.004C276.041 137.616 275.555 135.191 274.343 133.109C271.816 128.571 266.077 125.868 261.05 127.976C260.699 128.122 261.167 129.693 260.328 129.869C260.489 129.554 260.719 129.28 261.002 129.069M266.604 145.405L262.417 147.737C262.075 147.122 261.743 146.507 261.392 145.912C261.831 146.654 260.621 146.42 260.367 146.254C259.752 145.844 259.586 144.663 259.567 143.999C259.552 142.862 259.214 141.751 258.591 140.799C257.608 139.023 256.632 137.246 255.663 135.47L259.85 133.138C263.754 130.952 267.658 131.86 269.766 135.646C271.874 139.432 270.537 143.248 266.604 145.405Z" fill="#45BD43"/>
<path d="M289.803 113.982C290.017 114.445 290.078 114.964 289.979 115.465C289.93 115.738 289.491 116.441 289.55 116.616C289.706 117.007 289.862 117.397 290.008 117.788C290.035 117.851 290.071 117.911 290.116 117.963C290.191 118.014 290.279 118.041 290.369 118.041C291.921 118.178 291.853 118.334 291.95 119.642C292.038 120.764 293.005 121.408 293.551 122.384C294.285 123.666 294.604 125.144 294.464 126.615C294.324 128.086 293.732 129.477 292.77 130.598C291.807 131.718 290.521 132.514 289.088 132.874C287.655 133.235 286.146 133.143 284.767 132.611C284.731 132.646 284.691 132.679 284.65 132.709C284.445 132.812 284.21 132.84 283.986 132.787C283.479 132.643 283.02 132.365 282.657 131.982C282.295 131.599 282.042 131.125 281.927 130.61C281.912 130.533 281.912 130.454 281.927 130.376C281.651 130.035 281.406 129.669 281.195 129.283C280.693 128.477 280.364 127.576 280.227 126.636C280.089 125.697 280.148 124.739 280.398 123.823C280.648 122.907 281.085 122.052 281.68 121.313C282.276 120.573 283.018 119.964 283.859 119.525C285.08 118.829 286.479 118.509 287.881 118.607L287.802 118.49C286.963 117.378 289.989 116.929 288.622 116.177C288.046 115.865 288.144 114.45 287.998 113.874C285.781 113.924 283.611 114.525 281.683 115.621C275.437 119.105 273.28 126.004 276.559 131.889C277.939 134.42 280.221 136.34 282.952 137.266C283.594 137.545 284.282 137.704 284.982 137.734C285.782 137.666 285.392 137.734 285.733 137.256C286.075 136.778 285.87 136.573 286.387 136.066C286.905 135.558 287.51 135.256 287.617 134.475C287.617 134.826 288.007 135.08 288.007 135.451C288.007 135.558 288.007 135.665 288.007 135.763C288.028 135.891 288.086 136.009 288.173 136.105C288.505 136.554 289.062 137.08 289.071 137.598C290.499 137.361 291.87 136.858 293.112 136.114C299.329 132.65 301.535 125.76 298.236 119.856C296.528 116.841 293.317 114.177 289.803 113.982Z" fill="#45BD43"/>
<path d="M309.763 100.398L316.458 112.411L299.925 105.872L296.138 107.99C298.695 112.576 301.408 117.114 303.809 121.789C303.975 121.281 304.365 121.184 304.834 121.115C305.712 120.998 305.683 121.437 306.161 122.306C306.22 122.413 306.288 122.521 306.395 122.54C306.503 122.56 306.718 122.384 306.893 122.403C307.069 122.423 307.137 122.638 307.088 122.804C307.027 122.966 306.945 123.12 306.844 123.262C306.561 123.799 307.03 124.141 306.971 124.628C306.971 124.882 306.122 125.917 306.22 126.092L307.196 127.771L311.724 125.253L310.514 123.087H310.29C308.972 123.262 309.558 121.535 309.265 120.823C308.791 119.813 308.253 118.836 307.654 117.895L304.99 113.201L318.43 118.49C318.395 118.104 318.441 117.715 318.566 117.348C318.674 117.144 319.542 116.763 319.542 116.568C319.592 117.197 319.887 117.782 320.362 118.197C320.879 118.656 320.879 118.588 320.782 119.398L321.582 119.72L325.349 117.622L314.321 97.8408L309.763 100.398Z" fill="#45BD43"/>
<path d="M332.513 108.839L329.956 104.262L339.15 99.1386L337.198 95.5766L328.014 100.7L325.622 96.3964L331.83 92.9418C332.092 92.6037 332.425 92.3273 332.806 92.1318C332.999 92.0328 333.221 92.0085 333.43 92.0635L336.056 90.6095C336.056 90.6095 334.192 87.2817 334.016 86.9304C333.118 87.3403 334.016 88.4723 333.108 89.0188C333.294 89.214 333.567 89.9068 333.108 89.9947C332.845 89.9947 332.65 89.6629 332.386 89.6921C332.123 89.7214 332.113 89.8483 331.976 89.8092C331.935 89.7975 331.896 89.7765 331.864 89.7478C331.832 89.719 331.807 89.6833 331.791 89.6433C331.664 89.349 331.504 89.0706 331.313 88.8138C330.698 88.2186 325.086 91.9561 324.305 92.3953L319.083 95.3229L330.102 115.104L334.504 112.654L334.592 112.537C334.914 112.127 335.226 111.708 335.568 111.327C335.707 111.195 335.884 111.112 336.074 111.089C336.264 111.066 336.456 111.105 336.622 111.2C336.701 111.241 336.77 111.298 336.827 111.366L345.426 106.575L343.376 102.896L332.513 108.839Z" fill="#45BD43"/>
<path d="M344.254 319.315C344.254 319.315 337.832 305.321 345.162 291.512C352.492 277.704 354.629 274.454 349.954 271.634C345.279 268.814 343.122 282.671 343.122 282.671C343.122 282.671 339.218 273.127 342.429 263.153C345.64 253.18 347.729 236.903 343.288 235.156C338.847 233.409 342.439 255.444 338.584 262.958C336.618 257.684 335.348 252.176 334.807 246.573C334.28 238.552 335.109 225.748 331.596 222.46C328.082 219.171 325.847 221.484 329.292 239.147C331.363 249.726 332.51 260.466 332.718 271.243C332.718 271.243 325.096 248.018 320.03 247.344C314.965 246.671 314.926 254.175 319.308 260.704C323.69 267.233 332.084 278.904 333.46 284.954C333.46 284.954 325.105 267.486 317.58 272.834C310.055 278.182 324.129 288.751 330.395 292.566C336.661 296.382 341.024 320.281 341.024 320.281L344.254 319.315Z" fill="#45BD43"/>
<path opacity="0.2" d="M344.254 319.315C344.254 319.315 337.832 305.321 345.162 291.512C352.492 277.704 354.629 274.454 349.954 271.634C345.279 268.814 343.122 282.671 343.122 282.671C343.122 282.671 339.218 273.127 342.429 263.153C345.64 253.18 347.729 236.903 343.288 235.156C338.847 233.409 342.439 255.444 338.584 262.958C336.618 257.684 335.348 252.176 334.807 246.573C334.28 238.552 335.109 225.748 331.596 222.46C328.082 219.171 325.847 221.484 329.292 239.147C331.363 249.726 332.51 260.466 332.718 271.243C332.718 271.243 325.096 248.018 320.03 247.344C314.965 246.671 314.926 254.175 319.308 260.704C323.69 267.233 332.084 278.904 333.46 284.954C333.46 284.954 325.105 267.486 317.58 272.834C310.055 278.182 324.129 288.751 330.395 292.566C336.661 296.382 341.024 320.281 341.024 320.281L344.254 319.315Z" fill="black"/>
<path d="M339.179 325.063C339.179 325.063 345.436 310.961 337.94 297.27C330.444 283.578 328.268 280.358 332.913 277.46C337.559 274.561 339.863 288.399 339.863 288.399C339.863 288.399 343.688 278.806 340.321 268.882C336.954 258.957 334.709 242.709 339.131 240.904C343.552 239.098 340.224 261.182 344.167 268.628C346.071 263.33 347.272 257.805 347.739 252.194C348.178 244.163 347.192 231.369 350.667 228.032C354.141 224.694 356.416 226.939 353.175 244.69C351.233 255.293 350.217 266.046 350.14 276.825C350.14 276.825 357.479 253.492 362.584 252.741C367.688 251.99 367.766 259.504 363.472 266.091C359.178 272.678 350.882 284.486 349.564 290.488C349.564 290.488 357.714 272.922 365.297 278.143C372.881 283.364 358.943 294.147 352.726 298.051C346.509 301.954 342.4 325.941 342.4 325.941L339.179 325.063Z" fill="#45BD43"/>
<path d="M368.01 315.011H316.38L320.557 351.958H363.833L368.01 315.011Z" fill="#263238"/>
<path d="M103.895 82.7051H69.8228C68.5105 82.7051 67.2518 83.2264 66.3238 84.1542C65.3959 85.0821 64.8745 86.3405 64.8745 87.6528V120.774C64.8745 122.086 65.3959 123.344 66.3238 124.272C67.2518 125.2 68.5105 125.721 69.8228 125.721H80.7248L73.3852 135.695L86.0732 125.721H103.885C105.198 125.721 106.456 125.2 107.384 124.272C108.312 123.344 108.834 122.086 108.834 120.774V87.6528C108.834 86.3422 108.314 85.0852 107.388 84.1577C106.462 83.2301 105.206 82.7077 103.895 82.7051Z" fill="#45BD43"/>
<path opacity="0.6" d="M103.895 82.7051H69.8228C68.5105 82.7051 67.2518 83.2264 66.3238 84.1542C65.3959 85.0821 64.8745 86.3405 64.8745 87.6528V120.774C64.8745 122.086 65.3959 123.344 66.3238 124.272C67.2518 125.2 68.5105 125.721 69.8228 125.721H80.7248L73.3852 135.695L86.0732 125.721H103.885C105.198 125.721 106.456 125.2 107.384 124.272C108.312 123.344 108.834 122.086 108.834 120.774V87.6528C108.834 86.3422 108.314 85.0852 107.388 84.1577C106.462 83.2301 105.206 82.7077 103.895 82.7051Z" fill="white"/>
<path d="M86.8639 119.681C95.4075 119.681 102.333 112.756 102.333 104.213C102.333 95.6707 95.4075 88.7456 86.8639 88.7456C78.3203 88.7456 71.3943 95.6707 71.3943 104.213C71.3943 112.756 78.3203 119.681 86.8639 119.681Z" fill="#45BD43"/>
<path opacity="0.2" d="M99.768 107.25C101.451 100.121 97.0352 92.9785 89.9057 91.296C82.7761 89.6135 75.6324 94.0284 73.9497 101.157C72.2669 108.286 76.6825 115.428 83.812 117.111C90.9415 118.793 98.0853 114.378 99.768 107.25Z" fill="black"/>
<path d="M85.2144 110.547C85.0347 110.551 84.8559 110.519 84.6885 110.454C84.521 110.388 84.368 110.291 84.2384 110.166L78.6069 104.652C78.348 104.401 78.1995 104.058 78.194 103.697C78.1885 103.337 78.3265 102.989 78.5776 102.73C78.8287 102.471 79.1723 102.323 79.5329 102.317C79.8935 102.312 80.2414 102.45 80.5003 102.701L85.1168 107.219L93.1005 98.3093C93.3453 98.0626 93.6754 97.9192 94.0228 97.9088C94.3702 97.8984 94.7084 98.0217 94.9675 98.2533C95.2267 98.4848 95.387 98.807 95.4156 99.1534C95.4441 99.4997 95.3386 99.8438 95.1208 100.115L86.1904 110.078C86.0672 110.216 85.917 110.327 85.7491 110.404C85.5812 110.481 85.3992 110.523 85.2144 110.527V110.547Z" fill="white"/>
<path d="M42.6703 329.767L70.7888 326.995V295.289H81.9347V326.985L110.17 329.767C111.523 329.898 112.779 330.528 113.692 331.535C114.605 332.542 115.11 333.853 115.109 335.212V339.437H37.7317V335.212C37.7302 333.853 38.2353 332.542 39.1485 331.535C40.0616 330.528 41.3172 329.898 42.6703 329.767Z" fill="#263238"/>
<path opacity="0.1" d="M42.6703 329.767L70.7888 326.995V295.289H81.9347V326.985L110.17 329.767C111.523 329.898 112.779 330.528 113.692 331.535C114.605 332.542 115.11 333.853 115.109 335.212V339.437H37.7317V335.212C37.7302 333.853 38.2353 332.542 39.1485 331.535C40.0616 330.528 41.3172 329.898 42.6703 329.767Z" fill="white"/>
<path d="M112.132 351.958C116.159 351.958 119.423 348.694 119.423 344.668C119.423 340.642 116.159 337.378 112.132 337.378C108.106 337.378 104.842 340.642 104.842 344.668C104.842 348.694 108.106 351.958 112.132 351.958Z" fill="#263238"/>
<path d="M40.7087 351.958C44.7352 351.958 47.9994 348.694 47.9994 344.668C47.9994 340.642 44.7352 337.378 40.7087 337.378C36.6821 337.378 33.418 340.642 33.418 344.668C33.418 348.694 36.6821 351.958 40.7087 351.958Z" fill="#263238"/>
<path d="M79.817 303.779H72.8679C71.7988 303.779 70.7736 303.354 70.0176 302.599C69.2617 301.843 68.837 300.818 68.837 299.749V268.579H83.8479V299.749C83.8479 300.818 83.4232 301.843 82.6673 302.599C81.9113 303.354 80.8861 303.779 79.817 303.779Z" fill="#263238"/>
<path opacity="0.2" d="M79.817 303.779H72.8679C71.7988 303.779 70.7736 303.354 70.0176 302.599C69.2617 301.843 68.837 300.818 68.837 299.749V268.579H83.8479V299.749C83.8479 300.818 83.4232 301.843 82.6673 302.599C81.9113 303.354 80.8861 303.779 79.817 303.779Z" fill="white"/>
<path d="M37.439 207.49C37.439 207.49 45.7936 259.582 62.288 268.589H45.5203C45.5203 268.589 28.9283 250.828 23.9312 207.49H37.439Z" fill="#263238"/>
<path opacity="0.1" d="M37.439 207.49C37.439 207.49 45.7936 259.582 62.288 268.589H45.5203C45.5203 268.589 28.9283 250.828 23.9312 207.49H37.439Z" fill="white"/>
<path d="M44.7198 261.221H110.034C111.328 261.221 112.569 261.736 113.484 262.651C114.4 263.566 114.914 264.807 114.914 266.101V272.629H39.8398V266.101C39.8398 264.807 40.354 263.566 41.2692 262.651C42.1843 261.736 43.4256 261.221 44.7198 261.221Z" fill="#45BD43"/>
<path d="M116.046 266.92H38.6395C37.556 266.92 36.6777 267.799 36.6777 268.882V270.658C36.6777 271.741 37.556 272.619 38.6395 272.619H116.046C117.13 272.619 118.008 271.741 118.008 270.658V268.882C118.008 267.799 117.13 266.92 116.046 266.92Z" fill="#263238"/>
<path opacity="0.6" d="M116.046 266.92H38.6395C37.556 266.92 36.6777 267.799 36.6777 268.882V270.658C36.6777 271.741 37.556 272.619 38.6395 272.619H116.046C117.13 272.619 118.008 271.741 118.008 270.658V268.882C118.008 267.799 117.13 266.92 116.046 266.92Z" fill="white"/>
<path d="M21.9499 218.088H48.7801C56.6467 218.088 61.7512 211.784 60.1896 204.006L58.1009 193.623C56.5393 185.816 48.8972 179.551 41.0404 179.551H14.2102C6.34364 179.551 1.23916 185.855 2.80076 193.623L4.8894 204.006C6.451 211.764 14.0833 218.088 21.9499 218.088Z" fill="#45BD43"/>
<path d="M164.319 305.341L158.17 307.751L153.749 299.417L149.728 291.835L156.54 287.755L160.659 297.055L164.319 305.341Z" fill="#E4897B"/>
<path opacity="0.2" d="M160.659 297.055L153.749 299.417L149.728 291.835L156.54 287.755L160.659 297.055Z" fill="black"/>
<path d="M159.38 292.508L151.016 296.997C151.016 296.997 119.403 241.421 114.543 241.889C109.682 242.358 63.5665 271.731 49.5023 260.88C35.4382 250.028 49.1217 217.356 49.1217 217.356C49.1217 217.356 78.2163 209.041 81.3297 215.404C82.1503 217.309 82.8479 219.265 83.4183 221.259C84.0332 223.26 84.5017 224.948 84.5017 224.948C85.3899 224.587 114.123 212.808 126.948 219.093C140.036 225.553 159.38 292.508 159.38 292.508Z" fill="#263238"/>
<path opacity="0.3" d="M159.38 292.508L151.016 296.997C151.016 296.997 119.403 241.421 114.543 241.889C109.682 242.358 63.5665 271.731 49.5023 260.88C35.4382 250.028 49.1217 217.356 49.1217 217.356C49.1217 217.356 78.2163 209.041 81.3297 215.404C82.1503 217.309 82.8479 219.265 83.4183 221.259C84.0332 223.26 84.5017 224.948 84.5017 224.948C85.3899 224.587 114.123 212.808 126.948 219.093C140.036 225.553 159.38 292.508 159.38 292.508Z" fill="white"/>
<path d="M113.938 337.827L107.379 337.076L107.34 327.825L107.33 319.334L115.265 318.964L114.562 328.947L113.938 337.827Z" fill="#E4897B"/>
<path opacity="0.2" d="M114.543 329.152L107.321 328V319.422L115.255 319.003L114.543 329.152Z" fill="black"/>
<path d="M146.927 294.235L159.166 288.107L160.444 293.298L151.172 298.08L146.927 294.235Z" fill="#45BD43"/>
<path d="M71.228 260.968C71.228 260.968 73.2386 260.743 104.168 255.015C104.168 255.015 104.871 294.557 106.335 324.038L115.861 324.341C115.861 324.341 129.525 258.957 127.914 249.042C126.304 239.128 114.553 237.83 114.553 237.83C114.553 237.83 94.1445 253.727 71.228 260.968Z" fill="#263238"/>
<path opacity="0.4" d="M71.228 260.968C71.228 260.968 73.2386 260.743 104.168 255.015C104.168 255.015 104.871 294.557 106.335 324.038L115.861 324.341C115.861 324.341 129.525 258.957 127.914 249.042C126.304 239.128 114.553 237.83 114.553 237.83C114.553 237.83 94.1445 253.727 71.228 260.968Z" fill="white"/>
<path opacity="0.3" d="M71.228 260.968C71.228 260.968 73.2386 260.743 104.168 255.015C104.168 255.015 104.871 294.557 106.335 324.038L115.861 324.341C115.861 324.341 129.525 258.957 127.914 249.042C126.304 239.128 114.553 237.83 114.553 237.83C114.553 237.83 94.1445 253.727 71.228 260.968Z" fill="black"/>
<path d="M104.588 321.403L117.578 321.101L115.802 326.449L105.261 326.546L104.588 321.403Z" fill="#45BD43"/>
<path opacity="0.3" d="M84.5408 224.968L67.6853 230.969C67.6853 230.969 76.5474 224.353 83.4575 221.279C84.0723 223.279 84.5408 224.968 84.5408 224.968Z" fill="black"/>
<path d="M47.1697 215.346L47.7943 220.02L79.3874 213.316L78.6554 207.792L47.1697 215.346Z" fill="#263238"/>
<path opacity="0.2" d="M47.1697 215.346L47.7943 220.02L79.3874 213.316L78.6554 207.792L47.1697 215.346Z" fill="black"/>
<path d="M57.6375 211.949L56.0637 212.241L57.5503 220.253L59.1241 219.961L57.6375 211.949Z" fill="#263238"/>
<path d="M71.4141 209.922L64.5208 211.475L65.6987 216.701L72.5921 215.148L71.4141 209.922Z" fill="white"/>
<path d="M75.8465 206.658L74.2778 206.946L75.7448 214.932L77.3134 214.643L75.8465 206.658Z" fill="#263238"/>
<path opacity="0.3" d="M57.6375 211.949L56.0637 212.241L57.5503 220.253L59.1241 219.961L57.6375 211.949Z" fill="white"/>
<path opacity="0.3" d="M75.8465 206.658L74.2778 206.946L75.7448 214.932L77.3134 214.643L75.8465 206.658Z" fill="white"/>
<path d="M176.539 316.251C175.512 315.936 174.437 315.814 173.367 315.89C173.367 315.89 169.394 314.231 164.583 306.336L160.483 306.873C159.793 306.976 159.152 307.289 158.646 307.769C158.14 308.249 157.793 308.873 157.653 309.556C157.623 309.75 157.623 309.948 157.653 310.142C157.829 311.132 158.071 312.11 158.375 313.069C159.426 316.242 160.668 319.347 162.094 322.369L162.757 322.096L160.64 316.182C159.937 314.162 162.387 315.87 163.685 317.822C164.983 319.774 166.827 321.667 171.21 320.008C176.304 318.017 178.325 316.963 176.539 316.251Z" fill="#263238"/>
<path d="M163.558 304.238C163.558 304.238 170.136 314.231 173.367 315.89C173.367 315.89 169.746 318.817 164.914 314.114C158.678 308.073 157.633 310.142 157.633 310.142C157.578 308.958 157.633 307.772 157.799 306.599C158.297 304.306 163.558 304.238 163.558 304.238Z" fill="#E4897B"/>
<path d="M123.776 349.46C122.841 348.921 121.816 348.557 120.75 348.386C120.75 348.386 117.286 345.839 114.504 337.037L110.395 336.588C109.698 336.522 108.997 336.674 108.391 337.024C107.784 337.374 107.301 337.903 107.008 338.54C106.921 338.715 106.862 338.902 106.833 339.096C106.764 340.093 106.764 341.094 106.833 342.092C107.098 345.422 107.567 348.734 108.238 352.007L108.951 351.899L108.316 345.634C108.111 343.507 110.093 345.751 110.893 347.957C111.693 350.162 113.03 352.436 117.676 351.86C123.103 351.128 125.308 350.582 123.776 349.46Z" fill="#263238"/>
<path d="M114.016 334.724C114.016 334.724 118.037 345.995 120.78 348.386C120.78 348.386 116.573 350.338 112.972 344.658C108.336 337.31 106.842 339.076 106.842 339.076C107.061 337.916 107.387 336.779 107.818 335.68C108.853 333.533 114.016 334.724 114.016 334.724Z" fill="#E4897B"/>
<path d="M40.2888 135.646L32.0318 137.305C31.7093 137.577 31.3282 137.77 30.9185 137.87C30.5087 137.97 30.0814 137.974 29.6699 137.881C27.2104 136.905 23.6675 134.046 23.2186 133.002C22.5549 131.528 23.2186 127.205 24.9558 126.424C26.6931 125.644 32.676 132.865 32.676 132.865L41.5479 130.864L40.2888 135.646Z" fill="#E4897B"/>
<path d="M66.3287 163.088C66.3287 163.088 65.5772 136.339 62.4833 135.197C59.3893 134.056 36.1313 137.247 36.1313 137.247L35.5652 131.138C35.5652 131.138 62.6297 126.971 67.8708 129.44C73.1119 131.909 74.8394 171.773 73.8829 179.453L66.3287 163.088Z" fill="#45BD43"/>
<path opacity="0.6" d="M66.3287 163.088C66.3287 163.088 65.5772 136.339 62.4833 135.197C59.3893 134.056 36.1313 137.247 36.1313 137.247L35.5652 131.138C35.5652 131.138 62.6297 126.971 67.8708 129.44C73.1119 131.909 74.8394 171.773 73.8829 179.453L66.3287 163.088Z" fill="white"/>
<path d="M36.5313 137.832L34.9111 131.118L37.234 130.279L38.7078 138.037L36.5313 137.832Z" fill="#45BD43"/>
<path opacity="0.7" d="M36.5313 137.832L34.9111 131.118L37.234 130.279L38.7078 138.037L36.5313 137.832Z" fill="white"/>
<path d="M66.1921 159.75C66.1921 159.75 64.1132 167.889 54.0994 170.485C44.0857 173.081 33.0081 166.298 33.0081 166.298L35.2138 185.718L47.4724 216.312L78.802 208.144C78.802 208.144 76.9281 172.554 66.1921 159.75Z" fill="#45BD43"/>
<path opacity="0.7" d="M66.1921 159.75C66.1921 159.75 64.1132 167.889 54.0994 170.485C44.0857 173.081 33.0081 166.298 33.0081 166.298L35.2138 185.718L47.4724 216.312L78.802 208.144C78.802 208.144 76.9281 172.554 66.1921 159.75Z" fill="white"/>
<path opacity="0.6" d="M71.637 192.022L75.3042 190.865C75.7103 190.737 75.9357 190.304 75.8076 189.898L73.6228 182.974C73.4947 182.568 73.0616 182.342 72.6555 182.471L68.9882 183.627C68.5821 183.755 68.3568 184.188 68.4849 184.595L70.6697 191.519C70.7978 191.925 71.2309 192.15 71.637 192.022Z" fill="#45BD43"/>
<path opacity="0.2" d="M70.8899 189.911L75.0598 188.596L73.2597 182.891L69.0899 184.206L70.8899 189.911Z" fill="black"/>
<path d="M70.7503 180.828L69.8289 181.119L70.8889 184.479L71.8104 184.188L70.7503 180.828Z" fill="#263238"/>
<path d="M44.8956 129.352C37.1754 129.352 32.0807 137.53 33.8863 150.499C35.6919 163.468 42.9241 167.206 42.9241 167.206L42.4653 164.073C50.494 165.895 58.7716 166.357 66.9532 165.44C66.9532 165.44 63.2248 154.861 64.4351 144.058C64.4351 144.058 66.8848 129.332 44.8956 129.352Z" fill="#263238"/>
<path opacity="0.2" d="M60.2285 167.85L63.381 179.561L57.8373 175.335C57.8373 175.335 63.2346 187.67 64.6693 194.852C64.6693 194.852 60.0041 182.625 55.9829 175.921L53.6308 182.635L44.1733 173.003C44.1733 173.003 52.5279 166.601 60.2285 167.85Z" fill="black"/>
<path d="M55.6219 171.627L45.9985 171.919C50.2636 166.464 42.5532 156.959 42.5532 156.959L52.0595 159.018C54.3238 168.426 58.2375 168.709 58.2375 168.709L55.6219 171.627Z" fill="#E4897B"/>
<path opacity="0.2" d="M54.7142 165.771C51.0421 165.464 47.6268 163.764 45.1689 161.019C44.4095 159.609 43.5346 158.264 42.5532 156.998L52.0595 159.067C52.5629 161.435 53.4603 163.701 54.7142 165.771Z" fill="black"/>
<path d="M52.0497 133.324C60.336 134.017 62.6393 138.672 62.532 147.269C62.4051 158.004 59.399 165.391 49.2291 162.249C35.4089 157.984 38.2784 132.172 52.0497 133.324Z" fill="#E4897B"/>
<path d="M57.2128 146.381C57.7739 147.675 58.4882 148.897 59.3405 150.021C59.0676 150.341 58.7124 150.58 58.3132 150.713C57.914 150.845 57.4862 150.866 57.0762 150.772L57.2128 146.381Z" fill="#DE5753"/>
<path d="M51.6008 144.995L53.3967 144.409C53.3967 144.409 52.4402 145.834 51.6008 144.995Z" fill="#263238"/>
<path d="M52.2254 144.79C51.8915 144.626 51.5093 144.589 51.1502 144.686C50.791 144.783 50.4794 145.007 50.2734 145.317C50.5798 145.177 50.9127 145.105 51.2494 145.105C51.5862 145.105 51.919 145.177 52.2254 145.317V144.79Z" fill="#263238"/>
<path d="M48.8875 140.838C48.7952 140.835 48.7076 140.797 48.6435 140.73C48.6095 140.699 48.5825 140.66 48.5639 140.617C48.5454 140.574 48.5359 140.528 48.5359 140.482C48.5359 140.435 48.5454 140.389 48.5639 140.346C48.5825 140.303 48.6095 140.265 48.6435 140.233C49.1877 139.757 49.8352 139.414 50.5347 139.231C51.2343 139.048 51.9668 139.03 52.6744 139.179C52.7663 139.198 52.8467 139.253 52.8979 139.332C52.9492 139.411 52.9671 139.507 52.9477 139.598C52.9283 139.69 52.8731 139.771 52.7944 139.822C52.7157 139.873 52.6199 139.891 52.528 139.872C51.9374 139.751 51.3274 139.765 50.7428 139.912C50.1583 140.059 49.6143 140.335 49.151 140.721C49.1183 140.758 49.0778 140.788 49.0322 140.808C48.9867 140.829 48.9373 140.839 48.8875 140.838Z" fill="#263238"/>
<path d="M61.8877 140.984C61.8104 140.987 61.7344 140.963 61.673 140.916C61.2825 140.558 60.817 140.292 60.3104 140.136C59.8039 139.981 59.2691 139.941 58.745 140.018C58.7002 140.03 58.6533 140.033 58.6072 140.028C58.5611 140.022 58.5166 140.007 58.4763 139.984C58.436 139.96 58.4006 139.93 58.3722 139.893C58.3438 139.856 58.3229 139.814 58.3107 139.769C58.2985 139.724 58.2953 139.678 58.3012 139.631C58.3071 139.585 58.3221 139.541 58.3452 139.501C58.3683 139.46 58.3991 139.425 58.4359 139.396C58.4727 139.368 58.5147 139.347 58.5596 139.335C59.1922 139.223 59.842 139.257 60.4594 139.435C61.0768 139.612 61.6455 139.929 62.122 140.36C62.1943 140.419 62.2407 140.504 62.2517 140.597C62.2626 140.689 62.2371 140.783 62.1805 140.857C62.1452 140.9 62.1003 140.934 62.0494 140.956C61.9985 140.978 61.9431 140.988 61.8877 140.984Z" fill="#263238"/>
<path d="M41.7919 146.537C41.7919 146.537 46.2327 140.057 46.0863 134.749C46.0863 134.749 63.0785 129.401 62.5026 146.147C62.5026 146.147 65.333 131.509 51.1127 129.957C36.8924 128.405 35.2429 149.309 42.0847 156.14C42.0847 156.14 39.0689 150.597 41.7919 146.537Z" fill="#263238"/>
<path d="M43.0315 148.401C43.0315 147.434 42.6482 146.508 41.9658 145.823C41.2834 145.139 40.3574 144.754 39.391 144.751C36.7948 144.819 35.1356 149.991 41.4211 151.797C42.319 152.05 42.9144 151.201 43.0315 148.401Z" fill="#E4897B"/>
<path d="M57.1444 153.212C56.5367 154.028 55.9918 154.889 55.5145 155.788C55.3486 155.73 55.1729 155.681 55.007 155.613C52.7134 154.803 51.9131 153.661 51.7276 152.685C51.6402 152.189 51.6771 151.68 51.835 151.202C51.9163 150.927 52.0345 150.664 52.1864 150.421C53.3789 151.554 54.8045 152.413 56.3636 152.939C56.8321 153.114 57.1444 153.212 57.1444 153.212Z" fill="#263238"/>
<path d="M56.3636 152.919L55.8658 153.671C53.6991 152.9 52.2839 152.07 51.835 151.182C51.9163 150.907 52.0345 150.645 52.1863 150.401C53.3789 151.535 54.8045 152.394 56.3636 152.919Z" fill="white"/>
<path d="M55.0069 155.613C52.7133 154.803 51.913 153.661 51.7275 152.685C52.5952 153.005 53.3985 153.477 54.0992 154.081C54.5535 154.485 54.8708 155.02 55.0069 155.613Z" fill="#DE5753"/>
<path d="M51.8251 133.938C51.8251 133.938 47.3453 147.298 38.776 146.381C30.2067 145.463 44.8955 129.323 44.8955 129.323C44.8955 129.323 59.3501 125.195 65.6453 133.226C71.9405 141.257 62.5318 146.127 62.5318 146.127C62.5318 146.127 63.9373 135.646 51.8251 133.938Z" fill="#263238"/>
<path d="M44.9933 145.307C44.9438 145.305 44.8958 145.289 44.8545 145.262C44.8133 145.234 44.7803 145.196 44.7591 145.151C44.7367 145.089 44.7395 145.021 44.7669 144.96C44.7942 144.9 44.8439 144.853 44.9055 144.829C51.7375 142.224 51.5813 133.06 51.5813 132.962C51.5785 132.931 51.5825 132.898 51.5932 132.868C51.6038 132.838 51.6208 132.81 51.643 132.787C51.6652 132.764 51.6921 132.746 51.7218 132.734C51.7516 132.722 51.7835 132.717 51.8155 132.719C51.879 132.72 51.9395 132.745 51.9861 132.788C52.0328 132.831 52.0623 132.89 52.0693 132.953C52.0693 133.05 52.2255 142.555 45.0812 145.288L44.9933 145.307Z" fill="#263238"/>
<path d="M60.0139 145.805L61.8098 145.229C61.8098 145.229 60.8435 146.644 60.0139 145.805Z" fill="#263238"/>
<path d="M60.6385 145.6C60.3039 145.435 59.9202 145.398 59.5604 145.497C59.2005 145.596 58.8895 145.824 58.6865 146.137C58.9883 145.987 59.3191 145.904 59.6561 145.893C59.9931 145.883 60.3283 145.946 60.6385 146.078V145.6Z" fill="#263238"/>
<path d="M47.3551 167.977L54.6067 171.666L54.4896 179.014L44.1245 172.973L47.3551 167.977Z" fill="#45BD43"/>
<path d="M55.7097 166.591L56.1392 171.051L60.8728 176.057L60.2286 167.821L55.7097 166.591Z" fill="#45BD43"/>
<path d="M22.2038 116.129L19.1782 108.322C19.2334 107.904 19.1907 107.48 19.0535 107.082C18.9163 106.684 18.6883 106.323 18.3876 106.029C16.2794 104.457 11.9265 103.033 10.8334 103.198C9.24248 103.433 5.95336 106.312 6.2364 108.195C6.51944 110.078 15.811 111.24 15.811 111.24L18.8951 119.798L22.2038 116.129Z" fill="#E4897B"/>
<path d="M35.2333 185.718C35.2333 185.718 41.0893 181.063 38.7566 170.778L32.4614 142.321L21.6473 112.928L16.3574 115.602C16.3574 115.602 25.239 144.322 26.0589 146.264C26.4785 147.24 28.1475 162.141 30.4216 172.124C32.5102 181.317 35.2333 185.718 35.2333 185.718Z" fill="#45BD43"/>
<path opacity="0.6" d="M35.2333 185.718C35.2333 185.718 41.0893 181.063 38.7566 170.778L32.4614 142.321L21.6473 112.928L16.3574 115.602C16.3574 115.602 25.239 144.322 26.0589 146.264C26.4785 147.24 28.1475 162.141 30.4216 172.124C32.5102 181.317 35.2333 185.718 35.2333 185.718Z" fill="white"/>
<path d="M15.4302 114.762L21.6083 111.669L22.9551 113.728L15.7327 116.929L15.4302 114.762Z" fill="#45BD43"/>
<path opacity="0.7" d="M15.4302 114.762L21.6083 111.669L22.9551 113.728L15.7327 116.929L15.4302 114.762Z" fill="white"/>
<path opacity="0.6" d="M47.3551 167.977L54.6067 171.666L54.4896 179.014L44.1245 172.973L47.3551 167.977Z" fill="white"/>
<path opacity="0.6" d="M55.7097 166.591L56.1392 171.051L60.8728 176.057L60.2286 167.821L55.7097 166.591Z" fill="white"/>
<path d="M261.646 152.636H232.405V175.354H261.646V152.636Z" fill="white"/>
<path opacity="0.1" d="M261.646 152.636H254.15V175.354H261.646V152.636Z" fill="black"/>
<path d="M230.726 195.418H263.783V154.188H253.135L230.726 164.913V195.418Z" fill="#45BD43"/>
<path opacity="0.2" d="M263.783 154.188H253.135V195.418H263.783V154.188Z" fill="black"/>
<path opacity="0.7" d="M249.612 173.042H234.132V180.458H249.612V173.042Z" fill="white"/>
<path opacity="0.7" d="M249.612 182.937H234.132V184.001H249.612V182.937Z" fill="white"/>
<path opacity="0.7" d="M262.749 186.05H254.15V192.344H262.749V186.05Z" fill="white"/>
<path d="M249.221 151.397H219.98V175.354H249.221V151.397Z" fill="white"/>
<path opacity="0.1" d="M249.221 151.397H241.726V175.354H249.221V151.397Z" fill="black"/>
<path d="M218.302 195.418H251.359V154.188H240.71L218.302 164.913V195.418Z" fill="#45BD43"/>
<path opacity="0.2" d="M251.359 154.188H240.71V195.418H251.359V154.188Z" fill="black"/>
<path opacity="0.7" d="M237.187 173.042H221.708V180.458H237.187V173.042Z" fill="white"/>
<path opacity="0.7" d="M237.187 182.937H221.708V184.001H237.187V182.937Z" fill="white"/>
<path opacity="0.7" d="M250.324 186.05H241.726V192.344H250.324V186.05Z" fill="white"/>
<path d="M197.767 351.958H203.749L214.485 202.406H206.551L197.767 351.958Z" fill="#263238"/>
<path opacity="0.1" d="M197.767 351.958H203.749L213.958 209.832L214.485 202.649H206.551L206.131 209.832L197.767 351.958Z" fill="white"/>
<path opacity="0.2" d="M206.131 209.481H213.958L214.485 202.649H206.551L206.131 209.481Z" fill="black"/>
<path d="M153.886 351.958H159.869L160.845 202.406H152.91L153.886 351.958Z" fill="#263238"/>
<path opacity="0.1" d="M152.9 202.649L153.066 226.773L153.876 351.958H159.859L160.679 226.773L160.835 202.649H152.9Z" fill="white"/>
<path opacity="0.2" d="M152.9 202.649L153.066 227.046H160.679L160.835 202.649H152.9Z" fill="black"/>
<path d="M90.4065 351.958H96.3894L107.125 202.406H99.1905L90.4065 351.958Z" fill="#263238"/>
<path opacity="0.1" d="M90.4065 351.958H96.3894L106.608 209.832L107.125 202.649H99.1905L98.7708 209.832L90.4065 351.958Z" fill="white"/>
<path opacity="0.2" d="M98.7708 209.481H106.608L107.125 202.649H99.1904L98.7708 209.481Z" fill="black"/>
<path d="M266.165 351.958H272.148L263.354 202.406H255.419L266.165 351.958Z" fill="#263238"/>
<path opacity="0.1" d="M255.419 202.649L255.956 209.832L266.165 351.958H272.138L263.783 209.832L263.354 202.649H255.419Z" fill="white"/>
<path opacity="0.2" d="M263.354 202.649H255.419L255.956 209.481H263.783L263.354 202.649Z" fill="black"/>
<path d="M267.541 206.153L95.023 206.153C94.7462 206.153 94.472 206.098 94.2162 205.992C93.9605 205.886 93.7281 205.731 93.5323 205.535C93.3365 205.34 93.1813 205.107 93.0753 204.852C92.9694 204.596 92.9148 204.322 92.9148 204.045V198.668L269.649 198.668V204.045C269.649 204.322 269.594 204.596 269.488 204.852C269.382 205.107 269.227 205.34 269.031 205.535C268.836 205.731 268.603 205.886 268.348 205.992C268.092 206.098 267.818 206.153 267.541 206.153Z" fill="#45BD43"/>
<path opacity="0.4" d="M267.541 206.153L95.023 206.153C94.7462 206.153 94.472 206.098 94.2162 205.992C93.9605 205.886 93.7281 205.731 93.5323 205.535C93.3365 205.34 93.1813 205.107 93.0753 204.852C92.9694 204.596 92.9148 204.322 92.9148 204.045V198.668L269.649 198.668V204.045C269.649 204.322 269.594 204.596 269.488 204.852C269.382 205.107 269.227 205.34 269.031 205.535C268.836 205.731 268.603 205.886 268.348 205.992C268.092 206.098 267.818 206.153 267.541 206.153Z" fill="white"/>
<path opacity="0.2" d="M92.9148 202.406L269.649 202.406V198.658L92.9148 198.658V202.406Z" fill="black"/>
<path d="M89.2061 199.634H273.348C273.625 199.635 273.9 199.582 274.156 199.476C274.413 199.371 274.646 199.215 274.842 199.019C275.038 198.823 275.193 198.591 275.298 198.334C275.404 198.078 275.457 197.803 275.456 197.526C275.456 196.967 275.234 196.431 274.839 196.036C274.443 195.64 273.907 195.418 273.348 195.418H89.2061C88.646 195.418 88.1088 195.64 87.7119 196.035C87.315 196.43 87.0907 196.966 87.0881 197.526C87.0881 197.804 87.143 198.079 87.2495 198.335C87.3561 198.591 87.5123 198.824 87.7091 199.02C87.9058 199.216 88.1394 199.371 88.3963 199.476C88.6532 199.582 88.9284 199.635 89.2061 199.634Z" fill="#45BD43"/>
<path opacity="0.4" d="M89.2061 199.634H273.348C273.625 199.635 273.9 199.582 274.156 199.476C274.413 199.371 274.646 199.215 274.842 199.019C275.038 198.823 275.193 198.591 275.298 198.334C275.404 198.078 275.457 197.803 275.456 197.526C275.456 196.967 275.234 196.431 274.839 196.036C274.443 195.64 273.907 195.418 273.348 195.418H89.2061C88.646 195.418 88.1088 195.64 87.7119 196.035C87.315 196.43 87.0907 196.966 87.0881 197.526C87.0881 197.804 87.143 198.079 87.2495 198.335C87.3561 198.591 87.5123 198.824 87.7091 199.02C87.9058 199.216 88.1394 199.371 88.3963 199.476C88.6532 199.582 88.9284 199.635 89.2061 199.634Z" fill="white"/>
<path d="M233.781 195.399V192.1H235.996L233.781 190.812H235.44L233.225 189.368H231.126V187.709H233.566L231.126 186.743V183.142H233.566V180.79H235.996L233.566 179.97V178.292H235.303L233.879 176.877L232.649 175.637H194.936V177.326H192.447L195.219 178.575V179.97H190.134V182.566H187.88L190.134 183.698V186.596H191.735V187.982H194.936V192.1H193.14L194.614 193.574V195.418L233.781 195.399Z" fill="#45BD43"/>
<path opacity="0.7" d="M233.781 195.399V192.1H235.996L233.781 190.812H235.44L233.225 189.368H231.126V187.709H233.566L231.126 186.743V183.142H233.566V180.79H235.996L233.566 179.97V178.292H235.303L233.879 176.877L232.649 175.637H194.936V177.326H192.447L195.219 178.575V179.97H190.134V182.566H187.88L190.134 183.698V186.596H191.735V187.982H194.936V192.1H193.14L194.614 193.574V195.418L233.781 195.399Z" fill="white"/>
<path opacity="0.1" d="M233.781 195.399V192.1H235.996L233.781 190.812H235.44L233.225 189.368H231.126V187.709H233.566L231.126 186.743V183.142H233.566V180.79H235.996L233.566 179.97V178.292H235.304L233.879 176.877L232.649 175.637H212.787V177.326H210.298L213.06 178.575V179.97H207.976V182.566H205.721L207.976 183.698V186.596H209.576V187.982H212.787V192.1H210.991L212.455 193.574V195.418L233.781 195.399Z" fill="black"/>
<path opacity="0.1" d="M195.219 179.97H213.061L195.219 179.326V179.97Z" fill="black"/>
<path opacity="0.1" d="M194.936 187.982H212.787L212.865 189.231L194.936 187.982Z" fill="black"/>
<path opacity="0.1" d="M191.735 186.596H209.576L191.735 187.221V186.596Z" fill="black"/>
<path opacity="0.1" d="M194.936 192.1H212.787L194.936 191.447V192.1Z" fill="black"/>
<path opacity="0.1" d="M194.614 193.574H212.455V194.257L194.614 193.574Z" fill="black"/>
<path opacity="0.1" d="M190.134 182.566H207.976L190.134 182V182.566Z" fill="black"/>
<path opacity="0.1" d="M194.936 177.326H212.787L194.936 176.701V177.326Z" fill="black"/>
<path opacity="0.1" d="M233.566 178.292H215.461L233.566 178.848V178.292Z" fill="black"/>
<path opacity="0.1" d="M213.061 179.97H233.566L214.973 180.575L213.061 179.97Z" fill="black"/>
<path opacity="0.1" d="M207.976 182.566L233.566 183.142V182.566H207.976Z" fill="black"/>
<path opacity="0.1" d="M207.976 183.698H220.634L207.976 184.313V183.698Z" fill="black"/>
<path opacity="0.1" d="M231.126 186.743L212.787 186.596L231.126 186.187V186.743Z" fill="black"/>
<path opacity="0.1" d="M231.126 187.709H212.455L231.126 188.334V187.709Z" fill="black"/>
<path opacity="0.1" d="M233.781 190.812H213.061V191.447L233.781 190.812Z" fill="black"/>
<path opacity="0.1" d="M233.781 192.1H218.77L233.781 192.52V192.1Z" fill="black"/>
<path d="M185.762 191.144V194.277C185.762 195.077 184.786 195.409 184.015 195.409H121.434C120.633 195.409 119.667 195.077 119.667 194.277V191.144H185.762Z" fill="#263238"/>
<path opacity="0.4" d="M185.762 191.144V194.277C185.762 195.077 184.786 195.409 184.015 195.409H121.434C120.633 195.409 119.667 195.077 119.667 194.277V191.144H185.762Z" fill="white"/>
<path opacity="0.2" d="M185.762 191.144V194.277C185.762 195.077 184.786 195.409 184.015 195.409H142.74C141.939 195.409 140.983 195.077 140.983 194.277V191.144H185.762Z" fill="black"/>
<path d="M196.234 158.628L188.778 192.422C188.649 192.971 188.342 193.461 187.903 193.815C187.464 194.168 186.92 194.365 186.357 194.374H145.668C145.415 194.369 145.166 194.305 144.942 194.187C144.718 194.069 144.524 193.901 144.375 193.696C144.227 193.491 144.128 193.254 144.086 193.005C144.045 192.755 144.061 192.499 144.135 192.257L151.572 158.726C151.725 158.214 152.049 157.77 152.489 157.468C152.93 157.166 153.461 157.024 153.993 157.067H194.692C195.785 157.028 196.469 157.525 196.234 158.628Z" fill="#263238"/>
<path opacity="0.4" d="M196.234 158.628L188.778 192.422C188.649 192.971 188.342 193.461 187.903 193.814C187.465 194.168 186.92 194.365 186.357 194.374H147.044C146.791 194.369 146.542 194.304 146.318 194.187C146.094 194.069 145.9 193.901 145.751 193.696C145.603 193.491 145.504 193.254 145.462 193.004C145.421 192.755 145.438 192.499 145.512 192.256L152.958 158.726C153.109 158.213 153.433 157.768 153.874 157.465C154.314 157.163 154.846 157.022 155.379 157.067H194.692C195.785 157.028 196.469 157.525 196.234 158.628Z" fill="white"/>
<path opacity="0.2" d="M176.168 175.803C176.168 178.731 173.064 181.044 170.79 181.044C168.516 181.044 167.169 178.692 167.862 175.803C168.555 172.915 170.79 170.66 172.996 170.573C172.351 173.5 173.737 175.803 176.002 175.803H176.168Z" fill="black"/>
</g>
<defs>
<clipPath id="clip0_100_12803">
<rect width="488" height="364" fill="white" transform="translate(-48)"/>
</clipPath>
</defs>
</svg>
