<svg width="134" height="66" viewBox="0 0 134 66" fill="none" xmlns="http://www.w3.org/2000/svg">
<path d="M16.9908 63.3421H0.250031V0.414429H37.4354V14.0569H16.9908V26.0674H35.848V39.7099H16.9908V63.3421Z" fill="#45BD43"/>
<path d="M75.5345 63.3421H58.5324V14.3183H43.1623V0.414429H90.86V14.3183H75.5345V63.3421Z" fill="#45BD43"/>
<mask id="mask0_176_74" style="mask-type:luminance" maskUnits="userSpaceOnUse" x="97" y="0" width="22" height="25">
<path d="M97.752 0H118.968V24.888H97.752V0Z" fill="white"/>
</mask>
<g mask="url(#mask0_176_74)">
<mask id="mask1_176_74" style="mask-type:luminance" maskUnits="userSpaceOnUse" x="90" y="-3" width="45" height="44">
<path d="M99.7697 -2.24878L134.163 7.69144L124.733 40.3219L90.3379 30.3817L99.7697 -2.24878Z" fill="white"/>
</mask>
<g mask="url(#mask1_176_74)">
<mask id="mask2_176_74" style="mask-type:luminance" maskUnits="userSpaceOnUse" x="90" y="-3" width="45" height="44">
<path d="M99.7697 -2.24878L134.163 7.69144L124.733 40.3219L90.3379 30.3817L99.7697 -2.24878Z" fill="white"/>
</mask>
<g mask="url(#mask2_176_74)">
<mask id="mask3_176_74" style="mask-type:luminance" maskUnits="userSpaceOnUse" x="90" y="-3" width="45" height="44">
<path d="M99.7697 -2.24878L134.163 7.69144L124.733 40.3219L90.3379 30.3817L99.7697 -2.24878Z" fill="white"/>
</mask>
<g mask="url(#mask3_176_74)">
<path d="M100.831 13.4002C98.7672 17.4101 100.967 21.0343 101.354 21.4279C101.242 22.3937 101.19 23.3627 101.193 24.3349C108.102 25.2418 114.794 22.3125 116.616 21.1124C117.027 20.8446 117.414 20.5482 117.776 20.2183C116.743 20.3968 115.707 20.4334 114.663 20.3298C114.494 20.2454 114.319 20.1784 114.137 20.1258C113.76 19.0899 112.499 18.2691 112.499 18.2691C112.466 18.2277 112.442 18.1831 112.429 18.1305C112.415 18.0795 112.413 18.0285 112.422 17.9759C112.43 17.9233 112.451 17.8755 112.481 17.8324C112.512 17.7894 112.548 17.7543 112.595 17.7272C113.648 18.3408 113.776 19.1983 114.639 19.2477C115.067 19.2732 115.827 18.5608 116.023 18.207C116.3 17.7017 116.249 17.5854 116.412 17.4946C116.662 17.3575 117.019 17.4946 117.105 17.1519C117.191 16.8076 117.244 15.343 117.522 14.9605C117.8 14.5796 119.61 11.9658 118.08 9.69315C116.765 7.74559 114.896 7.61809 114.246 7.67227C112.76 7.78702 111.038 8.9664 110.688 11.3491C110.545 12.326 109.764 12.699 109.249 12.6511C107.461 8.72255 106.33 8.64127 105.158 8.22849C104.742 7.10012 104.102 6.22355 102.833 5.86655C105.657 5.17327 105.59 3.09184 107.941 2.1818C109.203 3.5604 109.939 3.65284 110.309 3.8664C110.182 4.38118 110.475 5.06968 110.709 5.18124C110.945 5.29121 112.137 5.05215 112.271 4.84177C112.405 4.6298 112.858 2.93405 112.252 2.08299C111.576 1.64471 108.95 0.45896 108.272 0.379272C105.584 0.862178 103.123 1.27815 101.894 1.86465C101.053 2.26787 100.775 2.68384 100.543 2.82409C100.31 2.96274 99.7012 3.00896 99.1959 3.43768C98.3146 4.20427 97.5703 5.63865 98.2524 7.1288C98.5011 8.19502 97.4619 10.2127 100.831 13.4002Z" fill="white"/>
</g>
</g>
</g>
</g>
<mask id="mask4_176_74" style="mask-type:luminance" maskUnits="userSpaceOnUse" x="98" y="21" width="31" height="15">
<path d="M98.568 21.624H128.76V35.088H98.568V21.624Z" fill="white"/>
</mask>
<g mask="url(#mask4_176_74)">
<mask id="mask5_176_74" style="mask-type:luminance" maskUnits="userSpaceOnUse" x="90" y="-3" width="45" height="44">
<path d="M99.7697 -2.24878L134.163 7.69144L124.733 40.3219L90.3379 30.3817L99.7697 -2.24878Z" fill="white"/>
</mask>
<g mask="url(#mask5_176_74)">
<mask id="mask6_176_74" style="mask-type:luminance" maskUnits="userSpaceOnUse" x="90" y="-3" width="45" height="44">
<path d="M99.7697 -2.24878L134.163 7.69144L124.733 40.3219L90.3379 30.3817L99.7697 -2.24878Z" fill="white"/>
</mask>
<g mask="url(#mask6_176_74)">
<mask id="mask7_176_74" style="mask-type:luminance" maskUnits="userSpaceOnUse" x="90" y="-3" width="45" height="44">
<path d="M99.7697 -2.24878L134.163 7.69144L124.733 40.3219L90.3379 30.3817L99.7697 -2.24878Z" fill="white"/>
</mask>
<g mask="url(#mask7_176_74)">
<path d="M127.533 21.7961C127.056 21.6288 124.75 22.295 125.179 23.2847C125.023 23.6879 124.964 24.1421 125.714 24.4194C125.92 24.7828 126.076 25.1669 126.184 25.5701C124.415 26.5567 123.8 27.1017 123.585 27.4715C121.905 27.5783 120.359 28.6094 120.044 28.7752C120.429 27.4396 119.105 25.916 118.286 25.6785C116.109 26.8658 113.248 27.7775 110.359 28.4182C106.511 29.2724 102.78 29.4366 99.8765 28.8835C99.537 28.8198 99.2135 28.7449 98.9027 28.6604C99.8765 29.3122 100.9 29.8732 101.974 30.3434C101.977 30.3609 101.98 30.3801 101.985 30.3976C101.465 31.3379 100.992 32.3021 100.57 33.2903C104.538 34.1923 109.308 34.2449 111.49 33.7939C111.866 32.8408 112.158 31.8623 112.367 30.8598C114.257 32.3962 116.243 33.1946 117.132 33.3923C118.474 34.213 119.497 34.7374 119.945 34.7645C120.729 34.535 120.911 34.2752 121.359 33.9628C124.215 32.9715 125.386 30.5538 126.143 29.1433C126.9 27.7328 128.003 27.0396 128.326 26.5503C129.028 25.4968 127.957 21.9459 127.533 21.7961Z" fill="white"/>
</g>
</g>
</g>
</g>
<mask id="mask8_176_74" style="mask-type:luminance" maskUnits="userSpaceOnUse" x="92" y="14" width="34" height="15">
<path d="M92.856 14.688H125.496V28.152H92.856V14.688Z" fill="white"/>
</mask>
<g mask="url(#mask8_176_74)">
<mask id="mask9_176_74" style="mask-type:luminance" maskUnits="userSpaceOnUse" x="90" y="-3" width="45" height="44">
<path d="M99.7697 -2.24878L134.163 7.69144L124.733 40.3219L90.3379 30.3817L99.7697 -2.24878Z" fill="white"/>
</mask>
<g mask="url(#mask9_176_74)">
<mask id="mask10_176_74" style="mask-type:luminance" maskUnits="userSpaceOnUse" x="90" y="-3" width="45" height="44">
<path d="M99.7697 -2.24878L134.163 7.69144L124.733 40.3219L90.3379 30.3817L99.7697 -2.24878Z" fill="white"/>
</mask>
<g mask="url(#mask10_176_74)">
<mask id="mask11_176_74" style="mask-type:luminance" maskUnits="userSpaceOnUse" x="90" y="-3" width="45" height="44">
<path d="M99.7697 -2.24878L134.163 7.69144L124.733 40.3219L90.3379 30.3817L99.7697 -2.24878Z" fill="white"/>
</mask>
<g mask="url(#mask11_176_74)">
<path d="M125.321 19.1681C125.086 17.2938 122.9 15.8547 119.596 15.0706C121.191 15.6953 122.187 16.5862 122.323 17.6588C122.667 20.4606 117.003 23.4824 109.656 24.4004C102.307 25.3184 96.0754 23.8139 95.7263 21.0057C95.5924 19.9331 96.3431 18.827 97.7297 17.8198C94.7207 19.4072 92.958 21.342 93.1907 23.2162C93.6401 26.7958 101.194 28.788 110.065 27.6692C118.938 26.5503 125.765 22.7524 125.321 19.1681Z" fill="#45BD43"/>
</g>
</g>
</g>
</g>
<mask id="mask12_176_74" style="mask-type:luminance" maskUnits="userSpaceOnUse" x="78" y="34" width="56" height="9">
<path d="M78.423 34.7581H133.197V42.7141H78.423V34.7581Z" fill="white"/>
</mask>
<g mask="url(#mask12_176_74)">
<path d="M78.5457 38.7345C78.7896 38.564 79.0414 38.4062 79.2964 38.2532C79.5514 38.1002 79.8112 37.9567 80.0725 37.8149C80.5985 37.5344 81.134 37.2746 81.6806 37.0355C82.7723 36.5542 83.9007 36.151 85.053 35.8195C85.6283 35.6538 86.2101 35.5087 86.7966 35.3796C87.3831 35.2521 87.9743 35.147 88.5704 35.0577C88.7186 35.0354 88.8668 35.0131 89.0167 34.994L89.4645 34.9382C89.7625 34.9063 90.0622 34.8744 90.3634 34.8505L90.5881 34.833L90.8128 34.8186C90.9642 34.8091 91.114 34.7979 91.2638 34.7915L91.7165 34.7724L92.1691 34.7629C92.7715 34.7565 93.3756 34.766 93.978 34.7963C94.1294 34.8027 94.2792 34.8155 94.429 34.825L94.6553 34.8394L94.8817 34.8601C95.0315 34.8744 95.1829 34.8856 95.3327 34.9015L95.7821 34.9509C96.3814 35.0258 96.9806 35.1087 97.5735 35.225L97.7966 35.2665C97.8715 35.2792 97.9448 35.2968 98.0197 35.3111L98.4628 35.4035C98.6094 35.437 98.7577 35.4721 98.9043 35.5055L99.1242 35.5565C99.1991 35.5741 99.2708 35.5948 99.3442 35.6123C100.516 35.9104 101.669 36.2785 102.793 36.72L103.214 36.8873C103.354 36.9431 103.493 37.0037 103.631 37.0626L103.84 37.1503C103.909 37.1806 103.979 37.2093 104.047 37.2411L104.458 37.4276L104.666 37.5216L104.868 37.6189L105.378 37.8659L105.479 37.9169L106.081 38.2261C108.142 39.3114 110.309 40.1928 112.555 40.8016C112.625 40.8207 112.695 40.8414 112.765 40.859L112.977 40.9131C113.117 40.9482 113.258 40.9849 113.399 41.0199L113.825 41.1171C113.895 41.1331 113.967 41.1506 114.037 41.165L114.252 41.208C114.821 41.3275 115.395 41.4263 115.97 41.5124C117.122 41.6781 118.287 41.777 119.454 41.8009C120.621 41.8248 121.791 41.7801 122.956 41.6622C123.537 41.6048 124.117 41.5267 124.698 41.4343C125.276 41.3419 125.853 41.2303 126.425 41.1028C126.999 40.9769 127.569 40.8303 128.135 40.6693C128.701 40.5099 129.264 40.3314 129.82 40.1354C130.376 39.9394 130.928 39.729 131.471 39.4963C131.742 39.3815 132.013 39.2604 132.281 39.1345C132.414 39.0708 132.547 39.007 132.679 38.9401C132.811 38.8731 132.944 38.8062 133.073 38.7345C132.83 38.905 132.579 39.0628 132.324 39.2142C132.069 39.3672 131.809 39.5122 131.546 39.6541C131.022 39.933 130.484 40.1944 129.939 40.4334C128.846 40.9147 127.718 41.318 126.567 41.651C125.992 41.8152 125.408 41.9602 124.822 42.0893C124.235 42.2168 123.644 42.3236 123.05 42.4129C122.455 42.5037 121.857 42.5691 121.257 42.6185L121.032 42.6376L120.806 42.6519C120.656 42.6599 120.506 42.6726 120.355 42.6774L119.904 42.6965L119.451 42.7061C118.848 42.7125 118.244 42.7045 117.64 42.6726C117.491 42.6679 117.339 42.6535 117.189 42.6455L116.963 42.6296L116.738 42.6089C116.587 42.5961 116.437 42.5834 116.287 42.5675L115.836 42.518C115.237 42.4447 114.638 42.3603 114.045 42.2439L113.822 42.2041C113.747 42.1897 113.674 42.1738 113.6 42.1579L113.156 42.0654C113.009 42.032 112.862 41.9969 112.714 41.9634L112.494 41.9124C112.421 41.8949 112.348 41.8742 112.274 41.8566L111.836 41.7435C111.689 41.7036 111.544 41.6606 111.399 41.6192C111.108 41.5395 110.821 41.4455 110.532 41.3562C110.461 41.3339 110.389 41.31 110.317 41.2861L110.102 41.2128L109.888 41.1411C109.817 41.1156 109.745 41.0916 109.675 41.0661L109.249 40.91C109.178 40.8829 109.107 40.859 109.036 40.8319L108.825 40.749L108.405 40.5816C108.264 40.5243 108.127 40.4637 107.987 40.4063L107.78 40.3171C107.71 40.2884 107.64 40.2597 107.573 40.2278L107.16 40.0414L106.954 39.9473L106.75 39.8485L106.342 39.6525L106.242 39.6031L106.142 39.5505L105.939 39.4485L105.537 39.2413C103.478 38.156 101.311 37.2746 99.0652 36.6658C98.9951 36.6467 98.925 36.626 98.8549 36.6068L98.6429 36.5542C98.5027 36.5192 98.3608 36.4825 98.2206 36.4475L97.795 36.3502C97.7233 36.3343 97.6532 36.3168 97.5815 36.3024L97.3679 36.2594C96.7989 36.1383 96.2252 36.0395 95.6482 35.9534C94.496 35.7876 93.3325 35.6888 92.1659 35.6649C90.9993 35.641 89.8295 35.6856 88.6644 35.8036C88.0811 35.861 87.501 35.9406 86.9225 36.0315C86.3423 36.1239 85.767 36.2355 85.1932 36.363C84.6195 36.4889 84.0505 36.6355 83.4832 36.7965C82.9174 36.9575 82.3564 37.136 81.8002 37.332C81.2439 37.5264 80.6925 37.7384 80.149 37.9711C79.8765 38.0858 79.6072 38.207 79.3394 38.3329C79.2055 38.3966 79.0717 38.462 78.9394 38.5273C78.8071 38.5942 78.6764 38.6612 78.5457 38.7345Z" fill="#45BD43"/>
</g>
<path d="M95.5905 64.4429H90.771V57.2136H85.212V64.4429H80.3925V46.714H85.212V53.2866H90.771V46.714H95.5905V64.4429Z" fill="white"/>
<path d="M108.926 64.443L108.327 62.7345H108.052C107.652 63.364 107.099 63.8469 106.395 64.1816C105.689 64.5163 104.859 64.6852 103.902 64.6852C102.393 64.6852 101.218 64.2485 100.377 63.372C99.5354 62.4922 99.1147 61.2539 99.1147 59.6553V50.7048H103.858V58.2082C103.858 59.1103 103.982 59.7892 104.234 60.2482C104.489 60.7072 104.906 60.9367 105.49 60.9367C106.306 60.9367 106.887 60.6164 107.236 59.9741C107.584 59.3334 107.759 58.2496 107.759 56.7228V50.7048H112.502V64.443H108.926Z" fill="white"/>
<path d="M124.163 50.4625C125.658 50.4625 126.844 51.0904 127.72 52.3431C128.595 53.5974 129.034 55.3314 129.034 57.5451C129.034 59.7763 128.591 61.5263 127.708 62.7917C126.823 64.054 125.593 64.6851 124.017 64.6851C123.507 64.6851 123.054 64.6293 122.659 64.5193C122.263 64.4142 121.908 64.2628 121.594 64.0667C121.283 63.8723 120.921 63.5488 120.51 63.0977H120.223L119.471 64.4428H115.774V45.5792H120.51V49.8441C120.51 50.3541 120.455 51.2323 120.345 52.477H120.51C120.972 51.7678 121.505 51.2562 122.104 50.9406C122.706 50.6218 123.393 50.4625 124.163 50.4625ZM122.429 54.1855C121.766 54.1855 121.278 54.4182 120.969 54.8803C120.663 55.3393 120.51 56.0629 120.51 57.0478V57.7108C120.51 58.8376 120.663 59.6457 120.969 60.1333C121.278 60.6226 121.781 60.8665 122.474 60.8665C123.035 60.8665 123.464 60.5828 123.762 60.0122C124.058 59.4433 124.208 58.6033 124.208 57.4941C124.208 55.2883 123.615 54.1855 122.429 54.1855Z" fill="white"/>
</svg>
