<svg width="393" height="452" viewBox="0 0 393 452" fill="none" xmlns="http://www.w3.org/2000/svg">
<path d="M182.412 444.605C300.239 444.605 395.756 386.178 395.756 314.104C395.756 242.03 300.239 183.602 182.412 183.602C64.5852 183.602 -30.9323 242.03 -30.9323 314.104C-30.9323 386.178 64.5852 444.605 182.412 444.605Z" fill="#F5F5F5"/>
<path d="M220.836 202.107C210.037 208.435 210.037 218.641 220.836 224.951C231.636 231.261 249.158 231.279 259.966 224.951C270.775 218.623 270.775 208.417 259.966 202.107C249.158 195.797 231.662 195.797 220.836 202.107Z" fill="#E0E0E0"/>
<path d="M49.635 322.448L-15.0369 285.04C-15.1905 284.967 -15.3204 284.852 -15.4114 284.707C-15.5023 284.562 -15.5506 284.394 -15.5506 284.222C-15.5506 284.05 -15.5023 283.882 -15.4114 283.738C-15.3204 283.593 -15.1905 283.477 -15.0369 283.404L161.537 180.348C161.972 180.125 162.453 180.009 162.941 180.009C163.428 180.009 163.909 180.125 164.344 180.348L229.016 217.756C229.17 217.829 229.3 217.944 229.391 218.089C229.481 218.234 229.53 218.402 229.53 218.574C229.53 218.745 229.481 218.913 229.391 219.058C229.3 219.203 229.17 219.319 229.016 219.392L52.4422 322.448C52.0072 322.671 51.5263 322.787 51.0386 322.787C50.5508 322.787 50.07 322.671 49.635 322.448Z" fill="#E0E0E0"/>
<path d="M100.468 379.59C109.207 379.59 116.292 375.453 116.292 370.351C116.292 365.248 109.207 361.112 100.468 361.112C91.7286 361.112 84.644 365.248 84.644 370.351C84.644 375.453 91.7286 379.59 100.468 379.59Z" fill="#E0E0E0"/>
<path d="M381.103 327.293L212.522 425.612L126.93 375.919L295.512 277.6L381.103 327.293Z" fill="#E0E0E0"/>
<path d="M1.25174 263.778C1.25174 263.778 1.65404 250.372 -1.5733 241.106C-4.80064 231.84 -11.1033 225.15 -17.5312 223.026C-23.9591 220.901 -30.6551 225.738 -24.6296 231.623C-18.604 237.508 -7.13398 244.74 -5.06884 261.744L1.25174 263.778Z" fill="#45BD43"/>
<g opacity="0.15">
<path d="M1.25174 263.778C1.25174 263.778 1.65404 250.372 -1.5733 241.106C-4.80064 231.84 -11.1033 225.15 -17.5312 223.026C-23.9591 220.901 -30.6551 225.738 -24.6296 231.623C-18.604 237.508 -7.13398 244.74 -5.06884 261.744L1.25174 263.778Z" fill="black"/>
</g>
<path d="M-27.7675 246.087C-27.696 247.515 -26.6143 248.663 -25.5683 249.64C-24.5223 250.616 -23.3959 251.665 -23.1724 253.075C-22.7075 255.922 -26.1494 258.363 -25.5683 261.211C-24.9872 264.058 -21.5006 264.917 -19.2298 265.875C-17.7089 266.392 -16.45 267.493 -15.7253 268.94C-15.3714 270.234 -15.2892 271.589 -15.484 272.918C-15.5734 275.358 -15.1532 278.983 -13.1685 280.656C-10.8709 282.599 -6.97308 283.666 -4.2285 282.337C0.920942 279.842 6.15084 275.874 6.64254 269.636C6.77642 267.804 6.50126 265.964 5.8374 264.254C5.17355 262.544 4.13797 261.006 2.80728 259.755C1.78812 258.806 0.616983 258.047 -0.348537 257.043C-2.32428 255.009 -1.9935 252.225 -2.60142 249.612C-3.14676 247.28 -5.38176 246.15 -7.56312 245.707C-9.74448 245.264 -11.9258 245.707 -13.8926 244.803C-15.8594 243.899 -17.4686 242.706 -19.5338 242.091C-20.5955 241.717 -21.7275 241.592 -22.8441 241.725C-23.9608 241.858 -25.0329 242.246 -25.9795 242.86C-26.5149 243.21 -26.9575 243.687 -27.2691 244.249C-27.5807 244.812 -27.7518 245.442 -27.7675 246.087Z" fill="#45BD43"/>
<path d="M219.155 180.339C219.168 180.203 219.216 180.073 219.295 179.962C219.373 179.851 219.479 179.763 219.602 179.706C219.937 179.537 220.305 179.449 220.68 179.449C221.054 179.449 221.422 179.537 221.757 179.706C221.88 179.763 221.986 179.851 222.064 179.962C222.143 180.073 222.191 180.203 222.204 180.339L216.777 212.72C216.766 212.814 216.731 212.902 216.677 212.978C216.622 213.054 216.549 213.115 216.464 213.154C216.229 213.274 215.968 213.337 215.704 213.337C215.44 213.337 215.18 213.274 214.944 213.154C214.86 213.115 214.787 213.054 214.732 212.978C214.678 212.902 214.643 212.814 214.632 212.72L219.155 180.339Z" fill="#455A64"/>
<path d="M260.985 180.339C260.974 180.203 260.927 180.072 260.848 179.96C260.769 179.849 260.662 179.761 260.538 179.706C260.204 179.537 259.835 179.449 259.461 179.449C259.087 179.449 258.718 179.537 258.384 179.706C258.261 179.763 258.155 179.851 258.077 179.962C257.998 180.073 257.95 180.203 257.937 180.339L263.364 212.72C263.376 212.813 263.412 212.901 263.466 212.977C263.521 213.053 263.593 213.113 263.676 213.154C263.914 213.274 264.175 213.337 264.441 213.337C264.706 213.337 264.968 213.274 265.205 213.154C265.289 213.113 265.361 213.053 265.415 212.977C265.47 212.901 265.505 212.813 265.518 212.72L260.985 180.339Z" fill="#455A64"/>
<path d="M241.782 182.789C241.769 182.654 241.72 182.526 241.642 182.416C241.563 182.307 241.458 182.22 241.335 182.165C241.002 181.991 240.633 181.901 240.258 181.901C239.883 181.901 239.514 181.991 239.181 182.165C239.059 182.22 238.953 182.307 238.874 182.416C238.796 182.526 238.747 182.654 238.734 182.789L239.181 221.308C239.191 221.402 239.226 221.491 239.28 221.567C239.335 221.643 239.409 221.704 239.494 221.742C239.73 221.867 239.992 221.931 240.258 221.931C240.524 221.931 240.786 221.867 241.022 221.742C241.107 221.704 241.181 221.643 241.236 221.567C241.291 221.491 241.325 221.402 241.335 221.308L241.782 182.789Z" fill="#455A64"/>
<path d="M267.557 169.672C267.557 165.595 264.875 161.536 259.582 158.399C248.917 152.18 231.636 152.18 220.97 158.399C215.606 161.518 212.996 165.631 212.996 169.672V171.86C213.058 175.891 215.732 179.905 220.988 182.97C231.654 189.198 248.935 189.198 259.6 182.97C264.866 179.905 267.53 175.891 267.592 171.86L267.557 169.672Z" fill="#45BD43"/>
<path d="M220.952 158.399C210.287 164.627 210.287 174.716 220.952 180.945C231.618 187.173 248.899 187.164 259.564 180.945C270.229 174.725 270.229 164.673 259.564 158.399C248.899 152.125 231.618 152.179 220.952 158.399Z" fill="#45BD43"/>
<path opacity="0.45" d="M220.952 158.399C210.287 164.627 210.287 174.716 220.952 180.945C231.618 187.173 248.899 187.164 259.564 180.945C270.229 174.725 270.229 164.673 259.564 158.399C248.899 152.125 231.618 152.179 220.952 158.399Z" fill="white"/>
<g opacity="0.05">
<path d="M246.235 164.401C249.641 166.39 249.641 169.608 246.235 171.633C244.326 172.61 242.218 173.118 240.079 173.118C237.941 173.118 235.832 172.61 233.924 171.633C230.518 169.645 230.518 166.426 233.924 164.401C235.832 163.425 237.941 162.916 240.079 162.916C242.218 162.916 244.326 163.425 246.235 164.401Z" fill="black"/>
</g>
<path d="M234.666 168.442C231.698 165.387 229.964 157.757 232.878 155.334H247.576C250.463 157.757 248.729 165.387 245.788 168.442L245.707 168.524L245.6 168.623L245.332 168.867L245.26 168.921L245.037 169.093C244.916 169.181 244.79 169.262 244.661 169.337C243.295 170.041 241.783 170.408 240.249 170.408C238.716 170.408 237.204 170.041 235.837 169.337C235.703 169.265 235.578 169.184 235.444 169.093L235.238 168.93L235.149 168.867L234.899 168.632L234.773 168.515L234.666 168.442Z" fill="#EBEBEB"/>
<path d="M246.27 154.358C249.632 156.311 249.632 159.493 246.27 161.445C244.389 162.411 242.31 162.914 240.2 162.914C238.091 162.914 236.011 162.411 234.13 161.445C230.777 159.493 230.777 156.311 234.13 154.358C236.011 153.392 238.091 152.889 240.2 152.889C242.31 152.889 244.389 153.392 246.27 154.358Z" fill="#FAFAFA"/>
<path d="M243.892 155.741C245.94 156.934 245.94 158.869 243.892 160.062C242.747 160.646 241.483 160.951 240.2 160.951C238.918 160.951 237.653 160.646 236.508 160.062C234.47 158.869 234.47 156.934 236.508 155.741C237.653 155.157 238.918 154.853 240.2 154.853C241.483 154.853 242.747 155.157 243.892 155.741Z" fill="#EBEBEB"/>
<path d="M236.508 157.793C237.652 157.205 238.917 156.898 240.2 156.898C241.483 156.898 242.748 157.205 243.892 157.793C244.386 158.063 244.807 158.451 245.117 158.923C244.81 159.401 244.389 159.792 243.892 160.062C242.747 160.646 241.483 160.951 240.2 160.951C238.918 160.951 237.653 160.646 236.508 160.062C236.012 159.792 235.59 159.401 235.283 158.923C235.594 158.451 236.014 158.063 236.508 157.793Z" fill="#E0E0E0"/>
<path d="M243.445 158.923C244.496 157.845 245.398 156.629 246.127 155.307C247.361 153.101 247.593 150.145 246.95 149.775C246.306 149.404 243.713 152.36 243.713 152.36C243.953 151.119 244.046 149.854 243.991 148.59C243.883 146.629 243.409 144.839 242.846 144.486C242.283 144.134 241.058 146.602 240.513 148.401C239.968 150.2 239.664 151.673 239.664 151.673C239.449 150.274 239.129 148.892 238.707 147.542C238.054 145.671 237.464 145.255 237.008 145.436C236.553 145.616 236.257 146.493 236.114 148.97C236.063 150.158 236.099 151.349 236.222 152.532C236.222 152.532 235.328 151.51 234.291 150.525C233.254 149.54 232.699 149.287 232.378 149.494C232.056 149.702 231.966 151.393 233.701 154.557C234.558 156.166 235.659 157.63 236.964 158.896C236.964 158.896 239.36 160.487 243.445 158.923Z" fill="#45BD43"/>
<path opacity="0.3" d="M243.445 158.923C244.496 157.845 245.398 156.629 246.127 155.307C247.361 153.101 247.593 150.145 246.95 149.775C246.306 149.404 243.713 152.36 243.713 152.36C243.953 151.119 244.046 149.854 243.991 148.59C243.883 146.629 243.409 144.839 242.846 144.486C242.283 144.134 241.058 146.602 240.513 148.401C239.968 150.2 239.664 151.673 239.664 151.673C239.449 150.274 239.129 148.892 238.707 147.542C238.054 145.671 237.464 145.255 237.008 145.436C236.553 145.616 236.257 146.493 236.114 148.97C236.063 150.158 236.099 151.349 236.222 152.532C236.222 152.532 235.328 151.51 234.291 150.525C233.254 149.54 232.699 149.287 232.378 149.494C232.056 149.702 231.966 151.393 233.701 154.557C234.558 156.166 235.659 157.63 236.964 158.896C236.964 158.896 239.36 160.487 243.445 158.923Z" fill="black"/>
<path d="M241.8 114.727C241.496 114.517 241.141 114.396 240.774 114.377C240.406 114.357 240.041 114.441 239.717 114.618C237.679 115.522 235.739 118.632 235.39 121.615C235.185 123.423 235.587 124.698 236.374 125.285L238.421 126.822C238.725 127.028 239.079 127.146 239.444 127.163C239.81 127.181 240.173 127.097 240.495 126.922C242.533 126.018 244.473 122.908 244.822 119.925C245.028 118.171 244.634 116.86 243.857 116.309C243.508 116.001 242.149 114.989 241.8 114.727Z" fill="#45BD43"/>
<path opacity="0.3" d="M241.8 114.727C241.496 114.517 241.141 114.396 240.774 114.377C240.406 114.357 240.041 114.441 239.717 114.618C237.679 115.522 235.739 118.632 235.39 121.615C235.185 123.423 235.587 124.698 236.374 125.285L238.421 126.822C238.725 127.028 239.079 127.146 239.444 127.163C239.81 127.181 240.173 127.097 240.495 126.922C242.533 126.018 244.473 122.908 244.822 119.925C245.028 118.171 244.634 116.86 243.857 116.309C243.508 116.001 242.149 114.989 241.8 114.727Z" fill="black"/>
<path d="M245.385 104.493C243.696 103.237 241.452 103.029 238.85 104.159C234.38 106.084 230.876 110.586 228.292 116.77C227.765 118.026 227.809 119.283 228.39 119.753C229.07 120.304 230.241 121.1 230.813 121.561C231.537 122.149 232.816 121.263 233.495 119.681C235.283 115.296 237.581 112.358 240.71 111.002C241.72 110.516 242.859 110.376 243.955 110.604C244.306 111.165 244.574 111.774 244.751 112.412C244.806 112.651 244.938 112.864 245.126 113.018L247.567 114.826C248.085 115.206 248.943 114.826 249.659 113.859C250.021 113.384 250.283 112.839 250.428 112.257C250.572 111.675 250.597 111.07 250.499 110.478C250.086 108.843 249.164 107.385 247.871 106.319L245.385 104.493Z" fill="#45BD43"/>
<path opacity="0.3" d="M245.385 104.493C243.696 103.237 241.452 103.029 238.85 104.159C234.38 106.084 230.876 110.586 228.292 116.77C227.765 118.026 227.809 119.283 228.39 119.753C229.07 120.304 230.241 121.1 230.813 121.561C231.537 122.149 232.816 121.263 233.495 119.681C235.283 115.296 237.581 112.358 240.71 111.002C241.72 110.516 242.859 110.376 243.955 110.604C244.306 111.165 244.574 111.774 244.751 112.412C244.806 112.651 244.938 112.864 245.126 113.018L247.567 114.826C248.085 115.206 248.943 114.826 249.659 113.859C250.021 113.384 250.283 112.839 250.428 112.257C250.572 111.675 250.597 111.07 250.499 110.478C250.086 108.843 249.164 107.385 247.871 106.319L245.385 104.493Z" fill="black"/>
<path d="M254.111 101.411C253.368 99.365 252.077 97.5685 250.383 96.2218C249.963 95.9054 248.318 94.6669 247.906 94.4138C245.224 92.3707 241.577 92.0363 237.402 93.8443C230.804 96.7099 225.467 102.342 221.247 111.355C220.63 112.684 220.595 114.067 221.247 114.6C221.954 115.179 223.035 115.902 223.67 116.408C224.367 116.987 225.574 116.164 226.272 114.663C229.696 107.287 233.862 103.038 239.261 100.688C242.051 99.4852 244.527 99.4491 246.556 100.389C247.383 101.34 248.034 102.433 248.479 103.616C248.55 103.812 248.674 103.985 248.836 104.114L251.268 105.922C251.795 106.319 252.636 105.985 253.36 105.018C253.748 104.514 254.017 103.927 254.147 103.302C254.277 102.677 254.265 102.03 254.111 101.411Z" fill="#45BD43"/>
<path opacity="0.3" d="M254.111 101.411C253.368 99.365 252.077 97.5685 250.383 96.2218C249.963 95.9054 248.318 94.6669 247.906 94.4138C245.224 92.3707 241.577 92.0363 237.402 93.8443C230.804 96.7099 225.467 102.342 221.247 111.355C220.63 112.684 220.595 114.067 221.247 114.6C221.954 115.179 223.035 115.902 223.67 116.408C224.367 116.987 225.574 116.164 226.272 114.663C229.696 107.287 233.862 103.038 239.261 100.688C242.051 99.4852 244.527 99.4491 246.556 100.389C247.383 101.34 248.034 102.433 248.479 103.616C248.55 103.812 248.674 103.985 248.836 104.114L251.268 105.922C251.795 106.319 252.636 105.985 253.36 105.018C253.748 104.514 254.017 103.927 254.147 103.302C254.277 102.677 254.265 102.03 254.111 101.411Z" fill="black"/>
<path d="M244.822 119.925C244.473 122.908 242.533 126.036 240.495 126.922C238.457 127.808 237.08 126.117 237.429 123.143C237.777 120.169 239.717 117.032 241.756 116.146C243.794 115.26 245.171 116.951 244.822 119.925Z" fill="#45BD43"/>
<path d="M241.282 105.976C236.812 107.91 233.298 112.412 230.724 118.632C230.196 119.888 230.241 121.145 230.813 121.615C231.537 122.203 232.816 121.317 233.495 119.735C235.283 115.35 237.581 112.412 240.71 111.056C243.839 109.7 246.261 111.056 247.182 114.266C247.513 115.432 248.711 115.242 249.659 113.922C250.021 113.447 250.283 112.902 250.428 112.32C250.572 111.739 250.597 111.133 250.499 110.541C249.158 106.003 245.725 104.05 241.282 105.976Z" fill="#45BD43"/>
<path d="M239.834 95.6161C233.227 98.4908 227.89 104.114 223.679 113.136C223.053 114.455 223.026 115.848 223.679 116.372C224.376 116.95 225.583 116.128 226.28 114.627C229.704 107.251 233.871 103.002 239.27 100.651C244.67 98.301 248.943 100.362 250.892 105.397C251.295 106.428 252.421 106.238 253.342 104.954C253.725 104.458 253.993 103.881 254.126 103.266C254.259 102.652 254.254 102.014 254.111 101.402C251.688 95.2726 246.458 92.7504 239.834 95.6161Z" fill="#45BD43"/>
<path d="M163.665 186.016L167.357 183.865L187.463 77.4999C188.133 73.9472 186.176 72.5279 183.073 74.3359L21.6349 168.469C18.2314 170.716 15.7945 174.181 14.8137 178.169L-4.90794 282.509C-5.02309 283.098 -4.95517 283.709 -4.71348 284.258C-4.4718 284.806 -4.06819 285.266 -3.558 285.574L41.6873 312.052L210.546 213.516L163.665 186.016Z" fill="#455A64"/>
<path d="M16.8341 179.48L-2.83386 283.621L169.708 183.557L189.492 78.8017C190.163 75.258 188.196 73.8387 185.103 75.6467L23.6643 169.78C20.2574 172.025 17.8171 175.49 16.8341 179.48Z" fill="#263238"/>
<path d="M165.998 185.04L-2.86963 283.621L43.0104 310.416L211.869 211.834L165.998 185.04Z" fill="#37474F"/>
<path d="M187.838 77.6807L25.1305 172.492C21.5545 174.571 20.4459 177.916 21.0806 182.382L38.7461 306.998C39.3808 311.437 42.8764 314.041 46.4434 311.952L207.694 217.864C211.27 215.785 213.639 210.496 213.013 206.049L195.437 81.9566C194.812 77.518 191.406 75.6015 187.838 77.6807Z" fill="#455A64"/>
<path d="M198.808 80.5826C198.083 80.3304 197.311 80.249 196.55 80.3446C195.789 80.4401 195.06 80.7101 194.418 81.134L33.1675 175.24C31.3607 176.386 29.9298 178.047 29.0551 180.014L23.8521 177.781C24.9964 175.258 26.99 174.336 28.6975 173.333L189.939 79.2266C190.605 78.7812 191.368 78.5057 192.162 78.4239C192.956 78.342 193.758 78.4561 194.499 78.7565L198.808 80.5826Z" fill="#45BD43"/>
<path opacity="0.1" d="M198.808 80.5826C198.083 80.3304 197.311 80.249 196.55 80.3446C195.789 80.4401 195.06 80.7101 194.418 81.134L33.1675 175.24C31.3607 176.386 29.9298 178.047 29.0551 180.014L23.8521 177.781C24.9964 175.258 26.99 174.336 28.6975 173.333L189.939 79.2266C190.605 78.7812 191.368 78.5057 192.162 78.4239C192.956 78.342 193.758 78.4561 194.499 78.7565L198.808 80.5826Z" fill="black"/>
<path d="M43.976 313.326C42.3757 312.666 41.1956 310.985 40.847 308.544L23.3782 185.139C22.9849 182.364 22.8508 179.878 23.852 177.781L29.0551 180.014C28.921 180.303 28.7959 180.601 28.6707 180.918C28.5455 181.234 28.4919 181.406 28.4114 181.65C28.4063 181.686 28.4063 181.722 28.4114 181.758C28.3131 182.038 28.2326 182.328 28.1611 182.608C28.0896 182.888 28.0181 183.205 27.9734 183.512C27.9304 183.736 27.9006 183.962 27.884 184.19C27.7498 185.146 27.7498 186.117 27.884 187.074L45.4243 311.13C45.7729 313.598 46.9798 315.297 48.598 315.948L43.976 313.326Z" fill="#45BD43"/>
<path opacity="0.3" d="M48.598 315.948L48.3387 315.84L43.976 313.335C42.3757 312.676 41.1956 311.003 40.847 308.553L23.3782 185.148C22.9759 182.364 22.8508 179.878 23.8431 177.781L28.3131 179.679C27.5389 181.635 27.3312 183.773 27.7141 185.844L27.8929 187.056L45.4243 311.148C45.4424 311.303 45.4692 311.457 45.5047 311.609C45.5174 311.691 45.5353 311.773 45.5584 311.853C45.5757 311.966 45.6026 312.078 45.6388 312.187C45.6388 312.305 45.6925 312.413 45.7282 312.522L45.8355 312.838C45.877 312.965 45.9278 313.089 45.9875 313.209C46.0411 313.335 46.0948 313.453 46.1573 313.57C46.2199 313.688 46.2736 313.796 46.3361 313.905C46.5194 314.228 46.7351 314.531 46.9798 314.809L47.2123 315.053L47.4715 315.288C47.8114 315.565 48.1913 315.788 48.598 315.948Z" fill="black"/>
<path d="M194.418 81.143L31.7103 175.946C28.1343 178.034 27.0347 181.37 27.6605 185.89L45.4064 311.184C46.0322 315.632 49.4383 317.512 53.0054 315.46L214.265 221.317C217.841 219.238 220.219 213.941 219.629 209.502L202.062 85.419C201.392 80.9713 197.985 79.0638 194.418 81.143Z" fill="#45BD43"/>
<path opacity="0.2" d="M194.418 81.143L31.7103 175.946C28.1343 178.034 27.0347 181.37 27.6605 185.89L45.4064 311.184C46.0322 315.632 49.4383 317.512 53.0054 315.46L214.265 221.317C217.841 219.238 220.219 213.941 219.629 209.502L202.062 85.419C201.392 80.9713 197.985 79.0638 194.418 81.143Z" fill="black"/>
<path d="M204.789 220.576L60.8547 304.558C59.0041 305.642 57.2787 304.648 56.9122 302.343L39.8904 182.084C39.7543 180.905 39.9388 179.712 40.4241 178.632C40.9093 177.552 41.6768 176.626 42.6439 175.955L186.578 91.973C188.429 90.8882 190.154 91.8826 190.512 94.1878L207.542 214.465C207.679 215.641 207.495 216.832 207.009 217.909C206.524 218.987 205.756 219.909 204.789 220.576Z" fill="#263238"/>
<path d="M39.8904 182.084L56.9211 302.361L56.9747 302.632L200.909 218.641C201.879 217.975 202.649 217.051 203.134 215.972C203.62 214.893 203.803 213.699 203.662 212.521L186.587 91.973L42.6529 175.955C41.6841 176.625 40.9148 177.55 40.428 178.63C39.9411 179.71 39.7553 180.905 39.8904 182.084Z" fill="#45BD43"/>
<path opacity="0.85" d="M39.8904 182.084L56.9211 302.361L56.9747 302.632L200.909 218.641C201.879 217.975 202.649 217.051 203.134 215.972C203.62 214.893 203.803 213.699 203.662 212.521L186.587 91.973L42.6529 175.955C41.6841 176.625 40.9148 177.55 40.428 178.63C39.9411 179.71 39.7553 180.905 39.8904 182.084Z" fill="white"/>
<path d="M44.87 249.359C44.9393 249.951 44.8467 250.55 44.6024 251.092C44.358 251.634 43.9713 252.098 43.4843 252.433C42.5903 252.975 41.6963 252.478 41.4996 251.321C41.4353 250.724 41.5348 250.121 41.7871 249.577C42.0394 249.033 42.4348 248.57 42.93 248.238C43.824 247.696 44.718 248.193 44.87 249.359Z" fill="#263238"/>
<path d="M40.248 229.282C39.8691 229.543 39.5682 229.905 39.3775 230.327C39.1869 230.749 39.1139 231.216 39.1663 231.677L40.6861 242.39C40.8112 243.294 41.4996 243.673 42.2238 243.294C42.6026 243.032 42.9036 242.67 43.0942 242.248C43.2849 241.826 43.3579 241.359 43.3055 240.898L41.7857 230.186C41.6158 229.254 40.9275 228.866 40.248 229.282Z" fill="#263238"/>
<path d="M159.883 242.552L140.009 254.151L135.37 256.863L104.133 275.078C106.35 255.19 110.016 227.302 113.967 218.379L157.773 219.283L159.883 242.552Z" fill="#455A64"/>
<path d="M152.418 230.158C149.495 240.111 140.555 244.984 140.555 244.984L140.009 254.196L135.37 256.908L136.675 243.058C136.675 243.058 148.073 238.367 152.418 230.158Z" fill="#37474F"/>
<path d="M142.638 158.462C146.089 156.265 152.669 154.521 158.274 156.464C166.463 151.718 173.66 152.649 180.561 153.707C182.269 153.969 187.928 153.138 189.001 154.123C189.814 154.873 190.047 155.75 190.44 157.495L186.998 166.761C181.017 167.963 177.566 169.473 169.002 170.811C162.252 171.887 157.934 172.556 157.192 175.783C151.17 171.13 146.207 165.223 142.638 158.462Z" fill="#FFA8A7"/>
<path d="M193.354 163.371C194.49 161.934 194.526 160.171 194.391 157.866C194.186 154.168 193.56 146.9 193.015 143.709C192.121 138.619 191.808 135.428 190.762 132.174C189.412 127.961 189.868 125.34 187.99 122.483C186.113 119.626 177.03 117.52 175.036 121.724C173.919 124.137 178.013 125.34 178.13 127.148C178.13 127.148 174.929 129.679 177.236 130.547C179.024 131.234 180.758 131.523 181.294 137.245C181.768 142.299 180.096 147.931 180.096 155.569C180.096 158.715 181.661 167.972 181.661 167.972C185.505 166.924 190.815 166.589 193.354 163.371Z" fill="#FFA8A7"/>
<path d="M177.513 129.805C177.781 130.8 182.296 131.613 183.306 131.414C183.581 131.376 183.84 131.264 184.058 131.091C184.277 130.918 184.446 130.69 184.549 130.429L187.651 131.387L187.767 128.775L177.718 128.287C177.564 128.777 177.494 129.291 177.513 129.805Z" fill="#F28F8F"/>
<path d="M186.998 157.296C186.998 157.296 186.381 153.987 180.195 151.745C180.195 152.351 180.096 153.056 180.096 153.617C182.696 154.154 185.091 155.43 186.998 157.296Z" fill="#F28F8F"/>
<path d="M175.492 119.464C175.247 118.543 174.767 117.704 174.099 117.032C173.432 116.359 172.601 115.876 171.69 115.631C170.779 115.386 169.82 115.388 168.911 115.638C168.001 115.887 167.172 116.374 166.508 117.05L166.409 117.167C166.366 117.205 166.327 117.248 166.293 117.294C165.237 118.558 164.48 120.048 164.077 121.652C163.674 123.256 163.637 124.931 163.969 126.551C163.969 126.714 164.058 126.867 164.112 127.021C164.573 128.288 165.484 129.335 166.667 129.958C167.851 130.582 169.222 130.737 170.513 130.393C170.897 130.285 171.268 130.136 171.621 129.95C172.129 129.699 172.592 129.362 172.989 128.956C174.121 127.684 174.941 126.16 175.382 124.507C175.824 122.855 175.873 121.121 175.528 119.446C175.516 119.452 175.505 119.458 175.492 119.464Z" fill="#455A64"/>
<path d="M170.084 118.035C168.951 119.307 168.131 120.831 167.69 122.484C167.249 124.136 167.199 125.87 167.545 127.545C168.34 130.574 170.772 131.243 172.971 129.028C174.104 127.756 174.923 126.232 175.365 124.58C175.806 122.927 175.856 121.193 175.51 119.518C174.715 116.489 172.283 115.82 170.084 118.035Z" fill="#37474F"/>
<path d="M190.95 126.189H190.905L172.56 121.018C172.325 120.963 172.08 120.977 171.852 121.057C171.624 121.137 171.423 121.28 171.273 121.47C170.841 121.954 170.528 122.533 170.357 123.161C170.186 123.788 170.163 124.448 170.289 125.086C170.33 125.326 170.435 125.549 170.593 125.733C170.75 125.916 170.955 126.052 171.183 126.126L189.546 131.333C189.779 131.381 190.021 131.364 190.245 131.283C190.469 131.201 190.666 131.059 190.816 130.872C191.245 130.388 191.557 129.809 191.726 129.181C191.896 128.553 191.917 127.894 191.79 127.256C191.756 127.019 191.661 126.795 191.513 126.607C191.365 126.42 191.171 126.275 190.95 126.189Z" fill="#263238"/>
<path d="M188.706 130.303C189.01 131.469 189.939 131.722 190.789 130.872C191.218 130.388 191.53 129.809 191.7 129.181C191.869 128.553 191.891 127.894 191.763 127.256C191.751 127.014 191.663 126.783 191.512 126.595C191.362 126.407 191.157 126.271 190.926 126.208C190.695 126.145 190.45 126.157 190.226 126.243C190.003 126.329 189.811 126.484 189.68 126.687C189.25 127.171 188.938 127.75 188.769 128.378C188.6 129.006 188.578 129.665 188.706 130.303Z" fill="#455A64"/>
<path d="M188.33 123.098C187.481 120.603 187.767 120.087 185.72 119.635C183.672 119.183 183.655 117.466 181.616 117.71C179.578 117.954 178.04 118.614 177.146 118.37C176.252 118.126 174.42 119.084 173.57 120.467C172.721 121.85 172.739 123.893 172.855 125.294C172.971 126.696 174.393 128.431 177.325 129.191C180.257 129.95 183.234 130.601 183.851 129.191C184.334 128.07 183.896 127.111 184.039 126.479C184.128 126.097 184.302 125.742 184.546 125.438C184.791 125.134 185.1 124.89 185.451 124.725L186.891 125.123L188.33 123.098Z" fill="#FFA8A7"/>
<path d="M197.324 125.548C197.08 124.626 196.6 123.787 195.933 123.113C195.266 122.439 194.435 121.955 193.524 121.709C192.613 121.463 191.654 121.465 190.744 121.713C189.834 121.962 189.004 122.449 188.339 123.125L188.232 123.233L188.116 123.36C187.064 124.628 186.309 126.12 185.908 127.725C185.507 129.329 185.47 131.005 185.8 132.626C185.8 132.789 185.898 132.942 185.952 133.096C186.415 134.361 187.327 135.406 188.51 136.028C189.694 136.65 191.064 136.803 192.353 136.459C193.281 136.2 194.13 135.709 194.821 135.03C195.958 133.761 196.781 132.238 197.224 130.585C197.667 128.932 197.716 127.196 197.369 125.52C197.356 125.533 197.34 125.542 197.324 125.548Z" fill="#455A64"/>
<path d="M191.906 124.119C190.774 125.391 189.954 126.915 189.513 128.567C189.072 130.22 189.022 131.954 189.367 133.629C190.172 136.658 192.595 137.327 194.794 135.112C195.926 133.84 196.747 132.316 197.19 130.664C197.632 129.012 197.684 127.278 197.342 125.602C196.537 122.564 194.114 121.904 191.906 124.119Z" fill="#37474F"/>
<path d="M181.142 136.278C180.686 134.777 177.826 132.879 176.056 131.912C175.357 131.593 174.736 131.124 174.235 130.536C173.735 129.949 173.368 129.258 173.159 128.513C173.088 128.244 173.079 127.962 173.133 127.689C173.188 127.416 173.304 127.16 173.472 126.94C173.887 126.584 174.344 126.281 174.831 126.036L176.762 125.005C177.495 124.607 178.192 124.101 178.898 123.649C179.068 123.533 179.251 123.438 179.444 123.369C179.543 123.338 179.648 123.328 179.751 123.341C179.854 123.353 179.954 123.387 180.043 123.441C180.74 123.938 180.651 125.303 180.365 125.99C180.029 126.643 179.577 127.229 179.033 127.717C178.539 128.132 178.157 128.667 177.924 129.272C177.817 129.842 178.523 130.275 178.943 130.465C179.716 130.831 180.525 131.113 181.357 131.306C182.439 131.523 180.821 135.22 181.142 136.278Z" fill="#FFA8A7"/>
<path d="M155.574 172.375C154.349 165.269 148.19 159.023 139.25 158.064L127.225 157.856C127.225 157.856 124.123 158.381 118.759 159.52C113.395 160.659 110.624 163.217 110.15 167.538C109.837 170.44 109.953 172.058 110.919 176.895L112.099 185.184C112.099 185.184 116.247 196.719 116.569 201.14C117.054 207.015 116.156 212.922 113.949 218.379C129.773 225.412 144.524 227.636 156.781 218.705C158.623 207.92 158.962 191.775 155.574 172.375Z" fill="#FFA8A7"/>
<path d="M158.81 183.349C157.362 166.336 142.638 158.462 142.638 158.462L132.661 156.392L118.589 159.556C118.589 159.556 122.103 177.22 112.135 185.175C112.135 185.175 112.877 188.321 114.584 194.812C116.292 201.303 117.561 209.99 112.358 220.305C112.358 220.305 116.739 224.68 133.358 225.864C149.978 227.049 157.809 219.283 157.809 219.283C157.809 219.283 160.223 200.408 158.81 183.349Z" fill="#45BD43"/>
<path opacity="0.1" d="M130.247 225.593C131.141 224.147 132.035 222.203 132.035 220.938C131.946 218.714 123.801 217.756 122.299 216.879C120.797 216.002 121.334 208.824 120.78 203.038C120.225 197.253 116.649 187.67 114.879 183.06L115.272 181.84C114.403 183.103 113.355 184.23 112.161 185.184C112.161 185.184 112.903 188.33 114.611 194.821C116.318 201.312 117.588 209.999 112.385 220.314C112.358 220.314 116.238 224.129 130.247 225.593Z" fill="black"/>
<path d="M118.589 159.565C118.589 159.565 111.732 157.757 107.209 160.469C103.49 162.693 101.469 165.378 99.7258 170.748C96.7903 173.081 94.1563 175.778 91.8854 178.775C87.773 184.461 84.7334 191.097 82.4359 194.74C81.1843 196.71 79.5214 198.6 79.9505 201.438C80.1204 202.541 80.8445 203.174 82.1051 204.394L94.7105 200.842C98.4116 196.756 106.627 190.898 111.696 184.271L112.135 185.175C114.295 183.813 116.102 181.948 117.404 179.735C118.706 177.522 119.465 175.026 119.617 172.456C120.216 161.961 118.589 159.565 118.589 159.565Z" fill="#FFA8A7"/>
<path d="M80.7104 202.93C82.1051 204.367 84.3669 207.667 88.7564 211.464C92.091 214.356 99.4129 218.696 102.166 220.296C105.957 222.502 107.396 223.586 110.32 225.349C112.528 226.669 117.4 229.218 122.04 229.245C124.722 229.245 128.092 227.519 130.167 223.433C131.23 221.344 127.887 220.006 123.39 219.274C117.776 218.37 116.685 217.141 115.299 216.4C114.405 215.893 114.405 215.269 114.754 214.257C115.007 213.537 115.196 212.796 115.317 212.042C115.103 211.889 114.021 212.042 112.778 213.037C111.276 214.257 110.016 214.555 106.449 210.858C102.756 207.025 101.255 203.255 96.4269 199.106C91.5993 194.957 80.7104 202.93 80.7104 202.93Z" fill="#FFA8A7"/>
<path d="M114.763 181.523C114.852 180.149 114.834 179.489 114.834 179.489C113.874 181.13 112.826 182.717 111.696 184.244L112.135 185.148C113.113 184.556 114.014 183.842 114.817 183.024C114.745 182.527 114.727 182.024 114.763 181.523Z" fill="#F28F8F"/>
<path d="M96.4091 199.088C95.292 198.481 94.0652 198.109 92.8023 197.994C91.5394 197.879 90.2666 198.024 89.0604 198.419C89.0604 198.419 92.1268 195.318 98.054 197.578L96.4091 199.088Z" fill="#F28F8F"/>
<path d="M122.97 121.416C122.055 121.676 121.223 122.169 120.551 122.849C119.879 123.528 119.392 124.37 119.135 125.294C118.464 127.527 118.848 131.749 120.234 137.281C121.104 140.932 122.416 144.46 124.141 147.786C124.677 148.727 125.551 149.423 126.582 149.73L126.385 143.166L126.117 138.583C126.117 138.583 129.004 134.551 129.299 131.261C129.684 127.03 128.79 125.303 128.79 125.303L122.97 121.416Z" fill="#37474F"/>
<path d="M123.265 122.881L118.437 121.877C118.574 121.202 118.959 120.605 119.516 120.207C120.072 119.809 120.757 119.64 121.432 119.735C121.758 119.818 122.064 119.966 122.333 120.169C122.601 120.373 122.827 120.628 122.998 120.921C123.168 121.213 123.28 121.537 123.326 121.874C123.371 122.21 123.351 122.552 123.265 122.881Z" fill="#37474F"/>
<path d="M123.39 121.624L119.814 118.252C120.266 117.733 120.901 117.413 121.583 117.363C122.265 117.312 122.94 117.534 123.462 117.981C123.697 118.223 123.882 118.51 124.006 118.826C124.13 119.141 124.19 119.478 124.183 119.818C124.177 120.157 124.103 120.492 123.967 120.802C123.831 121.112 123.634 121.392 123.39 121.624Z" fill="#37474F"/>
<path d="M133.099 129.209C133.118 131.322 133.757 133.382 134.934 135.128C136.112 136.874 137.775 138.228 139.713 139.018C141.651 139.809 143.778 140 145.823 139.569C147.869 139.137 149.743 138.102 151.207 136.594C152.671 135.086 153.66 133.172 154.048 131.096C154.437 129.019 154.208 126.873 153.39 124.928C152.573 122.983 151.203 121.327 149.454 120.17C147.706 119.012 145.657 118.404 143.568 118.424C142.18 118.437 140.808 118.726 139.531 119.275C138.254 119.824 137.096 120.622 136.124 121.624C135.152 122.625 134.385 123.811 133.865 125.112C133.346 126.413 133.086 127.805 133.099 129.209Z" fill="#37474F"/>
<path d="M126.287 137.851C125.196 138.818 124.293 136.341 123.372 135.383C122.451 134.425 119.438 133.132 118.008 136.287C116.578 139.442 119.367 144.061 121.673 144.965C122.209 145.208 122.8 145.301 123.383 145.234C123.967 145.167 124.522 144.943 124.99 144.586L125.08 158.516C126.662 161.635 132.902 165.667 140.018 164.429C143.067 163.904 141.645 160.144 140.018 158.037L139.956 152.903C141.766 153.175 143.6 153.254 145.427 153.138C148.413 152.64 149.951 150.353 150.791 147.081C152.195 141.82 152.722 132.996 150.666 122.817C147.313 120.223 135.727 120.729 128.745 125.267C129.362 134.334 127.368 136.893 126.287 137.851Z" fill="#FFA8A7"/>
<path d="M152.329 115.622C152.293 115.532 152.234 115.454 152.159 115.396C152.084 115.337 151.994 115.299 151.9 115.287C151.747 115.303 151.604 115.366 151.488 115.468C150.647 116.146 149.749 116.751 148.806 117.276C149.033 116.081 149.033 114.854 148.806 113.66C148.672 112.919 148.449 111.192 147.537 111.02C147.001 110.912 146.527 111.373 146.124 111.752C142.504 115.224 137.73 113.66 133.34 113.832C129.666 113.967 125.241 115.513 123.605 119.129C122.854 120.792 122.711 122.528 124.239 123.649C125.583 124.544 127.113 125.113 128.709 125.312C136.04 126.551 146.589 129.534 151.953 122.6C152.736 121.567 153.129 120.285 153.062 118.984C153.063 117.841 152.806 116.713 152.311 115.685L152.329 115.622Z" fill="#37474F"/>
<path d="M139.965 152.939C139.965 152.939 133.295 151.646 130.953 150.417C129.389 149.594 127.288 148.247 126.903 147.325C126.988 148.156 127.247 148.96 127.661 149.683C128.076 150.406 128.637 151.032 129.308 151.519C132.884 154.231 139.992 155.135 139.992 155.135L139.965 152.939Z" fill="#F28F8F"/>
<path d="M138.141 135.293C138.151 135.656 138.018 136.008 137.772 136.272C137.525 136.536 137.186 136.691 136.827 136.703C136.465 136.696 136.12 136.545 135.867 136.282C135.615 136.02 135.474 135.668 135.477 135.302C135.477 134.942 135.618 134.597 135.87 134.343C136.121 134.089 136.462 133.946 136.818 133.946C137.174 133.946 137.515 134.089 137.766 134.343C138.018 134.597 138.159 134.942 138.159 135.302L138.141 135.293Z" fill="#263238"/>
<path d="M137.399 131.179L134.431 132.544C134.259 132.133 134.25 131.671 134.407 131.253C134.563 130.836 134.873 130.495 135.271 130.303C135.467 130.214 135.679 130.167 135.894 130.163C136.108 130.16 136.321 130.2 136.52 130.282C136.719 130.364 136.899 130.486 137.05 130.64C137.201 130.794 137.32 130.978 137.399 131.179Z" fill="#263238"/>
<path d="M138.32 143.944L143.684 145.915C143.57 146.273 143.386 146.605 143.144 146.891C142.901 147.176 142.605 147.41 142.272 147.579C141.938 147.747 141.576 147.846 141.204 147.871C140.832 147.896 140.46 147.845 140.108 147.723C139.383 147.451 138.791 146.905 138.457 146.199C138.123 145.494 138.074 144.685 138.32 143.944Z" fill="#B16668"/>
<path d="M140.063 147.732C140.536 147.904 141.047 147.938 141.538 147.831C141.508 147.158 141.221 146.523 140.738 146.059C140.254 145.596 139.612 145.34 138.946 145.345C138.703 145.351 138.462 145.391 138.23 145.463C138.311 145.971 138.523 146.448 138.845 146.846C139.167 147.245 139.587 147.55 140.063 147.732Z" fill="#F28F8F"/>
<path d="M150.282 132.074L147.188 130.944C147.253 130.738 147.358 130.546 147.497 130.382C147.636 130.217 147.807 130.083 147.999 129.986C148.191 129.89 148.401 129.834 148.615 129.822C148.829 129.809 149.043 129.841 149.244 129.914C149.657 130.073 149.993 130.385 150.186 130.786C150.379 131.188 150.413 131.648 150.282 132.074Z" fill="#263238"/>
<path d="M149.593 134.895C149.584 135.158 149.499 135.414 149.348 135.629C149.198 135.844 148.988 136.009 148.745 136.105C148.502 136.2 148.236 136.222 147.981 136.166C147.726 136.111 147.493 135.981 147.311 135.793C147.128 135.604 147.004 135.366 146.954 135.107C146.904 134.848 146.931 134.58 147.03 134.337C147.129 134.093 147.297 133.884 147.513 133.736C147.729 133.587 147.982 133.506 148.243 133.503C148.604 133.507 148.949 133.657 149.202 133.917C149.455 134.178 149.596 134.53 149.593 134.895Z" fill="#263238"/>
<path d="M142.28 133.394L143.103 141.937L147.573 140.4L142.28 133.394Z" fill="#F28F8F"/>
<path d="M381.103 320.061L212.522 418.38L126.93 368.687L295.512 270.368L381.103 320.061Z" fill="#45BD43"/>
<path opacity="0.7" d="M381.103 320.061L212.522 418.38L126.93 368.687L295.512 270.368L381.103 320.061Z" fill="white"/>
<path d="M381.103 320.061V322.475L212.522 420.794V418.38L381.103 320.061Z" fill="#45BD43"/>
<path opacity="0.5" d="M381.103 320.061V322.475L212.522 420.794V418.38L381.103 320.061Z" fill="white"/>
<path d="M212.522 418.38L126.93 368.687V371.101L212.522 420.794V418.38Z" fill="#45BD43"/>
<path opacity="0.4" d="M212.522 418.38L126.93 368.687V371.101L212.522 420.794V418.38Z" fill="white"/>
<path opacity="0.1" d="M223.786 397.299L221.882 396.187C220.586 395.428 220.586 394.207 221.882 393.475L226.137 390.989L212.853 383.224L208.597 385.71C207.869 386.079 207.065 386.272 206.25 386.272C205.436 386.272 204.632 386.079 203.904 385.71L201.999 384.589C200.703 383.838 200.703 382.609 201.999 381.877L214.909 374.256C215.634 373.881 216.437 373.686 217.251 373.686C218.065 373.686 218.868 373.881 219.593 374.256L221.507 375.368C222.803 376.127 222.803 377.348 221.507 378.08L216.804 380.792L230.089 388.557L234.791 385.845C235.518 385.475 236.32 385.282 237.134 385.282C237.947 385.282 238.749 385.475 239.476 385.845L241.389 386.966C242.685 387.717 242.685 388.946 241.389 389.678L228.48 397.209C227.76 397.597 226.959 397.808 226.144 397.824C225.328 397.84 224.52 397.66 223.786 397.299Z" fill="black"/>
<path d="M217.26 370.965C217.26 370.965 217.26 370.965 217.26 370.92C217.26 369.728 216.948 368.557 216.355 367.527C215.763 366.496 214.912 365.642 213.889 365.051C212.865 364.46 211.705 364.153 210.526 364.161C209.347 364.169 208.191 364.493 207.176 365.098H207.131L206.97 365.207C206.907 365.241 206.847 365.28 206.791 365.324C205.116 366.509 203.729 368.062 202.735 369.868C201.741 371.674 201.165 373.684 201.052 375.748V375.82C201.052 376.028 201.052 376.236 201.052 376.435C201.136 377.393 201.423 378.322 201.892 379.159C202.361 379.996 203.003 380.722 203.773 381.287C204.543 381.853 205.424 382.245 206.356 382.437C207.289 382.629 208.251 382.617 209.178 382.401C209.872 382.264 210.538 382.008 211.145 381.642C212.915 380.477 214.389 378.907 215.445 377.058C216.501 375.209 217.111 373.134 217.224 371.002C217.224 371.002 217.26 370.983 217.26 370.965Z" fill="#455A64"/>
<path d="M211.154 367.485C209.384 368.649 207.91 370.22 206.854 372.069C205.798 373.918 205.188 375.993 205.075 378.125C205.075 382.048 207.801 383.639 211.154 381.678C212.924 380.514 214.398 378.943 215.454 377.094C216.51 375.245 217.12 373.17 217.233 371.038C217.26 367.114 214.506 365.523 211.154 367.485Z" fill="#37474F"/>
<path d="M229.642 380.756H229.597L213.97 371.544C213.652 371.373 213.293 371.297 212.933 371.324C212.574 371.351 212.23 371.481 211.941 371.698C211.125 372.236 210.445 372.96 209.957 373.813C209.47 374.666 209.187 375.623 209.134 376.606C209.107 376.961 209.176 377.317 209.334 377.635C209.491 377.953 209.731 378.223 210.028 378.414L225.655 387.572C225.973 387.733 226.329 387.802 226.684 387.771C227.039 387.741 227.379 387.613 227.666 387.4C228.481 386.862 229.159 386.137 229.645 385.284C230.132 384.431 230.412 383.474 230.464 382.491C230.48 382.156 230.414 381.822 230.27 381.519C230.127 381.216 229.911 380.953 229.642 380.756Z" fill="#263238"/>
<path d="M224.823 385.836C224.823 387.644 226.075 388.376 227.621 387.472C228.436 386.934 229.115 386.209 229.601 385.356C230.087 384.503 230.367 383.547 230.42 382.564C230.42 380.756 229.168 380.023 227.621 380.927C226.806 381.466 226.128 382.191 225.642 383.044C225.156 383.897 224.875 384.853 224.823 385.836Z" fill="#455A64"/>
<path d="M237.482 382.79C237.483 381.901 237.311 381.021 236.976 380.199C236.64 379.378 236.148 378.631 235.527 378.003C234.906 377.374 234.168 376.875 233.356 376.534C232.544 376.194 231.674 376.019 230.795 376.019C229.606 376.007 228.435 376.319 227.407 376.923H227.362L227.201 377.022L227.014 377.14C225.341 378.325 223.956 379.88 222.963 381.685C221.97 383.491 221.396 385.5 221.283 387.563V387.644C221.283 387.843 221.283 388.051 221.283 388.259C221.369 389.218 221.656 390.147 222.127 390.984C222.597 391.821 223.239 392.547 224.01 393.112C224.78 393.677 225.662 394.069 226.595 394.261C227.528 394.453 228.491 394.441 229.418 394.225C230.114 394.093 230.78 393.836 231.385 393.466C233.155 392.302 234.629 390.731 235.685 388.882C236.742 387.033 237.351 384.958 237.464 382.826C237.464 382.826 237.482 382.817 237.482 382.79Z" fill="#455A64"/>
<path d="M231.412 379.309C229.641 380.475 228.167 382.047 227.11 383.897C226.054 385.748 225.445 387.825 225.333 389.958C225.333 393.873 228.015 395.464 231.412 393.502C233.182 392.338 234.656 390.767 235.712 388.918C236.768 387.069 237.378 384.994 237.491 382.862C237.491 378.939 234.765 377.357 231.412 379.309Z" fill="#37474F"/>
<path d="M111.607 350.607C111.15 348.94 110.53 347.323 109.756 345.78C109.676 345.599 109.587 345.427 109.506 345.247C108.766 343.801 108.391 342.194 108.412 340.566C108.434 338.939 108.853 337.342 109.631 335.917C109.694 335.818 109.748 335.718 109.801 335.619C110.76 333.951 111.254 332.052 111.232 330.123C111.171 329.067 110.857 328.041 110.317 327.136C109.776 326.23 109.025 325.471 108.129 324.925C107.667 324.655 107.186 324.42 106.69 324.22C106.231 324.038 105.836 323.722 105.557 323.31C105.278 322.899 105.128 322.413 105.126 321.914V319.112H96.123V321.96C96.1153 322.458 95.9606 322.943 95.6787 323.352C95.3967 323.761 95.0005 324.076 94.5406 324.256C94.0399 324.448 93.5556 324.68 93.0923 324.952C92.1923 325.49 91.436 326.243 90.8891 327.144C90.3423 328.045 90.0214 329.068 89.9544 330.123C89.913 332.051 90.392 333.954 91.3401 335.628L91.4921 335.908C92.2636 337.341 92.6746 338.945 92.6886 340.576C92.7026 342.208 92.3193 343.818 91.5725 345.265C91.4831 345.436 91.3937 345.608 91.3133 345.789C90.5231 347.326 89.891 348.94 89.4269 350.607C89.1032 352.219 88.9563 353.863 88.9889 355.507L88.9352 368.76C88.9352 370.477 90.0438 372.204 92.2788 373.515C94.2839 374.628 96.505 375.285 98.7871 375.44C99.87 375.531 100.958 375.531 102.041 375.44C104.31 375.3 106.522 374.661 108.523 373.569C110.776 372.276 111.902 370.559 111.911 368.841V359.259C111.911 358.065 111.965 356.818 111.965 355.57C112.029 353.908 111.909 352.243 111.607 350.607Z" fill="#455A64"/>
<path d="M109.631 335.917C109.694 335.818 109.748 335.719 109.801 335.619C110.619 334.198 111.096 332.604 111.196 330.963C110.976 331.628 110.676 332.263 110.302 332.853C109.191 334.494 107.819 335.939 106.243 337.129C104.696 338.403 102.98 339.841 102.792 341.857C102.605 343.873 103.963 345.563 105.474 346.738C106.985 347.913 108.818 348.736 110.195 350.092C110.789 350.692 111.317 351.356 111.768 352.072C111.705 351.575 111.634 351.086 111.536 350.607C111.078 348.94 110.458 347.323 109.685 345.78C109.605 345.599 109.515 345.427 109.435 345.247C108.706 343.795 108.342 342.185 108.376 340.557C108.411 338.93 108.842 337.336 109.631 335.917Z" fill="#37474F"/>
<path d="M94.6121 322.213V323.74C94.66 324.286 94.8508 324.81 95.1651 325.256C95.4794 325.703 95.9057 326.056 96.4001 326.281C97.7415 326.967 99.2238 327.325 100.727 327.325C102.23 327.325 103.713 326.967 105.054 326.281C105.584 325.994 106.045 325.592 106.404 325.106C106.686 324.717 106.842 324.25 106.851 323.768V322.213C106.854 322.073 106.839 321.933 106.806 321.797C106.685 321.338 106.467 320.91 106.168 320.543C105.869 320.177 105.495 319.88 105.072 319.672L104.983 319.627C103.653 318.954 102.187 318.604 100.7 318.604C99.2136 318.604 97.7474 318.954 96.418 319.627C95.9879 319.826 95.6053 320.116 95.2966 320.478C94.988 320.84 94.7605 321.265 94.63 321.725C94.6023 321.886 94.5962 322.05 94.6121 322.213Z" fill="#45BD43"/>
<path opacity="0.1" d="M94.6121 322.213V323.74C94.66 324.286 94.8508 324.81 95.1651 325.256C95.4794 325.703 95.9057 326.056 96.4001 326.281C97.7415 326.967 99.2238 327.325 100.727 327.325C102.23 327.325 103.713 326.967 105.054 326.281C105.584 325.994 106.045 325.592 106.404 325.106C106.686 324.717 106.842 324.25 106.851 323.768V322.213C106.854 322.073 106.839 321.933 106.806 321.797C106.685 321.338 106.467 320.91 106.168 320.543C105.869 320.177 105.495 319.88 105.072 319.672L104.983 319.627C103.653 318.954 102.187 318.604 100.7 318.604C99.2136 318.604 97.7474 318.954 96.418 319.627C95.9879 319.826 95.6053 320.116 95.2966 320.478C94.988 320.84 94.7605 321.265 94.63 321.725C94.6023 321.886 94.5962 322.05 94.6121 322.213Z" fill="black"/>
<path opacity="0.2" d="M105.045 324.762C107.432 323.379 107.441 321.146 105.045 319.709C103.704 319.02 102.222 318.661 100.718 318.661C99.2145 318.661 97.732 319.02 96.3912 319.709C93.9953 321.092 93.9863 323.325 96.3912 324.753C97.7313 325.443 99.2134 325.803 100.717 325.805C102.221 325.806 103.704 325.449 105.045 324.762Z" fill="black"/>
<path d="M94.6121 320.423V321.327C94.6097 321.473 94.6247 321.618 94.6568 321.761C94.7813 322.217 95.0003 322.642 95.2993 323.007C95.5983 323.371 95.9705 323.668 96.3912 323.876C97.5688 324.52 98.8793 324.876 100.218 324.916C101.888 325.038 103.56 324.687 105.045 323.903C105.578 323.617 106.042 323.216 106.404 322.728C106.599 322.458 106.735 322.15 106.806 321.824C106.839 321.685 106.854 321.542 106.851 321.399V320.45C106.803 319.905 106.613 319.383 106.298 318.938C105.984 318.493 105.557 318.141 105.063 317.919C104.956 317.855 104.848 317.792 104.732 317.738C103.423 317.129 101.995 316.826 100.554 316.851C99.1135 316.876 97.6968 317.228 96.4091 317.883C95.913 318.106 95.4848 318.459 95.1689 318.906C94.853 319.352 94.6608 319.876 94.6121 320.423Z" fill="#45BD43"/>
<path opacity="0.1" d="M94.6121 320.423V321.327C94.6097 321.473 94.6247 321.618 94.6568 321.761C94.7813 322.217 95.0003 322.642 95.2993 323.007C95.5983 323.371 95.9705 323.668 96.3912 323.876C97.5688 324.52 98.8793 324.876 100.218 324.916C101.888 325.038 103.56 324.687 105.045 323.903C105.578 323.617 106.042 323.216 106.404 322.728C106.599 322.458 106.735 322.15 106.806 321.824C106.839 321.685 106.854 321.542 106.851 321.399V320.45C106.803 319.905 106.613 319.383 106.298 318.938C105.984 318.493 105.557 318.141 105.063 317.919C104.956 317.855 104.848 317.792 104.732 317.738C103.423 317.129 101.995 316.826 100.554 316.851C99.1135 316.876 97.6968 317.228 96.4091 317.883C95.913 318.106 95.4848 318.459 95.1689 318.906C94.853 319.352 94.6608 319.876 94.6121 320.423Z" fill="black"/>
<path d="M94.6122 320.396C94.6122 322.357 97.3389 323.957 100.718 324.012C104.097 324.066 106.842 322.439 106.851 320.477C106.86 318.515 104.124 316.915 100.745 316.861C97.3657 316.807 94.6211 318.434 94.6122 320.396Z" fill="#45BD43"/>
<path d="M98.6262 316.744V319.953C98.6218 320.001 98.6218 320.049 98.6262 320.097C98.6706 320.256 98.7477 320.403 98.8525 320.529C98.9573 320.656 99.0874 320.758 99.2341 320.83C99.6399 321.056 100.094 321.18 100.557 321.191C101.136 321.238 101.717 321.116 102.229 320.839C102.414 320.742 102.573 320.603 102.694 320.432C102.765 320.339 102.814 320.231 102.837 320.115C102.841 320.067 102.841 320.019 102.837 319.971V316.762C102.824 316.569 102.76 316.383 102.651 316.224C102.543 316.065 102.394 315.938 102.22 315.858L102.113 315.803C101.659 315.592 101.164 315.486 100.664 315.493C100.164 315.501 99.6724 315.623 99.2252 315.849C99.0556 315.93 98.9106 316.056 98.8053 316.214C98.7 316.371 98.6382 316.554 98.6262 316.744Z" fill="#45BD43"/>
<path opacity="0.1" d="M98.6262 316.744V319.953C98.6218 320.001 98.6218 320.049 98.6262 320.097C98.6706 320.256 98.7477 320.403 98.8525 320.529C98.9573 320.656 99.0874 320.758 99.2341 320.83C99.6399 321.056 100.094 321.18 100.557 321.191C101.136 321.238 101.717 321.116 102.229 320.839C102.414 320.742 102.573 320.603 102.694 320.432C102.765 320.339 102.814 320.231 102.837 320.115C102.841 320.067 102.841 320.019 102.837 319.971V316.762C102.824 316.569 102.76 316.383 102.651 316.224C102.543 316.065 102.394 315.938 102.22 315.858L102.113 315.803C101.659 315.592 101.164 315.486 100.664 315.493C100.164 315.501 99.6724 315.623 99.2252 315.849C99.0556 315.93 98.9106 316.056 98.8053 316.214C98.7 316.371 98.6382 316.554 98.6262 316.744Z" fill="black"/>
<path d="M98.6262 316.735C98.6262 317.413 99.5738 317.973 100.745 317.973C101.916 317.973 102.864 317.431 102.864 316.753C102.864 316.075 101.97 315.514 100.754 315.514C99.5381 315.514 98.6262 316.057 98.6262 316.735Z" fill="#45BD43"/>
<path d="M99.994 316.744C99.994 316.979 100.325 317.177 100.745 317.177C101.165 317.177 101.496 316.988 101.496 316.744C101.496 316.499 101.165 316.31 100.745 316.31C100.325 316.31 99.994 316.499 99.994 316.744Z" fill="#45BD43"/>
<path opacity="0.3" d="M99.994 316.744C99.994 316.979 100.325 317.177 100.745 317.177C101.165 317.177 101.496 316.988 101.496 316.744C101.496 316.499 101.165 316.31 100.745 316.31C100.325 316.31 99.994 316.499 99.994 316.744Z" fill="black"/>
<path opacity="0.1" d="M319.739 306.763C319.131 309.177 319.417 311.753 318.729 314.14C317.737 317.557 314.876 320.097 311.809 321.842C299.624 328.767 284.194 325.458 270.882 329.788C266.761 331.135 262.434 333.784 261.629 338.087C261.048 341.179 262.523 344.415 264.812 346.539C267.19 348.584 269.977 350.082 272.983 350.933C284.846 354.892 297.648 354.486 310.004 352.56C323.119 350.508 335.483 342.932 340.078 339.398C347.23 333.929 352.451 325.069 351.19 316.12C350.037 307.984 342.509 301.963 335.161 299.215C329.341 297.036 321.322 300.517 319.739 306.763Z" fill="black"/>
<path d="M330.405 137.923C333.587 135.889 339.675 134.307 344.852 136.115C353.792 132.996 358.262 133.566 365.414 133.557C367.014 133.557 372.226 133.042 373.209 133.955C373.96 134.642 374.184 135.455 374.541 137.064L371.359 145.634C365.834 146.737 362.651 148.102 354.73 149.368C348.472 150.371 344.503 150.977 343.815 153.969C338.263 149.65 333.69 144.179 330.405 137.923Z" fill="#B16668"/>
<path d="M377.286 142.461C378.341 141.132 378.368 139.505 378.252 137.372C378.055 133.955 376.821 127.428 376.312 124.517C375.507 119.807 374.595 116.969 373.934 113.208C373.227 109.176 373.647 107.061 372.217 103.87C370.912 100.959 362.168 100.091 360.363 103.969C359.326 106.202 363.116 107.323 363.223 109.022C363.223 109.022 359.764 107.929 360.488 110.08C361.382 112.666 364.645 112.512 365.038 115.82C365.601 120.476 365.038 128.232 365.038 135.293C365.038 138.204 366.487 146.755 366.487 146.755C370.018 145.743 374.926 145.436 377.286 142.461Z" fill="#B16668"/>
<path d="M371.716 113.208L373.048 108.941L361.274 106.672C362.168 107.477 363.152 108.2 363.206 109.068C363.206 109.068 359.746 107.974 360.47 110.125C360.671 110.692 361.009 111.198 361.453 111.599C362.6 112.275 363.796 112.865 365.029 113.362C367.166 114.021 368.793 113.814 369.598 112.548C369.633 112.467 371.716 113.208 371.716 113.208Z" fill="#9A4A4D"/>
<path d="M365.02 133.458C367.473 133.505 369.821 134.471 371.609 136.17C371.609 136.17 371.162 132.816 365.029 131.722V133.385L365.02 133.458Z" fill="#9A4A4D"/>
<path d="M360.765 101.89C360.54 101.038 360.097 100.261 359.48 99.6377C358.863 99.0144 358.095 98.5669 357.252 98.3403C356.409 98.1138 355.522 98.1162 354.681 98.3474C353.839 98.5786 353.073 99.0303 352.46 99.6569C352.425 99.6878 352.392 99.721 352.361 99.7564L352.254 99.8739C351.281 101.045 350.583 102.423 350.211 103.906C349.84 105.388 349.805 106.937 350.108 108.435V108.48C350.108 108.634 350.198 108.778 350.242 108.914C350.669 110.084 351.512 111.052 352.606 111.627C353.701 112.202 354.968 112.344 356.161 112.024C356.513 111.922 356.854 111.786 357.18 111.617C357.648 111.391 358.075 111.085 358.44 110.713C359.488 109.538 360.246 108.13 360.655 106.604C361.064 105.077 361.11 103.474 360.792 101.926L360.765 101.89Z" fill="#455A64"/>
<path d="M355.767 100.57C354.715 101.747 353.953 103.159 353.544 104.691C353.136 106.223 353.092 107.831 353.416 109.384C354.158 112.186 356.402 112.801 358.432 110.758C359.479 109.583 360.238 108.176 360.646 106.649C361.055 105.122 361.101 103.52 360.783 101.971C360.041 99.1326 357.797 98.536 355.767 100.57Z" fill="#37474F"/>
<path d="M375.051 108.1H375.006L358.02 103.327C357.804 103.276 357.577 103.288 357.366 103.362C357.156 103.435 356.971 103.567 356.831 103.743C356.429 104.193 356.138 104.734 355.983 105.32C355.827 105.906 355.812 106.521 355.937 107.115C355.97 107.334 356.061 107.541 356.201 107.711C356.342 107.882 356.525 108.01 356.733 108.082L373.719 112.855C373.934 112.899 374.157 112.882 374.363 112.807C374.569 112.732 374.751 112.602 374.89 112.43C375.293 111.978 375.583 111.436 375.739 110.849C375.894 110.261 375.91 109.644 375.784 109.05C375.753 108.841 375.669 108.644 375.54 108.478C375.412 108.312 375.243 108.182 375.051 108.1Z" fill="#263238"/>
<path d="M372.977 111.897C372.986 112.121 373.065 112.337 373.203 112.512C373.341 112.688 373.531 112.815 373.745 112.874C373.959 112.933 374.186 112.922 374.394 112.843C374.601 112.763 374.778 112.619 374.899 112.43C375.302 111.978 375.592 111.436 375.748 110.849C375.903 110.261 375.919 109.644 375.793 109.05C375.507 107.974 374.649 107.739 373.871 108.525C373.469 108.976 373.178 109.516 373.022 110.102C372.867 110.688 372.851 111.304 372.977 111.897Z" fill="#455A64"/>
<path d="M372.628 105.244C371.851 102.938 372.11 102.459 370.214 102.044C368.319 101.628 368.31 100.037 366.424 100.236C364.538 100.434 363.116 101.14 362.276 100.841C361.435 100.543 359.755 101.51 358.977 102.785C358.33 104.173 358.103 105.723 358.324 107.242C358.432 108.534 359.781 110.071 362.383 111.147C364.985 112.223 368.766 113.859 369.589 111.662L368.516 111.364C368.153 110.532 368.102 109.596 368.372 108.73C368.642 107.863 369.214 107.125 369.982 106.654L371.305 107.025L372.628 105.244Z" fill="#B16668"/>
<path d="M380.934 107.504C380.594 106.221 379.765 105.128 378.628 104.463C377.492 103.799 376.141 103.618 374.872 103.96C374.02 104.187 373.245 104.643 372.628 105.28L372.539 105.388L372.423 105.506C371.449 106.676 370.75 108.055 370.38 109.538C370.01 111.021 369.978 112.569 370.286 114.067V114.121C370.331 114.266 370.375 114.41 370.429 114.555C370.855 115.725 371.698 116.693 372.793 117.268C373.888 117.843 375.155 117.985 376.347 117.665C376.7 117.569 377.042 117.436 377.366 117.267C377.836 117.038 378.265 116.733 378.636 116.363C379.679 115.186 380.432 113.777 380.835 112.25C381.237 110.723 381.277 109.122 380.951 107.576C380.953 107.551 380.947 107.525 380.934 107.504Z" fill="#455A64"/>
<path d="M375.936 106.184C374.89 107.359 374.133 108.768 373.726 110.294C373.319 111.821 373.274 113.423 373.594 114.971C374.327 117.773 376.571 118.388 378.609 116.336C379.653 115.164 380.409 113.761 380.815 112.239C381.222 110.717 381.269 109.12 380.951 107.576C380.218 104.756 377.974 104.141 375.936 106.184Z" fill="#37474F"/>
<path d="M270.569 338.367C270.274 338.467 270.229 340.175 270.498 340.763C270.766 341.35 272.652 343.475 276.452 344.225C280.251 344.975 285.481 344.225 287.725 344.09C289.969 343.954 297.032 344.822 299.276 345.129C302.798 345.608 305.534 344.831 306.83 343.538C307.044 343.28 307.201 342.979 307.292 342.655C307.383 342.331 307.405 341.991 307.357 341.658C307.295 340.148 307.161 339.85 306.982 339.85L270.569 338.367Z" fill="#37474F"/>
<path d="M306.401 335.384C306.472 335.685 306.535 335.987 306.588 336.288C306.93 337.805 307.041 339.366 306.919 340.916C306.64 341.432 306.257 341.882 305.795 342.238C305.333 342.595 304.802 342.85 304.237 342.987C301.555 343.836 299.553 343.701 296.611 343.14C293.652 342.7 290.662 342.512 287.671 342.58C285.079 342.897 282.468 343.03 279.858 342.978C277.889 342.888 275.946 342.485 274.1 341.784C272.554 341.115 270.98 340.266 270.605 338.656C270.496 337.58 270.716 336.496 271.236 335.551C271.756 334.605 272.549 333.843 273.51 333.368C276.344 331.687 279.965 331.66 283.157 331.56C285.722 331.479 288.387 331.415 290.666 330.222C291.796 329.476 292.969 328.799 294.18 328.197C295.062 328.019 295.967 327.976 296.862 328.071C298.855 328.025 300.849 327.98 302.834 327.962C303.379 327.962 303.924 327.962 304.461 327.962C305.534 328.053 305.73 331.804 305.855 332.527C305.963 333.106 305.981 333.712 306.133 334.272C306.213 334.643 306.311 335.013 306.401 335.384Z" fill="#455A64"/>
<path d="M288.78 330.954C287.5 331.992 286.649 333.475 286.393 335.113C286.447 336.252 284.471 336.351 284.417 335.212C284.417 335.212 284.596 332.636 286.143 331.406C286.952 330.975 287.876 330.817 288.78 330.954Z" fill="#FAFAFA"/>
<path d="M284.203 331.524C284.203 331.524 282.674 332.338 282.281 335.14C282.281 335.981 280.493 335.908 280.555 335.068C280.555 335.068 280.823 332.645 282.129 331.551C282.674 331.198 284.024 331.189 284.203 331.524Z" fill="#FAFAFA"/>
<path d="M324.62 304.033C323.95 306.691 324.03 307.839 324.808 309.918C325.917 312.911 327.884 314.285 329.207 315.451C330.705 316.794 332.016 318.335 333.105 320.034C334.183 321.894 335.557 323.562 337.172 324.97C338.433 326.028 341.919 326.055 343.591 325.304C345.263 324.554 345.808 323.903 345.656 321.191C345.504 318.479 337.333 317.711 337.333 317.711L324.62 304.033Z" fill="#37474F"/>
<path d="M344.387 313.173C345.075 313.426 345.281 314.755 345.433 317.394C345.558 319.392 346.443 322.312 343.743 323.623C341.562 324.69 338.039 324.084 336.511 322.222C334.615 319.908 333.319 317.864 330.61 315.044C328.268 312.594 325.863 311.808 324.737 306.845C324.021 303.654 325.38 302.325 327.49 301.421C330.396 300.101 334.428 303.229 336.529 304.693C338.227 305.832 343.689 312.929 344.387 313.173Z" fill="#455A64"/>
<path d="M336.529 304.549L336.135 304.422C334.805 304.527 333.526 304.986 332.427 305.751C331.329 306.516 330.449 307.56 329.877 308.779C329.493 309.683 330.726 310.325 331.433 309.629C332.047 308.445 332.938 307.43 334.029 306.674C335.12 305.917 336.377 305.442 337.691 305.29C337.357 304.965 336.962 304.713 336.529 304.549Z" fill="#FAFAFA"/>
<path d="M338.469 306.031C337.208 306.19 336.008 306.669 334.979 307.423C333.951 308.177 333.128 309.181 332.586 310.343C332.211 311.247 333.435 311.889 334.142 311.193C334.659 310.157 335.398 309.25 336.304 308.538C337.21 307.825 338.26 307.324 339.38 307.071C339.094 306.7 338.772 306.338 338.469 306.031Z" fill="#FAFAFA"/>
<path d="M343.734 254.684C343.278 244.957 344.324 227.916 344.217 215.948C347.265 205.416 345.111 200.977 342.429 195.779C340.455 191.81 338.208 187.986 335.706 184.335L329.448 210.994L319.408 221.787C319.408 221.787 325.389 253.147 326.864 259.909C328.116 265.658 334.91 313.616 334.91 313.616C335.545 316.744 342.742 317.141 344.449 314.926C344.932 304.286 346.854 274.02 346.881 270.63C346.979 260.695 343.734 254.684 343.734 254.684Z" fill="#B16668"/>
<path d="M300.062 206.889C300.062 206.889 296.084 264.51 296.084 275.946C296.084 280.321 293.724 329.851 293.724 329.851C293.724 331.144 294.913 332.102 297.854 331.976C302.047 331.786 304.425 331 304.595 330.168C304.72 329.58 311.148 302.406 312.811 293.529C314.035 286.909 314.27 280.141 313.508 273.451C315.877 260.705 320.66 232.925 321.778 223.803C322.752 216.002 300.062 206.889 300.062 206.889Z" fill="#B16668"/>
<path d="M301.466 186.116C299.437 198.527 299.07 202.387 297.577 218.298C296.415 230.683 295.7 266.481 295.646 271.48C295.592 276.479 294.654 307.36 294.654 307.36C294.654 307.36 303.889 310.877 309.762 308.264C309.762 308.264 312.364 297.506 313.49 292.625C315.073 285.772 315.037 280.945 314.268 273.234L320.973 231.108C320.973 231.108 326.337 261.373 327.928 269.98C329.52 278.586 331.066 286.948 331.066 286.948C333.576 287.87 336.238 288.297 338.907 288.204C341.616 288.094 344.221 287.116 346.345 285.411C346.345 285.411 347.131 274.002 347.158 270.142C347.203 263.986 346.667 260.922 344.083 254.512L344.932 215.92C344.932 215.92 347.713 209.059 345.826 202.36C343.43 193.98 336.126 181.379 336.126 181.379L301.466 186.116Z" fill="#37474F"/>
<path d="M320.964 231.171L323.646 221.155C323.646 221.155 331.951 220.486 336.368 214.691C334.955 217.403 333.596 220.63 326.104 223.514L323.485 233.738L327.365 267.132L320.964 231.171Z" fill="#263238"/>
<path d="M343.824 149.467C343.26 145.426 341.839 140.527 337.995 138.845C334.151 137.164 327.222 137.824 327.222 137.824C326.677 139.632 320.07 142.027 316.762 138.845C313.58 139.523 309.673 140.256 305.391 141.313C301.993 142.145 300.027 155.154 297.765 159.393C295.136 164.32 298.48 169.337 301.823 171.959C301.823 171.959 301.734 179.824 301.475 186.161C307.339 191.133 318.291 192.489 326.757 190.256C333.131 188.574 335.635 186.567 336.162 184.063C336.582 182.111 337.709 175.783 338.638 172.375C340.784 164.474 344.575 154.846 343.824 149.467Z" fill="#B16668"/>
<path d="M337.995 138.845C334.142 137.173 327.213 137.824 327.213 137.824C326.668 139.632 320.061 142.027 316.753 138.845C313.571 139.523 309.664 140.256 305.382 141.313C301.984 142.145 298.283 150.444 296.388 158.923C295.172 164.347 298.256 169.156 301.591 171.742C301.591 171.742 301.689 174.038 301.725 176.967C308.35 180.194 317.218 181.758 327.723 179.733C331.251 179.061 334.644 177.8 337.762 176C337.977 175.349 338.2 174.318 339.64 170.124C341.079 165.929 344.575 154.846 343.824 149.467C343.26 145.426 341.839 140.527 337.995 138.845Z" fill="#45BD43"/>
<path d="M305.382 141.313C300.223 140.961 294.537 142.543 292.249 152.794C290.461 155.389 287.654 158.471 285.097 162.422C282.236 166.942 280.627 170.811 277.945 175.756C275.343 181.017 276.505 182.599 279.071 185.013C281.422 187.227 295.78 196.765 296.638 197.868C297.497 198.97 296.638 209.755 298.185 211.292C298.185 211.355 298.185 211.373 298.185 211.292C298.185 210.957 298.48 209.565 298.873 207.83C299.717 205.077 300.92 202.451 302.449 200.019C303.737 197.831 304.917 195.345 304.541 192.787C304.336 191.368 302.333 190.373 300.965 189.035C297.345 185.537 290.479 178.712 290.479 178.712L307.027 159.909C309.887 156.166 311.523 144.73 305.382 141.313Z" fill="#B16668"/>
<path opacity="0.1" d="M290.505 178.721C289.075 180.087 287.462 181.244 285.714 182.156C287.775 181.886 289.724 181.048 291.346 179.733L290.505 178.721Z" fill="black"/>
<path d="M303.156 100.606V100.543C303.072 99.9225 303.115 99.2915 303.281 98.6884C303.447 98.0853 303.733 97.5228 304.121 97.0353C304.794 96.4557 305.594 96.0466 306.454 95.8421C308.752 95.1098 311.05 94.3776 313.374 93.7357C317.755 92.5244 322.314 91.6294 326.838 92.208C331.361 92.7865 335.831 95.0104 338.245 98.9066C338.724 99.5689 339.048 100.332 339.193 101.139C339.237 101.682 339.023 102.17 339.05 102.721C339.13 104.412 339.944 106.057 340.158 107.73C340.369 109.529 340.456 111.342 340.417 113.154C340.417 120.657 322.976 124.77 323.092 129.914C320.195 126.027 317.302 122.133 314.411 118.234C314.411 117.764 313.186 116.535 312.918 116.128C312.399 115.359 311.944 114.537 311.47 113.741C310.004 111.255 307.527 109.944 305.82 107.703C304.25 105.66 303.322 103.188 303.156 100.606Z" fill="#263238"/>
<path d="M306.472 113.705C306.472 113.705 303.308 118.035 303.674 118.523C304.35 119.014 305.107 119.378 305.909 119.599L306.472 113.705Z" fill="#9A4A4D"/>
<path d="M316.163 99.9643C313.213 101.32 308.117 103.842 306.329 114.356C304.541 125.15 306.803 129.028 308.233 130.519C309.199 131.523 314.366 132.101 317.111 131.423C320.535 130.519 328.027 127.247 331.701 121.805C336.037 115.387 337.253 106.645 332.729 102.993C326.408 97.8218 318.666 98.8162 316.163 99.9643Z" fill="#B16668"/>
<path d="M315.707 130.8L315.573 139.505C318.488 143.392 329.251 142.733 328.715 137.959L328.921 128.865L315.707 130.8Z" fill="#B16668"/>
<path d="M308.537 130.718C309.726 131.451 313.106 131.894 315.689 131.622L315.752 129.661C314.628 130.094 313.467 130.421 312.283 130.637C311.046 130.861 309.783 130.888 308.537 130.718Z" fill="#9A4A4D"/>
<path d="M314.912 99.5846C313.671 99.986 312.508 100.597 311.47 101.393C310.95 101.794 310.52 102.302 310.209 102.884C309.959 103.429 309.851 104.03 309.896 104.629C309.943 105.445 310.201 106.233 310.645 106.916C311.09 107.598 311.704 108.15 312.426 108.516C312.017 109.037 311.725 109.641 311.571 110.288C311.416 110.934 311.403 111.607 311.532 112.259C312.003 113.781 312.86 115.153 314.018 116.236C314.077 116.308 314.15 116.366 314.232 116.408C314.315 116.423 314.401 116.419 314.483 116.397C314.564 116.375 314.641 116.336 314.706 116.282C316.574 115.133 317.79 113.072 320.32 114.031C323.628 115.296 323.673 118.605 321.554 121.443C321.2 122.009 320.726 122.489 320.166 122.847C319.607 123.205 318.975 123.432 318.318 123.514C317.943 123.562 317.563 123.523 317.205 123.401C316.847 123.279 316.522 123.076 316.253 122.808C316.253 122.808 316.53 129.136 321.152 131.496C321.152 131.496 325.89 133.204 328.921 131.396C330.807 128.16 333.945 126.09 336.073 123.26C341.705 115.748 346.613 103.083 334.875 98.6173C334.472 98.4637 334.061 98.319 333.65 98.1925C327.937 96.4264 321.792 96.7463 316.288 99.0965C315.832 99.2411 315.368 99.44 314.912 99.5846Z" fill="#263238"/>
<path d="M352.254 136.206C350.554 136.207 348.871 135.869 347.301 135.213C345.73 134.556 344.303 133.592 343.101 132.378C341.899 131.163 340.945 129.72 340.294 128.133C339.644 126.545 339.309 124.843 339.309 123.125V101.772C342.741 101.772 346.032 103.15 348.459 105.603C350.887 108.056 352.252 111.383 352.254 114.853V136.206Z" fill="#263238"/>
<path d="M313.642 120.051C313.335 119.929 313.055 119.746 312.819 119.513C312.582 119.28 312.394 119.002 312.265 118.695C312.136 118.388 312.069 118.058 312.067 117.724C312.066 117.391 312.13 117.06 312.256 116.752C312.521 116.129 313.016 115.635 313.637 115.378C314.257 115.121 314.953 115.121 315.573 115.377L313.642 120.051Z" fill="#263238"/>
<path d="M338.299 101.347C338.522 101.536 338.78 101.678 339.058 101.765C339.336 101.852 339.628 101.882 339.918 101.854C340.208 101.825 340.489 101.738 340.745 101.599C341.001 101.459 341.227 101.269 341.41 101.04C341.778 100.571 341.949 99.9741 341.886 99.3785C341.822 98.783 341.529 98.2367 341.07 97.858L338.299 101.347Z" fill="#263238"/>
<path d="M73.9876 100.516L70.197 93.2838L73.2455 84.3703V78.9463L63.9032 84.3703V89.7943L67.9173 96.8274C67.979 96.9388 68.0769 97.025 68.1944 97.0715L73.9876 100.516Z" fill="#45BD43"/>
<path opacity="0.2" d="M73.9876 100.516L70.197 93.2838L73.2455 84.3703V78.9463L63.9032 84.3703V89.7943L67.9173 96.8274C67.979 96.9388 68.0769 97.025 68.1944 97.0715L73.9876 100.516Z" fill="black"/>
<path d="M91.9122 57.5215C91.86 56.5398 91.5794 55.5843 91.0932 54.733C90.607 53.8816 89.9289 53.1582 89.114 52.6218L86.8343 51.2839C85.9643 50.8433 85.0047 50.6138 84.0316 50.6138C83.0586 50.6138 82.0989 50.8433 81.2289 51.2839L14.9388 90.1559C14.1238 90.6943 13.4458 91.4193 12.9596 92.2721C12.4734 93.125 12.1929 94.0817 12.1406 95.0646V114.501C12.1935 115.482 12.4744 116.437 12.9606 117.289C13.4468 118.14 14.1245 118.863 14.9388 119.4L17.2185 120.729C18.0871 121.175 19.0473 121.407 20.0212 121.407C20.9952 121.407 21.9554 121.175 22.8239 120.729L69.75 93.2838L73.7641 100.308C73.8221 100.407 73.9071 100.488 74.009 100.54C74.1109 100.593 74.2255 100.614 74.3392 100.603C74.4529 100.592 74.561 100.548 74.6508 100.476C74.7406 100.405 74.8082 100.309 74.8458 100.199L79.0834 87.8417L89.0961 81.8662C89.9112 81.3279 90.5892 80.6029 91.0754 79.75C91.5616 78.8972 91.8421 77.9405 91.8944 76.9575L91.9122 57.5215Z" fill="#45BD43"/>
<path opacity="0.2" d="M12.1406 114.474C12.1935 115.455 12.4744 116.41 12.9606 117.262C13.4468 118.113 14.1245 118.836 14.9388 119.373L17.2185 120.702C18.0076 121.105 18.872 121.334 19.755 121.375C20.6379 121.415 21.5193 121.266 22.3412 120.937C21.027 121.434 20.0257 120.684 20.0257 119.066V99.6389C20.0597 98.6533 20.3395 97.6924 20.8392 96.8455L12.9631 92.208C12.4566 93.0524 12.1734 94.0143 12.1406 95.0014V114.474Z" fill="black"/>
<path opacity="0.4" d="M91.8228 56.717C91.4921 55.5146 90.4103 55.135 89.1408 55.8853L22.8508 94.7573C22.0208 95.2759 21.3397 96.0052 20.875 96.8727L12.9989 92.2803C13.4604 91.4135 14.1385 90.6841 14.9657 90.165L81.2558 51.293C82.1243 50.8475 83.0845 50.6153 84.0585 50.6153C85.0324 50.6153 85.9926 50.8475 86.8611 51.293L89.1408 52.6218C89.838 53.0862 90.435 53.6883 90.8959 54.3921C91.3568 55.0959 91.6722 55.8867 91.8228 56.717Z" fill="white"/>
<path d="M23.262 104.322C23.1928 104.208 23.1674 104.073 23.1905 103.942C23.2098 103.779 23.2615 103.623 23.3424 103.481L26.2211 98.3642C26.2926 98.2377 26.3731 98.084 26.4804 97.9213C26.5659 97.7661 26.6889 97.6355 26.838 97.5416L28.4651 96.5924C28.5 96.5587 28.5464 96.5399 28.5947 96.5399C28.643 96.5399 28.6894 96.5587 28.7243 96.5924C28.7643 96.6375 28.7945 96.6906 28.813 96.7482C28.8314 96.8058 28.8378 96.8666 28.8316 96.9269V110.387C28.8302 110.547 28.7935 110.705 28.7243 110.848C28.6723 110.976 28.5815 111.084 28.4651 111.156L26.6771 112.186C26.6418 112.216 26.5976 112.232 26.5519 112.232C26.5062 112.232 26.462 112.216 26.4267 112.186C26.3877 112.141 26.358 112.088 26.3396 112.03C26.3212 111.973 26.3143 111.912 26.3195 111.852V102.74L24.7192 105.551C24.6676 105.67 24.5757 105.766 24.4599 105.822C24.4169 105.842 24.3683 105.844 24.3235 105.829C24.2788 105.814 24.2413 105.783 24.2186 105.741L23.262 104.322Z" fill="#FAFAFA"/>
<path d="M30.4766 106.943C30.5016 106.719 30.5589 106.5 30.6464 106.292C30.7222 106.083 30.8676 105.908 31.0577 105.795L32.7026 104.864C32.7315 104.84 32.7679 104.826 32.8054 104.826C32.843 104.826 32.8793 104.84 32.9082 104.864C32.9415 104.9 32.9667 104.943 32.9822 104.99C32.9976 105.037 33.0029 105.086 32.9976 105.135C33.0025 105.186 33.0025 105.238 32.9976 105.289L31.9606 110.044C31.9166 110.231 31.8536 110.412 31.7729 110.586C31.6984 110.781 31.5594 110.944 31.3795 111.047L30.3782 111.635C30.3502 111.661 30.3135 111.675 30.2754 111.675C30.2373 111.675 30.2006 111.661 30.1726 111.635C30.1393 111.599 30.1141 111.556 30.0987 111.509C30.0832 111.462 30.078 111.413 30.0832 111.364L30.4766 106.943Z" fill="#FAFAFA"/>
<path d="M41.6337 93.573C41.6336 93.9782 41.6067 94.3829 41.5532 94.7844C41.4931 95.2099 41.4005 95.63 41.2761 96.041C41.1395 96.5021 40.9692 96.9523 40.7665 97.3879C40.5381 97.8993 40.2815 98.3973 39.9977 98.8795L38.1203 102.152L41.4817 100.19C41.5166 100.157 41.563 100.138 41.6113 100.138C41.6596 100.138 41.706 100.157 41.7409 100.19C41.7809 100.235 41.8111 100.288 41.8296 100.346C41.8481 100.404 41.8544 100.465 41.8482 100.525V102.731C41.8468 102.89 41.8101 103.048 41.7409 103.192C41.6866 103.32 41.5965 103.43 41.4817 103.508L34.4191 107.63C34.3832 107.662 34.3372 107.68 34.2895 107.68C34.2418 107.68 34.1957 107.662 34.1598 107.63C34.1208 107.585 34.0911 107.531 34.0727 107.474C34.0543 107.417 34.0474 107.356 34.0526 107.296V105.488C34.0531 105.247 34.0831 105.007 34.142 104.774C34.1996 104.51 34.3025 104.26 34.4459 104.032L38.46 97.2885C38.7189 96.8733 38.9176 96.4228 39.05 95.9506C39.125 95.6549 39.167 95.3517 39.1752 95.0466C39.1752 94.9471 39.1752 94.8206 39.1752 94.6578C39.1531 94.5045 39.1014 94.3571 39.0232 94.2239C38.9457 94.101 38.8238 94.0134 38.6835 93.9798C38.471 93.9601 38.2586 94.0178 38.0845 94.1426C37.8425 94.2765 37.6344 94.4652 37.4766 94.694C37.3295 94.8988 37.2065 95.1203 37.11 95.3539C37.0349 95.5547 36.9722 95.76 36.9223 95.9686L36.8418 96.4116C36.8123 96.5956 36.7387 96.7694 36.6273 96.9178C36.5397 97.0322 36.4302 97.1275 36.3054 97.1981L34.6515 98.1654C34.6226 98.1896 34.5863 98.2029 34.5487 98.2029C34.5112 98.2029 34.4748 98.1896 34.4459 98.1654C34.3847 98.0893 34.3557 97.9918 34.3654 97.8942C34.3805 97.2606 34.4614 96.6303 34.6068 96.0138C34.7426 95.3257 34.9556 94.6554 35.2416 94.016C35.5479 93.3679 35.9322 92.7607 36.3859 92.208C36.8421 91.6523 37.3932 91.1838 38.013 90.8249C38.4802 90.5174 39.0205 90.3426 39.5775 90.3186C39.9924 90.3124 40.3944 90.464 40.7039 90.7435C41.0343 91.0594 41.2751 91.4589 41.4012 91.9006C41.5592 92.4436 41.6375 93.0071 41.6337 93.573Z" fill="#FAFAFA"/>
<path d="M43.2339 99.4942C43.259 99.2701 43.3162 99.0508 43.4038 98.8434C43.4827 98.6362 43.6273 98.4613 43.815 98.3462L45.46 97.3789C45.4889 97.3546 45.5253 97.3413 45.5628 97.3413C45.6004 97.3413 45.6367 97.3546 45.6656 97.3789C45.6989 97.4149 45.7241 97.4578 45.7395 97.5046C45.755 97.5514 45.7603 97.601 45.755 97.6501C45.7599 97.7012 45.7599 97.7527 45.755 97.8038L44.718 102.577C44.6739 102.764 44.611 102.945 44.5302 103.119C44.4558 103.314 44.3168 103.477 44.1369 103.58L43.1356 104.168C43.1076 104.194 43.0709 104.208 43.0328 104.208C42.9947 104.208 42.958 104.194 42.93 104.168C42.8967 104.132 42.8715 104.089 42.8561 104.042C42.8406 103.995 42.8354 103.946 42.8406 103.897L43.2339 99.4942Z" fill="#FAFAFA"/>
<path d="M53.9083 81.7216C53.9417 81.6885 53.9867 81.6699 54.0335 81.6699C54.0803 81.6699 54.1252 81.6885 54.1586 81.7216C54.1979 81.7653 54.2277 81.8168 54.2462 81.8729C54.2647 81.9289 54.2714 81.9882 54.2659 82.047V84.2618C54.2657 84.4228 54.2354 84.5823 54.1765 84.7319C54.1139 84.8946 54.0513 85.0302 53.9977 85.1478L52.3796 88.6372C52.6741 88.5608 52.9826 88.558 53.2785 88.6288C53.5743 88.6997 53.8488 88.8422 54.0782 89.044C54.331 89.3522 54.5199 89.7088 54.6335 90.0924C54.7472 90.476 54.7833 90.8788 54.7397 91.2769C54.7813 92.7073 54.4329 94.1217 53.7328 95.3653C53.0328 96.6089 52.0079 97.6339 50.7704 98.3281C50.2523 98.6546 49.6747 98.8729 49.0718 98.9699C48.6404 99.0346 48.1999 98.9619 47.8112 98.762C47.4618 98.554 47.1888 98.2367 47.0334 97.858C46.8408 97.4359 46.7431 96.9759 46.7474 96.511C46.7479 96.3831 46.7754 96.2568 46.8278 96.1404C46.8723 96.036 46.9471 95.9477 47.0424 95.8873L48.7231 94.9019C48.9079 94.7934 49.0509 94.7753 49.1522 94.8477L49.483 95.0827C49.6227 95.1727 49.7826 95.2256 49.9479 95.2364C50.243 95.2248 50.5285 95.1275 50.7704 94.9562C51.1961 94.7214 51.5703 94.4015 51.87 94.016C52.1472 93.6368 52.2947 93.1767 52.2902 92.7052C52.2902 92.2261 52.1471 91.9458 51.87 91.8916C51.4898 91.8571 51.1098 91.9595 50.7972 92.1809L49.6886 92.8318C49.6534 92.8611 49.6091 92.8772 49.5635 92.8772C49.5178 92.8772 49.4735 92.8611 49.4383 92.8318C49.3992 92.7861 49.3696 92.7329 49.3512 92.6755C49.3328 92.618 49.3259 92.5574 49.331 92.4973V90.6893C49.332 90.5284 49.3623 90.369 49.4204 90.2192C49.483 90.0565 49.5456 89.9118 49.6082 89.7762L50.976 86.784L47.4804 88.827C47.4452 88.8564 47.401 88.8725 47.3553 88.8725C47.3096 88.8725 47.2653 88.8564 47.2301 88.827C47.191 88.7814 47.1614 88.7282 47.143 88.6708C47.1246 88.6133 47.1177 88.5527 47.1228 88.4926V86.2235C47.1244 86.0666 47.1611 85.9121 47.2301 85.7715C47.2792 85.6424 47.3667 85.5319 47.4804 85.4551L53.9083 81.7216Z" fill="#FAFAFA"/>
<path d="M58.4856 93.112C58.4841 93.2718 58.4475 93.4293 58.3783 93.573C58.3263 93.7031 58.2357 93.8136 58.119 93.8894L56.331 94.911C56.2976 94.9441 56.2527 94.9626 56.2059 94.9626C56.1591 94.9626 56.1141 94.9441 56.0807 94.911C56.0407 94.8659 56.0105 94.8128 55.9921 94.7552C55.9736 94.6976 55.9672 94.6367 55.9734 94.5765V91.8645C55.975 91.7076 56.0117 91.553 56.0807 91.4125C56.1298 91.2834 56.2172 91.1728 56.331 91.0961L58.119 90.0746C58.1549 90.0428 58.201 90.0253 58.2487 90.0253C58.2964 90.0253 58.3424 90.0428 58.3783 90.0746C58.4174 90.1202 58.447 90.1734 58.4654 90.2308C58.4838 90.2883 58.4907 90.3489 58.4856 90.409V93.112Z" fill="#FAFAFA"/>
<path d="M62.3298 90.8249C62.3283 90.9847 62.2917 91.1422 62.2225 91.2859C62.1705 91.416 62.0799 91.5265 61.9632 91.6023L60.1752 92.6238C60.1408 92.655 60.0962 92.6722 60.0501 92.6722C60.0039 92.6722 59.9593 92.655 59.9249 92.6238C59.8858 92.5782 59.8562 92.525 59.8378 92.4676C59.8194 92.4101 59.8125 92.3495 59.8176 92.2894V89.5774C59.8191 89.4175 59.8557 89.26 59.9249 89.1163C59.976 88.9908 60.0632 88.8838 60.1752 88.809L61.9632 87.7784C62.0005 87.7498 62.046 87.7343 62.0929 87.7343C62.1397 87.7343 62.1852 87.7498 62.2225 87.7784C62.2616 87.8241 62.2912 87.8772 62.3096 87.9347C62.328 87.9921 62.3349 88.0527 62.3298 88.1129V90.8249Z" fill="#FAFAFA"/>
<path d="M66.174 88.592C66.1725 88.7518 66.1359 88.9093 66.0667 89.053C66.0152 89.1807 65.9283 89.2906 65.8164 89.3694L64.0284 90.391C63.9925 90.4227 63.9464 90.4403 63.8987 90.4403C63.8511 90.4403 63.805 90.4227 63.7691 90.391C63.73 90.3453 63.7004 90.2921 63.682 90.2347C63.6636 90.1772 63.6567 90.1166 63.6618 90.0565V87.3445C63.6633 87.1846 63.6999 87.0271 63.7691 86.8834C63.8236 86.7573 63.9138 86.6504 64.0284 86.5761L65.8164 85.5455C65.8516 85.5161 65.8959 85.5 65.9415 85.5C65.9872 85.5 66.0315 85.5161 66.0667 85.5455C66.1058 85.5912 66.1354 85.6443 66.1538 85.7018C66.1722 85.7592 66.1791 85.8198 66.174 85.88V88.592Z" fill="#FAFAFA"/>
<path d="M71.4843 74.58C71.1945 74.7491 70.9346 74.9661 70.7155 75.2218C70.5134 75.4757 70.345 75.7553 70.2149 76.0535C70.0884 76.3439 69.9925 76.6469 69.9288 76.9575C69.8659 77.2862 69.8211 77.6182 69.7947 77.9519C69.7947 78.1418 69.7947 78.3949 69.7947 78.7203V79.7147C69.7947 80.0492 69.7947 80.3837 69.7947 80.7091C69.7947 81.0346 69.7947 81.2786 69.7947 81.4504C69.8104 81.734 69.8523 82.0154 69.9198 82.2911C69.9738 82.5094 70.0745 82.7131 70.2149 82.8878C70.2788 82.9609 70.3572 83.0196 70.4449 83.0601C70.5327 83.1005 70.628 83.1219 70.7244 83.1228C70.996 83.119 71.2604 83.0341 71.4843 82.8787C71.7231 82.74 71.9426 82.5698 72.137 82.3725C72.3489 82.1652 72.5296 81.9277 72.6734 81.6674C72.83 81.3826 72.9502 81.0788 73.031 80.7634C73.1233 80.391 73.1684 80.0082 73.1651 79.6243L72.0476 80.2842C72.0103 80.3128 71.9647 80.3283 71.9179 80.3283C71.8711 80.3283 71.8256 80.3128 71.7883 80.2842C71.7492 80.2386 71.7196 80.1854 71.7012 80.128C71.6828 80.0705 71.6759 80.0099 71.681 79.9498V77.744C71.6813 77.5869 71.718 77.4321 71.7883 77.292C71.8403 77.162 71.9309 77.0514 72.0476 76.9756L75.2838 75.0772C75.3183 75.0461 75.3628 75.0289 75.409 75.0289C75.4552 75.0289 75.4997 75.0461 75.5342 75.0772C75.5739 75.1206 75.604 75.1721 75.6225 75.2282C75.641 75.2843 75.6475 75.3438 75.6414 75.4026V78.0694C75.6441 78.9416 75.536 79.8106 75.3196 80.6549C75.118 81.4638 74.8177 82.2442 74.4256 82.9782C74.0671 83.6686 73.6224 84.3097 73.1025 84.8856C72.6285 85.4166 72.0768 85.8709 71.4665 86.2326C70.9519 86.5652 70.36 86.7554 69.75 86.784C69.2792 86.7874 68.8226 86.6207 68.4626 86.3139C68.0701 85.9619 67.7848 85.5041 67.6401 84.9941C67.4337 84.3512 67.3223 83.6811 67.3094 83.0053C67.3094 82.4569 67.3094 81.8542 67.3094 81.1973C67.3094 80.5464 67.3094 79.9136 67.3094 79.3079C67.33 78.5089 67.4379 77.7145 67.6312 76.9394C67.8245 76.1527 68.1003 75.389 68.4537 74.6614C68.8006 73.9538 69.2363 73.2945 69.75 72.6997C70.2432 72.1231 70.826 71.6315 71.4754 71.2442C71.9812 70.9212 72.5591 70.7316 73.1561 70.6928C73.6057 70.6727 74.051 70.7892 74.4345 71.0273C74.7868 71.2698 75.0679 71.604 75.2481 71.9946C75.4446 72.4008 75.5543 72.8444 75.5699 73.2963C75.5766 73.4249 75.5488 73.553 75.4895 73.667C75.4422 73.772 75.3681 73.8625 75.2749 73.9291L73.4869 74.9687C73.3528 75.041 73.2455 75.041 73.174 74.9687L72.9505 74.7246C72.8244 74.545 72.6464 74.4092 72.4409 74.3359C72.2734 74.31 72.1025 74.3182 71.9382 74.3602C71.7739 74.4021 71.6196 74.4768 71.4843 74.58Z" fill="#FAFAFA"/>
<path d="M83.9825 72.537C83.9825 72.7358 83.9825 73.007 83.9825 73.3325C83.9825 73.6579 83.9825 73.9291 83.9825 74.137C83.9623 74.8302 83.8633 75.5188 83.6875 76.1891C83.5128 76.8675 83.2671 77.5251 82.9544 78.1508C82.6482 78.7584 82.2699 79.3261 81.8279 79.8413C81.4025 80.3323 80.9014 80.7505 80.3439 81.0798C79.8999 81.3638 79.393 81.5315 78.8688 81.5679C78.4585 81.5873 78.0551 81.4556 77.7334 81.1973C77.3953 80.9031 77.142 80.5221 77.0003 80.0944C76.8099 79.5482 76.7102 78.974 76.7053 78.3949C76.7053 78.187 76.7053 77.9248 76.7053 77.5994C76.7053 77.2739 76.7053 77.0027 76.7053 76.7858C76.7152 76.0959 76.8082 75.4098 76.9825 74.7427C77.1602 74.064 77.4089 73.4064 77.7245 72.781C78.0367 72.1671 78.4209 71.5935 78.8688 71.0725C79.2864 70.5745 79.7853 70.1525 80.3439 69.825C80.789 69.5376 81.3005 69.3725 81.8279 69.3458C82.2383 69.3369 82.6392 69.4709 82.9633 69.7255C83.3042 70.0172 83.558 70.3991 83.6964 70.8284C83.8845 71.378 83.9812 71.9554 83.9825 72.537ZM79.1102 76.84C79.0981 77.028 79.1245 77.2165 79.1875 77.3938C79.2506 77.5711 79.349 77.7334 79.4767 77.8706C79.6112 77.9612 79.7714 78.005 79.9327 77.9952C80.0941 77.9854 80.2479 77.9226 80.3707 77.8163C80.7559 77.5933 81.067 77.2599 81.2647 76.8581C81.4889 76.4052 81.6139 75.9088 81.6313 75.4026C81.6313 75.1857 81.6313 74.9416 81.6313 74.6794C81.6313 74.4173 81.6313 74.1822 81.6313 73.9924C81.6433 73.8044 81.617 73.6159 81.5539 73.4386C81.4909 73.2613 81.3924 73.099 81.2647 72.9618C81.1302 72.8712 80.9701 72.8274 80.8087 72.8372C80.6474 72.847 80.4936 72.9098 80.3707 73.0161C79.9875 73.2416 79.6771 73.5744 79.4767 73.9743C79.2552 74.4282 79.1303 74.924 79.1102 75.4298C79.1102 75.6467 79.1102 75.8908 79.1102 76.153C79.1102 76.4151 79.0923 76.6863 79.1102 76.84Z" fill="#FAFAFA"/>
<path d="M87.6926 71.5335C87.6911 71.6933 87.6545 71.8508 87.5853 71.9946C87.5362 72.1237 87.4488 72.2342 87.335 72.311L85.6453 73.2963C85.6109 73.3275 85.5663 73.3447 85.5202 73.3447C85.474 73.3447 85.4294 73.3275 85.395 73.2963C85.3559 73.2506 85.3263 73.1975 85.3079 73.1401C85.2894 73.0826 85.2826 73.022 85.2877 72.9618V63.958C85.2893 63.8011 85.326 63.6465 85.395 63.506C85.4441 63.3769 85.5315 63.2664 85.6453 63.1896L87.335 62.2042C87.3694 62.1731 87.414 62.1559 87.4601 62.1559C87.5063 62.1559 87.5509 62.1731 87.5853 62.2042C87.6244 62.2499 87.654 62.303 87.6724 62.3605C87.6908 62.4179 87.6977 62.4786 87.6926 62.5387V71.5335ZM87.6926 76.0535C87.6911 76.2134 87.6545 76.3708 87.5853 76.5146C87.5338 76.6423 87.4469 76.7521 87.335 76.831L85.6453 77.744C85.6101 77.7734 85.5658 77.7895 85.5202 77.7895C85.4745 77.7895 85.4302 77.7734 85.395 77.744C85.3559 77.6983 85.3263 77.6452 85.3079 77.5877C85.2894 77.5303 85.2826 77.4697 85.2877 77.4095V75.3213C85.2892 75.1615 85.3258 75.004 85.395 74.8602C85.4465 74.7325 85.5334 74.6227 85.6453 74.5438L87.335 73.5585C87.3702 73.5291 87.4145 73.513 87.4601 73.513C87.5058 73.513 87.5501 73.5291 87.5853 73.5585C87.6244 73.6042 87.654 73.6573 87.6724 73.7147C87.6908 73.7722 87.6977 73.8328 87.6926 73.893V76.0535Z" fill="#FAFAFA"/>
<path d="M323.136 79.0638L319.337 71.8318L322.394 62.9184V57.4944L313.052 62.9184V68.3424L317.066 75.3755C317.131 75.4842 317.228 75.5696 317.343 75.6196L323.136 79.0638Z" fill="#45BD43"/>
<path opacity="0.2" d="M323.136 79.0638L319.337 71.8318L322.394 62.9184V57.4944L313.052 62.9184V68.3424L317.066 75.3755C317.131 75.4842 317.228 75.5696 317.343 75.6196L323.136 79.0638Z" fill="black"/>
<path d="M347.328 32.4898C347.276 31.5068 346.995 30.5501 346.509 29.6972C346.023 28.8444 345.345 28.1194 344.53 27.581L342.25 26.216C341.382 25.7705 340.421 25.5383 339.447 25.5383C338.474 25.5383 337.513 25.7705 336.645 26.216L289.361 53.7699C288.546 54.3069 287.867 55.0302 287.38 55.8813C286.892 56.7324 286.609 57.6876 286.554 58.6696V78.1056C286.608 79.0892 286.89 80.0462 287.378 80.899C287.866 81.7518 288.545 82.4764 289.361 83.0143L291.641 84.3432C292.508 84.7886 293.467 85.0208 294.439 85.0208C295.411 85.0208 296.37 84.7886 297.237 84.3432L318.917 71.8318L322.922 78.8559C322.98 78.9555 323.065 79.0362 323.167 79.0885C323.269 79.1408 323.383 79.1625 323.497 79.1511C323.611 79.1397 323.719 79.0956 323.809 79.0241C323.898 78.9526 323.966 78.8566 324.004 78.7474L328.241 66.3898L344.53 56.8345C345.345 56.2961 346.023 55.5711 346.509 54.7183C346.995 53.8654 347.276 52.9087 347.328 51.9258V32.4898Z" fill="#45BD43"/>
<path opacity="0.2" d="M286.554 78.1056C286.608 79.0892 286.89 80.0462 287.378 80.899C287.866 81.7518 288.545 82.4764 289.361 83.0143L291.641 84.3432C292.43 84.7445 293.295 84.9721 294.178 85.0111C295.061 85.05 295.942 84.8994 296.763 84.5692C295.44 85.0755 294.439 84.3251 294.439 82.707V63.28C294.472 62.2959 294.755 61.3369 295.262 60.4957L287.376 55.8943C286.874 56.7374 286.591 57.6952 286.554 58.6787V78.1056Z" fill="black"/>
<path opacity="0.4" d="M347.239 31.6852C346.908 30.4829 345.826 30.1032 344.557 30.8536L297.264 58.3713C296.436 58.8922 295.755 59.621 295.288 60.4867L287.412 55.8853C287.882 55.0215 288.562 54.2934 289.388 53.77L336.645 26.216C337.515 25.7754 338.474 25.5459 339.447 25.5459C340.42 25.5459 341.38 25.7754 342.25 26.216L344.53 27.554C345.236 28.0196 345.84 28.6263 346.306 29.3367C346.772 30.0471 347.089 30.8463 347.239 31.6852Z" fill="white"/>
<path d="M298.095 67.8C298.025 67.6904 298 67.5576 298.024 67.4294C298.043 67.2669 298.095 67.11 298.176 66.9683L301.055 61.8426C301.126 61.7251 301.207 61.5714 301.314 61.3997C301.4 61.2471 301.523 61.1195 301.671 61.029L303.299 60.125C303.333 60.0913 303.38 60.0725 303.428 60.0725C303.476 60.0725 303.523 60.0913 303.558 60.125C303.597 60.1688 303.627 60.2203 303.645 60.2763C303.664 60.3324 303.671 60.3917 303.665 60.4505V73.9201C303.665 74.0772 303.628 74.232 303.558 74.3721C303.506 74.5021 303.415 74.6127 303.299 74.6885L301.511 75.719C301.475 75.7484 301.431 75.7645 301.385 75.7645C301.34 75.7645 301.295 75.7484 301.26 75.719C301.221 75.6734 301.192 75.6202 301.173 75.5628C301.155 75.5053 301.148 75.4447 301.153 75.3846V66.218L299.553 69.0294C299.496 69.1444 299.405 69.239 299.293 69.3006C299.25 69.3202 299.202 69.3227 299.157 69.3076C299.112 69.2925 299.075 69.261 299.052 69.2193L298.095 67.8Z" fill="#FAFAFA"/>
<path d="M305.346 70.4126C305.372 70.1916 305.429 69.9755 305.516 69.7707C305.594 69.5609 305.739 69.383 305.927 69.2645L307.554 68.3062C307.582 68.2802 307.619 68.2657 307.657 68.2657C307.695 68.2657 307.732 68.2802 307.76 68.3062C307.793 68.3423 307.818 68.3852 307.834 68.432C307.849 68.4788 307.854 68.5284 307.849 68.5774C307.854 68.6286 307.854 68.68 307.849 68.7311L306.812 73.4862C306.768 73.673 306.705 73.8548 306.624 74.0286C306.55 74.2236 306.411 74.3866 306.231 74.4896L305.23 75.0772C305.201 75.1015 305.164 75.1148 305.127 75.1148C305.089 75.1148 305.053 75.1015 305.024 75.0772C304.991 75.0411 304.965 74.9983 304.95 74.9515C304.935 74.9047 304.929 74.8551 304.935 74.806L305.346 70.4126Z" fill="#FAFAFA"/>
<path d="M316.494 57.0514C316.494 57.4566 316.467 57.8612 316.414 58.2628C316.352 58.6881 316.26 59.1081 316.136 59.5194C315.998 59.98 315.828 60.4301 315.627 60.8663C315.398 61.3777 315.142 61.8757 314.858 62.3579L312.981 65.6666L316.342 63.7049C316.377 63.6712 316.423 63.6524 316.472 63.6524C316.52 63.6524 316.566 63.6712 316.601 63.7049C316.641 63.7486 316.67 63.8001 316.689 63.8562C316.707 63.9122 316.714 63.9715 316.709 64.0303V66.2632C316.707 66.423 316.67 66.5805 316.601 66.7242C316.547 66.8504 316.457 66.9573 316.342 67.0316L309.279 71.1629C309.244 71.1947 309.197 71.2122 309.15 71.2122C309.102 71.2122 309.056 71.1947 309.02 71.1629C308.981 71.1172 308.951 71.0641 308.933 71.0066C308.915 70.9492 308.908 70.8886 308.913 70.8284V69.0204C308.914 68.7766 308.944 68.5338 309.002 68.2972C309.062 68.0374 309.164 67.7898 309.306 67.565L313.302 60.7669C313.561 60.3517 313.76 59.9012 313.892 59.429C313.967 59.1332 314.009 58.83 314.018 58.525C314.018 58.4255 314.018 58.299 314.018 58.1362C313.997 57.9826 313.945 57.8349 313.866 57.7023C313.788 57.5794 313.666 57.4918 313.526 57.4582C313.314 57.4278 313.099 57.483 312.927 57.6119C312.686 57.752 312.479 57.9432 312.319 58.1724C312.17 58.3761 312.047 58.5978 311.952 58.8323C311.876 59.0327 311.813 59.2381 311.765 59.447L311.684 59.881C311.656 60.0681 311.582 60.2452 311.47 60.3962C311.38 60.5083 311.271 60.6032 311.148 60.6765L309.494 61.6347C309.466 61.6608 309.429 61.6752 309.391 61.6752C309.353 61.6752 309.316 61.6608 309.288 61.6347C309.227 61.5587 309.198 61.4611 309.208 61.3635C309.222 60.7299 309.303 60.0996 309.449 59.4832C309.604 58.799 309.834 58.1348 310.138 57.5034C310.444 56.8554 310.828 56.2481 311.282 55.6954C311.738 55.116 312.292 54.6231 312.918 54.24C313.386 53.9345 313.926 53.7627 314.482 53.7428C314.897 53.7365 315.299 53.8882 315.609 54.1677C315.939 54.4836 316.18 54.8831 316.306 55.3248C316.454 55.8875 316.518 56.4696 316.494 57.0514Z" fill="#FAFAFA"/>
<path d="M318.103 62.9727C318.128 62.7485 318.185 62.5292 318.273 62.3218C318.351 62.1119 318.496 61.934 318.684 61.8155L320.329 60.8573C320.357 60.8312 320.394 60.8168 320.432 60.8168C320.47 60.8168 320.507 60.8312 320.535 60.8573C320.568 60.8934 320.593 60.9362 320.609 60.983C320.624 61.0298 320.629 61.0794 320.624 61.1285C320.629 61.1796 320.629 61.2311 320.624 61.2822L319.587 66.0372C319.543 66.224 319.48 66.4058 319.399 66.5796C319.325 66.7747 319.186 66.9376 319.006 67.0407L318.005 67.6282C317.976 67.6525 317.94 67.6658 317.902 67.6658C317.864 67.6658 317.828 67.6525 317.799 67.6282C317.766 67.5922 317.741 67.5493 317.725 67.5025C317.71 67.4557 317.705 67.4061 317.71 67.357L318.103 62.9727Z" fill="#FAFAFA"/>
<path d="M328.778 45.2C328.813 45.1706 328.857 45.1545 328.903 45.1545C328.948 45.1545 328.993 45.1706 329.028 45.2C329.067 45.2457 329.097 45.2988 329.115 45.3563C329.133 45.4137 329.14 45.4743 329.135 45.5345V47.7493C329.135 47.9103 329.105 48.0698 329.046 48.2194C328.983 48.3821 328.921 48.5177 328.867 48.6352L327.222 52.1246C327.517 52.0518 327.826 52.0515 328.121 52.1239C328.417 52.1962 328.691 52.3391 328.921 52.5405C329.174 52.8482 329.364 53.2047 329.477 53.5884C329.591 53.9722 329.627 54.3753 329.582 54.7734C329.612 56.2296 329.25 57.6668 328.536 58.9318C327.83 60.1367 326.822 61.1316 325.613 61.8155C325.097 62.1478 324.518 62.3693 323.914 62.4664C323.483 62.5269 323.044 62.4545 322.654 62.2585C322.304 62.0505 322.031 61.7332 321.876 61.3545C321.683 60.9324 321.586 60.4724 321.59 60.0075C321.59 59.8796 321.618 59.7533 321.67 59.6369C321.718 59.5318 321.792 59.4413 321.885 59.3747L323.566 58.3984C323.753 58.2809 323.896 58.2718 323.995 58.3442L324.325 58.5792C324.465 58.6692 324.625 58.7221 324.79 58.7329C325.085 58.7213 325.371 58.624 325.613 58.4526C326.03 58.2129 326.393 57.8863 326.677 57.4944C326.959 57.1177 327.11 56.6566 327.106 56.1836C327.106 55.6954 326.963 55.4242 326.677 55.37C326.299 55.332 325.921 55.4349 325.613 55.6593L324.504 56.3011C324.471 56.3343 324.426 56.3528 324.379 56.3528C324.332 56.3528 324.287 56.3343 324.254 56.3011C324.215 56.2574 324.185 56.2059 324.166 56.1498C324.148 56.0938 324.141 56.0345 324.147 55.9757V54.24C324.147 54.079 324.177 53.9195 324.236 53.7699C324.299 53.6072 324.361 53.4626 324.424 53.327L325.845 50.2714L322.35 52.3054C322.316 52.3386 322.271 52.3571 322.225 52.3571C322.178 52.3571 322.133 52.3386 322.099 52.3054C322.06 52.2617 322.03 52.2102 322.012 52.1542C321.993 52.0981 321.987 52.0388 321.992 51.98V49.72C321.994 49.5602 322.03 49.4027 322.099 49.259C322.15 49.1335 322.238 49.0264 322.35 48.9516L328.778 45.2Z" fill="#FAFAFA"/>
<path d="M333.355 56.5452C333.353 56.705 333.317 56.8625 333.248 57.0062C333.193 57.1348 333.103 57.2447 332.988 57.3226L331.2 58.3442C331.166 58.3753 331.121 58.3925 331.075 58.3925C331.029 58.3925 330.984 58.3753 330.95 58.3442C330.911 58.2985 330.881 58.2454 330.863 58.1879C330.844 58.1305 330.838 58.0699 330.843 58.0097V55.2977C330.844 55.1379 330.881 54.9804 330.95 54.8366C331.001 54.7112 331.088 54.6041 331.2 54.5293L332.988 53.4987C333.026 53.4701 333.071 53.4547 333.118 53.4547C333.165 53.4547 333.21 53.4701 333.248 53.4987C333.287 53.5444 333.316 53.5975 333.335 53.655C333.353 53.7124 333.36 53.773 333.355 53.8332V56.5452Z" fill="#FAFAFA"/>
<path d="M337.199 54.3033C337.198 54.4631 337.161 54.6206 337.092 54.7643C337.037 54.8929 336.947 55.0028 336.832 55.0807L335.044 56.1022C335.01 56.1334 334.965 56.1506 334.919 56.1506C334.873 56.1506 334.829 56.1334 334.794 56.1022C334.755 56.0566 334.725 56.0034 334.707 55.946C334.689 55.8885 334.682 55.8279 334.687 55.7678V53.0558C334.688 52.8959 334.725 52.7384 334.794 52.5947C334.846 52.467 334.933 52.3571 335.044 52.2783L336.832 51.2568C336.87 51.2282 336.915 51.2127 336.962 51.2127C337.009 51.2127 337.054 51.2282 337.092 51.2568C337.131 51.3025 337.16 51.3556 337.179 51.4131C337.197 51.4705 337.204 51.5311 337.199 51.5913V54.3033Z" fill="#FAFAFA"/>
<path d="M341.034 52.0614C341.033 52.2212 340.996 52.3787 340.927 52.5224C340.876 52.6501 340.789 52.76 340.677 52.8388L338.889 53.8603C338.853 53.8921 338.807 53.9096 338.759 53.9096C338.711 53.9096 338.665 53.8921 338.629 53.8603C338.59 53.8147 338.561 53.7615 338.542 53.7041C338.524 53.6466 338.517 53.586 338.522 53.5258V50.8138C338.524 50.654 338.56 50.4965 338.629 50.3528C338.684 50.2242 338.774 50.1143 338.889 50.0364L340.677 49.0149C340.712 48.9855 340.756 48.9694 340.802 48.9694C340.848 48.9694 340.892 48.9855 340.927 49.0149C340.966 49.0606 340.996 49.1137 341.014 49.1711C341.033 49.2286 341.039 49.2892 341.034 49.3494V52.0614Z" fill="#FAFAFA"/>
</svg>
