<svg width="393" height="462" viewBox="0 0 393 462" fill="none" xmlns="http://www.w3.org/2000/svg">
<g clip-path="url(#clip0_100_10181)">
<path d="M297.05 429.73H286.292V430.039H297.05V429.73Z" fill="#EBEBEB"/>
<path d="M401.736 414.863H377.978V415.172H401.736V414.863Z" fill="#EBEBEB"/>
<path d="M5.41472 416.944H-48.0545V417.254H5.41472V416.944Z" fill="#EBEBEB"/>
<path d="M24.2819 416.944H16.4453V417.254H24.2819V416.944Z" fill="#EBEBEB"/>
<path d="M165.736 422.172H49.7599V422.482H165.736V422.172Z" fill="#EBEBEB"/>
<path d="M180.406 351.171H-58.6394C-60.5121 351.167 -62.307 350.421 -63.63 349.094C-64.953 347.768 -65.696 345.97 -65.696 344.096V7.82019C-65.6797 5.95691 -64.9295 4.1753 -63.6082 2.86236C-62.287 1.54942 -60.5014 0.811175 -58.6394 0.807983H180.406C182.281 0.807983 184.079 1.55329 185.405 2.87995C186.73 4.20662 187.475 6.00595 187.475 7.88213V344.096C187.475 345.973 186.73 347.772 185.405 349.099C184.079 350.425 182.281 351.171 180.406 351.171ZM-58.6394 1.05577C-60.43 1.05905 -62.1461 1.77317 -63.4111 3.04139C-64.6761 4.30961 -65.3865 6.0283 -65.3865 7.82019V344.096C-65.3865 345.888 -64.6761 347.607 -63.4111 348.875C-62.1461 350.143 -60.43 350.858 -58.6394 350.861H180.406C182.198 350.858 183.915 350.144 185.182 348.876C186.449 347.608 187.162 345.889 187.165 344.096V7.82019C187.162 6.02716 186.449 4.3085 185.182 3.04064C183.915 1.77277 182.198 1.05904 180.406 1.05577H-58.6394Z" fill="#EBEBEB"/>
<path d="M448.198 351.171H209.14C207.266 351.167 205.47 350.421 204.145 349.095C202.82 347.769 202.074 345.972 202.071 344.096V7.82019C202.091 5.95578 202.844 4.17419 204.167 2.86158C205.49 1.54898 207.277 0.81114 209.14 0.807983H448.198C450.058 0.814431 451.84 1.55411 453.159 2.86671C454.477 4.1793 455.226 5.95905 455.242 7.82019V344.096C455.242 345.968 454.501 347.764 453.18 349.09C451.86 350.416 450.068 351.164 448.198 351.171ZM209.14 1.05577C207.348 1.05904 205.631 1.77277 204.364 3.04064C203.097 4.3085 202.384 6.02716 202.38 7.82019V344.096C202.384 345.889 203.097 347.608 204.364 348.876C205.631 350.144 207.348 350.858 209.14 350.861H448.198C449.989 350.858 451.707 350.144 452.974 348.876C454.241 347.608 454.954 345.889 454.957 344.096V7.82019C454.954 6.02716 454.241 4.3085 452.974 3.04064C451.707 1.77277 449.989 1.05904 448.198 1.05577H209.14Z" fill="#EBEBEB"/>
<path d="M506 406.426H-113V406.736H506V406.426Z" fill="#EBEBEB"/>
<path d="M-50.2829 325.079L-10.6669 324.931C-9.12375 324.931 -7.64378 325.544 -6.55257 326.636C-5.46138 327.728 -4.84834 329.209 -4.84834 330.753V344.741C-4.84834 346.288 -4.23401 347.772 -3.14049 348.867C-2.04697 349.961 -0.563835 350.576 0.982635 350.576H59.1686C60.7141 350.576 62.1967 349.963 63.2918 348.872C64.3869 347.781 65.0054 346.3 65.012 344.753V293.388C65.0136 292.624 65.1658 291.868 65.4599 291.162C65.7539 290.457 66.1841 289.817 66.7257 289.279C67.2673 288.74 67.9098 288.314 68.6163 288.024C69.3228 287.734 70.0795 287.587 70.843 287.59H83.223C84.7695 287.59 86.2526 286.975 87.3461 285.881C88.4396 284.786 89.054 283.302 89.054 281.755V253.731C89.054 252.186 89.667 250.705 90.7582 249.613C91.8494 248.521 93.3294 247.908 94.8726 247.908H115.163C116.706 247.911 118.184 248.526 119.274 249.617C120.365 250.708 120.979 252.187 120.982 253.731V261.982C120.982 263.529 121.596 265.014 122.69 266.108C123.783 267.202 125.266 267.817 126.813 267.817H128.707C130.25 267.817 131.73 267.204 132.821 266.112C133.913 265.02 134.526 263.538 134.526 261.994V231.492C134.526 229.945 135.14 228.46 136.234 227.366C137.327 226.272 138.81 225.657 140.357 225.657H160.449C161.995 225.66 163.476 226.276 164.569 227.37C165.662 228.463 166.277 229.946 166.28 231.492V262.044C166.28 263.588 166.893 265.069 167.985 266.161C169.076 267.253 170.556 267.867 172.099 267.867H178.363C179.906 267.867 181.386 267.253 182.478 266.161C183.569 265.069 184.182 263.588 184.182 262.044V200.47V169.621H185.42V188.626C185.528 188.457 185.648 188.296 185.779 188.143L232.018 161.568C232.996 160.503 233.553 161.568 233.553 160.144V122.109L236.735 119.83L294.5 78.4131V61.9232H295.738V77.521L295.973 77.3476V262.056C295.973 263.604 296.588 265.088 297.681 266.182C298.775 267.277 300.258 267.891 301.804 267.891H309.393C310.158 267.893 310.916 267.744 311.624 267.452C312.331 267.16 312.974 266.731 313.516 266.19C314.057 265.649 314.487 265.007 314.78 264.3C315.073 263.592 315.224 262.834 315.224 262.068L317.044 193.111C317.058 192.445 317.214 191.791 317.502 191.191L328.793 167.651H329.635V140.941C329.635 139.691 330.13 138.492 331.012 137.607C331.894 136.722 333.09 136.224 334.339 136.22H336.617V117.339H337.855V136.22H339.093C340.343 136.224 341.541 136.722 342.424 137.607C343.308 138.491 343.806 139.69 343.81 140.941V142.18H349.096V140.941C349.096 139.691 349.591 138.492 350.473 137.607C351.355 136.722 352.551 136.224 353.8 136.22H355.806V117.339H357.044V136.22H358.505C359.755 136.224 360.952 136.722 361.836 137.607C362.72 138.491 363.218 139.69 363.221 140.941V167.602H364.063L375.366 191.141C375.649 191.743 375.805 192.397 375.824 193.061L377.681 261.945C377.681 263.492 378.296 264.976 379.389 266.071C380.483 267.165 381.966 267.78 383.512 267.78H394.171C395.714 267.783 397.192 268.398 398.282 269.489C399.373 270.58 399.987 272.059 399.99 273.603V281.631C399.988 282.396 400.138 283.154 400.43 283.861C400.721 284.568 401.15 285.211 401.691 285.752C402.231 286.293 402.873 286.722 403.58 287.014C404.287 287.306 405.044 287.455 405.809 287.454H413.422C414.795 287.446 416.126 287.926 417.178 288.808C418.23 289.691 418.935 290.919 419.167 292.273L439.445 398.918C439.52 399.281 439.557 399.65 439.557 400.021C439.55 401.567 438.931 403.048 437.836 404.14C436.741 405.231 435.259 405.843 433.713 405.843H-50.221C-51.4467 405.93 -50.2829 325.079 -50.2829 325.079Z" fill="#F5F5F5"/>
<path d="M428.724 57.0791H347.152C336.704 57.0791 334.178 42.4352 344.045 39.0034L344.429 38.8796C333.509 29.7736 357.44 10.5829 383.438 37.1575C381.408 28.2993 404.484 31.4957 411.603 43.5874C414.165 35.646 436.226 49.435 428.724 57.0791Z" fill="#F5F5F5"/>
<path d="M18.3518 169.212H-27.7389C-27.7389 169.212 -38.5467 165.136 -37.1477 154.346C-35.7488 143.555 -19.432 152.549 -19.432 152.549C-19.432 152.549 -24.384 137.496 -8.5747 141.771C-4.1199 142.909 -0.0994949 145.337 2.98338 148.75C6.06626 152.164 8.07468 156.411 8.7573 160.961C8.7573 160.961 29.5309 157.344 18.3518 169.212Z" fill="#F5F5F5"/>
<path d="M346.657 287.825H334.995V329.663H346.657V287.825Z" fill="#E0E0E0"/>
<path d="M369.56 314.71H357.898V329.663H369.56V314.71Z" fill="#EBEBEB"/>
<path d="M392.451 307.301H380.789V329.651H392.451V307.301Z" fill="#EBEBEB"/>
<path d="M39.5587 290.96H-45.269V301.354H39.5587V290.96Z" fill="#EBEBEB"/>
<path d="M69.8773 305.715H-45.269V316.109H69.8773V305.715Z" fill="#E0E0E0"/>
<path d="M259.083 100.374V99.0443L262.189 96.1679C262.453 95.9122 262.675 95.6821 262.854 95.4775C263.036 95.273 263.174 95.0727 263.267 94.8767C263.361 94.6778 263.408 94.4633 263.408 94.2332C263.408 93.9775 263.35 93.7574 263.233 93.5727C263.117 93.3852 262.958 93.2417 262.756 93.1423C262.554 93.04 262.326 92.9889 262.07 92.9889C261.803 92.9889 261.57 93.0429 261.371 93.1508C261.172 93.2588 261.019 93.4136 260.911 93.6153C260.803 93.817 260.749 94.0571 260.749 94.3355H258.997C258.997 93.7645 259.127 93.2687 259.385 92.8483C259.644 92.4278 260.006 92.1025 260.472 91.8724C260.938 91.6423 261.475 91.5272 262.083 91.5272C262.708 91.5272 263.252 91.638 263.715 91.8596C264.181 92.0784 264.543 92.3824 264.801 92.7716C265.06 93.1608 265.189 93.6068 265.189 94.1096C265.189 94.4392 265.124 94.7645 264.993 95.0855C264.865 95.4065 264.637 95.763 264.307 96.1551C263.978 96.5443 263.513 97.0116 262.914 97.5571L261.639 98.8057V98.8653H265.304V100.374H259.083ZM269.867 100.493C269.231 100.493 268.664 100.384 268.167 100.165C267.672 99.9434 267.282 99.6395 266.995 99.2531C266.711 98.8639 266.565 98.415 266.556 97.9065H268.414C268.425 98.1196 268.495 98.3071 268.623 98.469C268.753 98.6281 268.927 98.7517 269.143 98.8397C269.359 98.9278 269.601 98.9719 269.871 98.9719C270.153 98.9719 270.401 98.9221 270.617 98.8227C270.833 98.7233 271.002 98.5855 271.124 98.4094C271.246 98.2332 271.307 98.0301 271.307 97.8C271.307 97.567 271.242 97.3611 271.111 97.1821C270.984 97.0003 270.799 96.8582 270.557 96.7559C270.319 96.6537 270.035 96.6025 269.705 96.6025H268.891V95.2474H269.705C269.984 95.2474 270.229 95.1991 270.442 95.1025C270.658 95.0059 270.826 94.8724 270.945 94.702C271.065 94.5287 271.124 94.327 271.124 94.0969C271.124 93.8781 271.072 93.6863 270.967 93.5216C270.864 93.354 270.719 93.2233 270.532 93.1295C270.347 93.0358 270.131 92.9889 269.884 92.9889C269.634 92.9889 269.405 93.0344 269.198 93.1253C268.991 93.2133 268.824 93.3397 268.699 93.5045C268.574 93.6693 268.508 93.8625 268.499 94.0841H266.731C266.739 93.5812 266.883 93.138 267.161 92.7545C267.44 92.371 267.815 92.0713 268.286 91.8554C268.761 91.6366 269.296 91.5272 269.893 91.5272C270.495 91.5272 271.022 91.6366 271.474 91.8554C271.925 92.0741 272.276 92.3696 272.526 92.7417C272.779 93.1111 272.904 93.5258 272.901 93.9861C272.904 94.4747 272.752 94.8824 272.445 95.2091C272.141 95.5358 271.745 95.7432 271.256 95.8312V95.8994C271.898 95.9818 272.387 96.2048 272.722 96.5684C273.06 96.9292 273.228 97.3809 273.225 97.9236C273.228 98.4207 273.084 98.8625 272.795 99.2488C272.508 99.6352 272.111 99.9392 271.606 100.161C271.1 100.382 270.52 100.493 269.867 100.493ZM277.38 91.6466H279.655L282.059 97.5102H282.161L284.565 91.6466H286.84V100.374H285.05V94.6934H284.978L282.719 100.331H281.501L279.242 94.6721H279.17V100.374H277.38V91.6466ZM290.205 91.6466V100.374H288.36V91.6466H290.205ZM291.724 100.374V91.6466H293.569V98.8525H297.31V100.374H291.724ZM298.532 100.374V91.6466H304.413V93.1679H300.377V95.2474H304.11V96.7687H300.377V98.8525H304.43V100.374H298.532ZM310.614 94.1565C310.58 93.8128 310.434 93.5457 310.175 93.3554C309.917 93.165 309.566 93.0699 309.123 93.0699C308.822 93.0699 308.567 93.1125 308.36 93.1977C308.153 93.2801 307.993 93.3951 307.883 93.5429C307.775 93.6906 307.721 93.8582 307.721 94.0457C307.715 94.202 307.748 94.3383 307.819 94.4548C307.893 94.5713 307.993 94.6721 308.121 94.7574C308.249 94.8397 308.397 94.9122 308.565 94.9747C308.732 95.0344 308.911 95.0855 309.101 95.1281L309.886 95.3156C310.266 95.4008 310.616 95.5145 310.934 95.6565C311.252 95.7986 311.528 95.9733 311.761 96.1807C311.993 96.388 312.174 96.6324 312.302 96.9136C312.432 97.1949 312.499 97.5173 312.502 97.8809C312.499 98.415 312.363 98.8781 312.093 99.2701C311.826 99.6594 311.44 99.9619 310.934 100.178C310.431 100.391 309.824 100.497 309.114 100.497C308.41 100.497 307.796 100.389 307.273 100.174C306.753 99.9576 306.347 99.638 306.055 99.2147C305.765 98.7886 305.613 98.2616 305.599 97.6338H307.384C307.404 97.9264 307.488 98.1707 307.636 98.3667C307.786 98.5599 307.986 98.7062 308.236 98.8057C308.489 98.9022 308.775 98.9505 309.093 98.9505C309.405 98.9505 309.677 98.9051 309.907 98.8142C310.14 98.7233 310.32 98.5969 310.448 98.4349C310.576 98.273 310.64 98.0869 310.64 97.8767C310.64 97.6807 310.582 97.5159 310.465 97.3824C310.351 97.2488 310.184 97.1352 309.962 97.0415C309.743 96.9477 309.475 96.8625 309.157 96.7858L308.207 96.5471C307.471 96.3682 306.89 96.0883 306.464 95.7076C306.038 95.327 305.826 94.8142 305.829 94.1693C305.826 93.6409 305.967 93.1792 306.251 92.7844C306.538 92.3895 306.931 92.0812 307.431 91.8596C307.931 91.638 308.499 91.5272 309.136 91.5272C309.783 91.5272 310.349 91.638 310.832 91.8596C311.317 92.0812 311.695 92.3895 311.965 92.7844C312.235 93.1792 312.374 93.6366 312.383 94.1565H310.614Z" fill="#E0E0E0"/>
<path d="M196.5 461.693C329.068 461.693 436.536 455.414 436.536 447.669C436.536 439.923 329.068 433.645 196.5 433.645C63.9319 433.645 -43.5358 439.923 -43.5358 447.669C-43.5358 455.414 63.9319 461.693 196.5 461.693Z" fill="#F5F5F5"/>
<path d="M311.089 137.794H278.332L245.587 170.563L183.996 201.387H119.472L55.9251 264.98H10.1315V275.969H60.4686L124.015 212.376H186.584L252.086 179.594L282.888 148.783H313.677L359.532 125.838V113.548L311.089 137.794Z" fill="#45BD43"/>
<path d="M9.74773 217.864C8.27934 217.856 6.82382 218.139 5.46485 218.695C4.10589 219.252 2.87029 220.072 1.8291 221.108C0.787901 222.144 -0.0383568 223.376 -0.602162 224.733C-1.16597 226.09 -1.4562 227.545 -1.45618 229.014C-1.45618 232.954 3.08729 240.995 6.38037 246.359C8.26213 249.394 9.74773 251.55 9.74773 251.55C9.74773 251.55 11.2333 249.394 13.0903 246.359C16.3958 241.044 20.9269 233.004 20.9269 229.014C20.9269 227.547 20.6375 226.094 20.0752 224.739C19.5129 223.384 18.6889 222.153 17.6503 221.117C16.6118 220.081 15.3791 219.26 14.023 218.702C12.6669 218.144 11.214 217.859 9.74773 217.864ZM9.74773 234.577C8.73788 234.58 7.75003 234.282 6.90935 233.722C6.06868 233.162 5.41301 232.365 5.02542 231.432C4.63784 230.499 4.5358 229.471 4.73221 228.48C4.92862 227.489 5.41465 226.578 6.12872 225.864C6.84279 225.149 7.75276 224.663 8.74333 224.466C9.73389 224.269 10.7605 224.372 11.693 224.759C12.6255 225.147 13.422 225.803 13.9815 226.645C14.541 227.486 14.8384 228.475 14.8359 229.485C14.8359 230.836 14.2998 232.131 13.3456 233.086C12.3914 234.041 11.0972 234.577 9.74773 234.577Z" fill="#45BD43"/>
<g opacity="0.5">
<path d="M311.089 137.794H278.332L245.587 170.563L183.996 201.387H119.472L55.9251 264.98H10.1315V275.969H60.4686L124.015 212.376H186.584L252.086 179.594L282.888 148.783H313.677L359.532 125.838V113.548L311.089 137.794Z" fill="white"/>
<path d="M9.74773 217.864C8.27934 217.856 6.82382 218.139 5.46485 218.695C4.10589 219.252 2.87029 220.072 1.8291 221.108C0.787901 222.144 -0.0383568 223.376 -0.602162 224.733C-1.16597 226.09 -1.4562 227.545 -1.45618 229.014C-1.45618 232.954 3.08729 240.995 6.38037 246.359C8.26213 249.394 9.74773 251.55 9.74773 251.55C9.74773 251.55 11.2333 249.394 13.0903 246.359C16.3958 241.044 20.9269 233.004 20.9269 229.014C20.9269 227.547 20.6375 226.094 20.0752 224.739C19.5129 223.384 18.6889 222.153 17.6503 221.117C16.6118 220.081 15.3791 219.26 14.023 218.702C12.6669 218.144 11.214 217.859 9.74773 217.864ZM9.74773 234.577C8.73788 234.58 7.75003 234.282 6.90935 233.722C6.06868 233.162 5.41301 232.365 5.02542 231.432C4.63784 230.499 4.5358 229.471 4.73221 228.48C4.92862 227.489 5.41465 226.578 6.12872 225.864C6.84279 225.149 7.75276 224.663 8.74333 224.466C9.73389 224.269 10.7605 224.372 11.693 224.759C12.6255 225.147 13.422 225.803 13.9815 226.645C14.541 227.486 14.8384 228.475 14.8359 229.485C14.8359 230.836 14.2998 232.131 13.3456 233.086C12.3914 234.041 11.0972 234.577 9.74773 234.577Z" fill="white"/>
</g>
<path d="M359.532 60.9073C357.663 60.9057 355.811 61.2726 354.083 61.9871C352.355 62.7016 350.785 63.7497 349.462 65.0715C348.138 66.3933 347.088 67.9631 346.371 69.691C345.654 71.419 345.284 73.2713 345.283 75.1423C345.283 80.0979 351.052 90.3933 355.261 97.1577C357.65 101.035 359.532 103.773 359.532 103.773C359.532 103.773 361.426 101.035 363.803 97.1577C368 90.3933 373.769 80.1475 373.769 75.1423C373.766 71.3658 372.265 67.7451 369.595 65.0759C366.925 62.4066 363.306 60.9073 359.532 60.9073ZM359.532 82.1793C358.249 82.1793 356.995 81.7986 355.928 81.0852C354.861 80.3719 354.03 79.358 353.539 78.1718C353.048 76.9855 352.919 75.6802 353.17 74.4209C353.42 73.1616 354.038 72.0049 354.945 71.097C355.852 70.1891 357.008 69.5708 358.267 69.3203C359.525 69.0698 360.829 69.1984 362.015 69.6897C363.2 70.1811 364.213 71.0132 364.926 72.0807C365.639 73.1483 366.019 74.4035 366.019 75.6874C366.021 76.5404 365.854 77.3853 365.529 78.1737C365.203 78.9621 364.726 79.6784 364.123 80.2815C363.52 80.8847 362.804 81.3628 362.017 81.6885C361.229 82.0141 360.385 82.1809 359.532 82.1793Z" fill="#45BD43"/>
<g opacity="0.5">
<path d="M359.532 60.9073C357.663 60.9057 355.811 61.2726 354.083 61.9871C352.355 62.7016 350.785 63.7497 349.462 65.0715C348.138 66.3933 347.088 67.9631 346.371 69.691C345.654 71.419 345.284 73.2713 345.283 75.1423C345.283 80.0979 351.052 90.3933 355.261 97.1577C357.65 101.035 359.532 103.773 359.532 103.773C359.532 103.773 361.426 101.035 363.803 97.1577C368 90.3933 373.769 80.1475 373.769 75.1423C373.766 71.3658 372.265 67.7451 369.595 65.0759C366.925 62.4066 363.306 60.9073 359.532 60.9073ZM359.532 82.1793C358.249 82.1793 356.995 81.7986 355.928 81.0852C354.861 80.3719 354.03 79.358 353.539 78.1718C353.048 76.9855 352.919 75.6802 353.17 74.4209C353.42 73.1616 354.038 72.0049 354.945 71.097C355.852 70.1891 357.008 69.5708 358.267 69.3203C359.525 69.0698 360.829 69.1984 362.015 69.6897C363.2 70.1811 364.213 71.0132 364.926 72.0807C365.639 73.1483 366.019 74.4035 366.019 75.6874C366.021 76.5404 365.854 77.3853 365.529 78.1737C365.203 78.9621 364.726 79.6784 364.123 80.2815C363.52 80.8847 362.804 81.3628 362.017 81.6885C361.229 82.0141 360.385 82.1809 359.532 82.1793Z" fill="white"/>
</g>
<path d="M93.1022 62.394C92.6305 62.0778 92.0587 61.9472 91.4965 62.0272C90.9344 62.1073 90.4217 62.3923 90.0568 62.8276L86.9989 67.3992L72.2915 58.479C71.8219 58.2129 71.2743 58.1192 70.7431 58.2142C70.2118 58.3092 69.7305 58.5869 69.3822 58.9994L64.3187 65.5036C64.1358 65.701 63.9968 65.9349 63.9106 66.1899C63.8245 66.445 63.7932 66.7154 63.819 66.9833C63.8447 67.2513 63.9268 67.5108 64.0599 67.7447C64.193 67.9787 64.374 68.1818 64.5911 68.3407C65.0628 68.6569 65.6347 68.7875 66.1968 68.7075C66.7589 68.6274 67.2717 68.3424 67.6366 67.9071L71.4249 62.9515L74.6189 64.8842L67.8099 73.6804L55.9375 88.919C55.7638 89.124 55.6357 89.3636 55.5617 89.6219C55.4876 89.8802 55.4693 90.1514 55.5079 90.4173C55.5466 90.6833 55.6413 90.938 55.7858 91.1645C55.9303 91.391 56.1212 91.5842 56.346 91.7313C56.6905 91.9609 57.0959 92.0817 57.5097 92.0782C57.8668 92.0811 58.2197 92.0023 58.5416 91.8477C58.8635 91.693 59.1457 91.4668 59.3667 91.1861L69.6421 78.0166L69.9393 77.6325C70.2367 77.1758 70.6986 76.8514 71.229 76.7268C71.7593 76.6022 72.3172 76.687 72.7867 76.9635L75.7083 78.859L67.8594 83.3067C67.6161 83.4307 67.4001 83.6023 67.2241 83.8113C67.0482 84.0203 66.9159 84.2625 66.8351 84.5235C66.7544 84.7845 66.7267 85.0591 66.7538 85.331C66.7808 85.603 66.8621 85.8667 66.9928 86.1066C67.3059 86.5702 67.7851 86.8957 68.3312 87.0156C68.8773 87.1355 69.4486 87.0407 69.9269 86.7509L80.7222 80.6307C81.0339 80.4609 81.2995 80.2176 81.4958 79.9218C81.6922 79.626 81.8133 79.2867 81.8488 78.9334C81.8741 78.596 81.8082 78.258 81.6579 77.955C81.5075 77.652 81.2784 77.3951 80.9946 77.2113L78.3453 75.5016L82.604 69.6911L86.1323 71.8344C86.4677 72.0288 86.8467 72.1354 87.2341 72.1442C87.5764 72.1384 87.9137 72.0616 88.2248 71.9187C88.5359 71.7758 88.814 71.57 89.0416 71.3141L93.3746 65.2311C93.5575 65.0337 93.6966 64.7998 93.7827 64.5448C93.8689 64.2897 93.9001 64.0193 93.8744 63.7514C93.8486 63.4834 93.7665 63.2239 93.6335 62.99C93.5004 62.756 93.3193 62.5529 93.1022 62.394Z" fill="#45BD43"/>
<path d="M83.4706 63.3479C84.5801 63.3671 85.6569 62.9714 86.4903 62.2382C87.3237 61.505 87.8538 60.4871 87.9769 59.3834C88.0012 58.8546 87.9157 58.3265 87.7257 57.8325C87.5357 57.3384 87.2454 56.8892 86.8731 56.5131C86.5008 56.1371 86.0546 55.8424 85.5628 55.6476C85.0709 55.4529 84.544 55.3624 84.0153 55.3818C82.9058 55.3626 81.8291 55.7583 80.9957 56.4915C80.1623 57.2247 79.6321 58.2427 79.509 59.3463C79.4828 59.8756 79.567 60.4045 79.7563 60.8994C79.9457 61.3943 80.2359 61.8443 80.6086 62.2208C80.9813 62.5972 81.4283 62.8919 81.921 63.0859C82.4138 63.28 82.9415 63.3692 83.4706 63.3479Z" fill="#45BD43"/>
<path d="M69.2336 105.297V107.267H61.3847V105.706L65.3958 101.915C66.3119 101.035 66.4729 100.503 66.4729 99.9948C66.4729 99.1771 65.9158 98.7559 64.814 98.7559C64.3974 98.7409 63.9835 98.8279 63.6081 99.0092C63.2327 99.1906 62.9072 99.4608 62.6598 99.7965L60.9142 98.6691C61.3881 98.0309 62.0127 97.5203 62.7322 97.183C63.4517 96.8457 64.2435 96.6923 65.0368 96.7364C67.3518 96.7364 68.8993 97.9753 68.8993 99.8089C68.8846 100.455 68.719 101.088 68.4159 101.658C68.1128 102.228 67.6805 102.719 67.1538 103.092L64.7644 105.347L69.2336 105.297Z" fill="#45BD43"/>
<path d="M70.224 102.064C70.224 98.632 72.1181 96.6869 74.6808 96.6869C77.2435 96.6869 79.1252 98.632 79.1252 102.064C79.1252 105.496 77.2435 107.441 74.6808 107.441C72.1181 107.441 70.224 105.496 70.224 102.064ZM76.7111 102.064C76.7111 99.6974 75.8817 98.7187 74.6808 98.7187C73.4799 98.7187 72.6505 99.6974 72.6505 102.064C72.6505 104.43 73.4923 105.409 74.6808 105.409C75.8693 105.409 76.6987 104.43 76.6987 102.064H76.7111Z" fill="#45BD43"/>
<path d="M265.568 50.9465C265.568 47.5147 267.475 45.5696 270.025 45.5696C272.575 45.5696 274.482 47.5147 274.482 50.9465C274.482 54.3783 272.6 56.3233 270.025 56.3233C267.45 56.3233 265.568 54.3783 265.568 50.9465ZM272.055 50.9465C272.055 48.5802 271.226 47.6014 270.025 47.6014C268.824 47.6014 268.007 48.5802 268.007 50.9465C268.007 53.3128 268.836 54.2915 270.025 54.2915C271.213 54.2915 272.018 53.3128 272.018 50.9465H272.055Z" fill="#45BD43"/>
<path d="M284.237 52.842C284.224 53.3341 284.11 53.8183 283.901 54.264C283.693 54.7098 283.394 55.1075 283.024 55.4322C282.654 55.7568 282.222 56.0014 281.753 56.1505C281.284 56.2996 280.789 56.35 280.3 56.2986C277.44 56.2986 275.658 54.5022 275.658 51.1447C275.658 47.5519 277.824 45.5449 280.956 45.5449C281.97 45.5137 282.972 45.7623 283.853 46.2634L282.962 48.0227C282.38 47.6601 281.703 47.4789 281.018 47.5023C280.619 47.4772 280.22 47.5389 279.847 47.6834C279.475 47.8278 279.138 48.0515 278.86 48.3389C278.582 48.6263 278.37 48.9707 278.238 49.3481C278.107 49.7256 278.058 50.1272 278.097 50.5253C278.445 50.2088 278.854 49.9657 279.299 49.8104C279.743 49.655 280.214 49.5906 280.684 49.6209C281.131 49.5871 281.581 49.6448 282.005 49.7904C282.429 49.9361 282.819 50.1666 283.152 50.4679C283.484 50.7692 283.752 51.1351 283.938 51.5433C284.125 51.9514 284.227 52.3933 284.237 52.842ZM281.91 52.9535C281.91 52.7306 281.862 52.5102 281.77 52.3071C281.678 52.1041 281.544 51.9231 281.376 51.7764C281.209 51.6296 281.011 51.5205 280.798 51.4565C280.585 51.3924 280.36 51.3748 280.139 51.4049C279.918 51.3809 279.695 51.4027 279.483 51.4688C279.27 51.5349 279.074 51.644 278.906 51.7892C278.737 51.9344 278.601 52.1127 278.504 52.313C278.407 52.5133 278.353 52.7313 278.344 52.9535C278.344 53.8455 279.013 54.5022 280.176 54.5022C280.393 54.5282 280.613 54.5084 280.822 54.4441C281.03 54.3797 281.223 54.2722 281.388 54.1286C281.552 53.985 281.685 53.8084 281.777 53.6102C281.869 53.4121 281.918 53.1968 281.922 52.9783L281.91 52.9535Z" fill="#45BD43"/>
<path d="M285.19 54.8119C285.224 54.4522 285.39 54.1179 285.657 53.8745C285.924 53.6311 286.272 53.4962 286.633 53.4962C286.994 53.4962 287.342 53.6311 287.608 53.8745C287.875 54.1179 288.042 54.4522 288.075 54.8119C288.093 55.0127 288.07 55.2151 288.006 55.4063C287.942 55.5975 287.839 55.7732 287.703 55.9222C287.567 56.0713 287.402 56.1903 287.218 56.2717C287.033 56.3532 286.834 56.3953 286.633 56.3953C286.431 56.3953 286.232 56.3532 286.048 56.2717C285.863 56.1903 285.698 56.0713 285.562 55.9222C285.426 55.7732 285.323 55.5975 285.259 55.4063C285.195 55.2151 285.172 55.0127 285.19 54.8119Z" fill="#45BD43"/>
<path d="M297.075 54.1924V56.1499H289.226V54.5889L293.225 50.7978C294.153 49.9182 294.314 49.3855 294.314 48.8775C294.314 48.0599 293.745 47.6386 292.655 47.6386C292.239 47.6237 291.825 47.7107 291.45 47.892C291.074 48.0734 290.749 48.3436 290.501 48.6793L288.743 47.5519C289.221 46.9143 289.848 46.4044 290.569 46.0673C291.29 45.7302 292.083 45.5763 292.878 45.6192C295.193 45.6192 296.728 46.8581 296.728 48.6917C296.717 49.3366 296.554 49.9698 296.253 50.5401C295.952 51.1104 295.521 51.6019 294.995 51.9748L292.606 54.242L297.075 54.1924Z" fill="#45BD43"/>
<path d="M305.754 52.9659C305.754 54.7252 304.404 56.3233 301.445 56.3233C300.044 56.3516 298.665 55.9636 297.484 55.2083L298.412 53.3748C299.281 53.9883 300.32 54.3133 301.383 54.3039C302.621 54.3039 303.327 53.8208 303.327 52.9659C303.327 52.1111 302.758 51.727 301.383 51.727H300.294V50.104L302.423 47.6262H298.016V45.7431H305.295V47.3041L302.968 49.9802C303.727 50.0247 304.439 50.3595 304.958 50.9154C305.476 51.4713 305.761 52.2055 305.754 52.9659Z" fill="#45BD43"/>
<path d="M306.793 54.8119C306.827 54.4522 306.993 54.1179 307.26 53.8745C307.527 53.6311 307.875 53.4962 308.236 53.4962C308.597 53.4962 308.945 53.6311 309.211 53.8745C309.478 54.1179 309.645 54.4522 309.678 54.8119C309.697 55.0127 309.673 55.2151 309.609 55.4063C309.545 55.5975 309.442 55.7732 309.306 55.9222C309.17 56.0713 309.005 56.1903 308.821 56.2717C308.636 56.3532 308.437 56.3953 308.236 56.3953C308.034 56.3953 307.835 56.3532 307.651 56.2717C307.466 56.1903 307.301 56.0713 307.165 55.9222C307.029 55.7732 306.926 55.5975 306.862 55.4063C306.798 55.2151 306.775 55.0127 306.793 54.8119Z" fill="#45BD43"/>
<path d="M314.531 45.7431V56.1499H312.129V47.6758H310.049V45.7431H314.531Z" fill="#45BD43"/>
<path d="M325.054 53.127C325.054 55.0968 323.296 56.3234 320.659 56.3234C318.022 56.3234 316.289 55.0845 316.289 53.127C316.28 52.6053 316.424 52.0923 316.703 51.6518C316.983 51.2113 317.385 50.8627 317.861 50.6492C317.482 50.4389 317.166 50.1298 316.948 49.7546C316.73 49.3794 316.618 48.9522 316.623 48.5183C316.623 46.6847 318.257 45.5449 320.622 45.5449C322.986 45.5449 324.645 46.6847 324.645 48.5183C324.652 48.9525 324.54 49.3802 324.322 49.7557C324.104 50.1311 323.788 50.44 323.407 50.6492C323.898 50.8499 324.317 51.1934 324.611 51.6351C324.904 52.0768 325.059 52.5965 325.054 53.127ZM322.578 53.0526C322.578 52.1359 321.823 51.566 320.622 51.566C319.421 51.566 318.691 52.1359 318.691 53.0526C318.691 53.9694 319.433 54.5641 320.622 54.5641C321.81 54.5641 322.615 53.9818 322.615 53.0526H322.578ZM319.062 48.6421C319.062 49.435 319.693 49.881 320.671 49.881C321.649 49.881 322.306 49.3979 322.306 48.6421C322.306 47.8864 321.649 47.4032 320.671 47.4032C319.693 47.4032 319.062 47.8864 319.062 48.6421Z" fill="#45BD43"/>
<path d="M245.451 59.7799C245.304 59.7783 245.159 59.7467 245.025 59.6871C244.891 59.6274 244.77 59.541 244.671 59.433L237.243 51.1447C237.073 50.9374 236.99 50.6725 237.01 50.4052C237.031 50.138 237.154 49.889 237.353 49.7101C237.553 49.5312 237.813 49.4363 238.081 49.445C238.349 49.4538 238.603 49.5656 238.79 49.7572L246.218 58.0454C246.401 58.2498 246.495 58.518 246.481 58.7917C246.467 59.0654 246.346 59.3225 246.144 59.5073C245.956 59.6839 245.708 59.7815 245.451 59.7799Z" fill="#45BD43"/>
<path d="M239.595 34.7788V33.4655H235.361V34.8779C231.092 35.4694 227.209 37.6647 224.499 41.018C221.789 44.3713 220.457 48.631 220.772 52.932C221.087 57.2329 223.026 61.2526 226.196 64.1743C229.366 67.0961 233.528 68.701 237.837 68.6629C242.198 68.6879 246.402 67.0316 249.576 64.0376C252.75 61.0437 254.65 56.9419 254.883 52.5832C255.115 48.2245 253.662 43.9435 250.825 40.6284C247.988 37.3133 243.984 35.2186 239.644 34.7788H239.595ZM237.787 66.5815C234.849 66.5815 231.977 65.7096 229.534 64.076C227.091 62.4424 225.187 60.1205 224.062 57.4039C222.938 54.6874 222.644 51.6981 223.217 48.8142C223.79 45.9304 225.205 43.2813 227.283 41.2022C229.36 39.123 232.007 37.7071 234.889 37.1334C237.771 36.5598 240.758 36.8542 243.472 37.9794C246.187 39.1047 248.507 41.0102 250.14 43.455C251.772 45.8999 252.643 48.7742 252.643 51.7146C252.627 55.6525 251.057 59.4245 248.274 62.2091C245.492 64.9936 241.722 66.5652 237.787 66.5815Z" fill="#45BD43"/>
<path d="M240.3 30.0338H234.655V32.908H240.3V30.0338Z" fill="#45BD43"/>
<g opacity="0.6">
<path d="M245.451 59.7799C245.304 59.7783 245.159 59.7467 245.025 59.6871C244.891 59.6274 244.77 59.541 244.671 59.433L237.243 51.1447C237.073 50.9374 236.99 50.6725 237.01 50.4052C237.031 50.138 237.154 49.889 237.353 49.7101C237.553 49.5312 237.813 49.4363 238.081 49.445C238.349 49.4538 238.603 49.5656 238.79 49.7572L246.218 58.0454C246.401 58.2498 246.495 58.518 246.481 58.7917C246.467 59.0654 246.346 59.3225 246.144 59.5073C245.956 59.6839 245.708 59.7815 245.451 59.7799Z" fill="#45BD43"/>
<path d="M239.595 34.7788V33.4655H235.361V34.8779C231.092 35.4694 227.209 37.6647 224.499 41.018C221.789 44.3713 220.457 48.631 220.772 52.932C221.087 57.2329 223.026 61.2526 226.196 64.1743C229.366 67.0961 233.528 68.701 237.837 68.6629C242.198 68.6879 246.402 67.0316 249.576 64.0376C252.75 61.0437 254.65 56.9419 254.883 52.5832C255.115 48.2245 253.662 43.9435 250.825 40.6284C247.988 37.3133 243.984 35.2186 239.644 34.7788H239.595ZM237.787 66.5815C234.849 66.5815 231.977 65.7096 229.534 64.076C227.091 62.4424 225.187 60.1205 224.062 57.4039C222.938 54.6874 222.644 51.6981 223.217 48.8142C223.79 45.9304 225.205 43.2813 227.283 41.2022C229.36 39.123 232.007 37.7071 234.889 37.1334C237.771 36.5598 240.758 36.8542 243.472 37.9794C246.187 39.1047 248.507 41.0102 250.14 43.455C251.772 45.8999 252.643 48.7742 252.643 51.7146C252.627 55.6525 251.057 59.4245 248.274 62.2091C245.492 64.9936 241.722 66.5652 237.787 66.5815Z" fill="#45BD43"/>
<path d="M240.3 30.0338H234.655V32.908H240.3V30.0338Z" fill="#45BD43"/>
</g>
<path d="M320.374 239.285H326.639C321.303 244.848 313.615 250.336 306.311 255.886L301.359 259.529L301.247 259.603L296.419 255.564C290.229 250.225 283.754 244.649 279.161 239.112H288.459L292.532 225.124L298.61 251.934L304.206 238.207L307.734 245.864L311.944 232.483L316.586 245.541L320.374 239.285Z" fill="#45BD43"/>
<path d="M327.963 236.361H319.557L316.92 240.71L311.857 226.4L307.524 240.375L304.181 233.115L298.994 245.69L292.68 217.901L287.369 236.2H277.985C272.228 228.767 270.297 221.432 277.738 214.928C287.047 206.776 297.83 214.371 303.29 219.301C309.047 214.73 321.687 205.376 331.38 217.542C336.258 223.638 333.324 230.291 327.963 236.361Z" fill="#45BD43"/>
<path d="M294.302 194.697V205.104H291.9V196.629H289.82V194.697H294.302Z" fill="#45BD43"/>
<path d="M303.872 203.134V205.104H296.01V203.543L300.022 199.752C300.938 198.872 301.111 198.339 301.111 197.831C301.111 197.014 300.542 196.592 299.44 196.592C299.022 196.57 298.605 196.653 298.229 196.835C297.852 197.017 297.528 197.292 297.286 197.633L295.54 196.506C296.015 195.868 296.639 195.358 297.359 195.021C298.078 194.684 298.869 194.53 299.663 194.573C301.978 194.573 303.525 195.812 303.525 197.645C303.51 198.29 303.345 198.921 303.045 199.491C302.744 200.061 302.315 200.553 301.792 200.928L299.403 203.183L303.872 203.134Z" fill="#45BD43"/>
<path d="M312.723 201.833C312.723 203.666 311.374 205.277 308.403 205.277C307.001 205.304 305.623 204.916 304.441 204.162L305.382 202.316C306.245 202.934 307.28 203.263 308.341 203.258C309.579 203.258 310.285 202.75 310.285 201.907C310.285 201.065 309.752 200.557 307.809 200.557H305.147L305.679 194.697H312.018V196.629H307.685L307.524 198.599H308.366C311.51 198.599 312.723 199.987 312.723 201.833Z" fill="#45BD43"/>
<path d="M114.111 167.812H105.148V168.742H114.111V167.812Z" fill="#45BD43"/>
<path d="M144.058 167.812H120.945V168.742H144.058V167.812Z" fill="#45BD43"/>
<path d="M117.379 341.866H108.193V340.937C123.545 340.937 139.255 340.937 154.891 340.689V341.619C142.387 341.78 129.797 341.866 117.379 341.866Z" fill="#45BD43"/>
<path d="M100.642 341.804C94.0431 341.804 87.296 341.705 80.5984 341.606V340.677C87.296 340.776 94.0307 340.838 100.629 340.875L100.642 341.804Z" fill="#45BD43"/>
<path d="M73.8637 340.677H66.3615V341.606H73.8637V340.677Z" fill="#45BD43"/>
<path d="M160.511 137.335H130.762V138.265H160.511V137.335Z" fill="#45BD43"/>
<path d="M125.686 137.335H121.849V138.265H125.686V137.335Z" fill="#45BD43"/>
<path d="M269.084 355.618H247.679V356.547H269.084V355.618Z" fill="#45BD43"/>
<path d="M242.219 355.618H230.161V356.547H242.219V355.618Z" fill="#45BD43"/>
<path d="M204.101 160.119C186.769 161.655 162.938 169.299 163.495 173.202L138.562 204.261L130.75 207.16C130.75 207.16 147.104 166.66 151.35 160.007C154.321 155.361 182.993 145.81 197.986 140.433C204.46 138.104 210.366 142.526 212.247 146.268C212.247 146.268 218.462 158.855 204.101 160.119Z" fill="#E29471"/>
<path d="M138.562 204.261L137.992 211.026C137.816 213.117 136.835 215.058 135.256 216.44L129.202 221.754C128.847 222.06 128.395 222.228 127.927 222.228C127.459 222.228 127.007 222.06 126.652 221.754L122.542 218.261C122.176 217.954 121.936 217.522 121.867 217.049C121.799 216.576 121.907 216.095 122.17 215.696L126.788 208.696L132.359 201.263C132.359 201.263 138.772 201.659 138.562 204.261Z" fill="#E29471"/>
<path d="M110.632 383.543L76.0797 397.097C75.077 396.23 69.1965 384.596 69.1965 384.596L99.837 370.436L110.632 383.543Z" fill="#E29471"/>
<path d="M77.2063 400.306C77.1895 400.232 77.1947 400.156 77.2211 400.085C77.2475 400.015 77.294 399.953 77.3549 399.909C77.4193 399.867 77.4946 399.845 77.5715 399.845C77.6485 399.845 77.7238 399.867 77.7882 399.909C77.9987 400.058 83.1983 403.552 83.7058 406.203C83.7668 406.446 83.7774 406.699 83.7369 406.946C83.6965 407.193 83.6058 407.429 83.4706 407.64C83.3405 407.9 83.1314 408.112 82.8734 408.245C82.6154 408.379 82.3217 408.427 82.0345 408.383C80.9698 408.247 79.868 406.636 78.9891 404.828C78.2487 403.382 77.6516 401.868 77.2063 400.306ZM82.7897 405.695C81.593 403.911 80.0628 402.375 78.2834 401.173C79.1995 403.936 80.9822 407.466 82.2078 407.677C82.3688 407.677 82.604 407.677 82.9011 407.231C82.9855 407.105 83.0423 406.963 83.0679 406.813C83.0935 406.664 83.0873 406.511 83.0497 406.364C82.9913 406.129 82.9083 405.9 82.8021 405.682L82.7897 405.695Z" fill="#45BD43"/>
<path d="M77.2682 400.07C77.2867 400.006 77.3234 399.948 77.374 399.904C77.4245 399.86 77.4867 399.832 77.553 399.822C77.7263 399.822 81.6508 398.274 84.0153 399.327C84.3437 399.49 84.6358 399.718 84.874 399.997C85.1123 400.276 85.2918 400.6 85.4019 400.95C85.5525 401.226 85.6027 401.547 85.5441 401.856C85.4854 402.165 85.3214 402.445 85.08 402.647C83.6316 403.7 78.9643 401.854 77.3673 400.541L77.2682 400.417V400.07ZM83.6687 400.07C81.9395 399.624 80.1149 399.724 78.4443 400.355C80.3509 401.594 83.9039 402.734 84.7086 402.04C84.7829 401.978 84.9934 401.829 84.7705 401.222L84.622 401.037C84.441 400.594 84.1008 400.236 83.6687 400.033V400.07Z" fill="#45BD43"/>
<path d="M78.7291 396.874L76.5749 395.003C75.3891 393.973 74.4359 392.703 73.7785 391.276C73.121 389.849 72.7745 388.298 72.7619 386.727V383.01C72.6373 382.728 72.4183 382.498 72.1427 382.361C71.867 382.223 71.5518 382.185 71.2515 382.255L58.5992 384.485C57.3612 384.807 56.965 387.594 57.0269 387.731C59.8619 396.564 67.3642 414.987 70.0754 420.921C72.7867 426.855 79.0509 424.972 78.4691 422.284C75.8817 410.254 77.3054 404.617 78.8529 399.699C79.1695 398.775 79.1253 397.766 78.7291 396.874Z" fill="#45BD43"/>
<g opacity="0.2">
<path d="M89.1158 375.391L99.8369 370.436L110.632 383.543L94.823 389.738L92.2727 386.628C90.7379 384.762 89.794 382.48 89.5615 380.074L89.1158 375.391Z" fill="black"/>
</g>
<path d="M151.263 250.113C150.167 252.628 149.373 255.265 148.899 257.968C146.126 272.178 142.263 320.384 139.75 338.707C139.444 340.53 138.677 342.244 137.522 343.686C136.367 345.128 134.863 346.25 133.152 346.946C123.161 351.654 116.674 353.14 94.1422 371.6C96.8534 377.373 99.4408 381.437 101.904 388.214C101.904 388.214 145.333 371.513 155.262 363.337C169.883 351.294 187.685 288.011 192.86 271.658C195.794 262.391 199.186 251.302 193.776 243.299C190.731 238.814 161.044 225.161 151.263 250.113Z" fill="#263238"/>
<path d="M207.642 143.059C210.923 146.776 212.458 149.254 211.467 160.106C209.524 181.168 210.811 214.693 210.068 219.859C208.88 227.738 164.931 228.767 156.884 221.507L140.926 157.084C140.407 154.995 140.331 152.821 140.703 150.701C141.074 148.581 141.884 146.563 143.082 144.775C144.279 142.987 145.837 141.47 147.656 140.321C149.474 139.172 151.513 138.417 153.64 138.104C157.293 137.546 197.664 131.872 207.642 143.059Z" fill="#45BD43"/>
<path d="M210.118 219.859C211.352 226.984 211.643 234.24 210.985 241.441C209.913 253.891 213.593 266.285 221.285 276.13C221.285 276.13 163.879 267.767 150.285 252.876L156.884 221.507C174.626 223.238 192.517 222.684 210.118 219.859Z" fill="#263238"/>
<path d="M170.23 121.861L169.289 121.093C166.54 117.612 165.476 113.66 164.337 107.465C164.027 105.867 163.718 104.145 163.371 102.237C162.865 99.7082 162.949 97.0963 163.619 94.6056C163.979 93.3131 164.486 92.0661 165.129 90.8888C166.602 96.3896 166.813 102.101 167.32 107.738C167.592 112.563 168.572 117.322 170.23 121.861Z" fill="#263238"/>
<path d="M171.455 115.221C172.149 121.564 172.631 130.447 169.215 135.477C168.611 136.316 168.273 137.318 168.244 138.351C168.215 139.385 168.497 140.404 169.054 141.275C171.071 144.335 175.702 148.932 186.386 154.222C189.518 150.356 190.657 147.209 190.867 144.818C190.964 143.457 190.641 142.098 189.942 140.925C189.242 139.753 188.199 138.825 186.955 138.265C181.83 135.861 182.387 132.789 183.971 127.994L171.455 115.221Z" fill="#E29471"/>
<path opacity="0.2" d="M176.519 120.375L183.835 127.994C183.394 129.256 183.062 130.553 182.845 131.872C179.886 131.19 175.417 128.155 175.021 124.835C175.155 123.249 175.669 121.72 176.519 120.375Z" fill="black"/>
<path d="M198.307 115.097C197.991 118.755 196.324 122.163 193.632 124.657C190.941 127.152 187.417 128.553 183.749 128.589H183.65C180.803 128.602 178.002 127.867 175.528 126.458C174.628 125.948 173.775 125.359 172.978 124.699C172.631 124.426 172.309 124.141 172 123.881C171.035 123.034 170.148 122.101 169.351 121.093C166.602 117.612 165.538 113.66 164.399 107.465C164.089 105.867 163.78 104.145 163.433 102.237C162.926 99.7082 163.011 97.0963 163.681 94.6055C164.041 93.3131 164.548 92.0661 165.191 90.8888C165.475 90.3604 165.793 89.8514 166.144 89.365C168.043 86.616 170.749 84.5261 173.888 83.3851C177.027 82.2442 180.443 82.1085 183.662 82.997C189.183 84.4713 192.984 88.9561 195.386 94.4569C195.621 95.002 195.844 95.5595 196.054 96.117C198.186 102.202 198.955 108.682 198.307 115.097Z" fill="#E29471"/>
<path d="M182.523 102.956C182.647 103.935 183.253 104.678 183.872 104.604C184.491 104.529 184.925 103.65 184.813 102.671C184.702 101.692 184.07 100.961 183.451 101.035C182.832 101.11 182.461 102.027 182.523 102.956Z" fill="#263238"/>
<path d="M193.38 101.593C193.516 102.596 194.123 103.315 194.742 103.241C195.361 103.166 195.794 102.287 195.671 101.308C195.547 100.329 194.94 99.5983 194.321 99.6851C193.702 99.7718 193.269 100.614 193.38 101.593Z" fill="#263238"/>
<path d="M190.31 103.798C191.446 105.926 192.866 107.889 194.532 109.633C194.083 110.048 193.549 110.361 192.968 110.549C192.386 110.737 191.771 110.797 191.164 110.724L190.31 103.798Z" fill="#EA573F"/>
<path d="M177.93 101.296C178.052 101.3 178.171 101.264 178.272 101.195C178.372 101.126 178.447 101.027 178.487 100.912C178.903 100.074 179.489 99.3315 180.208 98.7322C180.926 98.1329 181.761 97.6895 182.659 97.4303C182.805 97.3843 182.929 97.2846 183.005 97.1513C183.08 97.018 183.103 96.861 183.068 96.7117C183.05 96.6398 183.019 96.5721 182.975 96.5125C182.931 96.4529 182.876 96.4026 182.813 96.3646C182.749 96.3265 182.679 96.3015 182.606 96.2909C182.533 96.2803 182.458 96.2844 182.387 96.3029C181.306 96.6036 180.303 97.1361 179.447 97.8635C178.592 98.5908 177.906 99.4956 177.435 100.515C177.409 100.586 177.398 100.661 177.402 100.736C177.405 100.811 177.424 100.885 177.456 100.953C177.488 101.021 177.534 101.082 177.589 101.132C177.645 101.182 177.711 101.221 177.781 101.246C177.827 101.272 177.878 101.289 177.93 101.296Z" fill="#263238"/>
<path d="M196.017 96.0674C196.12 96.0686 196.221 96.0443 196.311 95.9968C196.402 95.9492 196.48 95.8798 196.537 95.7949C196.617 95.6627 196.642 95.5049 196.607 95.3547C196.572 95.2044 196.481 95.0735 196.351 94.9896C195.598 94.4646 194.726 94.1364 193.813 94.0347C192.901 93.933 191.977 94.0611 191.127 94.4073C190.993 94.467 190.888 94.5773 190.834 94.7142C190.781 94.8511 190.784 95.0035 190.842 95.1383C190.872 95.2063 190.915 95.2677 190.968 95.3189C191.022 95.3702 191.085 95.4103 191.154 95.4368C191.223 95.4634 191.297 95.4758 191.371 95.4735C191.445 95.4711 191.518 95.454 191.585 95.4232C192.257 95.1719 192.979 95.0868 193.69 95.1753C194.402 95.2637 195.081 95.5231 195.671 95.9312C195.769 96.0111 195.89 96.0587 196.017 96.0674Z" fill="#263238"/>
<path opacity="0.2" d="M170.23 110.748C169.722 111.417 168.088 107.849 167.258 107.676C166.278 107.474 165.275 107.395 164.275 107.441C163.965 105.842 163.656 104.12 163.309 102.212C162.803 99.6835 162.887 97.0715 163.557 94.5808C163.917 93.2883 164.424 92.0413 165.067 90.864C164.993 90.5584 164.906 90.2487 164.807 89.9349C165.201 89.7003 165.616 89.5012 166.045 89.3402C167.002 88.9669 168.041 88.8599 169.054 89.0305C169.804 89.2074 170.502 89.5618 171.088 90.0641C171.674 90.5663 172.131 91.2017 172.421 91.9171C168.236 99.685 171.802 108.692 170.23 110.748Z" fill="black"/>
<path d="M169.264 121.069C164.671 117.178 160.598 112.396 158.766 106.623C157.852 103.37 157.823 99.9324 158.683 96.665C159.543 93.3977 161.26 90.4197 163.656 88.0393C164.027 87.6801 164.646 87.8411 165.117 88.0393C165.587 88.2376 164.436 88.634 164.572 89.0305C164.708 89.4269 164.733 89.588 164.807 89.8481C164.881 90.1083 164.993 90.4676 165.067 90.7773C164.424 91.9546 163.917 93.2016 163.557 94.494C162.887 96.9848 162.803 99.5967 163.309 102.126C163.656 104.034 163.965 105.756 164.275 107.354C165.451 113.61 166.516 117.587 169.264 121.069Z" fill="#263238"/>
<path d="M161.229 111.888C162.236 113.948 164.016 115.525 166.181 116.274C169.041 117.216 170.613 114.651 169.895 111.814C169.252 109.262 167.023 105.706 164.102 105.942C163.452 106.026 162.834 106.271 162.304 106.655C161.773 107.039 161.346 107.549 161.062 108.14C160.778 108.73 160.646 109.382 160.677 110.037C160.709 110.691 160.903 111.328 161.242 111.888H161.229Z" fill="#E29471"/>
<path d="M295.862 400.875L298.722 437.906C297.595 438.613 285.252 444.373 284.757 440.843C283.271 430.052 280.189 407.392 280.189 407.392L295.862 400.875Z" fill="#E29471"/>
<path d="M302.114 437.77C302.039 437.764 301.967 437.737 301.908 437.69C301.848 437.644 301.804 437.581 301.78 437.51C301.756 437.437 301.755 437.359 301.777 437.286C301.799 437.213 301.843 437.148 301.903 437.101C302.101 436.928 306.967 432.988 309.641 433.26C309.893 433.274 310.14 433.339 310.366 433.452C310.591 433.565 310.791 433.723 310.953 433.917C311.163 434.117 311.304 434.378 311.355 434.663C311.406 434.949 311.365 435.243 311.238 435.503C310.805 436.494 308.948 437.076 306.954 437.386C305.357 437.669 303.736 437.797 302.114 437.77ZM308.898 434.053C306.841 434.674 304.924 435.688 303.253 437.039C306.162 436.965 310.062 436.308 310.619 435.193C310.681 435.032 310.73 434.809 310.396 434.388C310.299 434.274 310.179 434.18 310.046 434.112C309.912 434.044 309.766 434.003 309.616 433.991C309.373 433.967 309.129 433.967 308.886 433.991L308.898 434.053Z" fill="#45BD43"/>
<path d="M301.903 437.634C301.849 437.599 301.806 437.548 301.779 437.489C301.753 437.429 301.744 437.363 301.755 437.299C301.755 437.113 301.47 432.914 303.166 430.968C303.418 430.702 303.721 430.488 304.057 430.341C304.393 430.194 304.755 430.117 305.122 430.114C305.432 430.049 305.754 430.093 306.034 430.24C306.314 430.387 306.535 430.627 306.657 430.919C307.239 432.604 304.107 436.544 302.386 437.683L302.238 437.745L301.903 437.634ZM303.736 431.514C302.813 433.035 302.381 434.805 302.498 436.581C304.206 435.119 306.372 432.046 305.939 431.092C305.939 431.006 305.828 430.758 305.172 430.783L304.961 430.882C304.487 430.927 304.048 431.153 303.736 431.514Z" fill="#45BD43"/>
<path d="M299.254 435.317L284.249 436.99C283.939 437.024 283.651 437.167 283.435 437.394C283.22 437.621 283.092 437.916 283.073 438.228L281.526 450.989C281.452 452.228 284.002 453.467 284.15 453.467C293.423 453.331 313.194 451.534 319.693 450.667C326.193 449.8 326.181 443.234 323.407 443.035C311.151 441.995 306.174 438.997 301.928 436.073C301.168 435.484 300.209 435.213 299.254 435.317Z" fill="#45BD43"/>
<g opacity="0.2">
<path d="M281.724 418.592L280.189 407.38L295.862 400.875L296.852 416.04L281.724 418.592Z" fill="black"/>
</g>
<path d="M185.432 262.651C193.306 276.564 231.585 309.023 250.056 336.762C255.095 344.344 267.264 396.564 278.963 411.357L297.533 409.647C304.256 396.564 288.384 328.92 288.384 328.92C282.801 299.186 249.685 266.107 213.176 232.595C207.048 226.983 197.936 225.285 188.763 230.749C187.054 231.74 177.806 249.147 185.432 262.651Z" fill="#263238"/>
<path d="M193.715 240.896C192.254 241.23 190.731 240.313 189.617 238.418C188.455 236.439 187.792 234.206 187.685 231.913L183.637 237.166C183.341 237.703 182.91 238.153 182.387 238.473C181.863 238.792 181.266 238.97 180.654 238.988C180.35 238.953 180.058 238.855 179.795 238.699C179.533 238.543 179.306 238.333 179.131 238.083C178.837 237.625 178.637 237.113 178.544 236.577C178.45 236.041 178.465 235.492 178.586 234.961C179.068 232.983 180.285 231.263 181.989 230.152C183.693 229.04 185.757 228.62 187.76 228.977L187.611 228.445L188.849 228.11L188.923 228.407L189.196 228.06V228.581C190.127 228.409 191.088 228.486 191.979 228.806C192.871 229.126 193.662 229.677 194.272 230.402C195.537 232.044 196.236 234.052 196.265 236.126C196.389 238.021 195.819 240.412 193.851 240.883L193.715 240.896ZM188.961 229.894V230.142C188.728 232.815 189.329 235.494 190.681 237.811C191.325 238.901 192.34 239.966 193.479 239.706C194.804 239.384 195.039 237.352 194.965 236.2C194.946 234.409 194.351 232.671 193.269 231.244C192.843 230.747 192.31 230.353 191.709 230.093C191.108 229.834 190.456 229.715 189.802 229.745L189.01 229.944L188.961 229.894ZM184.9 230.204C184.105 230.383 183.35 230.706 182.672 231.158C181.945 231.608 181.316 232.198 180.818 232.894C180.321 233.589 179.967 234.376 179.775 235.209C179.607 235.944 179.726 236.715 180.109 237.365C180.187 237.478 180.288 237.575 180.405 237.647C180.522 237.72 180.653 237.767 180.79 237.786C181.483 237.86 182.127 237.142 182.684 236.423L187.425 230.229H187.203L187.141 230.006C186.388 229.929 185.628 229.996 184.9 230.204Z" fill="#45BD43"/>
<path d="M179.341 257.658L178.314 257.014C183.384 248.879 186.29 239.582 186.757 230.006H187.995C187.519 239.812 184.54 249.332 179.341 257.658Z" fill="#45BD43"/>
<path d="M203.383 257.423L202.145 257.571C200.845 247.233 195.77 237.741 187.896 230.922L188.688 230.006C196.8 237.016 202.035 246.782 203.383 257.423Z" fill="#45BD43"/>
<path d="M96.222 375.874L95.6649 374.796C109.283 367.673 144.739 347.541 144.739 339.996C144.739 324.522 159.868 222.807 160.016 221.792L161.254 221.965C161.106 222.993 146.002 324.621 146.002 339.996C146.002 349.783 98.2895 374.821 96.222 375.874Z" fill="white"/>
<path d="M143.972 146.578C145.606 141.622 155.844 140.68 159.075 144.595C173.003 161.506 188.465 177.241 188.465 177.241L227.277 169.2L233.578 174.664C233.578 174.664 193.504 194.746 185.606 194.759C177.138 194.759 156.735 175.072 145.99 163.266C139.02 155.523 143.972 146.578 143.972 146.578Z" fill="#E29471"/>
<path d="M227.277 169.2L233.467 166.45C235.381 165.596 237.552 165.52 239.521 166.239L247.085 169.002C247.522 169.162 247.888 169.473 248.115 169.88C248.343 170.288 248.416 170.763 248.323 171.219L247.233 176.51C247.143 176.98 246.882 177.4 246.5 177.688C246.118 177.977 245.642 178.113 245.166 178.071L236.809 177.389L227.636 176.064C227.636 176.064 224.9 170.253 227.277 169.2Z" fill="#E29471"/>
<path d="M231.04 177.922L228.304 179.892L223.501 169.696L226.509 168.283L231.04 177.922Z" fill="#263238"/>
<path d="M222.205 169.218L226.685 167.105C226.982 166.965 227.322 166.949 227.631 167.06C227.94 167.171 228.192 167.401 228.332 167.698L228.728 168.539L222.009 171.707L221.613 170.867C221.473 170.569 221.457 170.229 221.568 169.919C221.679 169.61 221.908 169.358 222.205 169.218Z" fill="#263238"/>
<path d="M160.313 101.159C161.725 96.4515 166.181 93.2427 170.787 91.5578C175.392 89.8729 180.357 89.3154 185.036 87.8411C188.144 86.85 191.56 84.8925 191.87 81.6466C191.897 80.6399 191.687 79.641 191.257 78.7306C190.827 77.8202 190.189 77.0239 189.394 76.406C187.796 75.1858 186.016 74.2242 184.12 73.5565C182.753 72.8515 181.223 72.5263 179.688 72.615C178.927 72.6935 178.226 73.0637 177.732 73.6481C177.238 74.2325 176.99 74.9856 177.039 75.7494C173.077 73.2716 167.135 73.9282 163.421 76.7777C160.945 78.698 159.298 82.4519 161.168 84.9916C159.013 83.9014 155.497 85.1403 154.284 87.2217C153.709 88.2838 153.541 89.5197 153.812 90.6969C154.084 91.8742 154.775 92.9117 155.757 93.6144C152.477 93.4781 149.444 97.071 150.682 100.106C151.92 103.142 159.36 104.294 160.313 101.159Z" fill="#263238"/>
<path d="M191.325 114.205C190.653 116.159 190.123 118.159 189.74 120.189H188.639C183.687 120.003 181.483 118.293 180.505 116.472C180.044 115.559 179.811 114.547 179.824 113.524C179.813 112.947 179.884 112.371 180.035 111.814C182.585 113.474 187.178 113.994 189.641 114.168C190.669 114.205 191.325 114.205 191.325 114.205Z" fill="#263238"/>
<path d="M189.641 114.118L189.121 115.878C184.479 115.692 181.235 114.936 179.824 113.474C179.813 112.897 179.884 112.321 180.035 111.764C182.585 113.425 187.178 113.945 189.641 114.118Z" fill="white"/>
<path d="M188.639 120.164C183.687 119.978 181.483 118.269 180.505 116.447C182.375 116.537 184.215 116.956 185.94 117.686C187.077 118.208 188.022 119.075 188.639 120.164Z" fill="#DE5753"/>
</g>
<defs>
<clipPath id="clip0_100_10181">
<rect width="619" height="462" fill="white" transform="translate(-113)"/>
</clipPath>
</defs>
</svg>
