<svg width="393" height="342" viewBox="0 0 393 342" fill="none" xmlns="http://www.w3.org/2000/svg">
<g clip-path="url(#clip0_100_11732)">
<path d="M426 300.19H-32V300.419H426V300.19Z" fill="#EBEBEB"/>
<path d="M380.108 314.943H349.771V315.172H380.108V314.943Z" fill="#EBEBEB"/>
<path d="M244.119 315.062H236.159V315.291H244.119V315.062Z" fill="#EBEBEB"/>
<path d="M348.845 306.434H292.566V306.663H348.845V306.434Z" fill="#EBEBEB"/>
<path d="M174.228 311.844H162.604V312.073H174.228V311.844Z" fill="#EBEBEB"/>
<path d="M154.452 311.844H120.716V312.073H154.452V311.844Z" fill="#EBEBEB"/>
<path d="M39.3473 307.974H16.0535V308.203H39.3473V307.974Z" fill="#EBEBEB"/>
<path d="M113.443 307.974H44.8433V308.203H113.443V307.974Z" fill="#EBEBEB"/>
<path d="M185.092 259.297H8.22145C6.83585 259.294 5.50784 258.741 4.52894 257.76C3.55004 256.778 3.00024 255.448 3.00024 254.061V5.1896C3.01231 3.81062 3.56743 2.49209 4.54503 1.5204C5.52263 0.54872 6.84375 0.00236226 8.22145 0H185.092C186.479 0 187.809 0.55159 188.79 1.53343C189.771 2.51526 190.322 3.84692 190.322 5.23544V254.061C190.322 255.45 189.771 256.781 188.79 257.763C187.809 258.745 186.479 259.297 185.092 259.297ZM8.22145 0.183379C6.89659 0.185808 5.62683 0.714317 4.69087 1.6529C3.75491 2.59149 3.22924 3.86345 3.22924 5.1896V254.061C3.22924 255.387 3.75491 256.659 4.69087 257.598C5.62683 258.536 6.89659 259.065 8.22145 259.067H185.092C186.418 259.065 187.688 258.537 188.626 257.598C189.563 256.66 190.091 255.388 190.093 254.061V5.1896C190.091 3.86261 189.563 2.59067 188.626 1.65234C187.688 0.714019 186.418 0.185802 185.092 0.183379H8.22145Z" fill="#EBEBEB"/>
<path d="M383.232 259.297H206.352C204.966 259.294 203.637 258.742 202.657 257.76C201.676 256.779 201.124 255.449 201.122 254.061V5.1896C201.137 3.80978 201.694 2.49126 202.673 1.51983C203.652 0.5484 204.974 0.0023365 206.352 0H383.232C384.608 0.00477195 385.927 0.552196 386.903 1.52362C387.878 2.49505 388.432 3.8122 388.444 5.1896V254.061C388.444 255.446 387.896 256.775 386.919 257.757C385.942 258.738 384.616 259.292 383.232 259.297ZM206.352 0.183379C205.027 0.185802 203.756 0.714019 202.819 1.65234C201.881 2.59067 201.353 3.86261 201.351 5.1896V254.061C201.353 255.388 201.881 256.66 202.819 257.598C203.756 258.537 205.027 259.065 206.352 259.067H383.232C384.558 259.065 385.828 258.537 386.766 257.598C387.703 256.66 388.231 255.388 388.233 254.061V5.1896C388.231 3.86261 387.703 2.59067 386.766 1.65234C385.828 0.714019 384.558 0.185802 383.232 0.183379H206.352Z" fill="#EBEBEB"/>
<path d="M142.755 178.344L365.379 178.344V15.5687L142.755 15.5687L142.755 178.344Z" fill="#E6E6E6"/>
<path d="M132.917 178.344L363.098 178.344V15.5687L132.917 15.5687L132.917 178.344Z" fill="#F0F0F0"/>
<path d="M349.312 164.554V29.3589L146.684 29.3589V164.554H349.312Z" fill="#FAFAFA"/>
<path d="M300.059 164.545L253.929 29.3589H209.879L256.009 164.545H300.059Z" fill="white"/>
<path d="M246.546 164.545L200.417 29.3589H183.251L229.38 164.545H246.546Z" fill="white"/>
<path d="M148.443 164.554V29.3589H146.693V164.554H148.443Z" fill="#E6E6E6"/>
<path d="M27.1462 134.068H105.757L105.757 22.5096L27.1462 22.5096L27.1462 134.068Z" fill="#E0E0E0"/>
<path d="M21.5861 134.068H102.615L102.615 22.5096L21.5861 22.5096L21.5861 134.068Z" fill="#F5F5F5"/>
<path d="M94.6187 125.266V31.2935L29.5826 31.2935V125.266H94.6187Z" fill="white"/>
<path d="M57.7038 212.168C63.5387 197.755 77.4161 192.391 82.216 183.286C88.4906 171.367 88.4539 153.478 83.132 147.033C78.4787 141.421 63.0899 179.344 61.3587 183.58C56.609 195.012 53.6372 207.106 52.5467 219.439C52.675 210.536 52.7941 202.358 52.8948 196.049C53.2246 175.474 53.6276 168.855 53.8108 166.819C54.452 165.82 55.2123 164.664 55.6428 164.068C59.3709 158.815 67.6333 152.552 71.7644 144.915C77.7917 133.756 76.8207 120.406 72.5888 115.436C68.1645 110.238 60.3511 122.524 56.2016 134.691C52.0521 146.858 53.82 158.53 52.6567 168.616C52.4185 170.597 52.162 178.124 51.933 188.577C50.6689 177.336 48.1591 169.808 43.515 162.785C37.7991 154.157 32.8619 143.649 28.1537 145.006C23.4454 146.363 25.9736 160.272 29.7017 170.028C33.0359 178.72 49.3865 187.394 51.7956 194.381C51.5117 208.538 51.2552 226.472 51.0811 243.187C49.7896 234.559 50.6781 233.834 45.3836 220.622C42.2417 212.774 29.3719 203.091 27.8147 208.482C26.2575 213.874 28.6117 224.07 33.4756 231.221C37.4053 236.979 46.1164 236.97 48.1316 240.546C48.5988 241.381 50.156 244.58 51.0445 246.414C50.8338 266.806 50.7422 284.814 50.843 290.948L51.6857 291.012C51.6857 289.426 51.7498 279.092 51.9147 265.339C54.0307 258.004 68.2745 253.777 72.6713 246.176C77.2513 238.226 80.5855 228.947 78.6069 222.74C76.9581 217.56 63.9509 224.574 58.7206 233.184C55.2123 238.905 53.0689 245.002 52.0704 253.199C52.1895 243.847 52.3269 233.798 52.4551 224.317C53.5269 221.933 55.9359 216.487 57.7038 212.168Z" fill="#E6E6E6"/>
<path d="M66.067 300.19H36.1321C35.341 300.189 34.5745 299.915 33.962 299.414C33.3495 298.912 32.9286 298.215 32.7704 297.439L30.6453 286.987H71.563L69.4379 297.467C69.2707 298.237 68.8452 298.928 68.232 299.423C67.6189 299.918 66.8549 300.189 66.067 300.19Z" fill="#F0F0F0"/>
<path d="M72.4241 291.012H29.7843C29.2904 291.01 28.8142 290.828 28.446 290.498C28.0779 290.168 27.8435 289.715 27.7874 289.224L26.8714 281.476C26.8406 281.195 26.8692 280.91 26.9554 280.641C27.0416 280.371 27.1835 280.123 27.3718 279.912C27.5601 279.701 27.7907 279.532 28.0485 279.416C28.3063 279.3 28.5856 279.24 28.8683 279.239H73.2393C73.5224 279.238 73.8024 279.298 74.0609 279.413C74.3194 279.529 74.5506 279.698 74.7392 279.909C74.9278 280.12 75.0696 280.369 75.1553 280.639C75.2409 280.909 75.2685 281.194 75.2362 281.476L74.3202 289.224C74.2667 289.698 74.0467 290.138 73.6995 290.466C73.3524 290.793 72.9004 290.986 72.4241 291.012Z" fill="#F0F0F0"/>
<path d="M339.557 293.506H348.708V194.949H339.557V293.506Z" fill="#F0F0F0"/>
<path d="M153.087 300.071H345.2V293.506H153.087V300.071Z" fill="#F0F0F0"/>
<path d="M339.566 194.949H149.579V293.506H339.566V194.949Z" fill="#F5F5F5"/>
<path d="M341.719 194.949H351.172V188.733H341.719V194.949Z" fill="#E0E0E0"/>
<path d="M341.719 188.733H147.115V194.949H341.719V188.733Z" fill="#EBEBEB"/>
<path d="M325.927 237.475H163.209C161.265 237.475 159.401 236.702 158.027 235.326C156.653 233.951 155.881 232.085 155.881 230.139V209.051C155.881 207.106 156.653 205.24 158.027 203.864C159.401 202.489 161.265 201.716 163.209 201.716H325.927C327.871 201.716 329.735 202.489 331.109 203.864C332.483 205.24 333.255 207.106 333.255 209.051V230.139C333.255 232.085 332.483 233.951 331.109 235.326C329.735 236.702 327.871 237.475 325.927 237.475ZM163.209 203.55C161.751 203.55 160.353 204.129 159.323 205.161C158.292 206.193 157.713 207.592 157.713 209.051V230.139C157.713 231.598 158.292 232.998 159.323 234.029C160.353 235.061 161.751 235.641 163.209 235.641H325.927C327.385 235.641 328.783 235.061 329.813 234.029C330.844 232.998 331.423 231.598 331.423 230.139V209.051C331.423 207.592 330.844 206.193 329.813 205.161C328.783 204.129 327.385 203.55 325.927 203.55H163.209Z" fill="white"/>
<path d="M325.927 281.66H163.209C161.265 281.66 159.401 280.887 158.027 279.511C156.653 278.136 155.881 276.27 155.881 274.324V253.236C155.881 251.291 156.653 249.425 158.027 248.049C159.401 246.674 161.265 245.901 163.209 245.901H325.927C327.871 245.901 329.735 246.674 331.109 248.049C332.483 249.425 333.255 251.291 333.255 253.236V274.324C333.255 276.27 332.483 278.136 331.109 279.511C329.735 280.887 327.871 281.66 325.927 281.66ZM163.209 247.661C161.751 247.661 160.353 248.241 159.323 249.273C158.292 250.304 157.713 251.704 157.713 253.163V274.251C157.713 275.71 158.292 277.109 159.323 278.141C160.353 279.173 161.751 279.752 163.209 279.752H325.927C327.385 279.752 328.783 279.173 329.813 278.141C330.844 277.109 331.423 275.71 331.423 274.251V253.163C331.423 251.704 330.844 250.304 329.813 249.273C328.783 248.241 327.385 247.661 325.927 247.661H163.209Z" fill="white"/>
<path d="M288.948 222.804H200.188C199.558 222.804 198.953 222.554 198.507 222.109C198.061 221.664 197.809 221.06 197.806 220.43V218.687C197.809 218.057 198.061 217.453 198.507 217.008C198.953 216.563 199.558 216.313 200.188 216.313H288.948C289.578 216.313 290.183 216.563 290.629 217.008C291.075 217.453 291.327 218.057 291.33 218.687V220.43C291.327 221.06 291.075 221.664 290.629 222.109C290.183 222.554 289.578 222.804 288.948 222.804ZM200.188 218.22C200.044 218.222 199.907 218.28 199.805 218.38C199.703 218.481 199.643 218.617 199.638 218.761V220.503C199.643 220.646 199.703 220.783 199.805 220.883C199.907 220.984 200.044 221.042 200.188 221.044H288.948C289.092 221.044 289.231 220.987 289.334 220.886C289.436 220.785 289.495 220.647 289.498 220.503V218.761C289.495 218.617 289.436 218.479 289.334 218.378C289.231 218.277 289.092 218.22 288.948 218.22H200.188Z" fill="white"/>
<path d="M288.948 266.989H200.188C199.558 266.989 198.953 266.739 198.507 266.294C198.061 265.849 197.809 265.245 197.806 264.614V262.872C197.809 262.242 198.061 261.638 198.507 261.193C198.953 260.747 199.558 260.498 200.188 260.498H288.948C289.578 260.498 290.183 260.747 290.629 261.193C291.075 261.638 291.327 262.242 291.33 262.872V264.614C291.327 265.245 291.075 265.849 290.629 266.294C290.183 266.739 289.578 266.989 288.948 266.989ZM200.188 262.331C200.044 262.334 199.907 262.391 199.805 262.492C199.703 262.592 199.643 262.729 199.638 262.872V264.614C199.643 264.758 199.703 264.894 199.805 264.995C199.907 265.096 200.044 265.153 200.188 265.155H288.948C289.092 265.155 289.231 265.099 289.334 264.998C289.436 264.896 289.495 264.759 289.498 264.614V262.872C289.495 262.728 289.436 262.59 289.334 262.489C289.231 262.388 289.092 262.331 288.948 262.331H200.188Z" fill="white"/>
<path d="M192.42 341.597C290.507 341.597 370.023 336.95 370.023 331.217C370.023 325.485 290.507 320.838 192.42 320.838C94.3323 320.838 14.8167 325.485 14.8167 331.217C14.8167 336.95 94.3323 341.597 192.42 341.597Z" fill="#F5F5F5"/>
<path d="M311.308 103.382L310.959 108.78L311.873 108.839L312.222 103.441L311.308 103.382Z" fill="#45BD43"/>
<path d="M312.698 81.4566L311.555 99.1982L312.469 99.2573L313.612 81.5156L312.698 81.4566Z" fill="#45BD43"/>
<path d="M301.827 55.6919H194.151C191.386 55.7405 188.739 56.8184 186.725 58.7155C184.711 60.6125 183.476 63.1924 183.26 65.952L169.346 280.963C169.244 282.281 169.417 283.605 169.855 284.853C170.292 286.1 170.983 287.243 171.885 288.209C172.787 289.174 173.879 289.942 175.093 290.462C176.307 290.982 177.616 291.245 178.936 291.232H286.594C289.364 291.186 292.017 290.108 294.036 288.209C296.055 286.311 297.294 283.727 297.513 280.963L311.417 65.952C311.519 64.6344 311.346 63.3101 310.909 62.0632C310.472 60.8163 309.78 59.6741 308.878 58.7092C307.976 57.7442 306.883 56.9777 305.67 56.4582C304.456 55.9388 303.147 55.6778 301.827 55.6919Z" fill="#45BD43"/>
<path opacity="0.7" d="M298.41 55.6919H194.151C191.386 55.7405 188.739 56.8184 186.725 58.7155C184.711 60.6125 183.476 63.1924 183.26 65.952L169.346 280.963C169.244 282.281 169.417 283.605 169.855 284.853C170.292 286.1 170.983 287.243 171.885 288.209C172.787 289.174 173.879 289.942 175.093 290.462C176.307 290.982 177.616 291.245 178.936 291.232H283.177C285.947 291.186 288.6 290.108 290.619 288.209C292.638 286.311 293.878 283.727 294.096 280.963L308.001 65.952C308.103 64.6344 307.929 63.3101 307.492 62.0632C307.055 60.8163 306.363 59.6741 305.461 58.7092C304.559 57.7442 303.467 56.9777 302.253 56.4582C301.039 55.9388 299.73 55.6778 298.41 55.6919Z" fill="white"/>
<path d="M289.617 275.342H174.933C174.504 275.343 174.08 275.256 173.686 275.086C173.292 274.916 172.938 274.667 172.644 274.354C172.35 274.041 172.124 273.671 171.979 273.267C171.834 272.863 171.773 272.433 171.801 272.005L184.387 77.4407C184.438 76.646 184.789 75.9006 185.369 75.3558C185.949 74.8109 186.715 74.5073 187.51 74.5066H302.202C302.632 74.507 303.057 74.5954 303.45 74.7665C303.844 74.9375 304.199 75.1876 304.492 75.5012C304.786 75.8148 305.012 76.1853 305.157 76.5899C305.302 76.9944 305.363 77.4244 305.335 77.8532L292.749 272.408C292.698 273.204 292.345 273.951 291.763 274.496C291.181 275.041 290.414 275.344 289.617 275.342Z" fill="white"/>
<path d="M264.133 68.1434H222.446C222.232 68.1453 222.019 68.1026 221.822 68.0179C221.625 67.9333 221.448 67.8086 221.301 67.6517C221.155 67.4948 221.043 67.3091 220.972 67.1065C220.901 66.9039 220.873 66.6887 220.889 66.4747C220.931 66.03 221.134 65.616 221.46 65.3104C221.785 65.0049 222.211 64.8287 222.657 64.8151H264.344C264.558 64.8119 264.771 64.8535 264.968 64.9371C265.165 65.0207 265.342 65.1446 265.489 65.3008C265.635 65.4569 265.748 65.642 265.819 65.8442C265.89 66.0463 265.918 66.261 265.901 66.4747C265.861 66.921 265.659 67.3372 265.334 67.6447C265.008 67.9521 264.581 68.1295 264.133 68.1434Z" fill="white"/>
<path d="M231.597 283.512C231.53 284.61 231.05 285.643 230.253 286.402C229.456 287.161 228.401 287.589 227.301 287.601C226.773 287.606 226.25 287.502 225.763 287.295C225.277 287.088 224.838 286.784 224.475 286.4C224.111 286.016 223.831 285.562 223.65 285.065C223.47 284.568 223.394 284.039 223.427 283.512C223.496 282.414 223.977 281.384 224.774 280.627C225.571 279.87 226.624 279.443 227.723 279.431C228.25 279.425 228.774 279.528 229.26 279.734C229.746 279.939 230.185 280.243 230.548 280.626C230.912 281.009 231.193 281.463 231.373 281.959C231.554 282.456 231.63 282.984 231.597 283.512Z" fill="white"/>
<path opacity="0.2" d="M277.122 128.365H179.193L172.964 224.547H277.122C279.84 224.542 282.446 223.459 284.368 221.537C286.291 219.614 287.374 217.007 287.382 214.287V138.661C287.384 135.935 286.305 133.318 284.381 131.388C282.457 129.457 279.847 128.37 277.122 128.365Z" fill="#45BD43"/>
<path d="M267.999 119.847H147.985C142.319 119.847 137.726 124.444 137.726 130.116V205.768C137.726 211.44 142.319 216.038 147.985 216.038H267.999C273.665 216.038 278.258 211.44 278.258 205.768V130.116C278.258 124.444 273.665 119.847 267.999 119.847Z" fill="#45BD43"/>
<path d="M134.446 118.737C134.206 118.736 133.976 118.641 133.805 118.471L132.156 116.83C131.984 116.658 131.887 116.423 131.887 116.179C131.887 115.935 131.984 115.701 132.156 115.528C132.329 115.356 132.563 115.259 132.807 115.259C133.051 115.259 133.285 115.356 133.457 115.528L135.097 117.179C135.267 117.35 135.363 117.583 135.363 117.825C135.363 118.067 135.267 118.3 135.097 118.471C135.011 118.556 134.91 118.624 134.798 118.669C134.686 118.715 134.567 118.738 134.446 118.737Z" fill="#45BD43"/>
<path d="M131.964 124.495H129.646C129.404 124.495 129.171 124.399 128.999 124.227C128.827 124.055 128.73 123.822 128.73 123.579C128.73 123.335 128.827 123.102 128.999 122.93C129.171 122.758 129.404 122.662 129.646 122.662H131.964C132.207 122.662 132.44 122.758 132.612 122.93C132.783 123.102 132.88 123.335 132.88 123.579C132.88 123.822 132.783 124.055 132.612 124.227C132.44 124.399 132.207 124.495 131.964 124.495Z" fill="#45BD43"/>
<path d="M140.281 116.262C140.049 116.262 139.825 116.175 139.655 116.016C139.485 115.858 139.382 115.641 139.365 115.409L139.2 113.089C139.192 112.969 139.207 112.848 139.245 112.733C139.283 112.619 139.343 112.513 139.423 112.422C139.502 112.33 139.598 112.256 139.706 112.202C139.814 112.148 139.932 112.116 140.052 112.108C140.294 112.093 140.532 112.174 140.713 112.334C140.895 112.494 141.007 112.719 141.023 112.961L141.197 115.281C141.206 115.401 141.191 115.522 141.153 115.637C141.115 115.751 141.054 115.857 140.975 115.948C140.896 116.04 140.8 116.114 140.691 116.168C140.583 116.222 140.466 116.254 140.345 116.262H140.281Z" fill="#45BD43"/>
<path d="M218.242 206.145L255.093 243.022V206.145H218.242Z" fill="#45BD43"/>
<path d="M228.345 189.989L226.513 182.204C226.051 180.158 226.051 178.034 226.513 175.988L229.06 164.903C230.102 160.176 229.538 155.236 227.457 150.866C225.376 146.496 221.898 142.946 217.573 140.779C217.654 140.575 217.725 140.367 217.784 140.156C217.934 139.483 217.951 138.788 217.833 138.109C217.715 137.43 217.464 136.781 217.095 136.199C216.726 135.617 216.247 135.114 215.684 134.717C215.121 134.321 214.485 134.039 213.813 133.889C213.141 133.738 212.446 133.722 211.768 133.84C211.09 133.958 210.442 134.209 209.86 134.578C209.279 134.947 208.776 135.428 208.38 135.991C207.984 136.555 207.703 137.191 207.552 137.864C207.507 138.078 207.479 138.296 207.47 138.515C202.635 138.628 197.977 140.353 194.232 143.415C190.488 146.478 187.871 150.703 186.796 155.422L184.313 166.516C183.857 168.559 182.95 170.473 181.657 172.119L176.72 178.399C176.237 179.015 175.917 179.744 175.792 180.517C175.666 181.29 175.737 182.082 176 182.819C176.262 183.557 176.707 184.216 177.292 184.736C177.878 185.255 178.585 185.618 179.349 185.789L222.859 195.545C223.619 195.71 224.409 195.679 225.155 195.457C225.901 195.235 226.578 194.828 227.126 194.274C227.673 193.72 228.071 193.037 228.284 192.288C228.498 191.539 228.519 190.748 228.345 189.989Z" fill="white"/>
<path d="M195.489 192.391C195.158 192.318 194.814 192.328 194.487 192.42C194.161 192.511 193.862 192.682 193.618 192.917C193.373 193.152 193.19 193.443 193.085 193.766C192.98 194.088 192.956 194.432 193.015 194.766C193.265 196.239 193.947 197.605 194.975 198.689C196.003 199.772 197.33 200.526 198.787 200.852C200.244 201.178 201.764 201.064 203.156 200.522C204.547 199.98 205.746 199.036 206.6 197.81C206.795 197.534 206.919 197.214 206.961 196.878C207.003 196.542 206.962 196.201 206.842 195.885C206.722 195.569 206.525 195.287 206.271 195.065C206.016 194.843 205.711 194.686 205.381 194.61L195.489 192.391Z" fill="white"/>
<path d="M162.073 176.96C161.846 176.962 161.622 176.906 161.422 176.799C161.222 176.692 161.052 176.536 160.928 176.346C156.601 169.858 155.027 161.915 156.551 154.265C158.074 146.615 162.571 139.884 169.053 135.553C169.356 135.351 169.728 135.278 170.085 135.351C170.442 135.423 170.756 135.634 170.958 135.938C171.16 136.242 171.232 136.614 171.16 136.972C171.088 137.329 170.877 137.644 170.573 137.845C164.706 141.779 160.639 147.883 159.264 154.817C157.89 161.75 159.322 168.946 163.245 174.824C163.448 175.126 163.522 175.497 163.452 175.855C163.381 176.212 163.172 176.527 162.87 176.731C162.633 176.886 162.356 176.966 162.073 176.96Z" fill="white"/>
<path d="M167.889 173.054C167.664 173.053 167.443 172.996 167.245 172.889C167.047 172.782 166.878 172.627 166.754 172.44C163.461 167.497 162.262 161.449 163.422 155.622C164.581 149.796 168.003 144.669 172.937 141.366C173.087 141.266 173.256 141.196 173.433 141.16C173.61 141.125 173.793 141.125 173.97 141.161C174.148 141.196 174.316 141.266 174.467 141.366C174.617 141.467 174.746 141.596 174.846 141.747C174.947 141.897 175.017 142.066 175.052 142.244C175.087 142.421 175.087 142.604 175.052 142.781C175.017 142.959 174.947 143.128 174.846 143.278C174.746 143.429 174.617 143.558 174.466 143.658C170.136 146.551 167.131 151.047 166.112 156.157C165.094 161.268 166.145 166.574 169.034 170.908C169.237 171.211 169.311 171.582 169.241 171.94C169.17 172.297 168.961 172.612 168.659 172.816C168.431 172.968 168.164 173.051 167.889 173.054Z" fill="white"/>
<path d="M173.715 169.157C173.491 169.158 173.269 169.104 173.071 168.998C172.873 168.892 172.704 168.739 172.579 168.552C171.457 166.87 170.677 164.983 170.284 162.998C169.891 161.014 169.893 158.972 170.29 156.989C170.686 155.005 171.469 153.12 172.595 151.439C173.72 149.759 175.165 148.318 176.848 147.198C177.15 147.009 177.514 146.946 177.862 147.021C178.21 147.096 178.516 147.304 178.714 147.6C178.912 147.896 178.988 148.257 178.925 148.608C178.863 148.959 178.666 149.272 178.378 149.481C176.998 150.403 175.813 151.588 174.89 152.969C173.968 154.349 173.327 155.898 173.003 157.527C172.678 159.156 172.678 160.833 173.002 162.462C173.325 164.09 173.966 165.64 174.888 167.021C175.088 167.324 175.161 167.694 175.09 168.051C175.02 168.408 174.812 168.723 174.512 168.928C174.276 169.083 173.998 169.163 173.715 169.157Z" fill="white"/>
<path d="M241.289 196.297C240.981 196.296 240.683 196.193 240.442 196.002C240.201 195.812 240.03 195.546 239.957 195.248C239.884 194.949 239.914 194.634 240.04 194.354C240.167 194.074 240.384 193.844 240.657 193.702C246.932 190.457 251.664 184.849 253.811 178.113C255.958 171.377 255.345 164.063 252.107 157.779C252.008 157.617 251.944 157.437 251.918 157.25C251.892 157.063 251.905 156.872 251.956 156.69C252.007 156.508 252.095 156.339 252.215 156.192C252.334 156.046 252.482 155.925 252.65 155.839C252.818 155.752 253.002 155.701 253.19 155.689C253.379 155.677 253.568 155.704 253.745 155.768C253.923 155.832 254.086 155.932 254.223 156.062C254.36 156.192 254.469 156.348 254.543 156.522C256.312 159.956 257.388 163.705 257.709 167.555C258.03 171.406 257.59 175.281 256.415 178.961C255.239 182.641 253.351 186.053 250.858 189.003C248.365 191.952 245.315 194.381 241.884 196.15C241.698 196.241 241.495 196.291 241.289 196.297Z" fill="white"/>
<path d="M238.073 190.071C237.766 190.071 237.468 189.967 237.227 189.777C236.985 189.586 236.815 189.321 236.742 189.022C236.669 188.723 236.698 188.409 236.825 188.128C236.952 187.848 237.169 187.619 237.441 187.477C239.733 186.294 241.77 184.67 243.435 182.699C245.1 180.727 246.36 178.447 247.144 175.987C247.927 173.528 248.219 170.938 248.001 168.366C247.784 165.794 247.062 163.29 245.878 160.997C245.71 160.672 245.678 160.294 245.789 159.946C245.9 159.598 246.144 159.308 246.468 159.14C246.793 158.972 247.17 158.94 247.518 159.051C247.866 159.162 248.156 159.407 248.323 159.732C249.673 162.345 250.496 165.2 250.743 168.132C250.99 171.064 250.658 174.016 249.764 176.819C248.871 179.622 247.435 182.222 245.537 184.469C243.64 186.716 241.318 188.567 238.705 189.916C238.511 190.02 238.294 190.073 238.073 190.071Z" fill="white"/>
<path d="M234.858 183.846C234.552 183.841 234.256 183.734 234.017 183.543C233.778 183.351 233.609 183.086 233.537 182.788C233.464 182.49 233.493 182.177 233.618 181.897C233.742 181.617 233.956 181.387 234.226 181.242C235.701 180.482 237.012 179.439 238.083 178.171C239.154 176.904 239.966 175.438 240.47 173.856C240.975 172.275 241.163 170.609 241.023 168.955C240.884 167.3 240.42 165.69 239.658 164.215C239.49 163.89 239.458 163.512 239.569 163.164C239.68 162.816 239.925 162.526 240.249 162.358C240.573 162.191 240.951 162.159 241.299 162.27C241.647 162.38 241.936 162.625 242.104 162.95C243.968 166.581 244.317 170.804 243.073 174.693C241.83 178.581 239.096 181.817 235.472 183.69C235.282 183.788 235.072 183.841 234.858 183.846Z" fill="white"/>
<path d="M154.278 64.9618H147.279C147.098 64.9665 146.924 65.0353 146.788 65.1561C146.652 65.277 146.563 65.442 146.538 65.622L145.072 79.5954C145.061 79.6796 145.069 79.7651 145.094 79.8461C145.12 79.9271 145.162 80.0017 145.218 80.0651C145.274 80.1285 145.344 80.179 145.421 80.2135C145.499 80.2479 145.583 80.2654 145.667 80.2647H152.666C152.849 80.2597 153.024 80.1896 153.16 80.067C153.296 79.9443 153.384 79.7771 153.408 79.5954L154.873 65.622C154.884 65.5382 154.876 65.4532 154.851 65.3726C154.826 65.2921 154.783 65.2179 154.727 65.1553C154.67 65.0926 154.601 65.0429 154.523 65.0095C154.446 64.9761 154.362 64.9598 154.278 64.9618Z" fill="#45BD43"/>
<path opacity="0.4" d="M153.646 64.9618H147.279C147.098 64.9664 146.924 65.0352 146.788 65.1561C146.652 65.2769 146.563 65.4419 146.538 65.6219L145.072 79.5953C145.061 79.6795 145.069 79.765 145.094 79.846C145.12 79.927 145.162 80.0017 145.218 80.065C145.274 80.1284 145.344 80.179 145.421 80.2134C145.499 80.2478 145.583 80.2653 145.667 80.2647H152.079C152.261 80.2594 152.435 80.1889 152.57 80.0661C152.704 79.9433 152.79 79.7762 152.812 79.5953L154.278 65.6219C154.291 65.5346 154.284 65.4454 154.257 65.3613C154.23 65.2771 154.185 65.2002 154.124 65.1365C154.063 65.0727 153.988 65.0238 153.905 64.9935C153.822 64.9632 153.733 64.9524 153.646 64.9618Z" fill="white"/>
<path d="M119.204 323.341C120.12 323.341 121.036 323.204 121.357 322.782C121.435 322.669 121.476 322.535 121.476 322.397C121.476 322.26 121.435 322.125 121.357 322.012C121.223 321.807 121.017 321.659 120.78 321.599C119.534 321.26 117.006 322.745 116.896 322.81C116.867 322.828 116.845 322.854 116.832 322.885C116.819 322.916 116.815 322.951 116.823 322.984C116.829 323.02 116.847 323.054 116.873 323.08C116.899 323.106 116.933 323.124 116.969 323.131C117.707 323.264 118.455 323.334 119.204 323.341ZM120.322 321.902C120.434 321.887 120.548 321.887 120.661 321.902C120.806 321.937 120.933 322.026 121.018 322.15C121.146 322.37 121.109 322.48 121.018 322.535C120.697 323.021 118.819 323.03 117.436 322.837C118.325 322.333 119.306 322.014 120.322 321.902Z" fill="#45BD43"/>
<path d="M116.951 323.13H117.024C117.94 322.727 119.607 321.122 119.433 320.279C119.433 320.086 119.241 319.839 118.755 319.793C118.583 319.774 118.409 319.79 118.244 319.841C118.079 319.891 117.925 319.975 117.793 320.086C116.877 320.866 116.777 322.837 116.767 322.947C116.766 322.979 116.773 323.011 116.788 323.04C116.802 323.069 116.823 323.094 116.85 323.112C116.881 323.128 116.916 323.134 116.951 323.13ZM118.636 320.123H118.737C119.057 320.123 119.085 320.279 119.085 320.316C119.195 320.82 118.041 322.085 117.152 322.635C117.208 321.794 117.529 320.991 118.068 320.343C118.227 320.207 118.427 320.129 118.636 320.123Z" fill="#45BD43"/>
<path d="M116.2 305.765H108.78V322.956H116.2V305.765Z" fill="#FF8B7B"/>
<path d="M54.9741 314.759L62.3846 315.566L67.2119 298.879L59.8014 298.072L54.9741 314.759Z" fill="#FF8B7B"/>
<path d="M65.8287 317.244C66.7447 317.482 67.6607 317.583 68.0729 317.244C68.1736 317.15 68.242 317.027 68.2684 316.892C68.2947 316.757 68.2776 316.617 68.2195 316.492C68.1818 316.378 68.1219 316.272 68.0433 316.181C67.9647 316.089 67.869 316.015 67.7615 315.96C66.6165 315.328 63.7769 316.125 63.6578 316.153C63.6229 316.162 63.5918 316.182 63.5688 316.21C63.5458 316.238 63.5321 316.273 63.5295 316.309C63.5295 316.345 63.5398 316.381 63.5593 316.412C63.5787 316.443 63.6065 316.467 63.6395 316.483C64.3463 316.799 65.0787 317.053 65.8287 317.244ZM67.276 316.144C67.3872 316.171 67.4948 316.211 67.5966 316.263C67.7323 316.328 67.8375 316.443 67.8897 316.584C67.963 316.831 67.8897 316.923 67.8897 316.978C67.45 317.354 65.6089 316.905 64.299 316.373C65.2675 316.106 66.2788 316.032 67.276 316.153V316.144Z" fill="#45BD43"/>
<path d="M63.6761 316.501H63.7494C64.6654 316.327 66.7722 315.208 66.8088 314.365C66.8088 314.163 66.7355 313.888 66.2684 313.723C66.1038 313.664 65.9291 313.638 65.7544 313.648C65.5798 313.657 65.4088 313.701 65.2516 313.778C64.1707 314.301 63.5662 316.19 63.5387 316.263C63.5234 316.289 63.5154 316.319 63.5154 316.35C63.5154 316.381 63.5234 316.411 63.5387 316.437C63.5542 316.459 63.575 316.476 63.5991 316.487C63.6231 316.498 63.6496 316.503 63.6761 316.501ZM66.0577 314.035H66.1676C66.4699 314.145 66.4607 314.273 66.4607 314.31C66.4607 314.823 64.9951 315.749 63.9875 316.052C64.2412 315.259 64.742 314.568 65.4165 314.081C65.6177 313.988 65.8455 313.972 66.0577 314.035Z" fill="#45BD43"/>
<path d="M62.7785 314.878L54.6719 312.55C54.5326 312.508 54.383 312.516 54.2492 312.573C54.1154 312.63 54.0056 312.732 53.9391 312.861L50.9529 318.794C50.8832 318.944 50.8473 319.107 50.8479 319.273C50.8485 319.439 50.8855 319.602 50.9564 319.752C51.0272 319.901 51.1301 320.034 51.2577 320.139C51.3853 320.244 51.5346 320.32 51.6949 320.361C54.5345 321.122 55.9543 321.361 59.5175 322.379C61.7067 323.011 66.1677 324.533 69.1996 325.404C72.2316 326.275 73.3491 323.424 72.1766 322.8C66.9188 320.004 65.2333 317.748 63.841 315.658C63.5913 315.279 63.2143 315.003 62.7785 314.878Z" fill="#263238"/>
<path d="M116.117 322.095H108.02C107.874 322.093 107.733 322.144 107.622 322.238C107.511 322.333 107.437 322.464 107.415 322.608L106.234 329.164C106.207 329.327 106.216 329.495 106.261 329.654C106.305 329.814 106.383 329.962 106.491 330.089C106.598 330.215 106.731 330.317 106.881 330.386C107.031 330.456 107.195 330.493 107.36 330.493C110.282 330.438 114.496 330.264 118.169 330.264C122.465 330.264 124.81 330.502 129.848 330.502C132.889 330.502 133.604 327.422 132.312 327.137C126.459 325.872 123.079 325.735 117.931 322.635C117.384 322.299 116.759 322.113 116.117 322.095Z" fill="#263238"/>
<path opacity="0.2" d="M116.2 305.765H108.78V314.631H116.2V305.765Z" fill="black"/>
<path opacity="0.2" d="M59.8016 298.081L67.212 298.879L64.5281 308.139L57.3101 306.681L59.8016 298.081Z" fill="black"/>
<path d="M103.999 134.783C103.999 134.783 99.904 190.842 96.24 212.095C92.2005 235.375 68.6959 306.654 68.6959 306.654L55.2307 304.188C55.2307 304.188 72.2042 237.255 74.082 214.204C76.1247 189.191 78.5796 137.634 78.5796 137.634L103.999 134.783Z" fill="#45BD43"/>
<path opacity="0.3" d="M97.1009 158.072C97.8337 154.991 99.5191 158.87 101.479 165.59C99.9955 182.223 98.0627 201.487 96.2124 212.104C95.8002 214.479 95.1773 217.358 94.3804 220.622C95.0857 196.893 95.1132 166.406 97.1009 158.072Z" fill="black"/>
<path d="M117.986 133.261C117.986 133.261 123.363 189.613 123.546 212.251C123.738 235.806 118.893 312.916 118.893 312.916H106.316C106.316 312.916 102.542 237.181 100.976 214.048C99.2626 188.834 92.0537 136.113 92.0537 136.113L117.986 133.261Z" fill="#45BD43"/>
<path d="M71.5081 302.115C71.563 302.115 69.3921 307.002 69.3921 307.002L54.2415 304.252L55.1575 299.713L71.5081 302.115Z" fill="#263238"/>
<path d="M121.091 307.901C121.146 307.901 120.606 313.127 120.606 313.127H105.327L104.704 308.469L121.091 307.901Z" fill="#263238"/>
<path d="M78.9459 83.0336C77.9383 84.9866 76.8299 87.0404 75.8223 89.0668L72.7445 95.1732C71.7461 97.2087 70.766 99.2534 69.8225 101.298C68.879 103.343 67.9905 105.378 67.2302 107.414L67.1569 104.205C67.6924 105.852 68.3349 107.464 69.0805 109.027C69.4378 109.834 69.8958 110.605 70.2897 111.402C70.6835 112.2 71.2057 112.961 71.6728 113.713C72.6447 115.267 73.6965 116.77 74.8239 118.215C75.3918 118.939 75.9597 119.682 76.5643 120.379C77.1688 121.075 77.8283 121.8 78.3963 122.396L78.5795 122.597C79.0015 123.061 79.2447 123.66 79.2656 124.287C79.2865 124.914 79.0837 125.528 78.6935 126.019C78.3033 126.51 77.7512 126.846 77.1362 126.967C76.5211 127.087 75.8832 126.985 75.3368 126.678C74.39 126.144 73.4726 125.559 72.5888 124.926C71.6728 124.321 70.8667 123.689 70.0423 123.019C68.392 121.664 66.8429 120.19 65.4074 118.609C63.942 117.002 62.6094 115.279 61.4228 113.456C60.2035 111.599 59.1433 109.642 58.2534 107.606C57.8614 106.742 57.7932 105.766 58.0611 104.856L58.1893 104.425C58.8855 102.032 59.6641 99.7119 60.5251 97.438C61.3861 95.1641 62.3021 92.936 63.2731 90.7447C64.2441 88.5533 65.2608 86.3894 66.3325 84.2531C67.4043 82.1167 68.4851 80.0262 69.7217 77.8899C70.4051 76.6672 71.5429 75.7639 72.8879 75.3762C74.2329 74.9884 75.6764 75.1477 76.9048 75.8192C78.1332 76.4908 79.0472 77.6204 79.4482 78.9627C79.8493 80.305 79.705 81.7514 79.0466 82.9878L78.9459 83.0336Z" fill="#FF8B7B"/>
<path d="M84.2036 79.7694C84.57 86.7653 76.6375 99.6109 76.6375 99.6109L60.3052 91.4414C62.29 85.6469 65.3617 80.2849 69.3553 75.6434C77.9931 66.0894 83.8647 73.3512 84.2036 79.7694Z" fill="#263238"/>
<path d="M73.1384 125.366L76.4269 130.868L83.2694 126.485C82.0743 124.341 80.2026 122.655 77.9474 121.69C77.4259 121.523 76.8621 121.549 76.3579 121.762C75.8538 121.976 75.4428 122.363 75.1994 122.854L73.1384 125.366Z" fill="#FF8B7B"/>
<path d="M79.1656 133.215L82.3441 132.619C82.6117 132.57 82.8668 132.468 83.0948 132.319C83.3227 132.17 83.519 131.978 83.6723 131.753C83.8256 131.528 83.9328 131.274 83.9879 131.008C84.0429 130.741 84.0446 130.466 83.9929 130.199L83.2693 126.531L76.4268 130.914L76.8848 132.023C77.0721 132.452 77.4005 132.805 77.8153 133.021C78.2302 133.238 78.7066 133.307 79.1656 133.215Z" fill="#FF8B7B"/>
<path d="M98.4659 44.616C98.53 45.212 98.9056 45.6796 99.2903 45.6429C99.675 45.6063 99.9315 45.102 99.8582 44.506C99.7849 43.91 99.4185 43.4424 99.0338 43.4699C98.6491 43.4974 98.3926 44.0109 98.4659 44.616Z" fill="#263238"/>
<path d="M98.8506 45.6794C99.777 47.4603 100.932 49.1124 102.286 50.594C101.37 51.6667 99.5376 51.355 99.5376 51.355L98.8506 45.6794Z" fill="#FF5652"/>
<path d="M95.9011 41.4527C95.9487 41.4598 95.9973 41.456 96.0433 41.4417C96.0893 41.4275 96.1314 41.403 96.1667 41.3701C96.4843 41.0725 96.87 40.8574 97.2901 40.7439C97.7102 40.6304 98.1517 40.6219 98.5758 40.7192C98.6191 40.733 98.6647 40.7378 98.71 40.7331C98.7552 40.7285 98.7989 40.7145 98.8385 40.6921C98.8781 40.6697 98.9126 40.6394 98.9399 40.603C98.9672 40.5667 98.9867 40.525 98.9971 40.4808C99.0201 40.3897 99.0072 40.2932 98.9612 40.2113C98.9152 40.1294 98.8395 40.0683 98.7498 40.0407C98.2143 39.9127 97.6556 39.9177 97.1224 40.0551C96.5892 40.1925 96.0976 40.4583 95.6904 40.8292C95.6563 40.8617 95.6292 40.9008 95.6106 40.9442C95.5921 40.9875 95.5825 41.0342 95.5825 41.0813C95.5825 41.1285 95.5921 41.1751 95.6106 41.2185C95.6292 41.2618 95.6563 41.3009 95.6904 41.3335C95.7158 41.3664 95.7475 41.3939 95.7837 41.4144C95.8199 41.4349 95.8598 41.4479 95.9011 41.4527Z" fill="#263238"/>
<path d="M79.9993 51.2542C81.7488 56.5629 84.0755 66.3462 80.7595 70.2704C80.7595 70.2704 82.9396 75.6159 92.979 74.7632C104.035 73.8463 97.559 68.8493 97.559 68.8493C91.3485 67.9324 90.9271 63.4488 91.4401 59.1669L79.9993 51.2542Z" fill="#FF8B7B"/>
<path d="M78.3871 72.2052C77.3521 70.5457 76.1979 68.6477 78.1581 67.9417C80.3107 67.1623 92.4019 65.897 96.7071 66.9606C101.012 68.0242 100.133 71.5451 100.133 71.5451L78.3871 72.2052Z" fill="#45BD43"/>
<path d="M113.791 74.4424C115.366 75.891 117.07 77.4956 118.764 78.9626C120.459 80.4296 122.172 81.9333 123.894 83.382C125.616 84.8307 127.375 86.1969 129.143 87.5264C130.911 88.8559 132.706 90.0662 134.501 91.1939L130.837 90.8455C132.36 90.439 133.801 89.772 135.097 88.8742C136.611 87.8149 138.016 86.6079 139.292 85.2708C140.667 83.8623 141.955 82.3711 143.148 80.8056C143.762 80.0079 144.376 79.201 144.98 78.3666C145.585 77.5323 146.134 76.6521 146.638 75.8819L146.739 75.7352C147.087 75.2033 147.614 74.8143 148.225 74.6393C148.835 74.4642 149.488 74.5147 150.065 74.7815C150.641 75.0483 151.103 75.5137 151.365 76.0928C151.627 76.6718 151.673 77.3259 151.493 77.9357C151.145 79.1277 150.779 80.1454 150.357 81.209C149.936 82.2726 149.496 83.3179 149.002 84.3448C147.999 86.4395 146.825 88.4482 145.493 90.3504C144.095 92.3676 142.466 94.2139 140.638 95.8517C138.616 97.6589 136.269 99.0652 133.723 99.9961C133.176 100.189 132.597 100.271 132.018 100.238C131.439 100.205 130.873 100.057 130.352 99.8035L130.05 99.6477C127.775 98.5288 125.567 97.2798 123.436 95.9068C121.357 94.5589 119.341 93.1561 117.4 91.6524C115.458 90.1487 113.58 88.6266 111.748 87.0679C109.916 85.5092 108.157 83.8772 106.371 82.0525C105.42 81.0602 104.891 79.738 104.893 78.3632C104.895 76.9885 105.429 75.668 106.383 74.6789C107.337 73.6898 108.637 73.1088 110.009 73.0579C111.381 73.0069 112.72 73.49 113.745 74.4057L113.791 74.4424Z" fill="#FF8B7B"/>
<path d="M108.194 69.6838C108.194 69.6838 117.427 78.6509 118.499 134.114C103.733 137.699 89.5258 139.019 78.5521 137.625C78.03 130.666 77.2514 106.515 70.1982 81.0532C69.8952 79.9808 69.8182 78.857 69.9722 77.7532C70.1261 76.6495 70.5076 75.5898 71.0925 74.6414C71.6773 73.693 72.4527 72.8767 73.3694 72.2443C74.2862 71.6118 75.3243 71.177 76.4178 70.9674C77.8193 70.6923 79.294 70.4448 80.7596 70.2522C86.3274 69.455 91.9366 68.9805 97.5591 68.8311C101.12 68.8601 104.674 69.1451 108.194 69.6838Z" fill="#263238"/>
<path d="M101.031 79.3478C101.947 86.2887 113.855 99.6294 113.855 99.6294L127.989 84.9592C123.79 80.547 119.251 76.4726 114.413 72.7737C104.054 65.026 100.206 72.9112 101.031 79.3478Z" fill="#263238"/>
<path d="M150.577 80.3747L155.304 76.0378L149.643 70.2156C147.77 71.8116 146.481 73.9856 145.979 76.3954C145.923 76.9463 146.069 77.4987 146.389 77.9504C146.709 78.402 147.181 78.7226 147.719 78.8527L150.577 80.3747Z" fill="#FF8B7B"/>
<path d="M157.044 72.8837L155.826 69.8854C155.723 69.6282 155.569 69.3943 155.374 69.1975C155.179 69.0008 154.946 68.8453 154.69 68.7401C154.434 68.6349 154.159 68.5823 153.882 68.5853C153.605 68.5883 153.332 68.647 153.078 68.7577L149.606 70.2155L155.267 76.0378L156.256 75.3684C156.653 75.1083 156.948 74.7191 157.092 74.2664C157.236 73.8137 157.219 73.3253 157.044 72.8837Z" fill="#FF8B7B"/>
<path d="M78.5886 44.9276C79.9168 52.2627 80.3198 56.6088 84.4418 60.1021C90.6432 65.3559 99.1986 61.2666 100.014 53.7756C100.783 47.0273 98.4841 36.1621 91.0279 33.7965C83.5716 31.431 77.2604 37.5925 78.5886 44.9276Z" fill="#FF8B7B"/>
<path d="M93.034 47.5683C95.608 48.1551 97.614 45.1752 97.8888 44.3317C96.6339 44.4509 94.408 43.8091 93.9683 43.2406C95.3423 43.3598 96.6705 41.6636 96.8354 41.0126C95.3776 40.7308 94.0866 39.8923 93.2355 38.6745C95.4614 38.6287 98.1361 34.7044 95.6904 31.1927C93.2447 27.681 83.0221 30.6242 81.584 28.1211C79.4406 29.3681 81.3458 31.0276 81.3458 31.0276C81.3458 31.0276 66.8822 33.7783 73.5507 39.3622C68.6592 39.8023 67.9722 45.5879 72.0484 48.5311C76.1246 51.4743 76.3353 53.4181 74.714 53.1797C75.3644 54.4267 78.2681 54.5917 78.433 53.3814C79.12 55.9212 81.0985 59.3595 85.6602 58.8002C90.2219 58.2409 94.692 51.8502 93.034 47.5683Z" fill="#263238"/>
<path d="M74.8148 38.5095C71.3706 38.9863 69.8042 37.0425 70.6653 35.3279C66.3967 37.5101 71.0592 42.3329 74.8148 38.5095Z" fill="#263238"/>
<path d="M89.4707 46.4496C90.0634 47.9863 91.1119 49.3045 92.4751 50.2272C94.3071 51.4375 95.9651 50.2272 95.6537 48.3934C95.3697 46.7064 94.0781 44.0382 92.1729 43.5614C91.7783 43.4318 91.3549 43.4177 90.9526 43.5208C90.5503 43.6238 90.1857 43.8398 89.9018 44.1432C89.618 44.4466 89.4266 44.8249 89.3502 45.2335C89.2738 45.6421 89.3156 46.064 89.4707 46.4496Z" fill="#FF8B7B"/>
<path d="M322.29 304.884C315.512 288.875 312.773 270.042 320.532 270.822C328.492 271.592 327.557 299.979 328.849 303.096C326.367 305.233 322.29 304.884 322.29 304.884Z" fill="#45BD43"/>
<path d="M324.489 274.508C322.822 280.614 321.054 290.049 319.707 298.044C320.477 300.336 321.347 302.629 322.29 304.884C322.29 304.884 326.357 305.233 328.858 303.096C327.832 300.639 328.199 282.448 324.489 274.508Z" fill="#263238"/>
<path d="M324.525 301.95C322.4 267.934 328.189 236.402 343.432 237.823C356.512 239.052 337.441 296.32 337.807 302.922C331.817 305.251 324.525 301.95 324.525 301.95Z" fill="#45BD43"/>
<path d="M334.4 301.73C336.791 277.277 349.679 248.743 355.211 258.279C362.237 270.382 344.219 299.209 343.734 303.949C339.227 304.921 334.4 301.73 334.4 301.73Z" fill="#45BD43"/>
<path d="M331.991 246.909C330.443 246.652 329.582 245.69 329.683 244.324C329.792 242.783 331.057 241.252 332.229 241.234C332.797 241.234 333.75 241.527 333.988 243.645L333.072 243.755C332.962 242.747 332.66 242.151 332.256 242.151C331.634 242.151 330.681 243.287 330.608 244.388C330.544 245.305 331.057 245.818 332.147 246.001L331.991 246.909Z" fill="#45BD43"/>
<path d="M348.442 253.061C347.777 253.007 347.14 252.762 346.61 252.355L347.105 251.594C347.957 252.145 348.616 252.291 348.873 251.98C349.258 251.484 348.992 250.036 348.195 249.275C347.554 248.66 346.803 248.706 345.969 249.44L345.374 248.743C345.588 248.501 345.849 248.305 346.141 248.167C346.433 248.029 346.75 247.952 347.073 247.94C347.396 247.928 347.718 247.982 348.019 248.098C348.32 248.214 348.595 248.389 348.827 248.615C349.945 249.678 350.32 251.622 349.587 252.548C349.452 252.72 349.277 252.856 349.078 252.945C348.878 253.035 348.66 253.075 348.442 253.061Z" fill="#45BD43"/>
<path d="M325.991 266.907C325.436 266.946 324.886 266.782 324.444 266.444C324.003 266.106 323.699 265.619 323.591 265.073C323.225 263.578 323.957 261.735 325.075 261.35C325.597 261.176 326.605 261.158 327.484 263.111L326.641 263.496C326.229 262.579 325.725 262.084 325.368 262.221C324.782 262.423 324.223 263.789 324.452 264.853C324.663 265.77 325.368 266.081 326.412 265.916L326.55 266.833C326.366 266.874 326.179 266.898 325.991 266.907Z" fill="#45BD43"/>
<path d="M316.236 285.895C315.789 285.906 315.35 285.781 314.976 285.537C314.601 285.293 314.309 284.942 314.138 284.529C313.497 283.126 313.872 281.174 314.889 280.587C315.375 280.312 316.364 280.11 317.591 281.87L316.84 282.393C316.254 281.559 315.695 281.183 315.347 281.384C314.807 281.696 314.514 283.145 314.972 284.135C315.347 284.951 316.062 285.171 317.097 284.804L317.399 285.675C317.027 285.816 316.633 285.891 316.236 285.895Z" fill="#45BD43"/>
<path d="M332.467 258.215C332.372 258.214 332.28 258.185 332.202 258.132C331.633 257.817 331.197 257.306 330.974 256.694C330.752 256.083 330.759 255.411 330.992 254.804C331.258 254.195 331.712 253.687 332.288 253.357C332.863 253.027 333.53 252.891 334.189 252.97C334.757 253.071 336.085 253.575 336.177 256.014C336.177 256.136 336.129 256.252 336.043 256.338C335.957 256.424 335.841 256.472 335.719 256.472C335.598 256.472 335.481 256.424 335.395 256.338C335.309 256.252 335.261 256.136 335.261 256.014C335.206 254.74 334.776 253.969 334.024 253.832C333.569 253.795 333.113 253.902 332.72 254.137C332.328 254.372 332.019 254.724 331.835 255.143C331.505 255.922 331.835 256.711 332.751 257.362C332.831 257.418 332.892 257.498 332.923 257.591C332.954 257.683 332.955 257.784 332.925 257.877C332.896 257.97 332.837 258.051 332.758 258.109C332.679 258.166 332.583 258.197 332.486 258.196L332.467 258.215Z" fill="white"/>
<path d="M343.322 282.961C343.217 282.963 343.115 282.927 343.034 282.859C342.954 282.792 342.9 282.698 342.882 282.595C342.869 282.536 342.867 282.476 342.877 282.417C342.888 282.358 342.91 282.301 342.942 282.251C342.975 282.2 343.017 282.157 343.066 282.123C343.116 282.089 343.172 282.066 343.23 282.054C344.476 281.797 345.163 281.238 345.181 280.477C345.14 280.021 344.959 279.589 344.662 279.241C344.365 278.892 343.967 278.645 343.523 278.533C342.699 278.331 341.966 278.78 341.481 279.789C341.454 279.843 341.417 279.892 341.372 279.932C341.327 279.971 341.274 280.002 341.217 280.022C341.16 280.041 341.1 280.049 341.04 280.046C340.98 280.042 340.921 280.026 340.867 280C340.813 279.973 340.764 279.937 340.725 279.891C340.685 279.846 340.654 279.793 340.634 279.736C340.615 279.679 340.607 279.619 340.611 279.559C340.614 279.499 340.63 279.44 340.656 279.386C340.881 278.777 341.313 278.268 341.876 277.948C342.439 277.627 343.097 277.516 343.734 277.634C344.381 277.794 344.959 278.157 345.385 278.671C345.81 279.184 346.06 279.82 346.097 280.486C346.097 281.064 345.804 282.457 343.423 282.952L343.322 282.961Z" fill="white"/>
<path d="M356.201 275.232C355.67 275.232 354.964 274.92 354.177 273.738L354.937 273.224C355.505 274.068 356.045 274.453 356.402 274.26C356.952 273.967 357.318 272.518 356.833 271.509C356.485 270.693 355.77 270.455 354.726 270.794L354.442 269.923C355.926 269.437 357.135 269.923 357.676 271.152C358.289 272.564 357.877 274.508 356.842 275.067C356.647 275.178 356.425 275.235 356.201 275.232Z" fill="#45BD43"/>
<path d="M353.471 310.706C353.477 305.813 351.725 301.082 348.534 297.375C348.847 297.329 349.134 297.173 349.342 296.934C349.55 296.695 349.666 296.39 349.67 296.073C349.667 295.715 349.523 295.372 349.269 295.119C349.015 294.867 348.672 294.725 348.314 294.725H317.646C317.312 294.73 316.992 294.859 316.749 295.088C316.505 295.317 316.356 295.629 316.331 295.962C316.306 296.296 316.406 296.627 316.612 296.89C316.818 297.153 317.115 297.329 317.445 297.384C315.439 299.716 313.984 302.471 313.189 305.443C312.394 308.415 312.278 311.529 312.852 314.552C313.425 317.575 314.671 320.43 316.499 322.904C318.327 325.378 320.688 327.408 323.408 328.843C323.112 328.995 322.875 329.244 322.737 329.547C322.599 329.851 322.567 330.192 322.646 330.517C322.726 330.841 322.912 331.128 323.175 331.334C323.437 331.539 323.762 331.65 324.095 331.648H341.856C342.249 331.646 342.625 331.489 342.903 331.211C343.181 330.932 343.338 330.556 343.34 330.163C343.339 329.891 343.264 329.625 343.124 329.393C342.983 329.16 342.783 328.97 342.543 328.843C345.841 327.102 348.602 324.492 350.528 321.296C352.454 318.1 353.471 314.439 353.471 310.706Z" fill="#263238"/>
</g>
<defs>
<clipPath id="clip0_100_11732">
<rect width="458" height="342" fill="white" transform="translate(-32)"/>
</clipPath>
</defs>
</svg>
